<?xml version="1.0" encoding="UTF-8" standalone="no"?><svg xmlns="http://www.w3.org/2000/svg" xmlns:xlink="http://www.w3.org/1999/xlink" contentStyleType="text/css" height="366px" preserveAspectRatio="none" style="width:300px;height:366px;background:#FFFFFF;" version="1.1" viewBox="0 0 300 366" width="300px" zoomAndPan="magnify"><defs/><g><!--class ual.eda2.practica02.DijkstraEj2Test--><a href="DijkstraEj2Test.html" target="_top" title="DijkstraEj2Test.html" xlink:actuate="onRequest" xlink:href="DijkstraEj2Test.html" xlink:show="new" xlink:title="DijkstraEj2Test.html" xlink:type="simple"><g id="elem_ual.eda2.practica02.DijkstraEj2Test"><rect codeLine="5" fill="#F1F1F1" height="235.6367" id="ual.eda2.practica02.DijkstraEj2Test" rx="2.5" ry="2.5" style="stroke:#181818;stroke-width:0.5;" width="284" x="9" y="105.26"/><ellipse cx="95.75" cy="124.3928" fill="#ADD1B2" rx="11" ry="11" style="stroke:#181818;stroke-width:1.0;"/><path d="M98.2231,130.5359 Q97.6421,130.8347 97.0029,130.9841 Q96.3638,131.1335 95.6582,131.1335 Q93.1514,131.1335 91.8315,129.4817 Q90.5117,127.8298 90.5117,124.7087 Q90.5117,121.5793 91.8315,119.9275 Q93.1514,118.2756 95.6582,118.2756 Q96.3638,118.2756 97.0112,118.425 Q97.6587,118.5745 98.2231,118.8733 L98.2231,121.5959 Q97.5923,121.0149 96.9988,120.7451 Q96.4053,120.4753 95.7744,120.4753 Q94.4297,120.4753 93.7449,121.542 Q93.0601,122.6086 93.0601,124.7087 Q93.0601,126.8005 93.7449,127.8672 Q94.4297,128.9338 95.7744,128.9338 Q96.4053,128.9338 96.9988,128.6641 Q97.5923,128.3943 98.2231,127.8132 Z " fill="#000000"/><text fill="#000000" font-family="sans-serif" font-size="14" lengthAdjust="spacing" textLength="102" x="116.25" y="123.7952">DijkstraEj2Test</text><text fill="#000000" font-family="sans-serif" font-size="10" lengthAdjust="spacing" textLength="96" x="119.25" y="136.4163">ual.eda2.practica02</text><line style="stroke:#181818;stroke-width:0.5;" x1="10" x2="292" y1="143.5256" y2="143.5256"/><polygon fill="none" points="20,153.2698,16,159.2698,24,159.2698" style="stroke:#1963A0;stroke-width:1.0;"/><text fill="#000000" font-family="sans-serif" font-size="14" lengthAdjust="spacing" textLength="169" x="29" y="161.0608">directorioEntrada: String</text><line style="stroke:#181818;stroke-width:0.5;" x1="10" x2="292" y1="168.0139" y2="168.0139"/><ellipse cx="20" cy="181.758" fill="#84BE84" rx="3" ry="3" style="stroke:#038048;stroke-width:1.0;"/><text fill="#000000" font-family="sans-serif" font-size="14" lengthAdjust="spacing" textLength="177" x="29" y="185.5491">loadGraphEdaLand(): void</text><ellipse cx="20" cy="198.2463" fill="#84BE84" rx="3" ry="3" style="stroke:#038048;stroke-width:1.0;"/><text fill="#000000" font-family="sans-serif" font-size="14" lengthAdjust="spacing" textLength="215" x="29" y="202.0373">loadGraphEdaLandLarge(): void</text><polygon fill="#4177AF" points="20,210.7346,16,216.7346,24,216.7346" style="stroke:#1963A0;stroke-width:1.0;"/><text fill="#000000" font-family="sans-serif" font-size="14" lengthAdjust="spacing" textLength="212" x="29" y="218.5256">testDijkstraSimpleGraph(): void</text><polygon fill="#4177AF" points="20,227.2229,16,233.2229,24,233.2229" style="stroke:#1963A0;stroke-width:1.0;"/><text fill="#000000" font-family="sans-serif" font-size="14" lengthAdjust="spacing" textLength="258" x="29" y="235.0139">testDijkstraDisconnectedGraph(): void</text><polygon fill="#4177AF" points="20,243.7112,16,249.7112,24,249.7112" style="stroke:#1963A0;stroke-width:1.0;"/><text fill="#000000" font-family="sans-serif" font-size="14" lengthAdjust="spacing" textLength="197" x="29" y="251.5022">testDijkstraWithCycles(): void</text><polygon fill="#4177AF" points="20,260.1995,16,266.1995,24,266.1995" style="stroke:#1963A0;stroke-width:1.0;"/><text fill="#000000" font-family="sans-serif" font-size="14" lengthAdjust="spacing" textLength="160" x="29" y="267.9905">testSimpleGraph(): void</text><polygon fill="#4177AF" points="20,276.6877,16,282.6877,24,282.6877" style="stroke:#1963A0;stroke-width:1.0;"/><text fill="#000000" font-family="sans-serif" font-size="14" lengthAdjust="spacing" textLength="206" x="29" y="284.4788">testDisconnectedGraph(): void</text><polygon fill="#4177AF" points="20,293.176,16,299.176,24,299.176" style="stroke:#1963A0;stroke-width:1.0;"/><text fill="#000000" font-family="sans-serif" font-size="14" lengthAdjust="spacing" textLength="187" x="29" y="300.967">testGraphWithCycles(): void</text><polygon fill="#4177AF" points="20,309.6643,16,315.6643,24,315.6643" style="stroke:#1963A0;stroke-width:1.0;"/><text fill="#000000" font-family="sans-serif" font-size="14" lengthAdjust="spacing" textLength="208" x="29" y="317.4553">testPerformanceMetrics(): void</text><polygon fill="#4177AF" points="20,326.1526,16,332.1526,24,332.1526" style="stroke:#1963A0;stroke-width:1.0;"/><text fill="#000000" font-family="sans-serif" font-size="14" lengthAdjust="spacing" textLength="121" x="29" y="333.9436">testNoPath(): void</text></g></a><!--class java.lang.Object--><g id="elem_java.lang.Object"><rect codeLine="19" fill="#F1F1F1" height="38.2656" id="java.lang.Object" rx="2.5" ry="2.5" style="stroke:#181818;stroke-width:0.5;" width="76" x="113" y="7"/><ellipse cx="128" cy="26.1328" fill="#ADD1B2" rx="11" ry="11" style="stroke:#181818;stroke-width:1.0;"/><path d="M130.4731,32.2759 Q129.8921,32.5747 129.2529,32.7241 Q128.6138,32.8735 127.9082,32.8735 Q125.4014,32.8735 124.0815,31.2217 Q122.7617,29.5698 122.7617,26.4487 Q122.7617,23.3193 124.0815,21.6675 Q125.4014,20.0156 127.9082,20.0156 Q128.6138,20.0156 129.2612,20.165 Q129.9087,20.3145 130.4731,20.6133 L130.4731,23.3359 Q129.8423,22.7549 129.2488,22.4851 Q128.6553,22.2153 128.0244,22.2153 Q126.6797,22.2153 125.9949,23.282 Q125.3101,24.3486 125.3101,26.4487 Q125.3101,28.5405 125.9949,29.6072 Q126.6797,30.6738 128.0244,30.6738 Q128.6553,30.6738 129.2488,30.4041 Q129.8423,30.1343 130.4731,29.5532 Z " fill="#000000"/><text fill="#000000" font-family="sans-serif" font-size="14" lengthAdjust="spacing" textLength="44" x="142" y="25.5352">Object</text><text fill="#000000" font-family="sans-serif" font-size="10" lengthAdjust="spacing" textLength="44" x="142" y="38.1563">java.lang</text></g><!--reverse link java.lang.Object to ual.eda2.practica02.DijkstraEj2Test--><g id="link_java.lang.Object_ual.eda2.practica02.DijkstraEj2Test"><path codeLine="21" d="M151,66.9 C151,78.38 151,91.53 151,105.2 " fill="none" id="java.lang.Object-backto-ual.eda2.practica02.DijkstraEj2Test" style="stroke:#181818;stroke-width:1.0;"/><polygon fill="none" points="144,66.98,151,46.98,158,66.98,144,66.98" style="stroke:#181818;stroke-width:1.0;"/></g><text fill="#888888" font-family="sans-serif" font-size="10" lengthAdjust="spacing" textLength="182" x="52" y="356.5647">UMLDoclet 2.1.0, PlantUML 1.2022.14</text><!--SRC=[ZP9FJm8n4CNlVee9YGb4QO1u8eIB42-W96WyA8Un7TYktNRJZYJuXyzkMP3e2hgzD7tpwxpNPW000Z5Op2ZaA6bAENfavy4wIoUn38bM19Jbl8Av9gD2MSs84nVbGfS6Gu1QB-XNwhOl-WETFWVsE4mxjnJuqUughVuB6a4AEoBtA5bBR7LgW04EwABK1HuUIef8E3Ep6RmL8JPhhRGd6L-YtT16K64NfkorNUoHC-DGNNdCaw724LfLRtHXwRGwJepGB-WNjkOOuIlHL6UveUBIt-101-ciZI59LS3lDIUNAsae7EOg-5RoAqh_cKt8pvtFq4eQK_nLUOIxTXFadqOVXmVbvYcDoRxDHufB50RjefYA_KbimMsJiWgzzsQpoWJjCf1byZ1tRhFTZKS35v_Cq15jqJg7IUpCKONJ9VcWdQqtFW40]--></g></svg>