<?xml version="1.0" encoding="UTF-8" standalone="no"?><svg xmlns="http://www.w3.org/2000/svg" xmlns:xlink="http://www.w3.org/1999/xlink" contentStyleType="text/css" height="259px" preserveAspectRatio="none" style="width:281px;height:259px;background:#FFFFFF;" version="1.1" viewBox="0 0 281 259" width="281px" zoomAndPan="magnify"><defs/><g><!--class ual.eda2.practica02.GraphTest--><a href="GraphTest.html" target="_top" title="GraphTest.html" xlink:actuate="onRequest" xlink:href="GraphTest.html" xlink:show="new" xlink:title="GraphTest.html" xlink:type="simple"><g id="elem_ual.eda2.practica02.GraphTest"><rect codeLine="5" fill="#F1F1F1" height="128.707" id="ual.eda2.practica02.GraphTest" rx="2.5" ry="2.5" style="stroke:#181818;stroke-width:0.5;" width="265" x="9" y="105.26"/><ellipse cx="89.25" cy="124.3928" fill="#ADD1B2" rx="11" ry="11" style="stroke:#181818;stroke-width:1.0;"/><path d="M91.7231,130.5359 Q91.1421,130.8347 90.5029,130.9841 Q89.8638,131.1335 89.1582,131.1335 Q86.6514,131.1335 85.3315,129.4817 Q84.0117,127.8298 84.0117,124.7087 Q84.0117,121.5793 85.3315,119.9275 Q86.6514,118.2756 89.1582,118.2756 Q89.8638,118.2756 90.5112,118.425 Q91.1587,118.5745 91.7231,118.8733 L91.7231,121.5959 Q91.0923,121.0149 90.4988,120.7451 Q89.9053,120.4753 89.2744,120.4753 Q87.9297,120.4753 87.2449,121.542 Q86.5601,122.6086 86.5601,124.7087 Q86.5601,126.8005 87.2449,127.8672 Q87.9297,128.9338 89.2744,128.9338 Q89.9053,128.9338 90.4988,128.6641 Q91.0923,128.3943 91.7231,127.8132 Z " fill="#000000"/><text fill="#000000" font-family="sans-serif" font-size="14" lengthAdjust="spacing" textLength="71" x="122.25" y="123.7952">GraphTest</text><text fill="#000000" font-family="sans-serif" font-size="10" lengthAdjust="spacing" textLength="96" x="109.75" y="136.4163">ual.eda2.practica02</text><line style="stroke:#181818;stroke-width:0.5;" x1="10" x2="273" y1="143.5256" y2="143.5256"/><polygon fill="#4177AF" points="20,153.2698,16,159.2698,24,159.2698" style="stroke:#1963A0;stroke-width:1.0;"/><text fill="#000000" font-family="sans-serif" font-size="14" lengthAdjust="spacing" textLength="239" x="29" y="161.0608">testAddEdgeAndGetVertices(): void</text><polygon fill="#4177AF" points="20,169.758,16,175.758,24,175.758" style="stroke:#1963A0;stroke-width:1.0;"/><text fill="#000000" font-family="sans-serif" font-size="14" lengthAdjust="spacing" textLength="150" x="29" y="177.5491">testAdyacentes(): void</text><polygon fill="#4177AF" points="20,186.2463,16,192.2463,24,192.2463" style="stroke:#1963A0;stroke-width:1.0;"/><text fill="#000000" font-family="sans-serif" font-size="14" lengthAdjust="spacing" textLength="104" x="29" y="194.0373">testPeso(): void</text><polygon fill="#4177AF" points="20,202.7346,16,208.7346,24,208.7346" style="stroke:#1963A0;stroke-width:1.0;"/><text fill="#000000" font-family="sans-serif" font-size="14" lengthAdjust="spacing" textLength="169" x="29" y="210.5256">testNoAdyacentes(): void</text><polygon fill="#4177AF" points="20,219.2229,16,225.2229,24,225.2229" style="stroke:#1963A0;stroke-width:1.0;"/><text fill="#000000" font-family="sans-serif" font-size="14" lengthAdjust="spacing" textLength="180" x="29" y="227.0139">testPesoInexistente(): void</text></g></a><!--class java.lang.Object--><g id="elem_java.lang.Object"><rect codeLine="13" fill="#F1F1F1" height="38.2656" id="java.lang.Object" rx="2.5" ry="2.5" style="stroke:#181818;stroke-width:0.5;" width="76" x="103.5" y="7"/><ellipse cx="118.5" cy="26.1328" fill="#ADD1B2" rx="11" ry="11" style="stroke:#181818;stroke-width:1.0;"/><path d="M120.9731,32.2759 Q120.3921,32.5747 119.7529,32.7241 Q119.1138,32.8735 118.4082,32.8735 Q115.9014,32.8735 114.5815,31.2217 Q113.2617,29.5698 113.2617,26.4487 Q113.2617,23.3193 114.5815,21.6675 Q115.9014,20.0156 118.4082,20.0156 Q119.1138,20.0156 119.7612,20.165 Q120.4087,20.3145 120.9731,20.6133 L120.9731,23.3359 Q120.3423,22.7549 119.7488,22.4851 Q119.1553,22.2153 118.5244,22.2153 Q117.1797,22.2153 116.4949,23.282 Q115.8101,24.3486 115.8101,26.4487 Q115.8101,28.5405 116.4949,29.6072 Q117.1797,30.6738 118.5244,30.6738 Q119.1553,30.6738 119.7488,30.4041 Q120.3423,30.1343 120.9731,29.5532 Z " fill="#000000"/><text fill="#000000" font-family="sans-serif" font-size="14" lengthAdjust="spacing" textLength="44" x="132.5" y="25.5352">Object</text><text fill="#000000" font-family="sans-serif" font-size="10" lengthAdjust="spacing" textLength="44" x="132.5" y="38.1563">java.lang</text></g><!--reverse link java.lang.Object to ual.eda2.practica02.GraphTest--><g id="link_java.lang.Object_ual.eda2.practica02.GraphTest"><path codeLine="15" d="M141.5,66.75 C141.5,78.61 141.5,91.92 141.5,104.91 " fill="none" id="java.lang.Object-backto-ual.eda2.practica02.GraphTest" style="stroke:#181818;stroke-width:1.0;"/><polygon fill="none" points="134.5,67.14,141.5,47.14,148.5,67.14,134.5,67.14" style="stroke:#181818;stroke-width:1.0;"/></g><text fill="#888888" font-family="sans-serif" font-size="10" lengthAdjust="spacing" textLength="182" x="42.5" y="249.635">UMLDoclet 2.1.0, PlantUML 1.2022.14</text><!--SRC=[ZPBRQiCm38RlznIYC6XXDMdOLIc5maOPx53OuQRhXMQhZOjZ1riBwqxFFYSjOGlPc6ziVVebsJy600Z4O36dKA2aMohG8piFrbawYcd8j2AWlE0Th3KP5Teq9yvSn3MN1aE0tYJeLngFJgTpZqLsHu4VxO4bqsSqWXIcel0eMKjCqXvWW0ukcdfOBfkpo3WtgnMyrIEhzSaHpvGwLnkQMJKdVY0VMr3e3yPGEgtQqbryhUNVyWiAhZjpxVvJUs7fHGUkL3z47zqktJnjINwtQ8ib2eDsKnlJH68lt3TfKvYy3uT_ctYONbtBmzgvQhk_kZnpqiHVa8gHI4vW4Njof71SaW_QsVxW2m00]--></g></svg>