<?xml version="1.0" encoding="UTF-8" standalone="no"?><svg xmlns="http://www.w3.org/2000/svg" xmlns:xlink="http://www.w3.org/1999/xlink" contentStyleType="text/css" height="709px" preserveAspectRatio="none" style="width:1168px;height:709px;background:#FFFFFF;" version="1.1" viewBox="0 0 1168 709" width="1168px" zoomAndPan="magnify"><defs/><g><!--cluster ual.eda2.practica02--><g id="cluster_ual.eda2.practica02"><path d="M8.5,6 L145.5,6 A3.75,3.75 0 0 1 148,8.5 L155,28.4883 L1158.5,28.4883 A2.5,2.5 0 0 1 1161,30.9883 L1161,681.24 A2.5,2.5 0 0 1 1158.5,683.74 L8.5,683.74 A2.5,2.5 0 0 1 6,681.24 L6,8.5 A2.5,2.5 0 0 1 8.5,6 " fill="none" style="stroke:#000000;stroke-width:1.5;"/><line style="stroke:#000000;stroke-width:1.5;" x1="6" x2="155" y1="28.4883" y2="28.4883"/><text fill="#000000" font-family="sans-serif" font-size="14" font-weight="bold" lengthAdjust="spacing" textLength="136" x="10" y="21.5352">ual.eda2.practica02</text></g><!--class ual.eda2.practica02.DijkstraEj8Test--><a href="DijkstraEj8Test.html" target="_top" title="DijkstraEj8Test.html" xlink:actuate="onRequest" xlink:href="DijkstraEj8Test.html" xlink:show="new" xlink:title="DijkstraEj8Test.html" xlink:type="simple"><g id="elem_ual.eda2.practica02.DijkstraEj8Test"><rect codeLine="3" fill="#F1F1F1" height="130.4414" id="ual.eda2.practica02.DijkstraEj8Test" rx="2.5" ry="2.5" style="stroke:#181818;stroke-width:0.5;" width="234" x="22" y="90.46"/><ellipse cx="83.75" cy="106.46" fill="#ADD1B2" rx="11" ry="11" style="stroke:#181818;stroke-width:1.0;"/><path d="M86.2231,112.6031 Q85.6421,112.9019 85.0029,113.0513 Q84.3638,113.2007 83.6582,113.2007 Q81.1514,113.2007 79.8315,111.5489 Q78.5117,109.897 78.5117,106.7759 Q78.5117,103.6465 79.8315,101.9947 Q81.1514,100.3428 83.6582,100.3428 Q84.3638,100.3428 85.0112,100.4922 Q85.6587,100.6416 86.2231,100.9405 L86.2231,103.6631 Q85.5923,103.0821 84.9988,102.8123 Q84.4053,102.5425 83.7744,102.5425 Q82.4297,102.5425 81.7449,103.6092 Q81.0601,104.6758 81.0601,106.7759 Q81.0601,108.8677 81.7449,109.9344 Q82.4297,111.001 83.7744,111.001 Q84.4053,111.001 84.9988,110.7312 Q85.5923,110.4615 86.2231,109.8804 Z " fill="#000000"/><text fill="#000000" font-family="sans-serif" font-size="14" lengthAdjust="spacing" textLength="102" x="104.25" y="111.751">DijkstraEj8Test</text><line style="stroke:#181818;stroke-width:0.5;" x1="23" x2="255" y1="122.46" y2="122.46"/><line style="stroke:#181818;stroke-width:0.5;" x1="23" x2="255" y1="130.46" y2="130.46"/><polygon fill="#4177AF" points="33,140.2041,29,146.2041,37,146.2041" style="stroke:#1963A0;stroke-width:1.0;"/><text fill="#000000" font-family="sans-serif" font-size="14" lengthAdjust="spacing" textLength="160" x="42" y="147.9952">testSimpleGraph(): void</text><polygon fill="#4177AF" points="33,156.6924,29,162.6924,37,162.6924" style="stroke:#1963A0;stroke-width:1.0;"/><text fill="#000000" font-family="sans-serif" font-size="14" lengthAdjust="spacing" textLength="206" x="42" y="164.4834">testDisconnectedGraph(): void</text><polygon fill="#4177AF" points="33,173.1807,29,179.1807,37,179.1807" style="stroke:#1963A0;stroke-width:1.0;"/><text fill="#000000" font-family="sans-serif" font-size="14" lengthAdjust="spacing" textLength="187" x="42" y="180.9717">testGraphWithCycles(): void</text><polygon fill="#4177AF" points="33,189.669,29,195.669,37,195.669" style="stroke:#1963A0;stroke-width:1.0;"/><text fill="#000000" font-family="sans-serif" font-size="14" lengthAdjust="spacing" textLength="208" x="42" y="197.46">testPerformanceMetrics(): void</text><polygon fill="#4177AF" points="33,206.1573,29,212.1573,37,212.1573" style="stroke:#1963A0;stroke-width:1.0;"/><text fill="#000000" font-family="sans-serif" font-size="14" lengthAdjust="spacing" textLength="121" x="42" y="213.9483">testNoPath(): void</text></g></a><!--class ual.eda2.practica02.DijkstraEj3Test--><a href="DijkstraEj3Test.html" target="_top" title="DijkstraEj3Test.html" xlink:actuate="onRequest" xlink:href="DijkstraEj3Test.html" xlink:show="new" xlink:title="DijkstraEj3Test.html" xlink:type="simple"><g id="elem_ual.eda2.practica02.DijkstraEj3Test"><rect codeLine="11" fill="#F1F1F1" height="130.4414" id="ual.eda2.practica02.DijkstraEj3Test" rx="2.5" ry="2.5" style="stroke:#181818;stroke-width:0.5;" width="234" x="291" y="90.46"/><ellipse cx="352.75" cy="106.46" fill="#ADD1B2" rx="11" ry="11" style="stroke:#181818;stroke-width:1.0;"/><path d="M355.2231,112.6031 Q354.6421,112.9019 354.0029,113.0513 Q353.3638,113.2007 352.6582,113.2007 Q350.1514,113.2007 348.8315,111.5489 Q347.5117,109.897 347.5117,106.7759 Q347.5117,103.6465 348.8315,101.9947 Q350.1514,100.3428 352.6582,100.3428 Q353.3638,100.3428 354.0112,100.4922 Q354.6587,100.6416 355.2231,100.9405 L355.2231,103.6631 Q354.5923,103.0821 353.9988,102.8123 Q353.4053,102.5425 352.7744,102.5425 Q351.4297,102.5425 350.7449,103.6092 Q350.0601,104.6758 350.0601,106.7759 Q350.0601,108.8677 350.7449,109.9344 Q351.4297,111.001 352.7744,111.001 Q353.4053,111.001 353.9988,110.7312 Q354.5923,110.4615 355.2231,109.8804 Z " fill="#000000"/><text fill="#000000" font-family="sans-serif" font-size="14" lengthAdjust="spacing" textLength="102" x="373.25" y="111.751">DijkstraEj3Test</text><line style="stroke:#181818;stroke-width:0.5;" x1="292" x2="524" y1="122.46" y2="122.46"/><line style="stroke:#181818;stroke-width:0.5;" x1="292" x2="524" y1="130.46" y2="130.46"/><polygon fill="#4177AF" points="302,140.2041,298,146.2041,306,146.2041" style="stroke:#1963A0;stroke-width:1.0;"/><text fill="#000000" font-family="sans-serif" font-size="14" lengthAdjust="spacing" textLength="160" x="311" y="147.9952">testSimpleGraph(): void</text><polygon fill="#4177AF" points="302,156.6924,298,162.6924,306,162.6924" style="stroke:#1963A0;stroke-width:1.0;"/><text fill="#000000" font-family="sans-serif" font-size="14" lengthAdjust="spacing" textLength="206" x="311" y="164.4834">testDisconnectedGraph(): void</text><polygon fill="#4177AF" points="302,173.1807,298,179.1807,306,179.1807" style="stroke:#1963A0;stroke-width:1.0;"/><text fill="#000000" font-family="sans-serif" font-size="14" lengthAdjust="spacing" textLength="187" x="311" y="180.9717">testGraphWithCycles(): void</text><polygon fill="#4177AF" points="302,189.669,298,195.669,306,195.669" style="stroke:#1963A0;stroke-width:1.0;"/><text fill="#000000" font-family="sans-serif" font-size="14" lengthAdjust="spacing" textLength="208" x="311" y="197.46">testPerformanceMetrics(): void</text><polygon fill="#4177AF" points="302,206.1573,298,212.1573,306,212.1573" style="stroke:#1963A0;stroke-width:1.0;"/><text fill="#000000" font-family="sans-serif" font-size="14" lengthAdjust="spacing" textLength="121" x="311" y="213.9483">testNoPath(): void</text></g></a><!--class ual.eda2.practica02.DijkstraEj2Test--><a href="DijkstraEj2Test.html" target="_top" title="DijkstraEj2Test.html" xlink:actuate="onRequest" xlink:href="DijkstraEj2Test.html" xlink:show="new" xlink:title="DijkstraEj2Test.html" xlink:type="simple"><g id="elem_ual.eda2.practica02.DijkstraEj2Test"><rect codeLine="19" fill="#F1F1F1" height="229.3711" id="ual.eda2.practica02.DijkstraEj2Test" rx="2.5" ry="2.5" style="stroke:#181818;stroke-width:0.5;" width="284" x="560" y="41"/><ellipse cx="646.75" cy="57" fill="#ADD1B2" rx="11" ry="11" style="stroke:#181818;stroke-width:1.0;"/><path d="M649.2231,63.1431 Q648.6421,63.4419 648.0029,63.5913 Q647.3638,63.7407 646.6582,63.7407 Q644.1514,63.7407 642.8315,62.0889 Q641.5117,60.437 641.5117,57.3159 Q641.5117,54.1865 642.8315,52.5347 Q644.1514,50.8828 646.6582,50.8828 Q647.3638,50.8828 648.0112,51.0322 Q648.6587,51.1816 649.2231,51.4805 L649.2231,54.2031 Q648.5923,53.6221 647.9988,53.3523 Q647.4053,53.0825 646.7744,53.0825 Q645.4297,53.0825 644.7449,54.1492 Q644.0601,55.2158 644.0601,57.3159 Q644.0601,59.4077 644.7449,60.4744 Q645.4297,61.541 646.7744,61.541 Q647.4053,61.541 647.9988,61.2712 Q648.5923,61.0015 649.2231,60.4204 Z " fill="#000000"/><text fill="#000000" font-family="sans-serif" font-size="14" lengthAdjust="spacing" textLength="102" x="667.25" y="62.291">DijkstraEj2Test</text><line style="stroke:#181818;stroke-width:0.5;" x1="561" x2="843" y1="73" y2="73"/><polygon fill="none" points="571,82.7441,567,88.7441,575,88.7441" style="stroke:#1963A0;stroke-width:1.0;"/><text fill="#000000" font-family="sans-serif" font-size="14" lengthAdjust="spacing" textLength="169" x="580" y="90.5352">directorioEntrada: String</text><line style="stroke:#181818;stroke-width:0.5;" x1="561" x2="843" y1="97.4883" y2="97.4883"/><ellipse cx="571" cy="111.2324" fill="#84BE84" rx="3" ry="3" style="stroke:#038048;stroke-width:1.0;"/><text fill="#000000" font-family="sans-serif" font-size="14" lengthAdjust="spacing" textLength="177" x="580" y="115.0234">loadGraphEdaLand(): void</text><ellipse cx="571" cy="127.7207" fill="#84BE84" rx="3" ry="3" style="stroke:#038048;stroke-width:1.0;"/><text fill="#000000" font-family="sans-serif" font-size="14" lengthAdjust="spacing" textLength="215" x="580" y="131.5117">loadGraphEdaLandLarge(): void</text><polygon fill="#4177AF" points="571,140.209,567,146.209,575,146.209" style="stroke:#1963A0;stroke-width:1.0;"/><text fill="#000000" font-family="sans-serif" font-size="14" lengthAdjust="spacing" textLength="212" x="580" y="148">testDijkstraSimpleGraph(): void</text><polygon fill="#4177AF" points="571,156.6973,567,162.6973,575,162.6973" style="stroke:#1963A0;stroke-width:1.0;"/><text fill="#000000" font-family="sans-serif" font-size="14" lengthAdjust="spacing" textLength="258" x="580" y="164.4883">testDijkstraDisconnectedGraph(): void</text><polygon fill="#4177AF" points="571,173.1855,567,179.1855,575,179.1855" style="stroke:#1963A0;stroke-width:1.0;"/><text fill="#000000" font-family="sans-serif" font-size="14" lengthAdjust="spacing" textLength="197" x="580" y="180.9766">testDijkstraWithCycles(): void</text><polygon fill="#4177AF" points="571,189.6738,567,195.6738,575,195.6738" style="stroke:#1963A0;stroke-width:1.0;"/><text fill="#000000" font-family="sans-serif" font-size="14" lengthAdjust="spacing" textLength="160" x="580" y="197.4648">testSimpleGraph(): void</text><polygon fill="#4177AF" points="571,206.1621,567,212.1621,575,212.1621" style="stroke:#1963A0;stroke-width:1.0;"/><text fill="#000000" font-family="sans-serif" font-size="14" lengthAdjust="spacing" textLength="206" x="580" y="213.9531">testDisconnectedGraph(): void</text><polygon fill="#4177AF" points="571,222.6504,567,228.6504,575,228.6504" style="stroke:#1963A0;stroke-width:1.0;"/><text fill="#000000" font-family="sans-serif" font-size="14" lengthAdjust="spacing" textLength="187" x="580" y="230.4414">testGraphWithCycles(): void</text><polygon fill="#4177AF" points="571,239.1387,567,245.1387,575,245.1387" style="stroke:#1963A0;stroke-width:1.0;"/><text fill="#000000" font-family="sans-serif" font-size="14" lengthAdjust="spacing" textLength="208" x="580" y="246.9297">testPerformanceMetrics(): void</text><polygon fill="#4177AF" points="571,255.627,567,261.627,575,261.627" style="stroke:#1963A0;stroke-width:1.0;"/><text fill="#000000" font-family="sans-serif" font-size="14" lengthAdjust="spacing" textLength="121" x="580" y="263.418">testNoPath(): void</text></g></a><!--class ual.eda2.practica02.GraphTest--><a href="GraphTest.html" target="_top" title="GraphTest.html" xlink:actuate="onRequest" xlink:href="GraphTest.html" xlink:show="new" xlink:title="GraphTest.html" xlink:type="simple"><g id="elem_ual.eda2.practica02.GraphTest"><rect codeLine="33" fill="#F1F1F1" height="130.4414" id="ual.eda2.practica02.GraphTest" rx="2.5" ry="2.5" style="stroke:#181818;stroke-width:0.5;" width="265" x="879.5" y="90.46"/><ellipse cx="972.25" cy="106.46" fill="#ADD1B2" rx="11" ry="11" style="stroke:#181818;stroke-width:1.0;"/><path d="M974.7231,112.6031 Q974.1421,112.9019 973.5029,113.0513 Q972.8638,113.2007 972.1582,113.2007 Q969.6514,113.2007 968.3315,111.5489 Q967.0117,109.897 967.0117,106.7759 Q967.0117,103.6465 968.3315,101.9947 Q969.6514,100.3428 972.1582,100.3428 Q972.8638,100.3428 973.5112,100.4922 Q974.1587,100.6416 974.7231,100.9405 L974.7231,103.6631 Q974.0923,103.0821 973.4988,102.8123 Q972.9053,102.5425 972.2744,102.5425 Q970.9297,102.5425 970.2449,103.6092 Q969.5601,104.6758 969.5601,106.7759 Q969.5601,108.8677 970.2449,109.9344 Q970.9297,111.001 972.2744,111.001 Q972.9053,111.001 973.4988,110.7312 Q974.0923,110.4615 974.7231,109.8804 Z " fill="#000000"/><text fill="#000000" font-family="sans-serif" font-size="14" lengthAdjust="spacing" textLength="71" x="992.75" y="111.751">GraphTest</text><line style="stroke:#181818;stroke-width:0.5;" x1="880.5" x2="1143.5" y1="122.46" y2="122.46"/><line style="stroke:#181818;stroke-width:0.5;" x1="880.5" x2="1143.5" y1="130.46" y2="130.46"/><polygon fill="#4177AF" points="890.5,140.2041,886.5,146.2041,894.5,146.2041" style="stroke:#1963A0;stroke-width:1.0;"/><text fill="#000000" font-family="sans-serif" font-size="14" lengthAdjust="spacing" textLength="239" x="899.5" y="147.9952">testAddEdgeAndGetVertices(): void</text><polygon fill="#4177AF" points="890.5,156.6924,886.5,162.6924,894.5,162.6924" style="stroke:#1963A0;stroke-width:1.0;"/><text fill="#000000" font-family="sans-serif" font-size="14" lengthAdjust="spacing" textLength="150" x="899.5" y="164.4834">testAdyacentes(): void</text><polygon fill="#4177AF" points="890.5,173.1807,886.5,179.1807,894.5,179.1807" style="stroke:#1963A0;stroke-width:1.0;"/><text fill="#000000" font-family="sans-serif" font-size="14" lengthAdjust="spacing" textLength="104" x="899.5" y="180.9717">testPeso(): void</text><polygon fill="#4177AF" points="890.5,189.669,886.5,195.669,894.5,195.669" style="stroke:#1963A0;stroke-width:1.0;"/><text fill="#000000" font-family="sans-serif" font-size="14" lengthAdjust="spacing" textLength="169" x="899.5" y="197.46">testNoAdyacentes(): void</text><polygon fill="#4177AF" points="890.5,206.1573,886.5,212.1573,894.5,212.1573" style="stroke:#1963A0;stroke-width:1.0;"/><text fill="#000000" font-family="sans-serif" font-size="14" lengthAdjust="spacing" textLength="180" x="899.5" y="213.9483">testPesoInexistente(): void</text></g></a><!--class ual.eda2.practica02.VertexTest--><a href="VertexTest.html" target="_top" title="VertexTest.html" xlink:actuate="onRequest" xlink:href="VertexTest.html" xlink:show="new" xlink:title="VertexTest.html" xlink:type="simple"><g id="elem_ual.eda2.practica02.VertexTest"><rect codeLine="41" fill="#F1F1F1" height="146.9297" id="ual.eda2.practica02.VertexTest" rx="2.5" ry="2.5" style="stroke:#181818;stroke-width:0.5;" width="244" x="22" y="330.37"/><ellipse cx="102.75" cy="346.37" fill="#ADD1B2" rx="11" ry="11" style="stroke:#181818;stroke-width:1.0;"/><path d="M105.2231,352.5131 Q104.6421,352.8119 104.0029,352.9613 Q103.3638,353.1107 102.6582,353.1107 Q100.1514,353.1107 98.8315,351.4589 Q97.5117,349.807 97.5117,346.6859 Q97.5117,343.5565 98.8315,341.9047 Q100.1514,340.2528 102.6582,340.2528 Q103.3638,340.2528 104.0112,340.4022 Q104.6587,340.5516 105.2231,340.8505 L105.2231,343.5731 Q104.5923,342.9921 103.9988,342.7223 Q103.4053,342.4525 102.7744,342.4525 Q101.4297,342.4525 100.7449,343.5192 Q100.0601,344.5858 100.0601,346.6859 Q100.0601,348.7777 100.7449,349.8444 Q101.4297,350.911 102.7744,350.911 Q103.4053,350.911 103.9988,350.6412 Q104.5923,350.3715 105.2231,349.7904 Z " fill="#000000"/><text fill="#000000" font-family="sans-serif" font-size="14" lengthAdjust="spacing" textLength="74" x="123.25" y="351.661">VertexTest</text><line style="stroke:#181818;stroke-width:0.5;" x1="23" x2="265" y1="362.37" y2="362.37"/><line style="stroke:#181818;stroke-width:0.5;" x1="23" x2="265" y1="370.37" y2="370.37"/><polygon fill="#4177AF" points="33,380.1141,29,386.1141,37,386.1141" style="stroke:#1963A0;stroke-width:1.0;"/><text fill="#000000" font-family="sans-serif" font-size="14" lengthAdjust="spacing" textLength="218" x="42" y="387.9052">testConstructorAndGetId(): void</text><polygon fill="#4177AF" points="33,396.6024,29,402.6024,37,402.6024" style="stroke:#1963A0;stroke-width:1.0;"/><text fill="#000000" font-family="sans-serif" font-size="14" lengthAdjust="spacing" textLength="106" x="42" y="404.3934">testSetId(): void</text><polygon fill="#4177AF" points="33,413.0907,29,419.0907,37,419.0907" style="stroke:#1963A0;stroke-width:1.0;"/><text fill="#000000" font-family="sans-serif" font-size="14" lengthAdjust="spacing" textLength="117" x="42" y="420.8817">testEquals(): void</text><polygon fill="#4177AF" points="33,429.579,29,435.579,37,435.579" style="stroke:#1963A0;stroke-width:1.0;"/><text fill="#000000" font-family="sans-serif" font-size="14" lengthAdjust="spacing" textLength="142" x="42" y="437.37">testHashCode(): void</text><polygon fill="#4177AF" points="33,446.0673,29,452.0673,37,452.0673" style="stroke:#1963A0;stroke-width:1.0;"/><text fill="#000000" font-family="sans-serif" font-size="14" lengthAdjust="spacing" textLength="153" x="42" y="453.8583">testCompareTo(): void</text><polygon fill="#4177AF" points="33,462.5555,29,468.5555,37,468.5555" style="stroke:#1963A0;stroke-width:1.0;"/><text fill="#000000" font-family="sans-serif" font-size="14" lengthAdjust="spacing" textLength="131" x="42" y="470.3466">testToString(): void</text></g></a><!--class ual.eda2.practica02.DijkstraEj4Test--><a href="DijkstraEj4Test.html" target="_top" title="DijkstraEj4Test.html" xlink:actuate="onRequest" xlink:href="DijkstraEj4Test.html" xlink:show="new" xlink:title="DijkstraEj4Test.html" xlink:type="simple"><g id="elem_ual.eda2.practica02.DijkstraEj4Test"><rect codeLine="50" fill="#F1F1F1" height="113.9531" id="ual.eda2.practica02.DijkstraEj4Test" rx="2.5" ry="2.5" style="stroke:#181818;stroke-width:0.5;" width="234" x="301" y="346.86"/><ellipse cx="362.75" cy="362.86" fill="#ADD1B2" rx="11" ry="11" style="stroke:#181818;stroke-width:1.0;"/><path d="M365.2231,369.0031 Q364.6421,369.3019 364.0029,369.4513 Q363.3638,369.6007 362.6582,369.6007 Q360.1514,369.6007 358.8315,367.9489 Q357.5117,366.297 357.5117,363.1759 Q357.5117,360.0465 358.8315,358.3947 Q360.1514,356.7428 362.6582,356.7428 Q363.3638,356.7428 364.0112,356.8922 Q364.6587,357.0416 365.2231,357.3405 L365.2231,360.0631 Q364.5923,359.4821 363.9988,359.2123 Q363.4053,358.9425 362.7744,358.9425 Q361.4297,358.9425 360.7449,360.0092 Q360.0601,361.0758 360.0601,363.1759 Q360.0601,365.2677 360.7449,366.3344 Q361.4297,367.401 362.7744,367.401 Q363.4053,367.401 363.9988,367.1312 Q364.5923,366.8615 365.2231,366.2804 Z " fill="#000000"/><text fill="#000000" font-family="sans-serif" font-size="14" lengthAdjust="spacing" textLength="102" x="383.25" y="368.151">DijkstraEj4Test</text><line style="stroke:#181818;stroke-width:0.5;" x1="302" x2="534" y1="378.86" y2="378.86"/><line style="stroke:#181818;stroke-width:0.5;" x1="302" x2="534" y1="386.86" y2="386.86"/><polygon fill="#4177AF" points="312,396.6041,308,402.6041,316,402.6041" style="stroke:#1963A0;stroke-width:1.0;"/><text fill="#000000" font-family="sans-serif" font-size="14" lengthAdjust="spacing" textLength="160" x="321" y="404.3952">testSimpleGraph(): void</text><polygon fill="#4177AF" points="312,413.0924,308,419.0924,316,419.0924" style="stroke:#1963A0;stroke-width:1.0;"/><text fill="#000000" font-family="sans-serif" font-size="14" lengthAdjust="spacing" textLength="206" x="321" y="420.8834">testDisconnectedGraph(): void</text><polygon fill="#4177AF" points="312,429.5807,308,435.5807,316,435.5807" style="stroke:#1963A0;stroke-width:1.0;"/><text fill="#000000" font-family="sans-serif" font-size="14" lengthAdjust="spacing" textLength="187" x="321" y="437.3717">testGraphWithCycles(): void</text><polygon fill="#4177AF" points="312,446.069,308,452.069,316,452.069" style="stroke:#1963A0;stroke-width:1.0;"/><text fill="#000000" font-family="sans-serif" font-size="14" lengthAdjust="spacing" textLength="208" x="321" y="453.86">testPerformanceMetrics(): void</text></g></a><!--class ual.eda2.practica02.DijkstraEj5Test--><a href="DijkstraEj5Test.html" target="_top" title="DijkstraEj5Test.html" xlink:actuate="onRequest" xlink:href="DijkstraEj5Test.html" xlink:show="new" xlink:title="DijkstraEj5Test.html" xlink:type="simple"><g id="elem_ual.eda2.practica02.DijkstraEj5Test"><rect codeLine="57" fill="#F1F1F1" height="130.4414" id="ual.eda2.practica02.DijkstraEj5Test" rx="2.5" ry="2.5" style="stroke:#181818;stroke-width:0.5;" width="234" x="570" y="338.61"/><ellipse cx="631.75" cy="354.61" fill="#ADD1B2" rx="11" ry="11" style="stroke:#181818;stroke-width:1.0;"/><path d="M634.2231,360.7531 Q633.6421,361.0519 633.0029,361.2013 Q632.3638,361.3507 631.6582,361.3507 Q629.1514,361.3507 627.8315,359.6989 Q626.5117,358.047 626.5117,354.9259 Q626.5117,351.7965 627.8315,350.1447 Q629.1514,348.4928 631.6582,348.4928 Q632.3638,348.4928 633.0112,348.6422 Q633.6587,348.7916 634.2231,349.0905 L634.2231,351.8131 Q633.5923,351.2321 632.9988,350.9623 Q632.4053,350.6925 631.7744,350.6925 Q630.4297,350.6925 629.7449,351.7592 Q629.0601,352.8258 629.0601,354.9259 Q629.0601,357.0177 629.7449,358.0844 Q630.4297,359.151 631.7744,359.151 Q632.4053,359.151 632.9988,358.8812 Q633.5923,358.6115 634.2231,358.0304 Z " fill="#000000"/><text fill="#000000" font-family="sans-serif" font-size="14" lengthAdjust="spacing" textLength="102" x="652.25" y="359.901">DijkstraEj5Test</text><line style="stroke:#181818;stroke-width:0.5;" x1="571" x2="803" y1="370.61" y2="370.61"/><line style="stroke:#181818;stroke-width:0.5;" x1="571" x2="803" y1="378.61" y2="378.61"/><polygon fill="#4177AF" points="581,388.3541,577,394.3541,585,394.3541" style="stroke:#1963A0;stroke-width:1.0;"/><text fill="#000000" font-family="sans-serif" font-size="14" lengthAdjust="spacing" textLength="160" x="590" y="396.1452">testSimpleGraph(): void</text><polygon fill="#4177AF" points="581,404.8424,577,410.8424,585,410.8424" style="stroke:#1963A0;stroke-width:1.0;"/><text fill="#000000" font-family="sans-serif" font-size="14" lengthAdjust="spacing" textLength="206" x="590" y="412.6334">testDisconnectedGraph(): void</text><polygon fill="#4177AF" points="581,421.3307,577,427.3307,585,427.3307" style="stroke:#1963A0;stroke-width:1.0;"/><text fill="#000000" font-family="sans-serif" font-size="14" lengthAdjust="spacing" textLength="187" x="590" y="429.1217">testGraphWithCycles(): void</text><polygon fill="#4177AF" points="581,437.819,577,443.819,585,443.819" style="stroke:#1963A0;stroke-width:1.0;"/><text fill="#000000" font-family="sans-serif" font-size="14" lengthAdjust="spacing" textLength="208" x="590" y="445.61">testPerformanceMetrics(): void</text><polygon fill="#4177AF" points="581,454.3073,577,460.3073,585,460.3073" style="stroke:#1963A0;stroke-width:1.0;"/><text fill="#000000" font-family="sans-serif" font-size="14" lengthAdjust="spacing" textLength="121" x="590" y="462.0983">testNoPath(): void</text></g></a><!--class ual.eda2.practica02.DijkstraEj1Test--><a href="DijkstraEj1Test.html" target="_top" title="DijkstraEj1Test.html" xlink:actuate="onRequest" xlink:href="DijkstraEj1Test.html" xlink:show="new" xlink:title="DijkstraEj1Test.html" xlink:type="simple"><g id="elem_ual.eda2.practica02.DijkstraEj1Test"><rect codeLine="65" fill="#F1F1F1" height="146.9297" id="ual.eda2.practica02.DijkstraEj1Test" rx="2.5" ry="2.5" style="stroke:#181818;stroke-width:0.5;" width="284" x="839" y="330.37"/><ellipse cx="925.75" cy="346.37" fill="#ADD1B2" rx="11" ry="11" style="stroke:#181818;stroke-width:1.0;"/><path d="M928.2231,352.5131 Q927.6421,352.8119 927.0029,352.9613 Q926.3638,353.1107 925.6582,353.1107 Q923.1514,353.1107 921.8315,351.4589 Q920.5117,349.807 920.5117,346.6859 Q920.5117,343.5565 921.8315,341.9047 Q923.1514,340.2528 925.6582,340.2528 Q926.3638,340.2528 927.0112,340.4022 Q927.6587,340.5516 928.2231,340.8505 L928.2231,343.5731 Q927.5923,342.9921 926.9988,342.7223 Q926.4053,342.4525 925.7744,342.4525 Q924.4297,342.4525 923.7449,343.5192 Q923.0601,344.5858 923.0601,346.6859 Q923.0601,348.7777 923.7449,349.8444 Q924.4297,350.911 925.7744,350.911 Q926.4053,350.911 926.9988,350.6412 Q927.5923,350.3715 928.2231,349.7904 Z " fill="#000000"/><text fill="#000000" font-family="sans-serif" font-size="14" lengthAdjust="spacing" textLength="102" x="946.25" y="351.661">DijkstraEj1Test</text><line style="stroke:#181818;stroke-width:0.5;" x1="840" x2="1122" y1="362.37" y2="362.37"/><polygon fill="none" points="850,372.1141,846,378.1141,854,378.1141" style="stroke:#1963A0;stroke-width:1.0;"/><text fill="#000000" font-family="sans-serif" font-size="14" lengthAdjust="spacing" textLength="169" x="859" y="379.9052">directorioEntrada: String</text><line style="stroke:#181818;stroke-width:0.5;" x1="840" x2="1122" y1="386.8583" y2="386.8583"/><ellipse cx="850" cy="400.6024" fill="#84BE84" rx="3" ry="3" style="stroke:#038048;stroke-width:1.0;"/><text fill="#000000" font-family="sans-serif" font-size="14" lengthAdjust="spacing" textLength="177" x="859" y="404.3934">loadGraphEdaLand(): void</text><ellipse cx="850" cy="417.0907" fill="#84BE84" rx="3" ry="3" style="stroke:#038048;stroke-width:1.0;"/><text fill="#000000" font-family="sans-serif" font-size="14" lengthAdjust="spacing" textLength="215" x="859" y="420.8817">loadGraphEdaLandLarge(): void</text><polygon fill="#4177AF" points="850,429.579,846,435.579,854,435.579" style="stroke:#1963A0;stroke-width:1.0;"/><text fill="#000000" font-family="sans-serif" font-size="14" lengthAdjust="spacing" textLength="212" x="859" y="437.37">testDijkstraSimpleGraph(): void</text><polygon fill="#4177AF" points="850,446.0673,846,452.0673,854,452.0673" style="stroke:#1963A0;stroke-width:1.0;"/><text fill="#000000" font-family="sans-serif" font-size="14" lengthAdjust="spacing" textLength="258" x="859" y="453.8583">testDijkstraDisconnectedGraph(): void</text><polygon fill="#4177AF" points="850,462.5555,846,468.5555,854,468.5555" style="stroke:#1963A0;stroke-width:1.0;"/><text fill="#000000" font-family="sans-serif" font-size="14" lengthAdjust="spacing" textLength="197" x="859" y="470.3466">testDijkstraWithCycles(): void</text></g></a><!--class ual.eda2.practica02.DijkstraEj7Test--><a href="DijkstraEj7Test.html" target="_top" title="DijkstraEj7Test.html" xlink:actuate="onRequest" xlink:href="DijkstraEj7Test.html" xlink:show="new" xlink:title="DijkstraEj7Test.html" xlink:type="simple"><g id="elem_ual.eda2.practica02.DijkstraEj7Test"><rect codeLine="74" fill="#F1F1F1" height="130.4414" id="ual.eda2.practica02.DijkstraEj7Test" rx="2.5" ry="2.5" style="stroke:#181818;stroke-width:0.5;" width="234" x="27" y="537.3"/><ellipse cx="88.75" cy="553.3" fill="#ADD1B2" rx="11" ry="11" style="stroke:#181818;stroke-width:1.0;"/><path d="M91.2231,559.4431 Q90.6421,559.7419 90.0029,559.8913 Q89.3638,560.0407 88.6582,560.0407 Q86.1514,560.0407 84.8315,558.3889 Q83.5117,556.737 83.5117,553.6159 Q83.5117,550.4865 84.8315,548.8347 Q86.1514,547.1828 88.6582,547.1828 Q89.3638,547.1828 90.0112,547.3322 Q90.6587,547.4816 91.2231,547.7805 L91.2231,550.5031 Q90.5923,549.9221 89.9988,549.6523 Q89.4053,549.3825 88.7744,549.3825 Q87.4297,549.3825 86.7449,550.4492 Q86.0601,551.5158 86.0601,553.6159 Q86.0601,555.7077 86.7449,556.7744 Q87.4297,557.841 88.7744,557.841 Q89.4053,557.841 89.9988,557.5712 Q90.5923,557.3015 91.2231,556.7204 Z " fill="#000000"/><text fill="#000000" font-family="sans-serif" font-size="14" lengthAdjust="spacing" textLength="102" x="109.25" y="558.591">DijkstraEj7Test</text><line style="stroke:#181818;stroke-width:0.5;" x1="28" x2="260" y1="569.3" y2="569.3"/><line style="stroke:#181818;stroke-width:0.5;" x1="28" x2="260" y1="577.3" y2="577.3"/><polygon fill="#4177AF" points="38,587.0441,34,593.0441,42,593.0441" style="stroke:#1963A0;stroke-width:1.0;"/><text fill="#000000" font-family="sans-serif" font-size="14" lengthAdjust="spacing" textLength="160" x="47" y="594.8352">testSimpleGraph(): void</text><polygon fill="#4177AF" points="38,603.5324,34,609.5324,42,609.5324" style="stroke:#1963A0;stroke-width:1.0;"/><text fill="#000000" font-family="sans-serif" font-size="14" lengthAdjust="spacing" textLength="206" x="47" y="611.3234">testDisconnectedGraph(): void</text><polygon fill="#4177AF" points="38,620.0207,34,626.0207,42,626.0207" style="stroke:#1963A0;stroke-width:1.0;"/><text fill="#000000" font-family="sans-serif" font-size="14" lengthAdjust="spacing" textLength="187" x="47" y="627.8117">testGraphWithCycles(): void</text><polygon fill="#4177AF" points="38,636.509,34,642.509,42,642.509" style="stroke:#1963A0;stroke-width:1.0;"/><text fill="#000000" font-family="sans-serif" font-size="14" lengthAdjust="spacing" textLength="208" x="47" y="644.3">testPerformanceMetrics(): void</text><polygon fill="#4177AF" points="38,652.9973,34,658.9973,42,658.9973" style="stroke:#1963A0;stroke-width:1.0;"/><text fill="#000000" font-family="sans-serif" font-size="14" lengthAdjust="spacing" textLength="121" x="47" y="660.7883">testNoPath(): void</text></g></a><!--class ual.eda2.practica02.DijkstraEj6Test--><a href="DijkstraEj6Test.html" target="_top" title="DijkstraEj6Test.html" xlink:actuate="onRequest" xlink:href="DijkstraEj6Test.html" xlink:show="new" xlink:title="DijkstraEj6Test.html" xlink:type="simple"><g id="elem_ual.eda2.practica02.DijkstraEj6Test"><rect codeLine="82" fill="#F1F1F1" height="130.4414" id="ual.eda2.practica02.DijkstraEj6Test" rx="2.5" ry="2.5" style="stroke:#181818;stroke-width:0.5;" width="234" x="296" y="537.3"/><ellipse cx="357.75" cy="553.3" fill="#ADD1B2" rx="11" ry="11" style="stroke:#181818;stroke-width:1.0;"/><path d="M360.2231,559.4431 Q359.6421,559.7419 359.0029,559.8913 Q358.3638,560.0407 357.6582,560.0407 Q355.1514,560.0407 353.8315,558.3889 Q352.5117,556.737 352.5117,553.6159 Q352.5117,550.4865 353.8315,548.8347 Q355.1514,547.1828 357.6582,547.1828 Q358.3638,547.1828 359.0112,547.3322 Q359.6587,547.4816 360.2231,547.7805 L360.2231,550.5031 Q359.5923,549.9221 358.9988,549.6523 Q358.4053,549.3825 357.7744,549.3825 Q356.4297,549.3825 355.7449,550.4492 Q355.0601,551.5158 355.0601,553.6159 Q355.0601,555.7077 355.7449,556.7744 Q356.4297,557.841 357.7744,557.841 Q358.4053,557.841 358.9988,557.5712 Q359.5923,557.3015 360.2231,556.7204 Z " fill="#000000"/><text fill="#000000" font-family="sans-serif" font-size="14" lengthAdjust="spacing" textLength="102" x="378.25" y="558.591">DijkstraEj6Test</text><line style="stroke:#181818;stroke-width:0.5;" x1="297" x2="529" y1="569.3" y2="569.3"/><line style="stroke:#181818;stroke-width:0.5;" x1="297" x2="529" y1="577.3" y2="577.3"/><polygon fill="#4177AF" points="307,587.0441,303,593.0441,311,593.0441" style="stroke:#1963A0;stroke-width:1.0;"/><text fill="#000000" font-family="sans-serif" font-size="14" lengthAdjust="spacing" textLength="160" x="316" y="594.8352">testSimpleGraph(): void</text><polygon fill="#4177AF" points="307,603.5324,303,609.5324,311,609.5324" style="stroke:#1963A0;stroke-width:1.0;"/><text fill="#000000" font-family="sans-serif" font-size="14" lengthAdjust="spacing" textLength="206" x="316" y="611.3234">testDisconnectedGraph(): void</text><polygon fill="#4177AF" points="307,620.0207,303,626.0207,311,626.0207" style="stroke:#1963A0;stroke-width:1.0;"/><text fill="#000000" font-family="sans-serif" font-size="14" lengthAdjust="spacing" textLength="187" x="316" y="627.8117">testGraphWithCycles(): void</text><polygon fill="#4177AF" points="307,636.509,303,642.509,311,642.509" style="stroke:#1963A0;stroke-width:1.0;"/><text fill="#000000" font-family="sans-serif" font-size="14" lengthAdjust="spacing" textLength="208" x="316" y="644.3">testPerformanceMetrics(): void</text><polygon fill="#4177AF" points="307,652.9973,303,658.9973,311,658.9973" style="stroke:#1963A0;stroke-width:1.0;"/><text fill="#000000" font-family="sans-serif" font-size="14" lengthAdjust="spacing" textLength="121" x="316" y="660.7883">testNoPath(): void</text></g></a><text fill="#888888" font-family="sans-serif" font-size="10" lengthAdjust="spacing" textLength="182" x="486" y="699.408">UMLDoclet 2.1.0, PlantUML 1.2022.14</text><!--SRC=[xLNBJW8n5Dtx5TsOG3GJ642CEm8J90530kg2iBXfhqnnfXtRGZH6lzt2ZCzAXQLYDvrfJzjxpdqHGeY057K65Ca2aW0PX46cW1fEeHAInuC3KWoQWDQam-UtsYY8vgTZr8PC9bzMWjYaoNHgJv8FuzdOhH5FimIx2hAuL3uZIycP2-fmJQKGI0so7w3hxMjkulO3JL1l1WvHtKYLWg0uGACuzM0lv12C- -ZJPY5gZX2r_HGYT8G8FK8mhYmtgRYCX0KpE2CZQvAOVO8T9H9o-X63FWZshS4EgWzgXZvjSmktT4GEti4XhqUsyScV2eRruqKOl7rxCg75MCHcs1AiY-OAbIqxFfDRxC5MAc7yjBJq4TdsZfx0UwxD2lapxvNfU5yGV__nC6zBOIDaiSg0d7sFUMB4lntTsThjeNCEEcvBvac8jampK3ZsA3UMUNhkKX7gJaMe_-BIw27QS8WszhC7L1qXglyzO9DFF3es7HsR-nbG9uuG9tzVY69Qjob5RgHSJPU3VaTQ2mm9WsfGEIR318Ing-HmYKfpAKhb5m00]--></g></svg>