<?xml version="1.0" encoding="UTF-8" standalone="no"?><svg xmlns="http://www.w3.org/2000/svg" xmlns:xlink="http://www.w3.org/1999/xlink" contentStyleType="text/css" height="276px" preserveAspectRatio="none" style="width:260px;height:276px;background:#FFFFFF;" version="1.1" viewBox="0 0 260 276" width="260px" zoomAndPan="magnify"><defs/><g><!--class ual.eda2.practica02.VertexTest--><a href="VertexTest.html" target="_top" title="VertexTest.html" xlink:actuate="onRequest" xlink:href="VertexTest.html" xlink:show="new" xlink:title="VertexTest.html" xlink:type="simple"><g id="elem_ual.eda2.practica02.VertexTest"><rect codeLine="5" fill="#F1F1F1" height="145.1953" id="ual.eda2.practica02.VertexTest" rx="2.5" ry="2.5" style="stroke:#181818;stroke-width:0.5;" width="244" x="9" y="105.26"/><ellipse cx="78.75" cy="124.3928" fill="#ADD1B2" rx="11" ry="11" style="stroke:#181818;stroke-width:1.0;"/><path d="M81.2231,130.5359 Q80.6421,130.8347 80.0029,130.9841 Q79.3638,131.1335 78.6582,131.1335 Q76.1514,131.1335 74.8315,129.4817 Q73.5117,127.8298 73.5117,124.7087 Q73.5117,121.5793 74.8315,119.9275 Q76.1514,118.2756 78.6582,118.2756 Q79.3638,118.2756 80.0112,118.425 Q80.6587,118.5745 81.2231,118.8733 L81.2231,121.5959 Q80.5923,121.0149 79.9988,120.7451 Q79.4053,120.4753 78.7744,120.4753 Q77.4297,120.4753 76.7449,121.542 Q76.0601,122.6086 76.0601,124.7087 Q76.0601,126.8005 76.7449,127.8672 Q77.4297,128.9338 78.7744,128.9338 Q79.4053,128.9338 79.9988,128.6641 Q80.5923,128.3943 81.2231,127.8132 Z " fill="#000000"/><text fill="#000000" font-family="sans-serif" font-size="14" lengthAdjust="spacing" textLength="74" x="110.25" y="123.7952">VertexTest</text><text fill="#000000" font-family="sans-serif" font-size="10" lengthAdjust="spacing" textLength="96" x="99.25" y="136.4163">ual.eda2.practica02</text><line style="stroke:#181818;stroke-width:0.5;" x1="10" x2="252" y1="143.5256" y2="143.5256"/><polygon fill="#4177AF" points="20,153.2698,16,159.2698,24,159.2698" style="stroke:#1963A0;stroke-width:1.0;"/><text fill="#000000" font-family="sans-serif" font-size="14" lengthAdjust="spacing" textLength="218" x="29" y="161.0608">testConstructorAndGetId(): void</text><polygon fill="#4177AF" points="20,169.758,16,175.758,24,175.758" style="stroke:#1963A0;stroke-width:1.0;"/><text fill="#000000" font-family="sans-serif" font-size="14" lengthAdjust="spacing" textLength="106" x="29" y="177.5491">testSetId(): void</text><polygon fill="#4177AF" points="20,186.2463,16,192.2463,24,192.2463" style="stroke:#1963A0;stroke-width:1.0;"/><text fill="#000000" font-family="sans-serif" font-size="14" lengthAdjust="spacing" textLength="117" x="29" y="194.0373">testEquals(): void</text><polygon fill="#4177AF" points="20,202.7346,16,208.7346,24,208.7346" style="stroke:#1963A0;stroke-width:1.0;"/><text fill="#000000" font-family="sans-serif" font-size="14" lengthAdjust="spacing" textLength="142" x="29" y="210.5256">testHashCode(): void</text><polygon fill="#4177AF" points="20,219.2229,16,225.2229,24,225.2229" style="stroke:#1963A0;stroke-width:1.0;"/><text fill="#000000" font-family="sans-serif" font-size="14" lengthAdjust="spacing" textLength="153" x="29" y="227.0139">testCompareTo(): void</text><polygon fill="#4177AF" points="20,235.7112,16,241.7112,24,241.7112" style="stroke:#1963A0;stroke-width:1.0;"/><text fill="#000000" font-family="sans-serif" font-size="14" lengthAdjust="spacing" textLength="131" x="29" y="243.5022">testToString(): void</text></g></a><!--class java.lang.Object--><g id="elem_java.lang.Object"><rect codeLine="14" fill="#F1F1F1" height="38.2656" id="java.lang.Object" rx="2.5" ry="2.5" style="stroke:#181818;stroke-width:0.5;" width="76" x="93" y="7"/><ellipse cx="108" cy="26.1328" fill="#ADD1B2" rx="11" ry="11" style="stroke:#181818;stroke-width:1.0;"/><path d="M110.4731,32.2759 Q109.8921,32.5747 109.2529,32.7241 Q108.6138,32.8735 107.9082,32.8735 Q105.4014,32.8735 104.0815,31.2217 Q102.7617,29.5698 102.7617,26.4487 Q102.7617,23.3193 104.0815,21.6675 Q105.4014,20.0156 107.9082,20.0156 Q108.6138,20.0156 109.2612,20.165 Q109.9087,20.3145 110.4731,20.6133 L110.4731,23.3359 Q109.8423,22.7549 109.2488,22.4851 Q108.6553,22.2153 108.0244,22.2153 Q106.6797,22.2153 105.9949,23.282 Q105.3101,24.3486 105.3101,26.4487 Q105.3101,28.5405 105.9949,29.6072 Q106.6797,30.6738 108.0244,30.6738 Q108.6553,30.6738 109.2488,30.4041 Q109.8423,30.1343 110.4731,29.5532 Z " fill="#000000"/><text fill="#000000" font-family="sans-serif" font-size="14" lengthAdjust="spacing" textLength="44" x="122" y="25.5352">Object</text><text fill="#000000" font-family="sans-serif" font-size="10" lengthAdjust="spacing" textLength="44" x="122" y="38.1563">java.lang</text></g><!--reverse link java.lang.Object to ual.eda2.practica02.VertexTest--><g id="link_java.lang.Object_ual.eda2.practica02.VertexTest"><path codeLine="16" d="M131,66.96 C131,78.69 131,91.89 131,104.97 " fill="none" id="java.lang.Object-backto-ual.eda2.practica02.VertexTest" style="stroke:#181818;stroke-width:1.0;"/><polygon fill="none" points="124,67.01,131,47.01,138,67.01,124,67.01" style="stroke:#181818;stroke-width:1.0;"/></g><text fill="#888888" font-family="sans-serif" font-size="10" lengthAdjust="spacing" textLength="182" x="32" y="266.1233">UMLDoclet 2.1.0, PlantUML 1.2022.14</text><!--SRC=[XP9FQm8n4CNl_HI3K52eGQKd4Q5iIrjeQK7RYtgO9gCRsSriat7f_y_Uk4gjigMvXFczuSta4G20G08ESme5QXfHWHw5FJXsT1HbIAqXeBoGLvXRoamuf3b9oX5NN6SO0ZG6mRvHltiwV2Glz3Ac85EtXPtX2ZD51dkgyAZ5Qkpq6e01QhZQ6S1aiYjKAdascy5xDNLzlYJYX5qGlzBn1MVEN99ScsQh3oLRizyu-bkwU8vxX7hj2aEQiA5wDU4ynaTZhfV7F19ltM9F_QpFxUvfIVftPaiiKMNe5bLIFvNQD6vC3YaCFjhjVrBTZYSdv67ElBuURc_EMMVnO_HKLtLEu3wQIgHmN98FbbspzGq0]--></g></svg>