<?xml version="1.0" encoding="UTF-8" standalone="no"?><svg xmlns="http://www.w3.org/2000/svg" xmlns:xlink="http://www.w3.org/1999/xlink" contentStyleType="text/css" height="344px" preserveAspectRatio="none" style="width:280px;height:344px;background:#FFFFFF;" version="1.1" viewBox="0 0 280 344" width="280px" zoomAndPan="magnify"><defs/><g><!--class ual.eda2.practica03.Edge--><a href="Edge.html" target="_top" title="Edge.html" xlink:actuate="onRequest" xlink:href="Edge.html" xlink:show="new" xlink:title="Edge.html" xlink:type="simple"><g id="elem_ual.eda2.practica03.Edge"><rect codeLine="5" fill="#F1F1F1" height="186.1719" id="ual.eda2.practica03.Edge" rx="2.5" ry="2.5" style="stroke:#181818;stroke-width:0.5;" width="224" x="9" y="132.76"/><ellipse cx="68.75" cy="151.8928" fill="#ADD1B2" rx="11" ry="11" style="stroke:#181818;stroke-width:1.0;"/><path d="M71.2231,158.0359 Q70.6421,158.3347 70.0029,158.4841 Q69.3638,158.6335 68.6582,158.6335 Q66.1514,158.6335 64.8315,156.9817 Q63.5117,155.3298 63.5117,152.2087 Q63.5117,149.0793 64.8315,147.4275 Q66.1514,145.7756 68.6582,145.7756 Q69.3638,145.7756 70.0112,145.925 Q70.6587,146.0745 71.2231,146.3733 L71.2231,149.0959 Q70.5923,148.5149 69.9988,148.2451 Q69.4053,147.9753 68.7744,147.9753 Q67.4297,147.9753 66.7449,149.042 Q66.0601,150.1086 66.0601,152.2087 Q66.0601,154.3005 66.7449,155.3672 Q67.4297,156.4338 68.7744,156.4338 Q69.4053,156.4338 69.9988,156.1641 Q70.5923,155.8943 71.2231,155.3132 Z " fill="#000000"/><text fill="#000000" font-family="sans-serif" font-size="14" lengthAdjust="spacing" textLength="34" x="120.25" y="151.2952">Edge</text><text fill="#000000" font-family="sans-serif" font-size="10" lengthAdjust="spacing" textLength="96" x="89.25" y="163.9163">ual.eda2.practica03</text><line style="stroke:#181818;stroke-width:0.5;" x1="10" x2="232" y1="171.0256" y2="171.0256"/><polygon fill="none" points="20,180.7698,16,186.7698,24,186.7698" style="stroke:#1963A0;stroke-width:1.0;"/><text fill="#000000" font-family="sans-serif" font-size="14" lengthAdjust="spacing" textLength="69" x="29" y="188.5608">v1: Vertex</text><polygon fill="none" points="20,197.258,16,203.258,24,203.258" style="stroke:#1963A0;stroke-width:1.0;"/><text fill="#000000" font-family="sans-serif" font-size="14" lengthAdjust="spacing" textLength="69" x="29" y="205.0491">v2: Vertex</text><polygon fill="none" points="20,213.7463,16,219.7463,24,219.7463" style="stroke:#1963A0;stroke-width:1.0;"/><text fill="#000000" font-family="sans-serif" font-size="14" lengthAdjust="spacing" textLength="102" x="29" y="221.5373">weight: double</text><line style="stroke:#181818;stroke-width:0.5;" x1="10" x2="232" y1="228.4905" y2="228.4905"/><ellipse cx="20" cy="242.2346" fill="#84BE84" rx="3" ry="3" style="stroke:#038048;stroke-width:1.0;"/><text fill="#000000" font-family="sans-serif" font-size="14" lengthAdjust="spacing" textLength="198" x="29" y="246.0256">Edge(Vertex, Vertex, double)</text><ellipse cx="20" cy="258.7229" fill="#84BE84" rx="3" ry="3" style="stroke:#038048;stroke-width:1.0;"/><text fill="#000000" font-family="sans-serif" font-size="14" lengthAdjust="spacing" textLength="132" x="29" y="262.5139">getSource(): Vertex</text><ellipse cx="20" cy="275.2112" fill="#84BE84" rx="3" ry="3" style="stroke:#038048;stroke-width:1.0;"/><text fill="#000000" font-family="sans-serif" font-size="14" lengthAdjust="spacing" textLength="163" x="29" y="279.0022">getDestination(): Vertex</text><ellipse cx="20" cy="291.6995" fill="#84BE84" rx="3" ry="3" style="stroke:#038048;stroke-width:1.0;"/><text fill="#000000" font-family="sans-serif" font-size="14" lengthAdjust="spacing" textLength="120" x="29" y="295.4905">getPeso(): double</text><ellipse cx="20" cy="308.1877" fill="#84BE84" rx="3" ry="3" style="stroke:#038048;stroke-width:1.0;"/><text fill="#000000" font-family="sans-serif" font-size="14" lengthAdjust="spacing" textLength="158" x="29" y="311.9788">compareTo(Object): int</text></g></a><!--class java.lang.Object--><g id="elem_java.lang.Object"><rect codeLine="16" fill="#F1F1F1" height="38.2656" id="java.lang.Object" rx="2.5" ry="2.5" style="stroke:#181818;stroke-width:0.5;" width="76" x="9" y="22.25"/><ellipse cx="24" cy="41.3828" fill="#ADD1B2" rx="11" ry="11" style="stroke:#181818;stroke-width:1.0;"/><path d="M26.4731,47.5259 Q25.8921,47.8247 25.2529,47.9741 Q24.6138,48.1235 23.9082,48.1235 Q21.4014,48.1235 20.0815,46.4717 Q18.7617,44.8198 18.7617,41.6987 Q18.7617,38.5693 20.0815,36.9175 Q21.4014,35.2656 23.9082,35.2656 Q24.6138,35.2656 25.2612,35.415 Q25.9087,35.5645 26.4731,35.8633 L26.4731,38.5859 Q25.8423,38.0049 25.2488,37.7351 Q24.6553,37.4653 24.0244,37.4653 Q22.6797,37.4653 21.9949,38.532 Q21.3101,39.5986 21.3101,41.6987 Q21.3101,43.7905 21.9949,44.8572 Q22.6797,45.9238 24.0244,45.9238 Q24.6553,45.9238 25.2488,45.6541 Q25.8423,45.3843 26.4731,44.8032 Z " fill="#000000"/><text fill="#000000" font-family="sans-serif" font-size="14" lengthAdjust="spacing" textLength="44" x="38" y="40.7852">Object</text><text fill="#000000" font-family="sans-serif" font-size="10" lengthAdjust="spacing" textLength="44" x="38" y="53.4063">java.lang</text></g><!--class java.lang.Comparable--><g id="elem_java.lang.Comparable"><rect codeLine="17" fill="#F1F1F1" height="62.7539" id="java.lang.Comparable" rx="2.5" ry="2.5" style="stroke:#181818;stroke-width:0.5;" width="149" x="120.5" y="10"/><ellipse cx="144.95" cy="29.1328" fill="#B4A7E5" rx="11" ry="11" style="stroke:#181818;stroke-width:1.0;"/><path d="M141.3777,25.3979 L141.3777,23.2397 L148.7571,23.2397 L148.7571,25.3979 L146.2918,25.3979 L146.2918,33.4746 L148.7571,33.4746 L148.7571,35.6328 L141.3777,35.6328 L141.3777,33.4746 L143.8431,33.4746 L143.8431,25.3979 Z " fill="#000000"/><text fill="#000000" font-family="sans-serif" font-size="14" font-style="italic" lengthAdjust="spacing" textLength="84" x="161.05" y="28.5352">Comparable</text><text fill="#000000" font-family="sans-serif" font-size="10" font-style="italic" lengthAdjust="spacing" textLength="44" x="181.05" y="41.1563">java.lang</text><rect fill="#FFFFFF" height="16.1328" style="stroke:#181818;stroke-width:1.0;stroke-dasharray:2.0,2.0;" width="10" x="262.5" y="7"/><text fill="#000000" font-family="sans-serif" font-size="12" font-style="italic" lengthAdjust="spacing" textLength="8" x="263.5" y="19.6016">T</text><line style="stroke:#181818;stroke-width:0.5;" x1="121.5" x2="268.5" y1="48.2656" y2="48.2656"/><ellipse cx="131.5" cy="62.0098" fill="#84BE84" rx="3" ry="3" style="stroke:#038048;stroke-width:1.0;"/><text fill="#000000" font-family="sans-serif" font-size="14" font-style="italic" lengthAdjust="spacing" textLength="123" x="140.5" y="65.8008">compareTo(T): int</text></g><!--reverse link java.lang.Object to ual.eda2.practica03.Edge--><g id="link_java.lang.Object_ual.eda2.practica03.Edge"><path codeLine="21" d="M62.52,80.65 C68.68,95.84 76.06,114.03 83.46,132.29 " fill="none" id="java.lang.Object-backto-ual.eda2.practica03.Edge" style="stroke:#181818;stroke-width:1.0;"/><polygon fill="none" points="56.1,83.45,55.07,62.28,69.08,78.19,56.1,83.45" style="stroke:#181818;stroke-width:1.0;"/></g><!--reverse link java.lang.Comparable to ual.eda2.practica03.Edge--><g id="link_java.lang.Comparable_ual.eda2.practica03.Edge"><path codeLine="22" d="M174.71,92.41 C169.66,104.85 164.09,118.59 158.51,132.36 " fill="none" id="java.lang.Comparable-backto-ual.eda2.practica03.Edge" style="stroke:#181818;stroke-width:1.0;stroke-dasharray:7.0,7.0;"/><polygon fill="none" points="168.04,90.23,182.05,74.32,181.02,95.49,168.04,90.23" style="stroke:#181818;stroke-width:1.0;"/></g><text fill="#888888" font-family="sans-serif" font-size="10" lengthAdjust="spacing" textLength="182" x="42.25" y="334.5998">UMLDoclet 2.1.0, PlantUML 1.2022.14</text><!--SRC=[ZL9DJm8n4BtxAoOc9X2X0VH421Vnff44z88SXkwmMz9jDzi1Fn1_k-skmcQ1n5ucVVFcJUTD0G0SCHXCoMKeQK8PviWs1sCDNVWq92eYe3JZ3rWgqf6heobnOZrSu5AZSt0vSEgJ-jtRuNqKqwlvlNQ6QzI28ko9B4V9IcBdvXBGmGbSX5AOpK8G2QTwFeTjqIESxqst3o-KCxrNiDunzaOgJhWFaLqlDEtnwo3RACaj-8ibgNbWnSGJkyubDPf7qY4v8iVA82jhpZ36v6n8rVjBctghQMeRJuiLIVOKPRZ8xqvRMV8gPgvmWqAZYGiBzpTH4WiDBqdvqY-sedDNT4R_cdze7SY3wR3Y_nONZiEkTjLHfiTJr9y5Wwzs- -o-QoM7xhvCYFDbfM4KfeMbjI4yFpwChDJ-T_T4LtHQCFQIx56usb3kYetz0000]--></g></svg>