<?xml version="1.0" encoding="UTF-8" standalone="no"?><svg xmlns="http://www.w3.org/2000/svg" xmlns:xlink="http://www.w3.org/1999/xlink" contentStyleType="text/css" height="350px" preserveAspectRatio="none" style="width:401px;height:350px;background:#FFFFFF;" version="1.1" viewBox="0 0 401 350" width="401px" zoomAndPan="magnify"><defs/><g><!--class ual.eda2.practica03.Graph--><a href="Graph.html" target="_top" title="Graph.html" xlink:actuate="onRequest" xlink:href="Graph.html" xlink:show="new" xlink:title="Graph.html" xlink:type="simple"><g id="elem_ual.eda2.practica03.Graph"><rect codeLine="5" fill="#F1F1F1" height="219.1484" id="ual.eda2.practica03.Graph" rx="2.5" ry="2.5" style="stroke:#181818;stroke-width:0.5;" width="387" x="7" y="105.26"/><ellipse cx="148.25" cy="124.3928" fill="#ADD1B2" rx="11" ry="11" style="stroke:#181818;stroke-width:1.0;"/><path d="M150.7231,130.5359 Q150.1421,130.8347 149.5029,130.9841 Q148.8638,131.1335 148.1582,131.1335 Q145.6514,131.1335 144.3315,129.4817 Q143.0117,127.8298 143.0117,124.7087 Q143.0117,121.5793 144.3315,119.9275 Q145.6514,118.2756 148.1582,118.2756 Q148.8638,118.2756 149.5112,118.425 Q150.1587,118.5745 150.7231,118.8733 L150.7231,121.5959 Q150.0923,121.0149 149.4988,120.7451 Q148.9053,120.4753 148.2744,120.4753 Q146.9297,120.4753 146.2449,121.542 Q145.5601,122.6086 145.5601,124.7087 Q145.5601,126.8005 146.2449,127.8672 Q146.9297,128.9338 148.2744,128.9338 Q148.9053,128.9338 149.4988,128.6641 Q150.0923,128.3943 150.7231,127.8132 Z " fill="#000000"/><text fill="#000000" font-family="sans-serif" font-size="14" lengthAdjust="spacing" textLength="42" x="195.75" y="123.7952">Graph</text><text fill="#000000" font-family="sans-serif" font-size="10" lengthAdjust="spacing" textLength="96" x="168.75" y="136.4163">ual.eda2.practica03</text><line style="stroke:#181818;stroke-width:0.5;" x1="8" x2="393" y1="143.5256" y2="143.5256"/><rect fill="none" height="6" style="stroke:#C82930;stroke-width:1.0;" width="6" x="15" y="154.2698"/><text fill="#000000" font-family="sans-serif" font-size="14" lengthAdjust="spacing" textLength="361" x="27" y="161.0608">adjacencyMap: Map&lt;Vertex, Map&lt;Vertex, Double&gt;&gt;</text><line style="stroke:#181818;stroke-width:0.5;" x1="8" x2="393" y1="168.0139" y2="168.0139"/><ellipse cx="18" cy="181.758" fill="#84BE84" rx="3" ry="3" style="stroke:#038048;stroke-width:1.0;"/><text fill="#000000" font-family="sans-serif" font-size="14" lengthAdjust="spacing" textLength="163" x="27" y="185.5491">addVertex(Vertex): void</text><ellipse cx="18" cy="198.2463" fill="#84BE84" rx="3" ry="3" style="stroke:#038048;stroke-width:1.0;"/><text fill="#000000" font-family="sans-serif" font-size="14" lengthAdjust="spacing" textLength="261" x="27" y="202.0373">addEdge(Vertex, Vertex, double): void</text><ellipse cx="18" cy="214.7346" fill="#84BE84" rx="3" ry="3" style="stroke:#038048;stroke-width:1.0;"/><text fill="#000000" font-family="sans-serif" font-size="14" lengthAdjust="spacing" textLength="182" x="27" y="218.5256">getVertices(): Set&lt;Vertex&gt;</text><ellipse cx="18" cy="231.2229" fill="#84BE84" rx="3" ry="3" style="stroke:#038048;stroke-width:1.0;"/><text fill="#000000" font-family="sans-serif" font-size="14" lengthAdjust="spacing" textLength="248" x="27" y="235.0139">adyacentes(Vertex, Vertex): boolean</text><ellipse cx="18" cy="247.7112" fill="#84BE84" rx="3" ry="3" style="stroke:#038048;stroke-width:1.0;"/><text fill="#000000" font-family="sans-serif" font-size="14" lengthAdjust="spacing" textLength="197" x="27" y="251.5022">peso(Vertex, Vertex): double</text><ellipse cx="18" cy="264.1995" fill="#84BE84" rx="3" ry="3" style="stroke:#038048;stroke-width:1.0;"/><text fill="#000000" font-family="sans-serif" font-size="14" lengthAdjust="spacing" textLength="210" x="27" y="267.9905">weight(Vertex, Vertex): double</text><ellipse cx="18" cy="280.6877" fill="#84BE84" rx="3" ry="3" style="stroke:#038048;stroke-width:1.0;"/><text fill="#000000" font-family="sans-serif" font-size="14" lengthAdjust="spacing" textLength="122" x="27" y="284.4788">printGraph(): void</text><ellipse cx="18" cy="297.176" fill="#84BE84" rx="3" ry="3" style="stroke:#038048;stroke-width:1.0;"/><text fill="#000000" font-family="sans-serif" font-size="14" lengthAdjust="spacing" textLength="63" x="27" y="300.967">size(): int</text><ellipse cx="18" cy="313.6643" fill="#84BE84" rx="3" ry="3" style="stroke:#038048;stroke-width:1.0;"/><text fill="#000000" font-family="sans-serif" font-size="14" lengthAdjust="spacing" textLength="238" x="27" y="317.4553">get(Vertex): Map&lt;Vertex, Double&gt;</text></g></a><!--class java.lang.Object--><g id="elem_java.lang.Object"><rect codeLine="18" fill="#F1F1F1" height="38.2656" id="java.lang.Object" rx="2.5" ry="2.5" style="stroke:#181818;stroke-width:0.5;" width="76" x="162.5" y="7"/><ellipse cx="177.5" cy="26.1328" fill="#ADD1B2" rx="11" ry="11" style="stroke:#181818;stroke-width:1.0;"/><path d="M179.9731,32.2759 Q179.3921,32.5747 178.7529,32.7241 Q178.1138,32.8735 177.4082,32.8735 Q174.9014,32.8735 173.5815,31.2217 Q172.2617,29.5698 172.2617,26.4487 Q172.2617,23.3193 173.5815,21.6675 Q174.9014,20.0156 177.4082,20.0156 Q178.1138,20.0156 178.7612,20.165 Q179.4087,20.3145 179.9731,20.6133 L179.9731,23.3359 Q179.3423,22.7549 178.7488,22.4851 Q178.1553,22.2153 177.5244,22.2153 Q176.1797,22.2153 175.4949,23.282 Q174.8101,24.3486 174.8101,26.4487 Q174.8101,28.5405 175.4949,29.6072 Q176.1797,30.6738 177.5244,30.6738 Q178.1553,30.6738 178.7488,30.4041 Q179.3423,30.1343 179.9731,29.5532 Z " fill="#000000"/><text fill="#000000" font-family="sans-serif" font-size="14" lengthAdjust="spacing" textLength="44" x="191.5" y="25.5352">Object</text><text fill="#000000" font-family="sans-serif" font-size="10" lengthAdjust="spacing" textLength="44" x="191.5" y="38.1563">java.lang</text></g><!--reverse link java.lang.Object to ual.eda2.practica03.Graph--><g id="link_java.lang.Object_ual.eda2.practica03.Graph"><path codeLine="20" d="M200.5,67.02 C200.5,78.39 200.5,91.35 200.5,104.76 " fill="none" id="java.lang.Object-backto-ual.eda2.practica03.Graph" style="stroke:#181818;stroke-width:1.0;"/><polygon fill="none" points="193.5,67.23,200.5,47.23,207.5,67.23,193.5,67.23" style="stroke:#181818;stroke-width:1.0;"/></g><text fill="#888888" font-family="sans-serif" font-size="10" lengthAdjust="spacing" textLength="182" x="102.5" y="340.0764">UMLDoclet 2.1.0, PlantUML 1.2022.14</text><!--SRC=[XP9BRy8m3CVl-nGMqgIYGGHi9uHwOjfbQ9FGTc4xcCQqGMaI9O6DFRxxqfJ72apheMx-_lbHEm00ZZmeBCaPp6XA1YrwRK5fHHV13ONW15GQlu658CdTiLgIBtIGevv9T0vQ8oS-QDY_IUyick95RS-zT8MI4SS1CnOpBpBiNRS07PpHMOo5sInQLlXIlhx2PonJFLtaoz2ooZOJD4C8hz4pMK_ldSRtMA_caj9q7tU5dDVEf3Rj8Qoru0tWbkUKx5BiB8-fJl2SV4M8Z5mId5Fos-ADcfkgLn-GPjOGCDTQ4ge3RCZfKwokVg3UIEI5_vypLYWVPvYSj5wjfL83qVYVmsJEZ3AIt-Vt_J1VKkP_BNo9QsGILHxNl3-n6goJ7Aim-kfs_xuIsyhLD2qijAxCq-H-h3CPxlA0zLcl0uyXdmygNAx9Eg5Lqlu1]--></g></svg>