<?xml version="1.0" encoding="UTF-8" standalone="no"?><svg xmlns="http://www.w3.org/2000/svg" xmlns:xlink="http://www.w3.org/1999/xlink" contentStyleType="text/css" height="226px" preserveAspectRatio="none" style="width:472px;height:226px;background:#FFFFFF;" version="1.1" viewBox="0 0 472 226" width="472px" zoomAndPan="magnify"><defs/><g><!--class ual.eda2.practica03.MainTSPRecursive--><a href="MainTSPRecursive.html" target="_top" title="MainTSPRecursive.html" xlink:actuate="onRequest" xlink:href="MainTSPRecursive.html" xlink:show="new" xlink:title="MainTSPRecursive.html" xlink:type="simple"><g id="elem_ual.eda2.practica03.MainTSPRecursive"><rect codeLine="5" fill="#F1F1F1" height="95.7305" id="ual.eda2.practica03.MainTSPRecursive" rx="2.5" ry="2.5" style="stroke:#181818;stroke-width:0.5;" width="458" x="7" y="105.27"/><ellipse cx="170.25" cy="124.4028" fill="#ADD1B2" rx="11" ry="11" style="stroke:#181818;stroke-width:1.0;"/><path d="M172.7231,130.5459 Q172.1421,130.8447 171.5029,130.9941 Q170.8638,131.1435 170.1582,131.1435 Q167.6514,131.1435 166.3315,129.4917 Q165.0117,127.8398 165.0117,124.7187 Q165.0117,121.5893 166.3315,119.9375 Q167.6514,118.2856 170.1582,118.2856 Q170.8638,118.2856 171.5112,118.435 Q172.1587,118.5845 172.7231,118.8833 L172.7231,121.6059 Q172.0923,121.0249 171.4988,120.7551 Q170.9053,120.4853 170.2744,120.4853 Q168.9297,120.4853 168.2449,121.552 Q167.5601,122.6186 167.5601,124.7187 Q167.5601,126.8105 168.2449,127.8772 Q168.9297,128.9438 170.2744,128.9438 Q170.9053,128.9438 171.4988,128.6741 Q172.0923,128.4043 172.7231,127.8232 Z " fill="#000000"/><text fill="#000000" font-family="sans-serif" font-size="14" lengthAdjust="spacing" textLength="123" x="190.75" y="123.8052">MainTSPRecursive</text><text fill="#000000" font-family="sans-serif" font-size="10" lengthAdjust="spacing" textLength="96" x="204.25" y="136.4262">ual.eda2.practica03</text><line style="stroke:#181818;stroke-width:0.5;" x1="8" x2="464" y1="143.5356" y2="143.5356"/><ellipse cx="18" cy="157.2798" fill="#84BE84" rx="3" ry="3" style="stroke:#038048;stroke-width:1.0;"/><text fill="#000000" font-family="sans-serif" font-size="14" lengthAdjust="spacing" text-decoration="underline" textLength="132" x="27" y="161.0708">main(String[]): void</text><ellipse cx="18" cy="173.768" fill="#84BE84" rx="3" ry="3" style="stroke:#038048;stroke-width:1.0;"/><text fill="#000000" font-family="sans-serif" font-size="14" lengthAdjust="spacing" text-decoration="underline" textLength="230" x="27" y="177.5591">readGraphFromFile(String): Grafo</text><rect fill="#F24D5C" height="6" style="stroke:#C82930;stroke-width:1.0;" width="6" x="15" y="187.2563"/><text fill="#000000" font-family="sans-serif" font-size="14" lengthAdjust="spacing" text-decoration="underline" textLength="432" x="27" y="194.0473">getOrCreateVertex(Map&lt;String, Vertex&gt;, Grafo, String): Vertex</text></g></a><!--class java.lang.Object--><g id="elem_java.lang.Object"><rect codeLine="11" fill="#F1F1F1" height="38.2656" id="java.lang.Object" rx="2.5" ry="2.5" style="stroke:#181818;stroke-width:0.5;" width="76" x="198" y="7"/><ellipse cx="213" cy="26.1328" fill="#ADD1B2" rx="11" ry="11" style="stroke:#181818;stroke-width:1.0;"/><path d="M215.4731,32.2759 Q214.8921,32.5747 214.2529,32.7241 Q213.6138,32.8735 212.9082,32.8735 Q210.4014,32.8735 209.0815,31.2217 Q207.7617,29.5698 207.7617,26.4487 Q207.7617,23.3193 209.0815,21.6675 Q210.4014,20.0156 212.9082,20.0156 Q213.6138,20.0156 214.2612,20.165 Q214.9087,20.3145 215.4731,20.6133 L215.4731,23.3359 Q214.8423,22.7549 214.2488,22.4851 Q213.6553,22.2153 213.0244,22.2153 Q211.6797,22.2153 210.9949,23.282 Q210.3101,24.3486 210.3101,26.4487 Q210.3101,28.5405 210.9949,29.6072 Q211.6797,30.6738 213.0244,30.6738 Q213.6553,30.6738 214.2488,30.4041 Q214.8423,30.1343 215.4731,29.5532 Z " fill="#000000"/><text fill="#000000" font-family="sans-serif" font-size="14" lengthAdjust="spacing" textLength="44" x="227" y="25.5352">Object</text><text fill="#000000" font-family="sans-serif" font-size="10" lengthAdjust="spacing" textLength="44" x="227" y="38.1563">java.lang</text></g><!--reverse link java.lang.Object to ual.eda2.practica03.MainTSPRecursive--><g id="link_java.lang.Object_ual.eda2.practica03.MainTSPRecursive"><path codeLine="13" d="M236,66.72 C236,78.87 236,92.37 236,104.98 " fill="none" id="java.lang.Object-backto-ual.eda2.practica03.MainTSPRecursive" style="stroke:#181818;stroke-width:1.0;"/><polygon fill="none" points="229,67.09,236,47.09,243,67.09,229,67.09" style="stroke:#181818;stroke-width:1.0;"/></g><text fill="#888888" font-family="sans-serif" font-size="10" lengthAdjust="spacing" textLength="182" x="138" y="216.6684">UMLDoclet 2.1.0, PlantUML 1.2022.14</text><!--SRC=[ZPB1JW8n48RlFiM4n0JYRWFeYH0k6hn88A9U5WvZTvOjwRQRTjYeoBjRTWanAmTxQVhDV7ycam80U68mM90lKTAIIdJ8re6nXgv26NAL4b1HyYTaYdJgsxGWpct0DPSQlOVEsAil6Wtk9ZDKvcMvU2QvSrvLj3AdKd-oGoqenQ4e7KfM4lkt7K0F5xXenq2Ij978kT3hDUphEOvdxnc3Vu2R8lHsb-oKsIJhtWWggz8BROumVNHOvbDdYwdIT7A24N1c_ohnXdZkxeF8z4QEwQCxmtBSQ14qQ18rUWJdkAPGvnqkBsx-lYN9lzQrnGg5HhEfbtH-YQQn2MbJ67_7yRyMUXg239E3pDhZzJfxUh1IX_yn50FHZs0HeZbGkAueMDPqUpy0]--></g></svg>