<?xml version="1.0" encoding="UTF-8" standalone="no"?><svg xmlns="http://www.w3.org/2000/svg" xmlns:xlink="http://www.w3.org/1999/xlink" contentStyleType="text/css" height="333px" preserveAspectRatio="none" style="width:331px;height:333px;background:#FFFFFF;" version="1.1" viewBox="0 0 331 333" width="331px" zoomAndPan="magnify"><defs/><g><!--class ual.eda2.practica03.TSPRecursive--><a href="TSPRecursive.html" target="_top" title="TSPRecursive.html" xlink:actuate="onRequest" xlink:href="TSPRecursive.html" xlink:show="new" xlink:title="TSPRecursive.html" xlink:type="simple"><g id="elem_ual.eda2.practica03.TSPRecursive"><rect codeLine="5" fill="#F1F1F1" height="202.6602" id="ual.eda2.practica03.TSPRecursive" rx="2.5" ry="2.5" style="stroke:#181818;stroke-width:0.5;" width="317" x="7" y="105.27"/><ellipse cx="113.25" cy="124.4028" fill="#ADD1B2" rx="11" ry="11" style="stroke:#181818;stroke-width:1.0;"/><path d="M115.7231,130.5459 Q115.1421,130.8447 114.5029,130.9941 Q113.8638,131.1435 113.1582,131.1435 Q110.6514,131.1435 109.3315,129.4917 Q108.0117,127.8398 108.0117,124.7187 Q108.0117,121.5893 109.3315,119.9375 Q110.6514,118.2856 113.1582,118.2856 Q113.8638,118.2856 114.5112,118.435 Q115.1587,118.5845 115.7231,118.8833 L115.7231,121.6059 Q115.0923,121.0249 114.4988,120.7551 Q113.9053,120.4853 113.2744,120.4853 Q111.9297,120.4853 111.2449,121.552 Q110.5601,122.6186 110.5601,124.7187 Q110.5601,126.8105 111.2449,127.8772 Q111.9297,128.9438 113.2744,128.9438 Q113.9053,128.9438 114.4988,128.6741 Q115.0923,128.4043 115.7231,127.8232 Z " fill="#000000"/><text fill="#000000" font-family="sans-serif" font-size="14" lengthAdjust="spacing" textLength="90" x="136.75" y="123.8052">TSPRecursive</text><text fill="#000000" font-family="sans-serif" font-size="10" lengthAdjust="spacing" textLength="96" x="133.75" y="136.4263">ual.eda2.practica03</text><line style="stroke:#181818;stroke-width:0.5;" x1="8" x2="323" y1="143.5356" y2="143.5356"/><rect fill="none" height="6" style="stroke:#C82930;stroke-width:1.0;" width="6" x="15" y="154.2798"/><text fill="#000000" font-family="sans-serif" font-size="14" lengthAdjust="spacing" text-decoration="underline" textLength="36" x="27" y="161.0708">N: int</text><rect fill="none" height="6" style="stroke:#C82930;stroke-width:1.0;" width="6" x="15" y="170.768"/><text fill="#000000" font-family="sans-serif" font-size="14" lengthAdjust="spacing" text-decoration="underline" textLength="139" x="27" y="177.5591">FINISHED_STATE: int</text><rect fill="none" height="6" style="stroke:#C82930;stroke-width:1.0;" width="6" x="15" y="187.2563"/><text fill="#000000" font-family="sans-serif" font-size="14" lengthAdjust="spacing" text-decoration="underline" textLength="123" x="27" y="194.0473">distance: double[]</text><rect fill="none" height="6" style="stroke:#C82930;stroke-width:1.0;" width="6" x="15" y="203.7446"/><text fill="#000000" font-family="sans-serif" font-size="14" lengthAdjust="spacing" text-decoration="underline" textLength="199" x="27" y="210.5356">caminoOptimo: List&lt;Vertex&gt;</text><rect fill="none" height="6" style="stroke:#C82930;stroke-width:1.0;" width="6" x="15" y="220.2329"/><text fill="#000000" font-family="sans-serif" font-size="14" lengthAdjust="spacing" text-decoration="underline" textLength="150" x="27" y="227.0239">vertices: List&lt;Vertex&gt;</text><line style="stroke:#181818;stroke-width:0.5;" x1="8" x2="323" y1="233.977" y2="233.977"/><ellipse cx="18" cy="247.7212" fill="#84BE84" rx="3" ry="3" style="stroke:#038048;stroke-width:1.0;"/><text fill="#000000" font-family="sans-serif" font-size="14" lengthAdjust="spacing" text-decoration="underline" textLength="255" x="27" y="251.5122">recursiveTSP(Grafo, Vertex): Solucion</text><rect fill="#F24D5C" height="6" style="stroke:#C82930;stroke-width:1.0;" width="6" x="15" y="261.2095"/><text fill="#000000" font-family="sans-serif" font-size="14" lengthAdjust="spacing" text-decoration="underline" textLength="291" x="27" y="268.0005">tsp(int, int, int, Double[], Integer[]): double</text><rect fill="#F24D5C" height="6" style="stroke:#C82930;stroke-width:1.0;" width="6" x="15" y="277.6977"/><text fill="#000000" font-family="sans-serif" font-size="14" lengthAdjust="spacing" text-decoration="underline" textLength="261" x="27" y="284.4888">reconstruirCamino(Integer[], int): void</text><rect fill="#F24D5C" height="6" style="stroke:#C82930;stroke-width:1.0;" width="6" x="15" y="294.186"/><text fill="#000000" font-family="sans-serif" font-size="14" lengthAdjust="spacing" text-decoration="underline" textLength="175" x="27" y="300.977">convertir(Grafo): double[]</text></g></a><!--class java.lang.Object--><g id="elem_java.lang.Object"><rect codeLine="17" fill="#F1F1F1" height="38.2656" id="java.lang.Object" rx="2.5" ry="2.5" style="stroke:#181818;stroke-width:0.5;" width="76" x="127.5" y="7"/><ellipse cx="142.5" cy="26.1328" fill="#ADD1B2" rx="11" ry="11" style="stroke:#181818;stroke-width:1.0;"/><path d="M144.9731,32.2759 Q144.3921,32.5747 143.7529,32.7241 Q143.1138,32.8735 142.4082,32.8735 Q139.9014,32.8735 138.5815,31.2217 Q137.2617,29.5698 137.2617,26.4487 Q137.2617,23.3193 138.5815,21.6675 Q139.9014,20.0156 142.4082,20.0156 Q143.1138,20.0156 143.7612,20.165 Q144.4087,20.3145 144.9731,20.6133 L144.9731,23.3359 Q144.3423,22.7549 143.7488,22.4851 Q143.1553,22.2153 142.5244,22.2153 Q141.1797,22.2153 140.4949,23.282 Q139.8101,24.3486 139.8101,26.4487 Q139.8101,28.5405 140.4949,29.6072 Q141.1797,30.6738 142.5244,30.6738 Q143.1553,30.6738 143.7488,30.4041 Q144.3423,30.1343 144.9731,29.5532 Z " fill="#000000"/><text fill="#000000" font-family="sans-serif" font-size="14" lengthAdjust="spacing" textLength="44" x="156.5" y="25.5352">Object</text><text fill="#000000" font-family="sans-serif" font-size="10" lengthAdjust="spacing" textLength="44" x="156.5" y="38.1563">java.lang</text></g><!--reverse link java.lang.Object to ual.eda2.practica03.TSPRecursive--><g id="link_java.lang.Object_ual.eda2.practica03.TSPRecursive"><path codeLine="19" d="M165.5,67.06 C165.5,78.52 165.5,91.57 165.5,104.96 " fill="none" id="java.lang.Object-backto-ual.eda2.practica03.TSPRecursive" style="stroke:#181818;stroke-width:1.0;"/><polygon fill="none" points="158.5,67.08,165.5,47.08,172.5,67.08,158.5,67.08" style="stroke:#181818;stroke-width:1.0;"/></g><text fill="#888888" font-family="sans-serif" font-size="10" lengthAdjust="spacing" textLength="182" x="67.5" y="323.5981">UMLDoclet 2.1.0, PlantUML 1.2022.14</text><!--SRC=[XLDHQy8m47xVhpY4GSjgKRUd8iAORXESZjNjfIiZfgT6qgGaQTdc_E-BhJgH3llGDjzzzzrznmK0GAC1GLBK6Q4OOaOKCLA1a08lR1YMB470D3DVC6V84tsAfcYMqi8bJZdH6XfTpRunQD_qfk7p2z9SQLRWkzZ1hLvEk8y9wVYP8jGmIbhN3I0QQd3_M0AYwFZeBqtAunZMPUtjizQ6sBmDDCS1C65g0lV3yJ1y7FG_mkdjTF0VAs7sLr0C897vZ6CKrv0eIPcGayomL0OmiYdTDrG6FtirvC9664LzZdYbzlQiLUT1aRdqe6Ax0OIIvvH9KLF0wConPZpuU_LtlNim50ONgABOtJkgKR2LfT16vKpTbTQSGrefQ7CBoPAwIKXH-bDLm-x9s3Rrsp6PhP2QexrOaOBud8X5kGs7aryHAv5J5Be_pURPpTarWDQFWhcKsy_hqwWlARSNeEEt_PO7prRMM1GkhHbjf-oulm00]--></g></svg>