<?xml version="1.0" encoding="UTF-8" standalone="no"?><svg xmlns="http://www.w3.org/2000/svg" xmlns:xlink="http://www.w3.org/1999/xlink" contentStyleType="text/css" height="278px" preserveAspectRatio="none" style="width:558px;height:278px;background:#FFFFFF;" version="1.1" viewBox="0 0 558 278" width="558px" zoomAndPan="magnify"><defs/><g><!--class ual.eda2.practica02.DijkstraEj3.VertexDistancePair--><a href="DijkstraEj3.VertexDistancePair.html" target="_top" title="DijkstraEj3.VertexDistancePair.html" xlink:actuate="onRequest" xlink:href="DijkstraEj3.VertexDistancePair.html" xlink:show="new" xlink:title="DijkstraEj3.VertexDistancePair.html" xlink:type="simple"><g id="elem_ual.eda2.practica02.DijkstraEj3.VertexDistancePair"><rect codeLine="5" fill="#F1F1F1" height="120.2188" id="ual.eda2.practica02.DijkstraEj3.VertexDistancePair" rx="2.5" ry="2.5" style="stroke:#181818;stroke-width:0.5;" width="269" x="118.5" y="132.75"/><ellipse cx="147.45" cy="151.8828" fill="#ADD1B2" rx="11" ry="11" style="stroke:#181818;stroke-width:1.0;"/><path d="M149.9231,158.0259 Q149.3421,158.3247 148.7029,158.4741 Q148.0638,158.6235 147.3582,158.6235 Q144.8514,158.6235 143.5315,156.9717 Q142.2117,155.3198 142.2117,152.1987 Q142.2117,149.0693 143.5315,147.4175 Q144.8514,145.7656 147.3582,145.7656 Q148.0638,145.7656 148.7112,145.915 Q149.3587,146.0645 149.9231,146.3633 L149.9231,149.0859 Q149.2923,148.5049 148.6988,148.2351 Q148.1053,147.9653 147.4744,147.9653 Q146.1297,147.9653 145.4449,149.032 Q144.7601,150.0986 144.7601,152.1987 Q144.7601,154.2905 145.4449,155.3572 Q146.1297,156.4238 147.4744,156.4238 Q148.1053,156.4238 148.6988,156.1541 Q149.2923,155.8843 149.9231,155.3032 Z " fill="#000000"/><text fill="#000000" font-family="sans-serif" font-size="14" lengthAdjust="spacing" textLength="206" x="164.55" y="151.2852">DijkstraEj3.VertexDistancePair</text><text fill="#000000" font-family="sans-serif" font-size="10" lengthAdjust="spacing" textLength="96" x="219.55" y="163.9063">ual.eda2.practica02</text><line style="stroke:#181818;stroke-width:0.5;" x1="119.5" x2="386.5" y1="171.0156" y2="171.0156"/><polygon fill="none" points="129.5,180.7598,125.5,186.7598,133.5,186.7598" style="stroke:#1963A0;stroke-width:1.0;"/><text fill="#000000" font-family="sans-serif" font-size="14" lengthAdjust="spacing" textLength="96" x="138.5" y="188.5508">vertex: Vertex</text><polygon fill="none" points="129.5,197.248,125.5,203.248,133.5,203.248" style="stroke:#1963A0;stroke-width:1.0;"/><text fill="#000000" font-family="sans-serif" font-size="14" lengthAdjust="spacing" textLength="113" x="138.5" y="205.0391">distance: double</text><line style="stroke:#181818;stroke-width:0.5;" x1="119.5" x2="386.5" y1="211.9922" y2="211.9922"/><ellipse cx="129.5" cy="225.7363" fill="#84BE84" rx="3" ry="3" style="stroke:#038048;stroke-width:1.0;"/><text fill="#000000" font-family="sans-serif" font-size="14" lengthAdjust="spacing" textLength="240" x="138.5" y="229.5273">VertexDistancePair(Vertex, double)</text><ellipse cx="129.5" cy="242.2246" fill="#84BE84" rx="3" ry="3" style="stroke:#038048;stroke-width:1.0;"/><text fill="#000000" font-family="sans-serif" font-size="14" lengthAdjust="spacing" textLength="243" x="138.5" y="246.0156">compareTo(VertexDistancePair): int</text></g></a><!--class java.lang.Object--><g id="elem_java.lang.Object"><rect codeLine="12" fill="#F1F1F1" height="38.2656" id="java.lang.Object" rx="2.5" ry="2.5" style="stroke:#181818;stroke-width:0.5;" width="76" x="7" y="22.24"/><ellipse cx="22" cy="41.3728" fill="#ADD1B2" rx="11" ry="11" style="stroke:#181818;stroke-width:1.0;"/><path d="M24.4731,47.5159 Q23.8921,47.8147 23.2529,47.9641 Q22.6138,48.1135 21.9082,48.1135 Q19.4014,48.1135 18.0815,46.4617 Q16.7617,44.8098 16.7617,41.6887 Q16.7617,38.5593 18.0815,36.9075 Q19.4014,35.2556 21.9082,35.2556 Q22.6138,35.2556 23.2612,35.405 Q23.9087,35.5545 24.4731,35.8533 L24.4731,38.5759 Q23.8423,37.9949 23.2488,37.7251 Q22.6553,37.4553 22.0244,37.4553 Q20.6797,37.4553 19.9949,38.522 Q19.3101,39.5886 19.3101,41.6887 Q19.3101,43.7805 19.9949,44.8472 Q20.6797,45.9138 22.0244,45.9138 Q22.6553,45.9138 23.2488,45.6441 Q23.8423,45.3743 24.4731,44.7932 Z " fill="#000000"/><text fill="#000000" font-family="sans-serif" font-size="14" lengthAdjust="spacing" textLength="44" x="36" y="40.7752">Object</text><text fill="#000000" font-family="sans-serif" font-size="10" lengthAdjust="spacing" textLength="44" x="36" y="53.3963">java.lang</text></g><!--class java.lang.Comparable--><g id="elem_java.lang.Comparable"><rect codeLine="13" fill="#F1F1F1" height="62.7539" id="java.lang.Comparable" rx="2.5" ry="2.5" style="stroke:#181818;stroke-width:0.5;" width="269" x="118.5" y="10"/><ellipse cx="151.5" cy="29.1328" fill="#B4A7E5" rx="11" ry="11" style="stroke:#181818;stroke-width:1.0;"/><path d="M147.9277,25.3979 L147.9277,23.2397 L155.3071,23.2397 L155.3071,25.3979 L152.8418,25.3979 L152.8418,33.4746 L155.3071,33.4746 L155.3071,35.6328 L147.9277,35.6328 L147.9277,33.4746 L150.3931,33.4746 L150.3931,25.3979 Z " fill="#000000"/><text fill="#000000" font-family="sans-serif" font-size="14" font-style="italic" lengthAdjust="spacing" textLength="84" x="169.5" y="28.5352">Comparable</text><text fill="#000000" font-family="sans-serif" font-size="10" font-style="italic" lengthAdjust="spacing" textLength="44" x="189.5" y="41.1563">java.lang</text><rect fill="#FFFFFF" height="16.1328" style="stroke:#181818;stroke-width:1.0;stroke-dasharray:2.0,2.0;" width="111" x="279.5" y="7"/><text fill="#000000" font-family="sans-serif" font-size="12" font-style="italic" lengthAdjust="spacing" textLength="109" x="280.5" y="19.6016">VertexDistancePair</text><line style="stroke:#181818;stroke-width:0.5;" x1="119.5" x2="386.5" y1="48.2656" y2="48.2656"/><ellipse cx="129.5" cy="62.0098" fill="#84BE84" rx="3" ry="3" style="stroke:#038048;stroke-width:1.0;"/><text fill="#000000" font-family="sans-serif" font-size="14" font-style="italic" lengthAdjust="spacing" textLength="243" x="138.5" y="65.8008">compareTo(VertexDistancePair): int</text></g><!--class ual.eda2.practica02.DijkstraEj3--><a href="DijkstraEj3.html" target="_top" title="DijkstraEj3.html" xlink:actuate="onRequest" xlink:href="DijkstraEj3.html" xlink:show="new" xlink:title="DijkstraEj3.html" xlink:type="simple"><g id="elem_ual.eda2.practica02.DijkstraEj3"><rect codeLine="16" fill="#F1F1F1" height="38.2656" id="ual.eda2.practica02.DijkstraEj3" rx="2.5" ry="2.5" style="stroke:#181818;stroke-width:0.5;" width="128" x="423" y="22.24"/><ellipse cx="438" cy="41.3728" fill="#ADD1B2" rx="11" ry="11" style="stroke:#181818;stroke-width:1.0;"/><path d="M440.4731,47.5159 Q439.8921,47.8147 439.2529,47.9641 Q438.6138,48.1135 437.9082,48.1135 Q435.4014,48.1135 434.0815,46.4617 Q432.7617,44.8098 432.7617,41.6887 Q432.7617,38.5593 434.0815,36.9075 Q435.4014,35.2556 437.9082,35.2556 Q438.6138,35.2556 439.2612,35.405 Q439.9087,35.5545 440.4731,35.8533 L440.4731,38.5759 Q439.8423,37.9949 439.2488,37.7251 Q438.6553,37.4553 438.0244,37.4553 Q436.6797,37.4553 435.9949,38.522 Q435.3101,39.5886 435.3101,41.6887 Q435.3101,43.7805 435.9949,44.8472 Q436.6797,45.9138 438.0244,45.9138 Q438.6553,45.9138 439.2488,45.6441 Q439.8423,45.3743 440.4731,44.7932 Z " fill="#000000"/><text fill="#000000" font-family="sans-serif" font-size="14" lengthAdjust="spacing" textLength="73" x="463.5" y="40.7752">DijkstraEj3</text><text fill="#000000" font-family="sans-serif" font-size="10" lengthAdjust="spacing" textLength="96" x="452" y="53.3963">ual.eda2.practica02</text></g></a><!--reverse link java.lang.Object to ual.eda2.practica02.DijkstraEj3.VertexDistancePair--><g id="link_java.lang.Object_ual.eda2.practica02.DijkstraEj3.VertexDistancePair"><path codeLine="18" d="M88.07,73.33 C111.88,90.44 142.28,112.29 170.47,132.55 " fill="none" id="java.lang.Object-backto-ual.eda2.practica02.DijkstraEj3.VertexDistancePair" style="stroke:#181818;stroke-width:1.0;"/><polygon fill="none" points="84.31,79.24,72.15,61.89,92.48,67.88,84.31,79.24" style="stroke:#181818;stroke-width:1.0;"/></g><!--reverse link java.lang.Comparable to ual.eda2.practica02.DijkstraEj3.VertexDistancePair--><g id="link_java.lang.Comparable_ual.eda2.practica02.DijkstraEj3.VertexDistancePair"><path codeLine="19" d="M253,94.36 C253,106.59 253,119.72 253,132.26 " fill="none" id="java.lang.Comparable-backto-ual.eda2.practica02.DijkstraEj3.VertexDistancePair" style="stroke:#181818;stroke-width:1.0;stroke-dasharray:7.0,7.0;"/><polygon fill="none" points="246,94.5,253,74.5,260,94.5,246,94.5" style="stroke:#181818;stroke-width:1.0;"/></g><!--reverse link ual.eda2.practica02.DijkstraEj3 to ual.eda2.practica02.DijkstraEj3.VertexDistancePair--><g id="link_ual.eda2.practica02.DijkstraEj3_ual.eda2.practica02.DijkstraEj3.VertexDistancePair"><path codeLine="20" d="M444.01,69.84 C416.59,87.36 379.95,110.76 346.11,132.38 " fill="none" id="ual.eda2.practica02.DijkstraEj3-backto-ual.eda2.practica02.DijkstraEj3.VertexDistancePair" style="stroke:#181818;stroke-width:1.0;"/><ellipse cx="449.8204" cy="66.1303" fill="#FFFFFF" rx="8" ry="8" style="stroke:#181818;stroke-width:1.0;"/><line style="stroke:#181818;stroke-width:1.0;" x1="443.0809" x2="456.56" y1="70.4405" y2="61.82"/><line style="stroke:#181818;stroke-width:1.0;" x1="445.5102" x2="454.1307" y1="59.3907" y2="72.8698"/></g><text fill="#888888" font-family="sans-serif" font-size="10" lengthAdjust="spacing" textLength="182" x="181" y="268.6367">UMLDoclet 2.1.0, PlantUML 1.2022.14</text><!--SRC=[fLDDJm8n5BpxArv8J2120-XfGxY8DuqaVboGmwFxaAxTTjCMeYB-ThjTmfA5WE9UcfrE9_EcKm00ImuKfcGpvFH06Hfqse3IYixyDin4J41fvZvWAaZ6jegcv6RQmm7d4gs5Mi-AJuewL_s1IDwiCtYJNB9dCexU1y8wL9o6ACoBMXFR_JbAHZ5sMMQGEy6ntQq1MjY3iyEYC1eT9h2PI-Lu3ClWEF- -5u4KGK4kyNXzB89OpoUIDZiNkxBr0cgkgOsIotNgOwL7NTyzrOX0A1Uug_qHtayIucuhgWGNo2Igrn3GveyLnA3X9SbC_OLkwLm75-Yj_KAh9FTsFVUteblY94-QkzKVvZpIbF_NejA1uiABUAjvGU-hrJgXPXMnCZ0loDYfWiVckZZDQv4uvQs0gTRvydHtEz1S-jVVPHtMRiBGp-4y2kV-DLYXLRtn0m00]--></g></svg>