<?xml version="1.0" encoding="UTF-8" standalone="no"?><svg xmlns="http://www.w3.org/2000/svg" xmlns:xlink="http://www.w3.org/1999/xlink" contentStyleType="text/css" height="295px" preserveAspectRatio="none" style="width:514px;height:295px;background:#FFFFFF;" version="1.1" viewBox="0 0 514 295" width="514px" zoomAndPan="magnify"><defs/><g><!--class ual.eda2.practica02.DijkstraEj8.VertexTriple--><a href="DijkstraEj8.VertexTriple.html" target="_top" title="DijkstraEj8.VertexTriple.html" xlink:actuate="onRequest" xlink:href="DijkstraEj8.VertexTriple.html" xlink:show="new" xlink:title="DijkstraEj8.VertexTriple.html" xlink:type="simple"><g id="elem_ual.eda2.practica02.DijkstraEj8.VertexTriple"><rect codeLine="5" fill="#F1F1F1" height="136.707" id="ual.eda2.practica02.DijkstraEj8.VertexTriple" rx="2.5" ry="2.5" style="stroke:#181818;stroke-width:0.5;" width="275" x="93.5" y="132.75"/><ellipse cx="145.75" cy="151.8828" fill="#ADD1B2" rx="11" ry="11" style="stroke:#181818;stroke-width:1.0;"/><path d="M148.2231,158.0259 Q147.6421,158.3247 147.0029,158.4741 Q146.3638,158.6235 145.6582,158.6235 Q143.1514,158.6235 141.8315,156.9717 Q140.5117,155.3198 140.5117,152.1987 Q140.5117,149.0693 141.8315,147.4175 Q143.1514,145.7656 145.6582,145.7656 Q146.3638,145.7656 147.0112,145.915 Q147.6587,146.0645 148.2231,146.3633 L148.2231,149.0859 Q147.5923,148.5049 146.9988,148.2351 Q146.4053,147.9653 145.7744,147.9653 Q144.4297,147.9653 143.7449,149.032 Q143.0601,150.0986 143.0601,152.1987 Q143.0601,154.2905 143.7449,155.3572 Q144.4297,156.4238 145.7744,156.4238 Q146.4053,156.4238 146.9988,156.1541 Q147.5923,155.8843 148.2231,155.3032 Z " fill="#000000"/><text fill="#000000" font-family="sans-serif" font-size="14" lengthAdjust="spacing" textLength="162" x="166.25" y="151.2852">DijkstraEj8.VertexTriple</text><text fill="#000000" font-family="sans-serif" font-size="10" lengthAdjust="spacing" textLength="96" x="199.25" y="163.9062">ual.eda2.practica02</text><line style="stroke:#181818;stroke-width:0.5;" x1="94.5" x2="367.5" y1="171.0156" y2="171.0156"/><polygon fill="none" points="104.5,180.7598,100.5,186.7598,108.5,186.7598" style="stroke:#1963A0;stroke-width:1.0;"/><text fill="#000000" font-family="sans-serif" font-size="14" lengthAdjust="spacing" textLength="67" x="113.5" y="188.5508">to: Vertex</text><polygon fill="none" points="104.5,197.248,100.5,203.248,108.5,203.248" style="stroke:#1963A0;stroke-width:1.0;"/><text fill="#000000" font-family="sans-serif" font-size="14" lengthAdjust="spacing" textLength="113" x="113.5" y="205.0391">distance: double</text><polygon fill="none" points="104.5,213.7363,100.5,219.7363,108.5,219.7363" style="stroke:#1963A0;stroke-width:1.0;"/><text fill="#000000" font-family="sans-serif" font-size="14" lengthAdjust="spacing" textLength="86" x="113.5" y="221.5273">from: Vertex</text><line style="stroke:#181818;stroke-width:0.5;" x1="94.5" x2="367.5" y1="228.4805" y2="228.4805"/><ellipse cx="104.5" cy="242.2246" fill="#84BE84" rx="3" ry="3" style="stroke:#038048;stroke-width:1.0;"/><text fill="#000000" font-family="sans-serif" font-size="14" lengthAdjust="spacing" textLength="249" x="113.5" y="246.0156">VertexTriple(Vertex, double, Vertex)</text><ellipse cx="104.5" cy="258.7129" fill="#84BE84" rx="3" ry="3" style="stroke:#038048;stroke-width:1.0;"/><text fill="#000000" font-family="sans-serif" font-size="14" lengthAdjust="spacing" textLength="199" x="113.5" y="262.5039">compareTo(VertexTriple): int</text></g></a><!--class java.lang.Object--><g id="elem_java.lang.Object"><rect codeLine="13" fill="#F1F1F1" height="38.2656" id="java.lang.Object" rx="2.5" ry="2.5" style="stroke:#181818;stroke-width:0.5;" width="76" x="7" y="22.24"/><ellipse cx="22" cy="41.3728" fill="#ADD1B2" rx="11" ry="11" style="stroke:#181818;stroke-width:1.0;"/><path d="M24.4731,47.5159 Q23.8921,47.8147 23.2529,47.9641 Q22.6138,48.1135 21.9082,48.1135 Q19.4014,48.1135 18.0815,46.4617 Q16.7617,44.8098 16.7617,41.6887 Q16.7617,38.5593 18.0815,36.9075 Q19.4014,35.2556 21.9082,35.2556 Q22.6138,35.2556 23.2612,35.405 Q23.9087,35.5545 24.4731,35.8533 L24.4731,38.5759 Q23.8423,37.9949 23.2488,37.7251 Q22.6553,37.4553 22.0244,37.4553 Q20.6797,37.4553 19.9949,38.522 Q19.3101,39.5886 19.3101,41.6887 Q19.3101,43.7805 19.9949,44.8472 Q20.6797,45.9138 22.0244,45.9138 Q22.6553,45.9138 23.2488,45.6441 Q23.8423,45.3743 24.4731,44.7932 Z " fill="#000000"/><text fill="#000000" font-family="sans-serif" font-size="14" lengthAdjust="spacing" textLength="44" x="36" y="40.7752">Object</text><text fill="#000000" font-family="sans-serif" font-size="10" lengthAdjust="spacing" textLength="44" x="36" y="53.3962">java.lang</text></g><!--class java.lang.Comparable--><g id="elem_java.lang.Comparable"><rect codeLine="14" fill="#F1F1F1" height="62.7539" id="java.lang.Comparable" rx="2.5" ry="2.5" style="stroke:#181818;stroke-width:0.5;" width="225" x="118.5" y="10"/><ellipse cx="148.35" cy="29.1328" fill="#B4A7E5" rx="11" ry="11" style="stroke:#181818;stroke-width:1.0;"/><path d="M144.7777,25.3979 L144.7777,23.2397 L152.1571,23.2397 L152.1571,25.3979 L149.6918,25.3979 L149.6918,33.4746 L152.1571,33.4746 L152.1571,35.6328 L144.7777,35.6328 L144.7777,33.4746 L147.2431,33.4746 L147.2431,25.3979 Z " fill="#000000"/><text fill="#000000" font-family="sans-serif" font-size="14" font-style="italic" lengthAdjust="spacing" textLength="84" x="165.65" y="28.5352">Comparable</text><text fill="#000000" font-family="sans-serif" font-size="10" font-style="italic" lengthAdjust="spacing" textLength="44" x="185.65" y="41.1563">java.lang</text><rect fill="#FFFFFF" height="16.1328" style="stroke:#181818;stroke-width:1.0;stroke-dasharray:2.0,2.0;" width="74" x="272.5" y="7"/><text fill="#000000" font-family="sans-serif" font-size="12" font-style="italic" lengthAdjust="spacing" textLength="72" x="273.5" y="19.6016">VertexTriple</text><line style="stroke:#181818;stroke-width:0.5;" x1="119.5" x2="342.5" y1="48.2656" y2="48.2656"/><ellipse cx="129.5" cy="62.0098" fill="#84BE84" rx="3" ry="3" style="stroke:#038048;stroke-width:1.0;"/><text fill="#000000" font-family="sans-serif" font-size="14" font-style="italic" lengthAdjust="spacing" textLength="199" x="138.5" y="65.8008">compareTo(VertexTriple): int</text></g><!--class ual.eda2.practica02.DijkstraEj8--><a href="DijkstraEj8.html" target="_top" title="DijkstraEj8.html" xlink:actuate="onRequest" xlink:href="DijkstraEj8.html" xlink:show="new" xlink:title="DijkstraEj8.html" xlink:type="simple"><g id="elem_ual.eda2.practica02.DijkstraEj8"><rect codeLine="17" fill="#F1F1F1" height="38.2656" id="ual.eda2.practica02.DijkstraEj8" rx="2.5" ry="2.5" style="stroke:#181818;stroke-width:0.5;" width="128" x="379" y="22.24"/><ellipse cx="394" cy="41.3728" fill="#ADD1B2" rx="11" ry="11" style="stroke:#181818;stroke-width:1.0;"/><path d="M396.4731,47.5159 Q395.8921,47.8147 395.2529,47.9641 Q394.6138,48.1135 393.9082,48.1135 Q391.4014,48.1135 390.0815,46.4617 Q388.7617,44.8098 388.7617,41.6887 Q388.7617,38.5593 390.0815,36.9075 Q391.4014,35.2556 393.9082,35.2556 Q394.6138,35.2556 395.2612,35.405 Q395.9087,35.5545 396.4731,35.8533 L396.4731,38.5759 Q395.8423,37.9949 395.2488,37.7251 Q394.6553,37.4553 394.0244,37.4553 Q392.6797,37.4553 391.9949,38.522 Q391.3101,39.5886 391.3101,41.6887 Q391.3101,43.7805 391.9949,44.8472 Q392.6797,45.9138 394.0244,45.9138 Q394.6553,45.9138 395.2488,45.6441 Q395.8423,45.3743 396.4731,44.7932 Z " fill="#000000"/><text fill="#000000" font-family="sans-serif" font-size="14" lengthAdjust="spacing" textLength="73" x="419.5" y="40.7752">DijkstraEj8</text><text fill="#000000" font-family="sans-serif" font-size="10" lengthAdjust="spacing" textLength="96" x="408" y="53.3962">ual.eda2.practica02</text></g></a><!--reverse link java.lang.Object to ual.eda2.practica02.DijkstraEj8.VertexTriple--><g id="link_java.lang.Object_ual.eda2.practica02.DijkstraEj8.VertexTriple"><path codeLine="19" d="M82.88,74.5 C102.64,91.26 127.6,112.42 151.36,132.57 " fill="none" id="java.lang.Object-backto-ual.eda2.practica02.DijkstraEj8.VertexTriple" style="stroke:#181818;stroke-width:1.0;"/><polygon fill="none" points="78.58,80.03,67.85,61.76,87.64,69.35,78.58,80.03" style="stroke:#181818;stroke-width:1.0;"/></g><!--reverse link java.lang.Comparable to ual.eda2.practica02.DijkstraEj8.VertexTriple--><g id="link_java.lang.Comparable_ual.eda2.practica02.DijkstraEj8.VertexTriple"><path codeLine="20" d="M231,94.4 C231,106.59 231,119.75 231,132.52 " fill="none" id="java.lang.Comparable-backto-ual.eda2.practica02.DijkstraEj8.VertexTriple" style="stroke:#181818;stroke-width:1.0;stroke-dasharray:7.0,7.0;"/><polygon fill="none" points="224,94.68,231,74.68,238,94.68,224,94.68" style="stroke:#181818;stroke-width:1.0;"/></g><!--reverse link ual.eda2.practica02.DijkstraEj8 to ual.eda2.practica02.DijkstraEj8.VertexTriple--><g id="link_ual.eda2.practica02.DijkstraEj8_ual.eda2.practica02.DijkstraEj8.VertexTriple"><path codeLine="21" d="M405.19,70.51 C381.93,87.81 351.06,110.78 321.77,132.57 " fill="none" id="ual.eda2.practica02.DijkstraEj8-backto-ual.eda2.practica02.DijkstraEj8.VertexTriple" style="stroke:#181818;stroke-width:1.0;"/><ellipse cx="410.6309" cy="66.4544" fill="#FFFFFF" rx="8" ry="8" style="stroke:#181818;stroke-width:1.0;"/><line style="stroke:#181818;stroke-width:1.0;" x1="404.2117" x2="417.05" y1="71.2288" y2="61.68"/><line style="stroke:#181818;stroke-width:1.0;" x1="405.8565" x2="415.4052" y1="60.0352" y2="72.8735"/></g><text fill="#888888" font-family="sans-serif" font-size="10" lengthAdjust="spacing" textLength="182" x="159" y="285.125">UMLDoclet 2.1.0, PlantUML 1.2022.14</text><!--SRC=[fPDHJy8m4CVV_HGN4XE8q03nmIo45_5Deude2_9mwsxIsRLBMuYA-DdjDkBcX21nBqtl_ltt-hiR080b1mfJiXbokgSC3JfjG6b59puD2n4HK9gvDuW5oSWseocvXVRX8iubMWkjaHNl50pEnnEHl5Xdy2gvO8za7BrEZSWaFQcjf3zUecGKuP1b1haJ7Fl35g257N6spmvcitqfjd2fdCzXNTINVvzE1r1AgbWah4F5AO18BqD9LIOsElsbFwjVqIuttUtHxbRSgTHSfnuiJNMxVguJW52kK6rsuxiD4-Ak1Yl15JA9whb0zBrZfR3my9PaOj_CcizbSJ-6Fy3lywh4etgrunh2DOOvQ-usVthRWSdu_p0q-b-sl4JQP0IZZrxlgE5gs5Hul1LZnriTUilPiVMLV2dlEyHQvyl3pVL4S-d_xI4Ri7uNxdpjpaVXT4N62gtQdIy0]--></g></svg>