<?xml version="1.0" encoding="UTF-8" standalone="no"?><svg xmlns="http://www.w3.org/2000/svg" xmlns:xlink="http://www.w3.org/1999/xlink" contentStyleType="text/css" height="324px" preserveAspectRatio="none" style="width:561px;height:324px;background:#FFFFFF;" version="1.1" viewBox="0 0 561 324" width="561px" zoomAndPan="magnify"><defs/><g><!--class ual.eda2.practica02.DijkstraEj8--><a href="DijkstraEj8.html" target="_top" title="DijkstraEj8.html" xlink:actuate="onRequest" xlink:href="DijkstraEj8.html" xlink:show="new" xlink:title="DijkstraEj8.html" xlink:type="simple"><g id="elem_ual.eda2.practica02.DijkstraEj8"><rect codeLine="5" fill="#F1F1F1" height="95.7305" id="ual.eda2.practica02.DijkstraEj8" rx="2.5" ry="2.5" style="stroke:#181818;stroke-width:0.5;" width="547" x="7" y="105.26"/><ellipse cx="228.25" cy="124.3928" fill="#ADD1B2" rx="11" ry="11" style="stroke:#181818;stroke-width:1.0;"/><path d="M230.7231,130.5359 Q230.1421,130.8347 229.5029,130.9841 Q228.8638,131.1335 228.1582,131.1335 Q225.6514,131.1335 224.3315,129.4817 Q223.0117,127.8298 223.0117,124.7087 Q223.0117,121.5793 224.3315,119.9275 Q225.6514,118.2756 228.1582,118.2756 Q228.8638,118.2756 229.5112,118.425 Q230.1587,118.5745 230.7231,118.8733 L230.7231,121.5959 Q230.0923,121.0149 229.4988,120.7451 Q228.9053,120.4753 228.2744,120.4753 Q226.9297,120.4753 226.2449,121.542 Q225.5601,122.6086 225.5601,124.7087 Q225.5601,126.8005 226.2449,127.8672 Q226.9297,128.9338 228.2744,128.9338 Q228.9053,128.9338 229.4988,128.6641 Q230.0923,128.3943 230.7231,127.8132 Z " fill="#000000"/><text fill="#000000" font-family="sans-serif" font-size="14" lengthAdjust="spacing" textLength="73" x="260.25" y="123.7952">DijkstraEj8</text><text fill="#000000" font-family="sans-serif" font-size="10" lengthAdjust="spacing" textLength="96" x="248.75" y="136.4163">ual.eda2.practica02</text><line style="stroke:#181818;stroke-width:0.5;" x1="8" x2="553" y1="143.5256" y2="143.5256"/><ellipse cx="18" cy="157.2698" fill="#84BE84" rx="3" ry="3" style="stroke:#038048;stroke-width:1.0;"/><text fill="#000000" font-family="sans-serif" font-size="14" lengthAdjust="spacing" text-decoration="underline" textLength="340" x="27" y="161.0608">Dijkstra(Graph, Vertex): TreeMap&lt;String, Object&gt;</text><ellipse cx="18" cy="173.758" fill="#84BE84" rx="3" ry="3" style="stroke:#038048;stroke-width:1.0;"/><text fill="#000000" font-family="sans-serif" font-size="14" lengthAdjust="spacing" text-decoration="underline" textLength="521" x="27" y="177.5491">DijkstraIntermedio(Graph, Vertex, Vertex, Vertex): TreeMap&lt;String, Object&gt;</text><ellipse cx="18" cy="190.2463" fill="#84BE84" rx="3" ry="3" style="stroke:#038048;stroke-width:1.0;"/><text fill="#000000" font-family="sans-serif" font-size="14" lengthAdjust="spacing" text-decoration="underline" textLength="368" x="27" y="194.0373">DijkstraAux(Graph, Vertex): TreeMap&lt;String, Object&gt;</text></g></a><!--class java.lang.Object--><g id="elem_java.lang.Object"><rect codeLine="11" fill="#F1F1F1" height="38.2656" id="java.lang.Object" rx="2.5" ry="2.5" style="stroke:#181818;stroke-width:0.5;" width="76" x="242.5" y="7"/><ellipse cx="257.5" cy="26.1328" fill="#ADD1B2" rx="11" ry="11" style="stroke:#181818;stroke-width:1.0;"/><path d="M259.9731,32.2759 Q259.3921,32.5747 258.7529,32.7241 Q258.1138,32.8735 257.4082,32.8735 Q254.9014,32.8735 253.5815,31.2217 Q252.2617,29.5698 252.2617,26.4487 Q252.2617,23.3193 253.5815,21.6675 Q254.9014,20.0156 257.4082,20.0156 Q258.1138,20.0156 258.7612,20.165 Q259.4087,20.3145 259.9731,20.6133 L259.9731,23.3359 Q259.3423,22.7549 258.7488,22.4851 Q258.1553,22.2153 257.5244,22.2153 Q256.1797,22.2153 255.4949,23.282 Q254.8101,24.3486 254.8101,26.4487 Q254.8101,28.5405 255.4949,29.6072 Q256.1797,30.6738 257.5244,30.6738 Q258.1553,30.6738 258.7488,30.4041 Q259.3423,30.1343 259.9731,29.5532 Z " fill="#000000"/><text fill="#000000" font-family="sans-serif" font-size="14" lengthAdjust="spacing" textLength="44" x="271.5" y="25.5352">Object</text><text fill="#000000" font-family="sans-serif" font-size="10" lengthAdjust="spacing" textLength="44" x="271.5" y="38.1563">java.lang</text></g><!--class ual.eda2.practica02.DijkstraEj8.VertexTriple--><a href="DijkstraEj8.VertexTriple.html" target="_top" title="DijkstraEj8.VertexTriple.html" xlink:actuate="onRequest" xlink:href="DijkstraEj8.VertexTriple.html" xlink:show="new" xlink:title="DijkstraEj8.VertexTriple.html" xlink:type="simple"><g id="elem_ual.eda2.practica02.DijkstraEj8.VertexTriple"><rect codeLine="12" fill="#F1F1F1" height="38.2656" id="ual.eda2.practica02.DijkstraEj8.VertexTriple" rx="2.5" ry="2.5" style="stroke:#181818;stroke-width:0.5;" width="194" x="183.5" y="260.99"/><ellipse cx="198.5" cy="280.1228" fill="#ADD1B2" rx="11" ry="11" style="stroke:#181818;stroke-width:1.0;"/><path d="M200.9731,286.2659 Q200.3921,286.5647 199.7529,286.7141 Q199.1138,286.8635 198.4082,286.8635 Q195.9014,286.8635 194.5815,285.2117 Q193.2617,283.5598 193.2617,280.4387 Q193.2617,277.3093 194.5815,275.6575 Q195.9014,274.0056 198.4082,274.0056 Q199.1138,274.0056 199.7612,274.155 Q200.4087,274.3045 200.9731,274.6033 L200.9731,277.3259 Q200.3423,276.7449 199.7488,276.4751 Q199.1553,276.2053 198.5244,276.2053 Q197.1797,276.2053 196.4949,277.272 Q195.8101,278.3386 195.8101,280.4387 Q195.8101,282.5305 196.4949,283.5972 Q197.1797,284.6638 198.5244,284.6638 Q199.1553,284.6638 199.7488,284.3941 Q200.3423,284.1243 200.9731,283.5432 Z " fill="#000000"/><text fill="#000000" font-family="sans-serif" font-size="14" lengthAdjust="spacing" textLength="162" x="212.5" y="279.5252">DijkstraEj8.VertexTriple</text><text fill="#000000" font-family="sans-serif" font-size="10" lengthAdjust="spacing" textLength="96" x="245.5" y="292.1463">ual.eda2.practica02</text></g></a><!--reverse link java.lang.Object to ual.eda2.practica02.DijkstraEj8--><g id="link_java.lang.Object_ual.eda2.practica02.DijkstraEj8"><path codeLine="14" d="M280.5,66.71 C280.5,78.87 280.5,92.37 280.5,104.98 " fill="none" id="java.lang.Object-backto-ual.eda2.practica02.DijkstraEj8" style="stroke:#181818;stroke-width:1.0;"/><polygon fill="none" points="273.5,67.09,280.5,47.09,287.5,67.09,273.5,67.09" style="stroke:#181818;stroke-width:1.0;"/></g><!--reverse link ual.eda2.practica02.DijkstraEj8 to ual.eda2.practica02.DijkstraEj8.VertexTriple--><g id="link_ual.eda2.practica02.DijkstraEj8_ual.eda2.practica02.DijkstraEj8.VertexTriple"><path codeLine="15" d="M280.5,217.62 C280.5,233.33 280.5,248.96 280.5,260.53 " fill="none" id="ual.eda2.practica02.DijkstraEj8-backto-ual.eda2.practica02.DijkstraEj8.VertexTriple" style="stroke:#181818;stroke-width:1.0;"/><ellipse cx="280.5" cy="210.9" fill="#FFFFFF" rx="8" ry="8" style="stroke:#181818;stroke-width:1.0;"/><line style="stroke:#181818;stroke-width:1.0;" x1="280.5" x2="280.5" y1="218.9" y2="202.9"/><line style="stroke:#181818;stroke-width:1.0;" x1="272.5" x2="288.5" y1="210.9" y2="210.9"/></g><text fill="#888888" font-family="sans-serif" font-size="10" lengthAdjust="spacing" textLength="182" x="182.5" y="313.9236">UMLDoclet 2.1.0, PlantUML 1.2022.14</text><!--SRC=[fLDHIm9147xlLmn2eAYBIWyX8WH614c1relvCDsDtbvxkylkA9RvtpllBCv3Egfz6UQRcM- -dTa50F34e34XRp6W2LbqoCQ1DfhEqZ14CYIWnF8RB2Ifq9VHX3WoAPpXWKBleJRmyftwtOlXICQldXrUnvVF-e1sXYjKWaBi2UimO1bWfrS3z7025mK6cCqAdeWuKVCvRBF6-xFrZ6dL3ffVQVKRXpPgmHCvfasZ3rD7D4OxcB2JUjc2-vUO0Xx-G76hcLn2eJJ7P6Nx9_AhrUPN4dUdfvod50OSung5GhtCnlhjYJonQbCYrp9rqYhw_zgEw4exB8OE2yslMDOCWuzskwfJLbdrY9hLF4Uo3YEd_Jk0XJ5xypY-6vb0fL-d9xgYquA7L2gdA9oloNbfTBtn2G00]--></g></svg>