<?xml version="1.0" encoding="UTF-8" standalone="no"?><svg xmlns="http://www.w3.org/2000/svg" xmlns:xlink="http://www.w3.org/1999/xlink" contentStyleType="text/css" height="243px" preserveAspectRatio="none" style="width:542px;height:243px;background:#FFFFFF;" version="1.1" viewBox="0 0 542 243" width="542px" zoomAndPan="magnify"><defs/><g><!--class ual.eda2.practica02.DijkstraMainEj2--><a href="DijkstraMainEj2.html" target="_top" title="DijkstraMainEj2.html" xlink:actuate="onRequest" xlink:href="DijkstraMainEj2.html" xlink:show="new" xlink:title="DijkstraMainEj2.html" xlink:type="simple"><g id="elem_ual.eda2.practica02.DijkstraMainEj2"><rect codeLine="5" fill="#F1F1F1" height="112.2188" id="ual.eda2.practica02.DijkstraMainEj2" rx="2.5" ry="2.5" style="stroke:#181818;stroke-width:0.5;" width="528" x="7" y="105.26"/><ellipse cx="213.75" cy="124.3928" fill="#ADD1B2" rx="11" ry="11" style="stroke:#181818;stroke-width:1.0;"/><path d="M216.2231,130.5359 Q215.6421,130.8347 215.0029,130.9841 Q214.3638,131.1335 213.6582,131.1335 Q211.1514,131.1335 209.8315,129.4817 Q208.5117,127.8298 208.5117,124.7087 Q208.5117,121.5793 209.8315,119.9275 Q211.1514,118.2756 213.6582,118.2756 Q214.3638,118.2756 215.0112,118.425 Q215.6587,118.5745 216.2231,118.8733 L216.2231,121.5959 Q215.5923,121.0149 214.9988,120.7451 Q214.4053,120.4753 213.7744,120.4753 Q212.4297,120.4753 211.7449,121.542 Q211.0601,122.6086 211.0601,124.7087 Q211.0601,126.8005 211.7449,127.8672 Q212.4297,128.9338 213.7744,128.9338 Q214.4053,128.9338 214.9988,128.6641 Q215.5923,128.3943 216.2231,127.8132 Z " fill="#000000"/><text fill="#000000" font-family="sans-serif" font-size="14" lengthAdjust="spacing" textLength="106" x="234.25" y="123.7952">DijkstraMainEj2</text><text fill="#000000" font-family="sans-serif" font-size="10" lengthAdjust="spacing" textLength="96" x="239.25" y="136.4163">ual.eda2.practica02</text><line style="stroke:#181818;stroke-width:0.5;" x1="8" x2="534" y1="143.5256" y2="143.5256"/><ellipse cx="18" cy="157.2698" fill="#84BE84" rx="3" ry="3" style="stroke:#038048;stroke-width:1.0;"/><text fill="#000000" font-family="sans-serif" font-size="14" lengthAdjust="spacing" text-decoration="underline" textLength="234" x="27" y="161.0608">readGraphFromFile(String): Graph</text><rect fill="#F24D5C" height="6" style="stroke:#C82930;stroke-width:1.0;" width="6" x="15" y="170.758"/><text fill="#000000" font-family="sans-serif" font-size="14" lengthAdjust="spacing" text-decoration="underline" textLength="436" x="27" y="177.5491">getOrCreateVertex(Map&lt;String, Vertex&gt;, Graph, String): Vertex</text><rect fill="#F24D5C" height="6" style="stroke:#C82930;stroke-width:1.0;" width="6" x="15" y="187.2463"/><text fill="#000000" font-family="sans-serif" font-size="14" lengthAdjust="spacing" text-decoration="underline" textLength="502" x="27" y="194.0373">reconstructPath(TreeMap&lt;Vertex, Vertex&gt;, Vertex, Vertex): List&lt;Vertex&gt;</text><ellipse cx="18" cy="206.7346" fill="#84BE84" rx="3" ry="3" style="stroke:#038048;stroke-width:1.0;"/><text fill="#000000" font-family="sans-serif" font-size="14" lengthAdjust="spacing" text-decoration="underline" textLength="132" x="27" y="210.5256">main(String[]): void</text></g></a><!--class java.lang.Object--><g id="elem_java.lang.Object"><rect codeLine="12" fill="#F1F1F1" height="38.2656" id="java.lang.Object" rx="2.5" ry="2.5" style="stroke:#181818;stroke-width:0.5;" width="76" x="233" y="7"/><ellipse cx="248" cy="26.1328" fill="#ADD1B2" rx="11" ry="11" style="stroke:#181818;stroke-width:1.0;"/><path d="M250.4731,32.2759 Q249.8921,32.5747 249.2529,32.7241 Q248.6138,32.8735 247.9082,32.8735 Q245.4014,32.8735 244.0815,31.2217 Q242.7617,29.5698 242.7617,26.4487 Q242.7617,23.3193 244.0815,21.6675 Q245.4014,20.0156 247.9082,20.0156 Q248.6138,20.0156 249.2612,20.165 Q249.9087,20.3145 250.4731,20.6133 L250.4731,23.3359 Q249.8423,22.7549 249.2488,22.4851 Q248.6553,22.2153 248.0244,22.2153 Q246.6797,22.2153 245.9949,23.282 Q245.3101,24.3486 245.3101,26.4487 Q245.3101,28.5405 245.9949,29.6072 Q246.6797,30.6738 248.0244,30.6738 Q248.6553,30.6738 249.2488,30.4041 Q249.8423,30.1343 250.4731,29.5532 Z " fill="#000000"/><text fill="#000000" font-family="sans-serif" font-size="14" lengthAdjust="spacing" textLength="44" x="262" y="25.5352">Object</text><text fill="#000000" font-family="sans-serif" font-size="10" lengthAdjust="spacing" textLength="44" x="262" y="38.1563">java.lang</text></g><!--reverse link java.lang.Object to ual.eda2.practica02.DijkstraMainEj2--><g id="link_java.lang.Object_ual.eda2.practica02.DijkstraMainEj2"><path codeLine="14" d="M271,66.96 C271,78.87 271,92.15 271,104.87 " fill="none" id="java.lang.Object-backto-ual.eda2.practica02.DijkstraMainEj2" style="stroke:#181818;stroke-width:1.0;"/><polygon fill="none" points="264,67.17,271,47.17,278,67.17,264,67.17" style="stroke:#181818;stroke-width:1.0;"/></g><text fill="#888888" font-family="sans-serif" font-size="10" lengthAdjust="spacing" textLength="182" x="173" y="233.1467">UMLDoclet 2.1.0, PlantUML 1.2022.14</text><!--SRC=[ZP91Jy9048Nl_eg9YKc9PGED9q9w4V42WGJrWXp6xK2tjhlDxa1KvB-xj0r1xC5UDltclPUPdGK0SCIWiI1NegG5bMYHZGLjD5tvCgGg8Q2Yv4zOAyeJTqaBujHuN76PetDmFNJgYmRzktYaidV75gUez4CMlUgcqektc0jAC1AbHSbAOY-w1dJGmiL52YoN5qIaNEIh5Uoh9exVtZ5wzm5kBM7oQB5CnzOKOvLJi62hzAOpW0h_jNGtn3DxxurCBsIPFe8fbiFQ5aADuh2sXt2AgmijUPQaqRxThUGvSXeyMQ9ZOcquI_mDVEH4EMvaSSjiXH-_6MUvylATKKabExIlO_QMaUIpBMIuGv6ZtbHtV_eJjR0EkQGm_Evs_xEdfWVIJ1RMnXoFv-baP6Jk7rqa-g8NmjmdiwTmioFhbD51vmS0]--></g></svg>