<?xml version="1.0" encoding="UTF-8" standalone="no"?><svg xmlns="http://www.w3.org/2000/svg" xmlns:xlink="http://www.w3.org/1999/xlink" contentStyleType="text/css" height="210px" preserveAspectRatio="none" style="width:914px;height:210px;background:#FFFFFF;" version="1.1" viewBox="0 0 914 210" width="914px" zoomAndPan="magnify"><defs/><g><!--class ual.eda2.practica03.CaminosSimples--><a href="CaminosSimples.html" target="_top" title="CaminosSimples.html" xlink:actuate="onRequest" xlink:href="CaminosSimples.html" xlink:show="new" xlink:title="CaminosSimples.html" xlink:type="simple"><g id="elem_ual.eda2.practica03.CaminosSimples"><rect codeLine="5" fill="#F1F1F1" height="79.2422" id="ual.eda2.practica03.CaminosSimples" rx="2.5" ry="2.5" style="stroke:#181818;stroke-width:0.5;" width="900" x="7" y="105.27"/><ellipse cx="396.25" cy="124.4028" fill="#ADD1B2" rx="11" ry="11" style="stroke:#181818;stroke-width:1.0;"/><path d="M398.7231,130.5459 Q398.1421,130.8447 397.5029,130.9941 Q396.8638,131.1435 396.1582,131.1435 Q393.6514,131.1435 392.3315,129.4917 Q391.0117,127.8398 391.0117,124.7187 Q391.0117,121.5893 392.3315,119.9375 Q393.6514,118.2856 396.1582,118.2856 Q396.8638,118.2856 397.5112,118.435 Q398.1587,118.5845 398.7231,118.8833 L398.7231,121.6059 Q398.0923,121.0249 397.4988,120.7551 Q396.9053,120.4853 396.2744,120.4853 Q394.9297,120.4853 394.2449,121.552 Q393.5601,122.6186 393.5601,124.7187 Q393.5601,126.8105 394.2449,127.8772 Q394.9297,128.9438 396.2744,128.9438 Q396.9053,128.9438 397.4988,128.6741 Q398.0923,128.4043 398.7231,127.8232 Z " fill="#000000"/><text fill="#000000" font-family="sans-serif" font-size="14" lengthAdjust="spacing" textLength="113" x="416.75" y="123.8052">CaminosSimples</text><text fill="#000000" font-family="sans-serif" font-size="10" lengthAdjust="spacing" textLength="96" x="425.25" y="136.4262">ual.eda2.practica03</text><line style="stroke:#181818;stroke-width:0.5;" x1="8" x2="906" y1="143.5356" y2="143.5356"/><ellipse cx="18" cy="157.2798" fill="#84BE84" rx="3" ry="3" style="stroke:#038048;stroke-width:1.0;"/><text fill="#000000" font-family="sans-serif" font-size="14" lengthAdjust="spacing" text-decoration="underline" textLength="507" x="27" y="161.0708">buscarCaminosSimples(Graph, Vertex): Map&lt;ArrayList&lt;Vertex&gt;, Double&gt;</text><rect fill="#F24D5C" height="6" style="stroke:#C82930;stroke-width:1.0;" width="6" x="15" y="170.768"/><text fill="#000000" font-family="sans-serif" font-size="14" lengthAdjust="spacing" text-decoration="underline" textLength="874" x="27" y="177.5591">caminosSimples(Graph, Vertex, ArrayList&lt;Vertex&gt;, ArrayList&lt;Vertex&gt;, Map&lt;ArrayList&lt;Vertex&gt;, Double&gt;, Vertex, double): void</text></g></a><!--class java.lang.Object--><g id="elem_java.lang.Object"><rect codeLine="10" fill="#F1F1F1" height="38.2656" id="java.lang.Object" rx="2.5" ry="2.5" style="stroke:#181818;stroke-width:0.5;" width="76" x="419" y="7"/><ellipse cx="434" cy="26.1328" fill="#ADD1B2" rx="11" ry="11" style="stroke:#181818;stroke-width:1.0;"/><path d="M436.4731,32.2759 Q435.8921,32.5747 435.2529,32.7241 Q434.6138,32.8735 433.9082,32.8735 Q431.4014,32.8735 430.0815,31.2217 Q428.7617,29.5698 428.7617,26.4487 Q428.7617,23.3193 430.0815,21.6675 Q431.4014,20.0156 433.9082,20.0156 Q434.6138,20.0156 435.2612,20.165 Q435.9087,20.3145 436.4731,20.6133 L436.4731,23.3359 Q435.8423,22.7549 435.2488,22.4851 Q434.6553,22.2153 434.0244,22.2153 Q432.6797,22.2153 431.9949,23.282 Q431.3101,24.3486 431.3101,26.4487 Q431.3101,28.5405 431.9949,29.6072 Q432.6797,30.6738 434.0244,30.6738 Q434.6553,30.6738 435.2488,30.4041 Q435.8423,30.1343 436.4731,29.5532 Z " fill="#000000"/><text fill="#000000" font-family="sans-serif" font-size="14" lengthAdjust="spacing" textLength="44" x="448" y="25.5352">Object</text><text fill="#000000" font-family="sans-serif" font-size="10" lengthAdjust="spacing" textLength="44" x="448" y="38.1563">java.lang</text></g><!--reverse link java.lang.Object to ual.eda2.practica03.CaminosSimples--><g id="link_java.lang.Object_ual.eda2.practica03.CaminosSimples"><path codeLine="12" d="M457,67.14 C457,79.45 457,92.96 457,105.18 " fill="none" id="java.lang.Object-backto-ual.eda2.practica03.CaminosSimples" style="stroke:#181818;stroke-width:1.0;"/><polygon fill="none" points="450,67.15,457,47.15,464,67.15,450,67.15" style="stroke:#181818;stroke-width:1.0;"/></g><text fill="#888888" font-family="sans-serif" font-size="10" lengthAdjust="spacing" textLength="182" x="359" y="200.1802">UMLDoclet 2.1.0, PlantUML 1.2022.14</text><!--SRC=[ZPB1QW8n48RlVOf1A2XTWzgUP5ae5NfHMf3sOZsCsR4RoIOX4wNM-kwDgzXg5sak8TyaNtuc0G1W2c2m97OeQKmEFGRhmLX3Lx4CXSe9g7HX3ND5EkTpMb8eRCGLbngPeP6o-gH-zovxm58PosDLEatyPWw5JhP4BIZ7dd0UPL0IExSDG8OQBaubC9cS0b64Ka-diAaIxCQ60yQpMxYPBLcYFztVVFJeYWHUoGVwQFLXX2wzznxNGyKXtUCiWO5TpZHbVwrjUS6NG8sg1bs-zCUMLo2cN5cLLrcszQr-cYr8XbyjNk0AXKRpNZNsk1BxZNl9EONqgzt-noCS8f09v65kxMvw6Gq7LkhudtgYApe9F4TnY1IkL-HPMTDiVGC0]--></g></svg>