<?xml version="1.0" encoding="UTF-8" standalone="no"?><svg xmlns="http://www.w3.org/2000/svg" xmlns:xlink="http://www.w3.org/1999/xlink" contentStyleType="text/css" height="449px" preserveAspectRatio="none" style="width:463px;height:449px;background:#FFFFFF;" version="1.1" viewBox="0 0 463 449" width="463px" zoomAndPan="magnify"><defs/><g><!--class ual.eda2.practica03.Grafo--><a href="Grafo.html" target="_top" title="Grafo.html" xlink:actuate="onRequest" xlink:href="Grafo.html" xlink:show="new" xlink:title="Grafo.html" xlink:type="simple"><g id="elem_ual.eda2.practica03.Grafo"><rect codeLine="5" fill="#F1F1F1" height="318.0781" id="ual.eda2.practica03.Grafo" rx="2.5" ry="2.5" style="stroke:#181818;stroke-width:0.5;" width="449" x="7" y="105.26"/><ellipse cx="179.25" cy="124.3928" fill="#ADD1B2" rx="11" ry="11" style="stroke:#181818;stroke-width:1.0;"/><path d="M181.7231,130.5359 Q181.1421,130.8347 180.5029,130.9841 Q179.8638,131.1335 179.1582,131.1335 Q176.6514,131.1335 175.3315,129.4817 Q174.0117,127.8298 174.0117,124.7087 Q174.0117,121.5793 175.3315,119.9275 Q176.6514,118.2756 179.1582,118.2756 Q179.8638,118.2756 180.5112,118.425 Q181.1587,118.5745 181.7231,118.8733 L181.7231,121.5959 Q181.0923,121.0149 180.4988,120.7451 Q179.9053,120.4753 179.2744,120.4753 Q177.9297,120.4753 177.2449,121.542 Q176.5601,122.6086 176.5601,124.7087 Q176.5601,126.8005 177.2449,127.8672 Q177.9297,128.9338 179.2744,128.9338 Q179.9053,128.9338 180.4988,128.6641 Q181.0923,128.3943 181.7231,127.8132 Z " fill="#000000"/><text fill="#000000" font-family="sans-serif" font-size="14" lengthAdjust="spacing" textLength="38" x="228.75" y="123.7952">Grafo</text><text fill="#000000" font-family="sans-serif" font-size="10" lengthAdjust="spacing" textLength="96" x="199.75" y="136.4163">ual.eda2.practica03</text><line style="stroke:#181818;stroke-width:0.5;" x1="8" x2="455" y1="143.5256" y2="143.5256"/><rect fill="none" height="6" style="stroke:#C82930;stroke-width:1.0;" width="6" x="15" y="154.2698"/><text fill="#000000" font-family="sans-serif" font-size="14" lengthAdjust="spacing" textLength="423" x="27" y="161.0608">adjacencyMap: TreeMap&lt;Vertex, TreeMap&lt;Vertex, Double&gt;&gt;</text><rect fill="none" height="6" style="stroke:#C82930;stroke-width:1.0;" width="6" x="15" y="170.758"/><text fill="#000000" font-family="sans-serif" font-size="14" lengthAdjust="spacing" textLength="201" x="27" y="177.5491">vertexList: ArrayList&lt;Vertex&gt;</text><rect fill="none" height="6" style="stroke:#C82930;stroke-width:1.0;" width="6" x="15" y="187.2463"/><text fill="#000000" font-family="sans-serif" font-size="14" lengthAdjust="spacing" textLength="104" x="27" y="194.0373">numAristas: int</text><line style="stroke:#181818;stroke-width:0.5;" x1="8" x2="455" y1="200.9905" y2="200.9905"/><ellipse cx="18" cy="214.7346" fill="#84BE84" rx="3" ry="3" style="stroke:#038048;stroke-width:1.0;"/><text fill="#000000" font-family="sans-serif" font-size="14" lengthAdjust="spacing" textLength="163" x="27" y="218.5256">addVertex(Vertex): void</text><ellipse cx="18" cy="231.2229" fill="#84BE84" rx="3" ry="3" style="stroke:#038048;stroke-width:1.0;"/><text fill="#000000" font-family="sans-serif" font-size="14" lengthAdjust="spacing" textLength="167" x="27" y="235.0139">mapaAMatriz(): double[]</text><ellipse cx="18" cy="247.7112" fill="#84BE84" rx="3" ry="3" style="stroke:#038048;stroke-width:1.0;"/><text fill="#000000" font-family="sans-serif" font-size="14" lengthAdjust="spacing" textLength="261" x="27" y="251.5022">addEdge(Vertex, Vertex, double): void</text><ellipse cx="18" cy="264.1995" fill="#84BE84" rx="3" ry="3" style="stroke:#038048;stroke-width:1.0;"/><text fill="#000000" font-family="sans-serif" font-size="14" lengthAdjust="spacing" textLength="230" x="27" y="267.9905">getVertices(): Collection&lt;Vertex&gt;</text><ellipse cx="18" cy="280.6877" fill="#84BE84" rx="3" ry="3" style="stroke:#038048;stroke-width:1.0;"/><text fill="#000000" font-family="sans-serif" font-size="14" lengthAdjust="spacing" textLength="248" x="27" y="284.4788">adyacentes(Vertex, Vertex): boolean</text><ellipse cx="18" cy="297.176" fill="#84BE84" rx="3" ry="3" style="stroke:#038048;stroke-width:1.0;"/><text fill="#000000" font-family="sans-serif" font-size="14" lengthAdjust="spacing" textLength="197" x="27" y="300.967">peso(Vertex, Vertex): double</text><ellipse cx="18" cy="313.6643" fill="#84BE84" rx="3" ry="3" style="stroke:#038048;stroke-width:1.0;"/><text fill="#000000" font-family="sans-serif" font-size="14" lengthAdjust="spacing" textLength="210" x="27" y="317.4553">weight(Vertex, Vertex): double</text><ellipse cx="18" cy="330.1526" fill="#84BE84" rx="3" ry="3" style="stroke:#038048;stroke-width:1.0;"/><text fill="#000000" font-family="sans-serif" font-size="14" lengthAdjust="spacing" textLength="122" x="27" y="333.9436">printGraph(): void</text><ellipse cx="18" cy="346.6409" fill="#84BE84" rx="3" ry="3" style="stroke:#038048;stroke-width:1.0;"/><text fill="#000000" font-family="sans-serif" font-size="14" lengthAdjust="spacing" textLength="187" x="27" y="350.4319">getVertexIndex(Vertex): int</text><ellipse cx="18" cy="363.1291" fill="#84BE84" rx="3" ry="3" style="stroke:#038048;stroke-width:1.0;"/><text fill="#000000" font-family="sans-serif" font-size="14" lengthAdjust="spacing" textLength="63" x="27" y="366.9202">size(): int</text><ellipse cx="18" cy="379.6174" fill="#84BE84" rx="3" ry="3" style="stroke:#038048;stroke-width:1.0;"/><text fill="#000000" font-family="sans-serif" font-size="14" lengthAdjust="spacing" textLength="306" x="27" y="383.4084">obtenerListaVertices(Integer[]): List&lt;Vertex&gt;</text><ellipse cx="18" cy="396.1057" fill="#84BE84" rx="3" ry="3" style="stroke:#038048;stroke-width:1.0;"/><text fill="#000000" font-family="sans-serif" font-size="14" lengthAdjust="spacing" textLength="228" x="27" y="399.8967">getVecinos(Vertex): List&lt;Vertex&gt;</text><ellipse cx="18" cy="412.594" fill="#84BE84" rx="3" ry="3" style="stroke:#038048;stroke-width:1.0;"/><text fill="#000000" font-family="sans-serif" font-size="14" lengthAdjust="spacing" textLength="137" x="27" y="416.385">getNumAristas(): int</text></g></a><!--class java.lang.Object--><g id="elem_java.lang.Object"><rect codeLine="24" fill="#F1F1F1" height="38.2656" id="java.lang.Object" rx="2.5" ry="2.5" style="stroke:#181818;stroke-width:0.5;" width="76" x="193.5" y="7"/><ellipse cx="208.5" cy="26.1328" fill="#ADD1B2" rx="11" ry="11" style="stroke:#181818;stroke-width:1.0;"/><path d="M210.9731,32.2759 Q210.3921,32.5747 209.7529,32.7241 Q209.1138,32.8735 208.4082,32.8735 Q205.9014,32.8735 204.5815,31.2217 Q203.2617,29.5698 203.2617,26.4487 Q203.2617,23.3193 204.5815,21.6675 Q205.9014,20.0156 208.4082,20.0156 Q209.1138,20.0156 209.7612,20.165 Q210.4087,20.3145 210.9731,20.6133 L210.9731,23.3359 Q210.3423,22.7549 209.7488,22.4851 Q209.1553,22.2153 208.5244,22.2153 Q207.1797,22.2153 206.4949,23.282 Q205.8101,24.3486 205.8101,26.4487 Q205.8101,28.5405 206.4949,29.6072 Q207.1797,30.6738 208.5244,30.6738 Q209.1553,30.6738 209.7488,30.4041 Q210.3423,30.1343 210.9731,29.5532 Z " fill="#000000"/><text fill="#000000" font-family="sans-serif" font-size="14" lengthAdjust="spacing" textLength="44" x="222.5" y="25.5352">Object</text><text fill="#000000" font-family="sans-serif" font-size="10" lengthAdjust="spacing" textLength="44" x="222.5" y="38.1563">java.lang</text></g><!--reverse link java.lang.Object to ual.eda2.practica03.Grafo--><g id="link_java.lang.Object_ual.eda2.practica03.Grafo"><path codeLine="26" d="M231.5,67.07 C231.5,78.23 231.5,91.09 231.5,104.78 " fill="none" id="java.lang.Object-backto-ual.eda2.practica03.Grafo" style="stroke:#181818;stroke-width:1.0;"/><polygon fill="none" points="224.5,67.17,231.5,47.17,238.5,67.17,224.5,67.17" style="stroke:#181818;stroke-width:1.0;"/></g><text fill="#888888" font-family="sans-serif" font-size="10" lengthAdjust="spacing" textLength="182" x="133.5" y="439.0061">UMLDoclet 2.1.0, PlantUML 1.2022.14</text><!--SRC=[XLFRQkCm47tlLmo51PSs9cttoOH0s2wbq7GBtUrBceU9DR4LP4b8IhRfvTztPATnhgnVHfevSz6POm00Jm4qLkGjvlH45Xq6uq0RJISSXb8A0gfiMC9KaX9-rrjHA0sxQt-kq7iuxNdvHjdbz_wjmwbvqQjxjpz7bPB0gzGwp8FCiNjz2kZXW3-jSs4qgcrQXagDn_1UjubV1yMCHzRvSeWsWz-EY0-zPtA1NY_sxZTcFb7KxxVvYpfoBtt8OE0SBkDnXT-0wNarS1n1du7KOHquHo4QSDAOimmMHeeMKA75mH23asy91qKzmMYyLU6dA2Zvcl7BDiYzUWM5Y90v-LZlXr6Ac2oZzuRcoil8JM3aTd7EcnYZ27KBjkJDFgmPeaNz9LcKuVyuwvWbtfajasCleDSxBJPvs-8rQYNPTPf984qkhWZN9Dpn0mjoep6Z3owlQPXBRNpRx2ZoORtfpVQVXvNzQp9ZyZUaFSC5fWfrKGjwVKiRO5DarmkzZqxdkFXNdUCU7KoDYURFyFx6v8h_sglqCkrUm2FN2-o5Ronepsf8plu1]--></g></svg>