<?xml version="1.0" encoding="UTF-8" standalone="no"?><svg xmlns="http://www.w3.org/2000/svg" xmlns:xlink="http://www.w3.org/1999/xlink" contentStyleType="text/css" height="284px" preserveAspectRatio="none" style="width:255px;height:284px;background:#FFFFFF;" version="1.1" viewBox="0 0 255 284" width="255px" zoomAndPan="magnify"><defs/><g><!--class ual.eda2.practica03.Solucion--><a href="Solucion.html" target="_top" title="Solucion.html" xlink:actuate="onRequest" xlink:href="Solucion.html" xlink:show="new" xlink:title="Solucion.html" xlink:type="simple"><g id="elem_ual.eda2.practica03.Solucion"><rect codeLine="5" fill="#F1F1F1" height="153.1953" id="ual.eda2.practica03.Solucion" rx="2.5" ry="2.5" style="stroke:#181818;stroke-width:0.5;" width="241" x="7" y="105.26"/><ellipse cx="75.25" cy="124.3928" fill="#ADD1B2" rx="11" ry="11" style="stroke:#181818;stroke-width:1.0;"/><path d="M77.7231,130.5359 Q77.1421,130.8347 76.5029,130.9841 Q75.8638,131.1335 75.1582,131.1335 Q72.6514,131.1335 71.3315,129.4817 Q70.0117,127.8298 70.0117,124.7087 Q70.0117,121.5793 71.3315,119.9275 Q72.6514,118.2756 75.1582,118.2756 Q75.8638,118.2756 76.5112,118.425 Q77.1587,118.5745 77.7231,118.8733 L77.7231,121.5959 Q77.0923,121.0149 76.4988,120.7451 Q75.9053,120.4753 75.2744,120.4753 Q73.9297,120.4753 73.2449,121.542 Q72.5601,122.6086 72.5601,124.7087 Q72.5601,126.8005 73.2449,127.8672 Q73.9297,128.9338 75.2744,128.9338 Q75.9053,128.9338 76.4988,128.6641 Q77.0923,128.3943 77.7231,127.8132 Z " fill="#000000"/><text fill="#000000" font-family="sans-serif" font-size="14" lengthAdjust="spacing" textLength="59" x="114.25" y="123.7952">Solucion</text><text fill="#000000" font-family="sans-serif" font-size="10" lengthAdjust="spacing" textLength="96" x="95.75" y="136.4163">ual.eda2.practica03</text><line style="stroke:#181818;stroke-width:0.5;" x1="8" x2="247" y1="143.5256" y2="143.5256"/><rect fill="none" height="6" style="stroke:#C82930;stroke-width:1.0;" width="6" x="15" y="154.2698"/><text fill="#000000" font-family="sans-serif" font-size="14" lengthAdjust="spacing" textLength="148" x="27" y="161.0608">camino: List&lt;Vertex&gt;</text><rect fill="none" height="6" style="stroke:#C82930;stroke-width:1.0;" width="6" x="15" y="170.758"/><text fill="#000000" font-family="sans-serif" font-size="14" lengthAdjust="spacing" textLength="113" x="27" y="177.5491">minCost: double</text><line style="stroke:#181818;stroke-width:0.5;" x1="8" x2="247" y1="184.5022" y2="184.5022"/><ellipse cx="18" cy="198.2463" fill="#84BE84" rx="3" ry="3" style="stroke:#038048;stroke-width:1.0;"/><text fill="#000000" font-family="sans-serif" font-size="14" lengthAdjust="spacing" textLength="215" x="27" y="202.0373">Solucion(List&lt;Vertex&gt;, double)</text><ellipse cx="18" cy="214.7346" fill="#84BE84" rx="3" ry="3" style="stroke:#038048;stroke-width:1.0;"/><text fill="#000000" font-family="sans-serif" font-size="14" lengthAdjust="spacing" textLength="197" x="27" y="218.5256">getRecorrido(): List&lt;Vertex&gt;</text><ellipse cx="18" cy="231.2229" fill="#84BE84" rx="3" ry="3" style="stroke:#038048;stroke-width:1.0;"/><text fill="#000000" font-family="sans-serif" font-size="14" lengthAdjust="spacing" textLength="193" x="27" y="235.0139">imprimirResultados(): String</text><ellipse cx="18" cy="247.7112" fill="#84BE84" rx="3" ry="3" style="stroke:#038048;stroke-width:1.0;"/><text fill="#000000" font-family="sans-serif" font-size="14" lengthAdjust="spacing" textLength="127" x="27" y="251.5022">getCoste(): double</text></g></a><!--class java.lang.Object--><g id="elem_java.lang.Object"><rect codeLine="14" fill="#F1F1F1" height="38.2656" id="java.lang.Object" rx="2.5" ry="2.5" style="stroke:#181818;stroke-width:0.5;" width="76" x="89.5" y="7"/><ellipse cx="104.5" cy="26.1328" fill="#ADD1B2" rx="11" ry="11" style="stroke:#181818;stroke-width:1.0;"/><path d="M106.9731,32.2759 Q106.3921,32.5747 105.7529,32.7241 Q105.1138,32.8735 104.4082,32.8735 Q101.9014,32.8735 100.5815,31.2217 Q99.2617,29.5698 99.2617,26.4487 Q99.2617,23.3193 100.5815,21.6675 Q101.9014,20.0156 104.4082,20.0156 Q105.1138,20.0156 105.7612,20.165 Q106.4087,20.3145 106.9731,20.6133 L106.9731,23.3359 Q106.3423,22.7549 105.7488,22.4851 Q105.1553,22.2153 104.5244,22.2153 Q103.1797,22.2153 102.4949,23.282 Q101.8101,24.3486 101.8101,26.4487 Q101.8101,28.5405 102.4949,29.6072 Q103.1797,30.6738 104.5244,30.6738 Q105.1553,30.6738 105.7488,30.4041 Q106.3423,30.1343 106.9731,29.5532 Z " fill="#000000"/><text fill="#000000" font-family="sans-serif" font-size="14" lengthAdjust="spacing" textLength="44" x="118.5" y="25.5352">Object</text><text fill="#000000" font-family="sans-serif" font-size="10" lengthAdjust="spacing" textLength="44" x="118.5" y="38.1563">java.lang</text></g><!--reverse link java.lang.Object to ual.eda2.practica03.Solucion--><g id="link_java.lang.Object_ual.eda2.practica03.Solucion"><path codeLine="16" d="M127.5,67.05 C127.5,78.72 127.5,91.88 127.5,105.01 " fill="none" id="java.lang.Object-backto-ual.eda2.practica03.Solucion" style="stroke:#181818;stroke-width:1.0;"/><polygon fill="none" points="120.5,67.19,127.5,47.19,134.5,67.19,120.5,67.19" style="stroke:#181818;stroke-width:1.0;"/></g><text fill="#888888" font-family="sans-serif" font-size="10" lengthAdjust="spacing" textLength="182" x="29.5" y="274.1233">UMLDoclet 2.1.0, PlantUML 1.2022.14</text><!--SRC=[VLBBRW8n3BptAooaIY0WMcXFAyIbFLAr0hKNoi5a3GGbyIhneZx_lRkmF8feSqayCnvRem00H1Bmw2Zcg6b2EGOK3k3PqrL9myfa1EHoUOU58Pl5SzIHhBY4jxYs62Cq1j5yKDgx7KxO5jgmV_Krb0mBj8eoxAiye1QZCRbf04QuWAjzEqod-wTQYREp6NnkvrMdgz4PpocCJ9J12mMXj-6HBRaxZf92niNSqe5exnsRftsTMjOwwfOaOz8SWicusVfZJDkuF1XdmfXYOGKpZfLs8i7uvI-lQXcgk9DzlY-dzpXVavQJxDQuGMNHBxU97Igr4-vCpb4OV7Mx_wPR3oSl5631N5tF3wDxrhRy77tLKqa7dafBAL6utb28LMoj7m00]--></g></svg>