<?xml version="1.0" encoding="UTF-8" standalone="no"?><svg xmlns="http://www.w3.org/2000/svg" xmlns:xlink="http://www.w3.org/1999/xlink" contentStyleType="text/css" height="243px" preserveAspectRatio="none" style="width:538px;height:243px;background:#FFFFFF;" version="1.1" viewBox="0 0 538 243" width="538px" zoomAndPan="magnify"><defs/><g><!--class ual.eda2.practica03.TSPBruteForce--><a href="TSPBruteForce.html" target="_top" title="TSPBruteForce.html" xlink:actuate="onRequest" xlink:href="TSPBruteForce.html" xlink:show="new" xlink:title="TSPBruteForce.html" xlink:type="simple"><g id="elem_ual.eda2.practica03.TSPBruteForce"><rect codeLine="5" fill="#F1F1F1" height="112.2188" id="ual.eda2.practica03.TSPBruteForce" rx="2.5" ry="2.5" style="stroke:#181818;stroke-width:0.5;" width="524" x="7" y="105.26"/><ellipse cx="215.25" cy="124.3928" fill="#ADD1B2" rx="11" ry="11" style="stroke:#181818;stroke-width:1.0;"/><path d="M217.7231,130.5359 Q217.1421,130.8347 216.5029,130.9841 Q215.8638,131.1335 215.1582,131.1335 Q212.6514,131.1335 211.3315,129.4817 Q210.0117,127.8298 210.0117,124.7087 Q210.0117,121.5793 211.3315,119.9275 Q212.6514,118.2756 215.1582,118.2756 Q215.8638,118.2756 216.5112,118.425 Q217.1587,118.5745 217.7231,118.8733 L217.7231,121.5959 Q217.0923,121.0149 216.4988,120.7451 Q215.9053,120.4753 215.2744,120.4753 Q213.9297,120.4753 213.2449,121.542 Q212.5601,122.6086 212.5601,124.7087 Q212.5601,126.8005 213.2449,127.8672 Q213.9297,128.9338 215.2744,128.9338 Q215.9053,128.9338 216.4988,128.6641 Q217.0923,128.3943 217.7231,127.8132 Z " fill="#000000"/><text fill="#000000" font-family="sans-serif" font-size="14" lengthAdjust="spacing" textLength="99" x="235.75" y="123.7952">TSPBruteForce</text><text fill="#000000" font-family="sans-serif" font-size="10" lengthAdjust="spacing" textLength="96" x="237.25" y="136.4163">ual.eda2.practica03</text><line style="stroke:#181818;stroke-width:0.5;" x1="8" x2="530" y1="143.5256" y2="143.5256"/><ellipse cx="18" cy="157.2698" fill="#84BE84" rx="3" ry="3" style="stroke:#038048;stroke-width:1.0;"/><text fill="#000000" font-family="sans-serif" font-size="14" lengthAdjust="spacing" text-decoration="underline" textLength="276" x="27" y="161.0608">TSPFuerzaBruta(Grafo, Vertex): Solucion</text><rect fill="#F24D5C" height="6" style="stroke:#C82930;stroke-width:1.0;" width="6" x="15" y="170.758"/><text fill="#000000" font-family="sans-serif" font-size="14" lengthAdjust="spacing" text-decoration="underline" textLength="409" x="27" y="177.5491">tsp(int, int, double[], Double[], Integer[], int, int, int): double</text><rect fill="#F24D5C" height="6" style="stroke:#C82930;stroke-width:1.0;" width="6" x="15" y="187.2463"/><text fill="#000000" font-family="sans-serif" font-size="14" lengthAdjust="spacing" text-decoration="underline" textLength="498" x="27" y="194.0373">reconstruirRuta(Integer[], ArrayList&lt;Vertex&gt;, int, int): ArrayList&lt;Vertex&gt;</text><ellipse cx="18" cy="206.7346" fill="#84BE84" rx="3" ry="3" style="stroke:#038048;stroke-width:1.0;"/><text fill="#000000" font-family="sans-serif" font-size="14" lengthAdjust="spacing" text-decoration="underline" textLength="175" x="27" y="210.5256">convertir(Grafo): double[]</text></g></a><!--class java.lang.Object--><g id="elem_java.lang.Object"><rect codeLine="12" fill="#F1F1F1" height="38.2656" id="java.lang.Object" rx="2.5" ry="2.5" style="stroke:#181818;stroke-width:0.5;" width="76" x="231" y="7"/><ellipse cx="246" cy="26.1328" fill="#ADD1B2" rx="11" ry="11" style="stroke:#181818;stroke-width:1.0;"/><path d="M248.4731,32.2759 Q247.8921,32.5747 247.2529,32.7241 Q246.6138,32.8735 245.9082,32.8735 Q243.4014,32.8735 242.0815,31.2217 Q240.7617,29.5698 240.7617,26.4487 Q240.7617,23.3193 242.0815,21.6675 Q243.4014,20.0156 245.9082,20.0156 Q246.6138,20.0156 247.2612,20.165 Q247.9087,20.3145 248.4731,20.6133 L248.4731,23.3359 Q247.8423,22.7549 247.2488,22.4851 Q246.6553,22.2153 246.0244,22.2153 Q244.6797,22.2153 243.9949,23.282 Q243.3101,24.3486 243.3101,26.4487 Q243.3101,28.5405 243.9949,29.6072 Q244.6797,30.6738 246.0244,30.6738 Q246.6553,30.6738 247.2488,30.4041 Q247.8423,30.1343 248.4731,29.5532 Z " fill="#000000"/><text fill="#000000" font-family="sans-serif" font-size="14" lengthAdjust="spacing" textLength="44" x="260" y="25.5352">Object</text><text fill="#000000" font-family="sans-serif" font-size="10" lengthAdjust="spacing" textLength="44" x="260" y="38.1563">java.lang</text></g><!--reverse link java.lang.Object to ual.eda2.practica03.TSPBruteForce--><g id="link_java.lang.Object_ual.eda2.practica03.TSPBruteForce"><path codeLine="14" d="M269,66.96 C269,78.87 269,92.15 269,104.87 " fill="none" id="java.lang.Object-backto-ual.eda2.practica03.TSPBruteForce" style="stroke:#181818;stroke-width:1.0;"/><polygon fill="none" points="262,67.17,269,47.17,276,67.17,262,67.17" style="stroke:#181818;stroke-width:1.0;"/></g><text fill="#888888" font-family="sans-serif" font-size="10" lengthAdjust="spacing" textLength="182" x="171" y="233.1467">UMLDoclet 2.1.0, PlantUML 1.2022.14</text><!--SRC=[XL9DQm8n4BttLmo5Wj9rKTkJYD0YbeAbKjjUjXx6xAYHRB8airAr_lTcTyNwiT0S9fatBoypl000E6BGc91BKT2OKhJ8ne8scgvy6HOo9g0avJNC9AdOdQC9yS9ukC25GkVWkklaXZgj-zxxUFHeCwQ1iOA-z1vlzZ9K8SNO3bEBWgN0vjqre8CAF3pHW2WwoSC59seoWMtnVBwsZj7VtC6j9muoiXlCwLXxiZWp0NoIPVgkTs1iL2QaqPSt6-pIcjGSG15YaqqLHPC0-eVJisQQaysFVqGVl6v9hr2r98nsR3Dft_A6ZZGUhCNrK3hkbktrJXGlgXN3UkcLBqfRpdde8veKv5srFw_J9Ga-CcQ9AmmLwdbXno4BIs8fSev2zwVH-D-wVGVafxOmCoRVFbw6VIEK_uFji1Ks0nXvNVOetFXfd7UdLly5]--></g></svg>