<?xml version="1.0" encoding="UTF-8" standalone="no"?><svg xmlns="http://www.w3.org/2000/svg" xmlns:xlink="http://www.w3.org/1999/xlink" contentStyleType="text/css" height="193px" preserveAspectRatio="none" style="width:318px;height:193px;background:#FFFFFF;" version="1.1" viewBox="0 0 318 193" width="318px" zoomAndPan="magnify"><defs/><g><!--class ual.eda2.practica03.TSPGreedyEdges--><a href="TSPGreedyEdges.html" target="_top" title="TSPGreedyEdges.html" xlink:actuate="onRequest" xlink:href="TSPGreedyEdges.html" xlink:show="new" xlink:title="TSPGreedyEdges.html" xlink:type="simple"><g id="elem_ual.eda2.practica03.TSPGreedyEdges"><rect codeLine="5" fill="#F1F1F1" height="62.7539" id="ual.eda2.practica03.TSPGreedyEdges" rx="2.5" ry="2.5" style="stroke:#181818;stroke-width:0.5;" width="304" x="7" y="105.27"/><ellipse cx="97.75" cy="124.4028" fill="#ADD1B2" rx="11" ry="11" style="stroke:#181818;stroke-width:1.0;"/><path d="M100.2231,130.5459 Q99.6421,130.8447 99.0029,130.9941 Q98.3638,131.1435 97.6582,131.1435 Q95.1514,131.1435 93.8315,129.4917 Q92.5117,127.8398 92.5117,124.7187 Q92.5117,121.5893 93.8315,119.9375 Q95.1514,118.2856 97.6582,118.2856 Q98.3638,118.2856 99.0112,118.435 Q99.6587,118.5845 100.2231,118.8833 L100.2231,121.6059 Q99.5923,121.0249 98.9988,120.7551 Q98.4053,120.4853 97.7744,120.4853 Q96.4297,120.4853 95.7449,121.552 Q95.0601,122.6186 95.0601,124.7187 Q95.0601,126.8105 95.7449,127.8772 Q96.4297,128.9438 97.7744,128.9438 Q98.4053,128.9438 98.9988,128.6741 Q99.5923,128.4043 100.2231,127.8232 Z " fill="#000000"/><text fill="#000000" font-family="sans-serif" font-size="14" lengthAdjust="spacing" textLength="114" x="118.25" y="123.8052">TSPGreedyEdges</text><text fill="#000000" font-family="sans-serif" font-size="10" lengthAdjust="spacing" textLength="96" x="127.25" y="136.4263">ual.eda2.practica03</text><line style="stroke:#181818;stroke-width:0.5;" x1="8" x2="310" y1="143.5356" y2="143.5356"/><ellipse cx="18" cy="157.2798" fill="#84BE84" rx="3" ry="3" style="stroke:#038048;stroke-width:1.0;"/><text fill="#000000" font-family="sans-serif" font-size="14" lengthAdjust="spacing" text-decoration="underline" textLength="278" x="27" y="161.0708">tspGreedyEdges(Grafo, Vertex): Solucion</text></g></a><!--class java.lang.Object--><g id="elem_java.lang.Object"><rect codeLine="9" fill="#F1F1F1" height="38.2656" id="java.lang.Object" rx="2.5" ry="2.5" style="stroke:#181818;stroke-width:0.5;" width="76" x="121" y="7"/><ellipse cx="136" cy="26.1328" fill="#ADD1B2" rx="11" ry="11" style="stroke:#181818;stroke-width:1.0;"/><path d="M138.4731,32.2759 Q137.8921,32.5747 137.2529,32.7241 Q136.6138,32.8735 135.9082,32.8735 Q133.4014,32.8735 132.0815,31.2217 Q130.7617,29.5698 130.7617,26.4487 Q130.7617,23.3193 132.0815,21.6675 Q133.4014,20.0156 135.9082,20.0156 Q136.6138,20.0156 137.2612,20.165 Q137.9087,20.3145 138.4731,20.6133 L138.4731,23.3359 Q137.8423,22.7549 137.2488,22.4851 Q136.6553,22.2153 136.0244,22.2153 Q134.6797,22.2153 133.9949,23.282 Q133.3101,24.3486 133.3101,26.4487 Q133.3101,28.5405 133.9949,29.6072 Q134.6797,30.6738 136.0244,30.6738 Q136.6553,30.6738 137.2488,30.4041 Q137.8423,30.1343 138.4731,29.5532 Z " fill="#000000"/><text fill="#000000" font-family="sans-serif" font-size="14" lengthAdjust="spacing" textLength="44" x="150" y="25.5352">Object</text><text fill="#000000" font-family="sans-serif" font-size="10" lengthAdjust="spacing" textLength="44" x="150" y="38.1563">java.lang</text></g><!--reverse link java.lang.Object to ual.eda2.practica03.TSPGreedyEdges--><g id="link_java.lang.Object_ual.eda2.practica03.TSPGreedyEdges"><path codeLine="11" d="M159,66.84 C159,79.36 159,92.99 159,104.8 " fill="none" id="java.lang.Object-backto-ual.eda2.practica03.TSPGreedyEdges" style="stroke:#181818;stroke-width:1.0;"/><polygon fill="none" points="152,67.05,159,47.05,166,67.05,152,67.05" style="stroke:#181818;stroke-width:1.0;"/></g><text fill="#888888" font-family="sans-serif" font-size="10" lengthAdjust="spacing" textLength="182" x="61" y="183.6919">UMLDoclet 2.1.0, PlantUML 1.2022.14</text><!--SRC=[ZP71QW8n48RlVOf149HgM6rF8fuiNbegRDkBzJ1DPjsLRB9aHgcrldlZAgBYeRc4V3Fpymq1060IS5WILwWffGe3YW_WlAExM8QyC0HKLhA1h21h-9gM9BcFkERQ8ZCqXbpyqA3tE7fBfvD0P3PFPa7ywOw5PBH2gyXWNrK1jHGQauS68CCDhYv3O3Qx12gNqixdiAqDzcVBWd5s1_V2rLbdQn8myntue23qtHv0wkrA5zxLaxlRAxn-BKdBcVeIrwWikaKjV7gfG-CXv9h2yBVR_SToHmLoGW4ox_VN-ylps6iR_wclUYhfm3G6IwJGN5FWgDzg_m40]--></g></svg>