<?xml version="1.0" encoding="UTF-8" standalone="no"?><svg xmlns="http://www.w3.org/2000/svg" xmlns:xlink="http://www.w3.org/1999/xlink" contentStyleType="text/css" height="344px" preserveAspectRatio="none" style="width:314px;height:344px;background:#FFFFFF;" version="1.1" viewBox="0 0 314 344" width="314px" zoomAndPan="magnify"><defs/><g><!--class ual.eda2.practica03.Vertex--><a href="Vertex.html" target="_top" title="Vertex.html" xlink:actuate="onRequest" xlink:href="Vertex.html" xlink:show="new" xlink:title="Vertex.html" xlink:type="simple"><g id="elem_ual.eda2.practica03.Vertex"><rect codeLine="5" fill="#F1F1F1" height="186.1719" id="ual.eda2.practica03.Vertex" rx="2.5" ry="2.5" style="stroke:#181818;stroke-width:0.5;" width="189" x="33.5" y="132.76"/><ellipse cx="75.95" cy="151.8928" fill="#ADD1B2" rx="11" ry="11" style="stroke:#181818;stroke-width:1.0;"/><path d="M78.4231,158.0359 Q77.8421,158.3347 77.2029,158.4841 Q76.5638,158.6335 75.8582,158.6335 Q73.3514,158.6335 72.0315,156.9817 Q70.7117,155.3298 70.7117,152.2087 Q70.7117,149.0793 72.0315,147.4275 Q73.3514,145.7756 75.8582,145.7756 Q76.5638,145.7756 77.2112,145.925 Q77.8587,146.0745 78.4231,146.3733 L78.4231,149.0959 Q77.7923,148.5149 77.1988,148.2451 Q76.6053,147.9753 75.9744,147.9753 Q74.6297,147.9753 73.9449,149.042 Q73.2601,150.1086 73.2601,152.2087 Q73.2601,154.3005 73.9449,155.3672 Q74.6297,156.4338 75.9744,156.4338 Q76.6053,156.4338 77.1988,156.1641 Q77.7923,155.8943 78.4231,155.3132 Z " fill="#000000"/><text fill="#000000" font-family="sans-serif" font-size="14" lengthAdjust="spacing" textLength="45" x="121.55" y="151.2952">Vertex</text><text fill="#000000" font-family="sans-serif" font-size="10" lengthAdjust="spacing" textLength="96" x="96.05" y="163.9163">ual.eda2.practica03</text><line style="stroke:#181818;stroke-width:0.5;" x1="34.5" x2="221.5" y1="171.0256" y2="171.0256"/><rect fill="none" height="6" style="stroke:#C82930;stroke-width:1.0;" width="6" x="41.5" y="181.7698"/><text fill="#000000" font-family="sans-serif" font-size="14" lengthAdjust="spacing" textLength="62" x="53.5" y="188.5608">id: String</text><line style="stroke:#181818;stroke-width:0.5;" x1="34.5" x2="221.5" y1="195.5139" y2="195.5139"/><ellipse cx="44.5" cy="209.258" fill="#84BE84" rx="3" ry="3" style="stroke:#038048;stroke-width:1.0;"/><text fill="#000000" font-family="sans-serif" font-size="14" lengthAdjust="spacing" textLength="96" x="53.5" y="213.0491">Vertex(String)</text><ellipse cx="44.5" cy="225.7463" fill="#84BE84" rx="3" ry="3" style="stroke:#038048;stroke-width:1.0;"/><text fill="#000000" font-family="sans-serif" font-size="14" lengthAdjust="spacing" textLength="94" x="53.5" y="229.5373">getId(): String</text><ellipse cx="44.5" cy="242.2346" fill="#84BE84" rx="3" ry="3" style="stroke:#038048;stroke-width:1.0;"/><text fill="#000000" font-family="sans-serif" font-size="14" lengthAdjust="spacing" textLength="121" x="53.5" y="246.0256">setId(String): void</text><ellipse cx="44.5" cy="258.7229" fill="#84BE84" rx="3" ry="3" style="stroke:#038048;stroke-width:1.0;"/><text fill="#000000" font-family="sans-serif" font-size="14" lengthAdjust="spacing" textLength="159" x="53.5" y="262.5139">compareTo(Vertex): int</text><ellipse cx="44.5" cy="275.2112" fill="#84BE84" rx="3" ry="3" style="stroke:#038048;stroke-width:1.0;"/><text fill="#000000" font-family="sans-serif" font-size="14" lengthAdjust="spacing" textLength="163" x="53.5" y="279.0022">equals(Object): boolean</text><ellipse cx="44.5" cy="291.6995" fill="#84BE84" rx="3" ry="3" style="stroke:#038048;stroke-width:1.0;"/><text fill="#000000" font-family="sans-serif" font-size="14" lengthAdjust="spacing" textLength="105" x="53.5" y="295.4905">hashCode(): int</text><ellipse cx="44.5" cy="308.1877" fill="#84BE84" rx="3" ry="3" style="stroke:#038048;stroke-width:1.0;"/><text fill="#000000" font-family="sans-serif" font-size="14" lengthAdjust="spacing" textLength="114" x="53.5" y="311.9788">toString(): String</text></g></a><!--class java.lang.Object--><g id="elem_java.lang.Object"><rect codeLine="16" fill="#F1F1F1" height="38.2656" id="java.lang.Object" rx="2.5" ry="2.5" style="stroke:#181818;stroke-width:0.5;" width="76" x="7" y="22.25"/><ellipse cx="22" cy="41.3828" fill="#ADD1B2" rx="11" ry="11" style="stroke:#181818;stroke-width:1.0;"/><path d="M24.4731,47.5259 Q23.8921,47.8247 23.2529,47.9741 Q22.6138,48.1235 21.9082,48.1235 Q19.4014,48.1235 18.0815,46.4717 Q16.7617,44.8198 16.7617,41.6987 Q16.7617,38.5693 18.0815,36.9175 Q19.4014,35.2656 21.9082,35.2656 Q22.6138,35.2656 23.2612,35.415 Q23.9087,35.5645 24.4731,35.8633 L24.4731,38.5859 Q23.8423,38.0049 23.2488,37.7351 Q22.6553,37.4653 22.0244,37.4653 Q20.6797,37.4653 19.9949,38.532 Q19.3101,39.5986 19.3101,41.6987 Q19.3101,43.7905 19.9949,44.8572 Q20.6797,45.9238 22.0244,45.9238 Q22.6553,45.9238 23.2488,45.6541 Q23.8423,45.3843 24.4731,44.8032 Z " fill="#000000"/><text fill="#000000" font-family="sans-serif" font-size="14" lengthAdjust="spacing" textLength="44" x="36" y="40.7852">Object</text><text fill="#000000" font-family="sans-serif" font-size="10" lengthAdjust="spacing" textLength="44" x="36" y="53.4063">java.lang</text></g><!--class java.lang.Comparable--><g id="elem_java.lang.Comparable"><rect codeLine="17" fill="#F1F1F1" height="62.7539" id="java.lang.Comparable" rx="2.5" ry="2.5" style="stroke:#181818;stroke-width:0.5;" width="185" x="118.5" y="10"/><ellipse cx="145.65" cy="29.1328" fill="#B4A7E5" rx="11" ry="11" style="stroke:#181818;stroke-width:1.0;"/><path d="M142.0777,25.3979 L142.0777,23.2397 L149.4571,23.2397 L149.4571,25.3979 L146.9918,25.3979 L146.9918,33.4746 L149.4571,33.4746 L149.4571,35.6328 L142.0777,35.6328 L142.0777,33.4746 L144.5431,33.4746 L144.5431,25.3979 Z " fill="#000000"/><text fill="#000000" font-family="sans-serif" font-size="14" font-style="italic" lengthAdjust="spacing" textLength="84" x="162.35" y="28.5352">Comparable</text><text fill="#000000" font-family="sans-serif" font-size="10" font-style="italic" lengthAdjust="spacing" textLength="44" x="182.35" y="41.1563">java.lang</text><rect fill="#FFFFFF" height="16.1328" style="stroke:#181818;stroke-width:1.0;stroke-dasharray:2.0,2.0;" width="40" x="266.5" y="7"/><text fill="#000000" font-family="sans-serif" font-size="12" font-style="italic" lengthAdjust="spacing" textLength="38" x="267.5" y="19.6016">Vertex</text><line style="stroke:#181818;stroke-width:0.5;" x1="119.5" x2="302.5" y1="48.2656" y2="48.2656"/><ellipse cx="129.5" cy="62.0098" fill="#84BE84" rx="3" ry="3" style="stroke:#038048;stroke-width:1.0;"/><text fill="#000000" font-family="sans-serif" font-size="14" font-style="italic" lengthAdjust="spacing" textLength="159" x="138.5" y="65.8008">compareTo(Vertex): int</text></g><!--reverse link java.lang.Object to ual.eda2.practica03.Vertex--><g id="link_java.lang.Object_ual.eda2.practica03.Vertex"><path codeLine="21" d="M62.29,80.39 C69.22,95.63 77.54,113.92 85.9,132.29 " fill="none" id="java.lang.Object-backto-ual.eda2.practica03.Vertex" style="stroke:#181818;stroke-width:1.0;"/><polygon fill="none" points="55.95,83.36,54.04,62.26,68.69,77.57,55.95,83.36" style="stroke:#181818;stroke-width:1.0;"/></g><!--reverse link java.lang.Comparable to ual.eda2.practica03.Vertex--><g id="link_java.lang.Comparable_ual.eda2.practica03.Vertex"><path codeLine="22" d="M188.24,92.41 C182.58,104.85 176.33,118.59 170.07,132.36 " fill="none" id="java.lang.Comparable-backto-ual.eda2.practica03.Vertex" style="stroke:#181818;stroke-width:1.0;stroke-dasharray:7.0,7.0;"/><polygon fill="none" points="181.83,89.61,196.48,74.3,194.57,95.4,181.83,89.61" style="stroke:#181818;stroke-width:1.0;"/></g><text fill="#888888" font-family="sans-serif" font-size="10" lengthAdjust="spacing" textLength="182" x="59.25" y="334.5998">UMLDoclet 2.1.0, PlantUML 1.2022.14</text><!--SRC=[ZL9DJm8n4BtxAoOc9akK1j0J8LpmOgBH1FM276Qx0rlIRTTs92hot-rk2KjMGjnBjs_Ucuyt1G3mn62m85-Yf2cLw92j0sCDdOKmv2eZeABaBrWeqfblemLnRWDSurAZzt0-ykgRXlsRyIivfiytimDwum_KWZ8SYDAXP2MnTtqEwE48Bg8OPhFu8t8kz7mEcxfIzNLLDeGfEsMMU-moafC8TnfyINoN9Ps_0by7TlmXhAtAcg2qHR24dcqIymQ2Cjp4wJrqxfF7T4MIGp2rLXEQXf2ZpoSsewIjP1jBjbhQ7ZSo5ZWmSeLh51hDihPlVnEHMES8vSWjmbeFyapgUJ3Lz8zS3NaKfnyVcB_1r7ErhEr9btRpj1k4qK-tUsBhBL7JIH0ASKeOxQDgTbXOMnql3_UtLkhmqWUYBtfNy1IISa3XOatEAskIpYy0]--></g></svg>