<?xml version="1.0" encoding="UTF-8" standalone="no"?><svg xmlns="http://www.w3.org/2000/svg" xmlns:xlink="http://www.w3.org/1999/xlink" contentStyleType="text/css" height="535px" preserveAspectRatio="none" style="width:663px;height:535px;background:#FFFFFF;" version="1.1" viewBox="0 0 663 535" width="663px" zoomAndPan="magnify"><defs/><g><!--cluster ual.eda2.practica01--><g id="cluster_ual.eda2.practica01"><path d="M8.5,6 L145.5,6 A3.75,3.75 0 0 1 148,8.5 L155,28.4883 L653.5,28.4883 A2.5,2.5 0 0 1 656,30.9883 L656,507.29 A2.5,2.5 0 0 1 653.5,509.79 L8.5,509.79 A2.5,2.5 0 0 1 6,507.29 L6,8.5 A2.5,2.5 0 0 1 8.5,6 " fill="none" style="stroke:#000000;stroke-width:1.5;"/><line style="stroke:#000000;stroke-width:1.5;" x1="6" x2="155" y1="28.4883" y2="28.4883"/><text fill="#000000" font-family="sans-serif" font-size="14" font-weight="bold" lengthAdjust="spacing" textLength="136" x="10" y="21.5352">ual.eda2.practica01</text></g><!--class ual.eda2.practica01.TestParMasCercanoDyVEj4--><a href="TestParMasCercanoDyVEj4.html" target="_top" title="TestParMasCercanoDyVEj4.html" xlink:actuate="onRequest" xlink:href="TestParMasCercanoDyVEj4.html" xlink:show="new" xlink:title="TestParMasCercanoDyVEj4.html" xlink:type="simple"><g id="elem_ual.eda2.practica01.TestParMasCercanoDyVEj4"><rect codeLine="3" fill="#F1F1F1" height="196.3945" id="ual.eda2.practica01.TestParMasCercanoDyVEj4" rx="2.5" ry="2.5" style="stroke:#181818;stroke-width:0.5;" width="291" x="22.5" y="41"/><ellipse cx="72.75" cy="57" fill="#ADD1B2" rx="11" ry="11" style="stroke:#181818;stroke-width:1.0;"/><path d="M75.2231,63.1431 Q74.6421,63.4419 74.0029,63.5913 Q73.3638,63.7407 72.6582,63.7407 Q70.1514,63.7407 68.8315,62.0889 Q67.5117,60.437 67.5117,57.3159 Q67.5117,54.1865 68.8315,52.5347 Q70.1514,50.8828 72.6582,50.8828 Q73.3638,50.8828 74.0112,51.0322 Q74.6587,51.1816 75.2231,51.4805 L75.2231,54.2031 Q74.5923,53.6221 73.9988,53.3523 Q73.4053,53.0825 72.7744,53.0825 Q71.4297,53.0825 70.7449,54.1492 Q70.0601,55.2158 70.0601,57.3159 Q70.0601,59.4077 70.7449,60.4744 Q71.4297,61.541 72.7744,61.541 Q73.4053,61.541 73.9988,61.2712 Q74.5923,61.0015 75.2231,60.4204 Z " fill="#000000"/><text fill="#000000" font-family="sans-serif" font-size="14" lengthAdjust="spacing" textLength="182" x="93.25" y="62.291">TestParMasCercanoDyVEj4</text><line style="stroke:#181818;stroke-width:0.5;" x1="23.5" x2="312.5" y1="73" y2="73"/><polygon fill="none" points="33.5,82.7441,29.5,88.7441,37.5,88.7441" style="stroke:#1963A0;stroke-width:1.0;"/><text fill="#000000" font-family="sans-serif" font-size="14" lengthAdjust="spacing" textLength="169" x="42.5" y="90.5352">directorioEntrada: String</text><line style="stroke:#181818;stroke-width:0.5;" x1="23.5" x2="312.5" y1="97.4883" y2="97.4883"/><ellipse cx="33.5" cy="111.2324" fill="#84BE84" rx="3" ry="3" style="stroke:#038048;stroke-width:1.0;"/><text fill="#000000" font-family="sans-serif" font-size="14" lengthAdjust="spacing" text-decoration="underline" textLength="265" x="42.5" y="115.0234">load(String, ArrayList&lt;Poin&gt;): boolean</text><ellipse cx="33.5" cy="127.7207" fill="#84BE84" rx="3" ry="3" style="stroke:#038048;stroke-width:1.0;"/><text fill="#000000" font-family="sans-serif" font-size="14" lengthAdjust="spacing" textLength="91" x="42.5" y="131.5117">barras(): void</text><ellipse cx="33.5" cy="144.209" fill="#84BE84" rx="3" ry="3" style="stroke:#038048;stroke-width:1.0;"/><text fill="#000000" font-family="sans-serif" font-size="14" lengthAdjust="spacing" textLength="218" x="42.5" y="148">parMasCercanoDyVSpain(): void</text><ellipse cx="33.5" cy="160.6973" fill="#84BE84" rx="3" ry="3" style="stroke:#038048;stroke-width:1.0;"/><text fill="#000000" font-family="sans-serif" font-size="14" lengthAdjust="spacing" textLength="238" x="42.5" y="164.4883">parMasCercanoDyVEdaLand(): void</text><ellipse cx="33.5" cy="177.1855" fill="#84BE84" rx="3" ry="3" style="stroke:#038048;stroke-width:1.0;"/><text fill="#000000" font-family="sans-serif" font-size="14" lengthAdjust="spacing" textLength="211" x="42.5" y="180.9766">parMasCercanoDyVNAcl(): void</text><ellipse cx="33.5" cy="193.6738" fill="#84BE84" rx="3" ry="3" style="stroke:#038048;stroke-width:1.0;"/><text fill="#000000" font-family="sans-serif" font-size="14" lengthAdjust="spacing" textLength="218" x="42.5" y="197.4648">parMasCercanoDyVNApp(): void</text><ellipse cx="33.5" cy="210.1621" fill="#84BE84" rx="3" ry="3" style="stroke:#038048;stroke-width:1.0;"/><text fill="#000000" font-family="sans-serif" font-size="14" lengthAdjust="spacing" textLength="215" x="42.5" y="213.9531">parMasCercanoDyVNArd(): void</text><ellipse cx="33.5" cy="226.6504" fill="#84BE84" rx="3" ry="3" style="stroke:#038048;stroke-width:1.0;"/><text fill="#000000" font-family="sans-serif" font-size="14" lengthAdjust="spacing" textLength="212" x="42.5" y="230.4414">parMasCercanoDyVNArr(): void</text></g></a><!--class ual.eda2.practica01.TestParMasCercanoDyVEj5--><a href="TestParMasCercanoDyVEj5.html" target="_top" title="TestParMasCercanoDyVEj5.html" xlink:actuate="onRequest" xlink:href="TestParMasCercanoDyVEj5.html" xlink:show="new" xlink:title="TestParMasCercanoDyVEj5.html" xlink:type="simple"><g id="elem_ual.eda2.practica01.TestParMasCercanoDyVEj5"><rect codeLine="15" fill="#F1F1F1" height="196.3945" id="ual.eda2.practica01.TestParMasCercanoDyVEj5" rx="2.5" ry="2.5" style="stroke:#181818;stroke-width:0.5;" width="291" x="348.5" y="41"/><ellipse cx="398.75" cy="57" fill="#ADD1B2" rx="11" ry="11" style="stroke:#181818;stroke-width:1.0;"/><path d="M401.2231,63.1431 Q400.6421,63.4419 400.0029,63.5913 Q399.3638,63.7407 398.6582,63.7407 Q396.1514,63.7407 394.8315,62.0889 Q393.5117,60.437 393.5117,57.3159 Q393.5117,54.1865 394.8315,52.5347 Q396.1514,50.8828 398.6582,50.8828 Q399.3638,50.8828 400.0112,51.0322 Q400.6587,51.1816 401.2231,51.4805 L401.2231,54.2031 Q400.5923,53.6221 399.9988,53.3523 Q399.4053,53.0825 398.7744,53.0825 Q397.4297,53.0825 396.7449,54.1492 Q396.0601,55.2158 396.0601,57.3159 Q396.0601,59.4077 396.7449,60.4744 Q397.4297,61.541 398.7744,61.541 Q399.4053,61.541 399.9988,61.2712 Q400.5923,61.0015 401.2231,60.4204 Z " fill="#000000"/><text fill="#000000" font-family="sans-serif" font-size="14" lengthAdjust="spacing" textLength="182" x="419.25" y="62.291">TestParMasCercanoDyVEj5</text><line style="stroke:#181818;stroke-width:0.5;" x1="349.5" x2="638.5" y1="73" y2="73"/><polygon fill="none" points="359.5,82.7441,355.5,88.7441,363.5,88.7441" style="stroke:#1963A0;stroke-width:1.0;"/><text fill="#000000" font-family="sans-serif" font-size="14" lengthAdjust="spacing" textLength="169" x="368.5" y="90.5352">directorioEntrada: String</text><line style="stroke:#181818;stroke-width:0.5;" x1="349.5" x2="638.5" y1="97.4883" y2="97.4883"/><ellipse cx="359.5" cy="111.2324" fill="#84BE84" rx="3" ry="3" style="stroke:#038048;stroke-width:1.0;"/><text fill="#000000" font-family="sans-serif" font-size="14" lengthAdjust="spacing" text-decoration="underline" textLength="265" x="368.5" y="115.0234">load(String, ArrayList&lt;Poin&gt;): boolean</text><ellipse cx="359.5" cy="127.7207" fill="#84BE84" rx="3" ry="3" style="stroke:#038048;stroke-width:1.0;"/><text fill="#000000" font-family="sans-serif" font-size="14" lengthAdjust="spacing" textLength="91" x="368.5" y="131.5117">barras(): void</text><ellipse cx="359.5" cy="144.209" fill="#84BE84" rx="3" ry="3" style="stroke:#038048;stroke-width:1.0;"/><text fill="#000000" font-family="sans-serif" font-size="14" lengthAdjust="spacing" textLength="218" x="368.5" y="148">parMasCercanoDyVSpain(): void</text><ellipse cx="359.5" cy="160.6973" fill="#84BE84" rx="3" ry="3" style="stroke:#038048;stroke-width:1.0;"/><text fill="#000000" font-family="sans-serif" font-size="14" lengthAdjust="spacing" textLength="238" x="368.5" y="164.4883">parMasCercanoDyVEdaLand(): void</text><ellipse cx="359.5" cy="177.1855" fill="#84BE84" rx="3" ry="3" style="stroke:#038048;stroke-width:1.0;"/><text fill="#000000" font-family="sans-serif" font-size="14" lengthAdjust="spacing" textLength="211" x="368.5" y="180.9766">parMasCercanoDyVNAcl(): void</text><ellipse cx="359.5" cy="193.6738" fill="#84BE84" rx="3" ry="3" style="stroke:#038048;stroke-width:1.0;"/><text fill="#000000" font-family="sans-serif" font-size="14" lengthAdjust="spacing" textLength="218" x="368.5" y="197.4648">parMasCercanoDyVNApp(): void</text><ellipse cx="359.5" cy="210.1621" fill="#84BE84" rx="3" ry="3" style="stroke:#038048;stroke-width:1.0;"/><text fill="#000000" font-family="sans-serif" font-size="14" lengthAdjust="spacing" textLength="215" x="368.5" y="213.9531">parMasCercanoDyVNArd(): void</text><ellipse cx="359.5" cy="226.6504" fill="#84BE84" rx="3" ry="3" style="stroke:#038048;stroke-width:1.0;"/><text fill="#000000" font-family="sans-serif" font-size="14" lengthAdjust="spacing" textLength="212" x="368.5" y="230.4414">parMasCercanoDyVNArr(): void</text></g></a><!--class ual.eda2.practica01.TestParMasCercanoDyVEj6--><a href="TestParMasCercanoDyVEj6.html" target="_top" title="TestParMasCercanoDyVEj6.html" xlink:actuate="onRequest" xlink:href="TestParMasCercanoDyVEj6.html" xlink:show="new" xlink:title="TestParMasCercanoDyVEj6.html" xlink:type="simple"><g id="elem_ual.eda2.practica01.TestParMasCercanoDyVEj6"><rect codeLine="27" fill="#F1F1F1" height="196.3945" id="ual.eda2.practica01.TestParMasCercanoDyVEj6" rx="2.5" ry="2.5" style="stroke:#181818;stroke-width:0.5;" width="291" x="22.5" y="297.4"/><ellipse cx="72.75" cy="313.4" fill="#ADD1B2" rx="11" ry="11" style="stroke:#181818;stroke-width:1.0;"/><path d="M75.2231,319.5431 Q74.6421,319.8419 74.0029,319.9913 Q73.3638,320.1407 72.6582,320.1407 Q70.1514,320.1407 68.8315,318.4889 Q67.5117,316.837 67.5117,313.7159 Q67.5117,310.5865 68.8315,308.9347 Q70.1514,307.2828 72.6582,307.2828 Q73.3638,307.2828 74.0112,307.4322 Q74.6587,307.5816 75.2231,307.8805 L75.2231,310.6031 Q74.5923,310.0221 73.9988,309.7523 Q73.4053,309.4825 72.7744,309.4825 Q71.4297,309.4825 70.7449,310.5492 Q70.0601,311.6158 70.0601,313.7159 Q70.0601,315.8077 70.7449,316.8744 Q71.4297,317.941 72.7744,317.941 Q73.4053,317.941 73.9988,317.6712 Q74.5923,317.4015 75.2231,316.8204 Z " fill="#000000"/><text fill="#000000" font-family="sans-serif" font-size="14" lengthAdjust="spacing" textLength="182" x="93.25" y="318.691">TestParMasCercanoDyVEj6</text><line style="stroke:#181818;stroke-width:0.5;" x1="23.5" x2="312.5" y1="329.4" y2="329.4"/><polygon fill="none" points="33.5,339.1441,29.5,345.1441,37.5,345.1441" style="stroke:#1963A0;stroke-width:1.0;"/><text fill="#000000" font-family="sans-serif" font-size="14" lengthAdjust="spacing" textLength="169" x="42.5" y="346.9352">directorioEntrada: String</text><line style="stroke:#181818;stroke-width:0.5;" x1="23.5" x2="312.5" y1="353.8883" y2="353.8883"/><ellipse cx="33.5" cy="367.6324" fill="#84BE84" rx="3" ry="3" style="stroke:#038048;stroke-width:1.0;"/><text fill="#000000" font-family="sans-serif" font-size="14" lengthAdjust="spacing" text-decoration="underline" textLength="265" x="42.5" y="371.4234">load(String, ArrayList&lt;Poin&gt;): boolean</text><ellipse cx="33.5" cy="384.1207" fill="#84BE84" rx="3" ry="3" style="stroke:#038048;stroke-width:1.0;"/><text fill="#000000" font-family="sans-serif" font-size="14" lengthAdjust="spacing" textLength="91" x="42.5" y="387.9117">barras(): void</text><ellipse cx="33.5" cy="400.609" fill="#84BE84" rx="3" ry="3" style="stroke:#038048;stroke-width:1.0;"/><text fill="#000000" font-family="sans-serif" font-size="14" lengthAdjust="spacing" textLength="218" x="42.5" y="404.4">parMasCercanoDyVSpain(): void</text><ellipse cx="33.5" cy="417.0973" fill="#84BE84" rx="3" ry="3" style="stroke:#038048;stroke-width:1.0;"/><text fill="#000000" font-family="sans-serif" font-size="14" lengthAdjust="spacing" textLength="238" x="42.5" y="420.8883">parMasCercanoDyVEdaLand(): void</text><ellipse cx="33.5" cy="433.5855" fill="#84BE84" rx="3" ry="3" style="stroke:#038048;stroke-width:1.0;"/><text fill="#000000" font-family="sans-serif" font-size="14" lengthAdjust="spacing" textLength="211" x="42.5" y="437.3766">parMasCercanoDyVNAcl(): void</text><ellipse cx="33.5" cy="450.0738" fill="#84BE84" rx="3" ry="3" style="stroke:#038048;stroke-width:1.0;"/><text fill="#000000" font-family="sans-serif" font-size="14" lengthAdjust="spacing" textLength="218" x="42.5" y="453.8648">parMasCercanoDyVNApp(): void</text><ellipse cx="33.5" cy="466.5621" fill="#84BE84" rx="3" ry="3" style="stroke:#038048;stroke-width:1.0;"/><text fill="#000000" font-family="sans-serif" font-size="14" lengthAdjust="spacing" textLength="215" x="42.5" y="470.3531">parMasCercanoDyVNArd(): void</text><ellipse cx="33.5" cy="483.0504" fill="#84BE84" rx="3" ry="3" style="stroke:#038048;stroke-width:1.0;"/><text fill="#000000" font-family="sans-serif" font-size="14" lengthAdjust="spacing" textLength="212" x="42.5" y="486.8414">parMasCercanoDyVNArr(): void</text></g></a><text fill="#888888" font-family="sans-serif" font-size="10" lengthAdjust="spacing" textLength="182" x="233.5" y="525.458">UMLDoclet 2.1.0, PlantUML 1.2022.14</text><!--SRC=[xP71QW8n48RlFiLS2XPbKQaUf1Iaxcqj2xQzY8SnITkKc0cJgI1YdxqfzT1jMSYn1USoaFzBPiW70E1nQs90PU0DNM4qZeh0gCGg70pXqEd0gPJ36E7UHAcH5nXl3IlqDDy_bgzNi5gr9CMBRDrwdLw2R_MkBHibn9PABumQfx0KjlwvWHsYODha23r7gBjVH1zcpBYlR9Jhcgo_kPp2XiWPz8tBlGqcBdPJl2EhcrduiUaoeFLvQAcnGg_puBkPShba2BaaPqzd_aKUyvoEMvsEpqx_gTD9gzF9sUaVTNfgodWn34z4d-rXKSr9EICmAeR5e0-rGo_f52vsXgEbz4SV]--></g></svg>