<?xml version="1.0" encoding="UTF-8" standalone="no"?><svg xmlns="http://www.w3.org/2000/svg" xmlns:xlink="http://www.w3.org/1999/xlink" contentStyleType="text/css" height="267px" preserveAspectRatio="none" style="width:214px;height:267px;background:#FFFFFF;" version="1.1" viewBox="0 0 214 267" width="214px" zoomAndPan="magnify"><defs/><g><!--class ual.eda2.practica01.Poin--><a href="Poin.html" target="_top" title="Poin.html" xlink:actuate="onRequest" xlink:href="Poin.html" xlink:show="new" xlink:title="Poin.html" xlink:type="simple"><g id="elem_ual.eda2.practica01.Poin"><rect codeLine="5" fill="#F1F1F1" height="136.707" id="ual.eda2.practica01.Poin" rx="2.5" ry="2.5" style="stroke:#181818;stroke-width:0.5;" width="198" x="9" y="105.26"/><ellipse cx="55.75" cy="124.3928" fill="#ADD1B2" rx="11" ry="11" style="stroke:#181818;stroke-width:1.0;"/><path d="M58.2231,130.5359 Q57.6421,130.8347 57.0029,130.9841 Q56.3638,131.1335 55.6582,131.1335 Q53.1514,131.1335 51.8315,129.4817 Q50.5117,127.8298 50.5117,124.7087 Q50.5117,121.5793 51.8315,119.9275 Q53.1514,118.2756 55.6582,118.2756 Q56.3638,118.2756 57.0112,118.425 Q57.6587,118.5745 58.2231,118.8733 L58.2231,121.5959 Q57.5923,121.0149 56.9988,120.7451 Q56.4053,120.4753 55.7744,120.4753 Q54.4297,120.4753 53.7449,121.542 Q53.0601,122.6086 53.0601,124.7087 Q53.0601,126.8005 53.7449,127.8672 Q54.4297,128.9338 55.7744,128.9338 Q56.4053,128.9338 56.9988,128.6641 Q57.5923,128.3943 58.2231,127.8132 Z " fill="#000000"/><text fill="#000000" font-family="sans-serif" font-size="14" lengthAdjust="spacing" textLength="30" x="109.25" y="123.7952">Poin</text><text fill="#000000" font-family="sans-serif" font-size="10" lengthAdjust="spacing" textLength="96" x="76.25" y="136.4163">ual.eda2.practica01</text><line style="stroke:#181818;stroke-width:0.5;" x1="10" x2="206" y1="143.5256" y2="143.5256"/><ellipse cx="20" cy="157.2698" fill="none" rx="3" ry="3" style="stroke:#038048;stroke-width:1.0;"/><text fill="#000000" font-family="sans-serif" font-size="14" lengthAdjust="spacing" textLength="66" x="29" y="161.0608">x: Double</text><ellipse cx="20" cy="173.758" fill="none" rx="3" ry="3" style="stroke:#038048;stroke-width:1.0;"/><text fill="#000000" font-family="sans-serif" font-size="14" lengthAdjust="spacing" textLength="39" x="29" y="177.5491">id: int</text><ellipse cx="20" cy="190.2463" fill="none" rx="3" ry="3" style="stroke:#038048;stroke-width:1.0;"/><text fill="#000000" font-family="sans-serif" font-size="14" lengthAdjust="spacing" textLength="64" x="29" y="194.0373">y: Double</text><line style="stroke:#181818;stroke-width:0.5;" x1="10" x2="206" y1="200.9905" y2="200.9905"/><polygon fill="#4177AF" points="20,210.7346,16,216.7346,24,216.7346" style="stroke:#1963A0;stroke-width:1.0;"/><text fill="#000000" font-family="sans-serif" font-size="14" lengthAdjust="spacing" textLength="172" x="29" y="218.5256">Poin(int, Double, Double)</text><ellipse cx="20" cy="231.2229" fill="#84BE84" rx="3" ry="3" style="stroke:#038048;stroke-width:1.0;"/><text fill="#000000" font-family="sans-serif" font-size="14" lengthAdjust="spacing" textLength="114" x="29" y="235.0139">toString(): String</text></g></a><!--class java.lang.Object--><g id="elem_java.lang.Object"><rect codeLine="13" fill="#F1F1F1" height="38.2656" id="java.lang.Object" rx="2.5" ry="2.5" style="stroke:#181818;stroke-width:0.5;" width="76" x="70" y="7"/><ellipse cx="85" cy="26.1328" fill="#ADD1B2" rx="11" ry="11" style="stroke:#181818;stroke-width:1.0;"/><path d="M87.4731,32.2759 Q86.8921,32.5747 86.2529,32.7241 Q85.6138,32.8735 84.9082,32.8735 Q82.4014,32.8735 81.0815,31.2217 Q79.7617,29.5698 79.7617,26.4487 Q79.7617,23.3193 81.0815,21.6675 Q82.4014,20.0156 84.9082,20.0156 Q85.6138,20.0156 86.2612,20.165 Q86.9087,20.3145 87.4731,20.6133 L87.4731,23.3359 Q86.8423,22.7549 86.2488,22.4851 Q85.6553,22.2153 85.0244,22.2153 Q83.6797,22.2153 82.9949,23.282 Q82.3101,24.3486 82.3101,26.4487 Q82.3101,28.5405 82.9949,29.6072 Q83.6797,30.6738 85.0244,30.6738 Q85.6553,30.6738 86.2488,30.4041 Q86.8423,30.1343 87.4731,29.5532 Z " fill="#000000"/><text fill="#000000" font-family="sans-serif" font-size="14" lengthAdjust="spacing" textLength="44" x="99" y="25.5352">Object</text><text fill="#000000" font-family="sans-serif" font-size="10" lengthAdjust="spacing" textLength="44" x="99" y="38.1563">java.lang</text></g><!--reverse link java.lang.Object to ual.eda2.practica01.Poin--><g id="link_java.lang.Object_ual.eda2.practica01.Poin"><path codeLine="15" d="M108,66.63 C108,78.47 108,91.82 108,104.95 " fill="none" id="java.lang.Object-backto-ual.eda2.practica01.Poin" style="stroke:#181818;stroke-width:1.0;"/><polygon fill="none" points="101,67.07,108,47.07,115,67.07,101,67.07" style="stroke:#181818;stroke-width:1.0;"/></g><text fill="#888888" font-family="sans-serif" font-size="10" lengthAdjust="spacing" textLength="182" x="9" y="257.635">UMLDoclet 2.1.0, PlantUML 1.2022.14</text><!--SRC=[TP7BRi8m44Nt_OeHKgL41Ij1NKM85SiYa51NbCNW3CJ8iIDxGAMlRw_pQ8CezMOyvyv3rmO0yCHWi2HVeQGLLUYGhGDZ3Tq56GgL4r1PyHbsYdJkhsb9NDY06ourUW-3YLTlbAMFqwLLviLqQJ8zeXQKurXK3YKhYKaw0FHmWukw5TRhEeY2IxtPm7kpepuFhndCx76hgKSgpq0Pxi7vJyrNFIqAHSDE-ObntyLsnKwPVHHdqDuQxVEsmSNsG98lB1xmX4AZsJV6VZFH5hP3hYbCFaQZVn-XMqo6oS7EsZeypvzcLkhmTsEHYcG8op2E0uNx4pclh8dYRm00]--></g></svg>