<?xml version="1.0" encoding="UTF-8" standalone="no"?><svg xmlns="http://www.w3.org/2000/svg" xmlns:xlink="http://www.w3.org/1999/xlink" contentStyleType="text/css" height="333px" preserveAspectRatio="none" style="width:307px;height:333px;background:#FFFFFF;" version="1.1" viewBox="0 0 307 333" width="307px" zoomAndPan="magnify"><defs/><g><!--class ual.eda2.practica01.TestParMasCercanoDyVEj6--><a href="TestParMasCercanoDyVEj6.html" target="_top" title="TestParMasCercanoDyVEj6.html" xlink:actuate="onRequest" xlink:href="TestParMasCercanoDyVEj6.html" xlink:show="new" xlink:title="TestParMasCercanoDyVEj6.html" xlink:type="simple"><g id="elem_ual.eda2.practica01.TestParMasCercanoDyVEj6"><rect codeLine="5" fill="#F1F1F1" height="202.6602" id="ual.eda2.practica01.TestParMasCercanoDyVEj6" rx="2.5" ry="2.5" style="stroke:#181818;stroke-width:0.5;" width="291" x="9" y="105.27"/><ellipse cx="59.25" cy="124.4028" fill="#ADD1B2" rx="11" ry="11" style="stroke:#181818;stroke-width:1.0;"/><path d="M61.7231,130.5459 Q61.1421,130.8447 60.5029,130.9941 Q59.8638,131.1435 59.1582,131.1435 Q56.6514,131.1435 55.3315,129.4917 Q54.0117,127.8398 54.0117,124.7187 Q54.0117,121.5893 55.3315,119.9375 Q56.6514,118.2856 59.1582,118.2856 Q59.8638,118.2856 60.5112,118.435 Q61.1587,118.5845 61.7231,118.8833 L61.7231,121.6059 Q61.0923,121.0249 60.4988,120.7551 Q59.9053,120.4853 59.2744,120.4853 Q57.9297,120.4853 57.2449,121.552 Q56.5601,122.6186 56.5601,124.7187 Q56.5601,126.8105 57.2449,127.8772 Q57.9297,128.9438 59.2744,128.9438 Q59.9053,128.9438 60.4988,128.6741 Q61.0923,128.4043 61.7231,127.8232 Z " fill="#000000"/><text fill="#000000" font-family="sans-serif" font-size="14" lengthAdjust="spacing" textLength="182" x="79.75" y="123.8052">TestParMasCercanoDyVEj6</text><text fill="#000000" font-family="sans-serif" font-size="10" lengthAdjust="spacing" textLength="96" x="122.75" y="136.4263">ual.eda2.practica01</text><line style="stroke:#181818;stroke-width:0.5;" x1="10" x2="299" y1="143.5356" y2="143.5356"/><polygon fill="none" points="20,153.2798,16,159.2798,24,159.2798" style="stroke:#1963A0;stroke-width:1.0;"/><text fill="#000000" font-family="sans-serif" font-size="14" lengthAdjust="spacing" textLength="169" x="29" y="161.0708">directorioEntrada: String</text><line style="stroke:#181818;stroke-width:0.5;" x1="10" x2="299" y1="168.0239" y2="168.0239"/><ellipse cx="20" cy="181.768" fill="#84BE84" rx="3" ry="3" style="stroke:#038048;stroke-width:1.0;"/><text fill="#000000" font-family="sans-serif" font-size="14" lengthAdjust="spacing" text-decoration="underline" textLength="265" x="29" y="185.5591">load(String, ArrayList&lt;Poin&gt;): boolean</text><ellipse cx="20" cy="198.2563" fill="#84BE84" rx="3" ry="3" style="stroke:#038048;stroke-width:1.0;"/><text fill="#000000" font-family="sans-serif" font-size="14" lengthAdjust="spacing" textLength="91" x="29" y="202.0473">barras(): void</text><ellipse cx="20" cy="214.7446" fill="#84BE84" rx="3" ry="3" style="stroke:#038048;stroke-width:1.0;"/><text fill="#000000" font-family="sans-serif" font-size="14" lengthAdjust="spacing" textLength="218" x="29" y="218.5356">parMasCercanoDyVSpain(): void</text><ellipse cx="20" cy="231.2329" fill="#84BE84" rx="3" ry="3" style="stroke:#038048;stroke-width:1.0;"/><text fill="#000000" font-family="sans-serif" font-size="14" lengthAdjust="spacing" textLength="238" x="29" y="235.0239">parMasCercanoDyVEdaLand(): void</text><ellipse cx="20" cy="247.7212" fill="#84BE84" rx="3" ry="3" style="stroke:#038048;stroke-width:1.0;"/><text fill="#000000" font-family="sans-serif" font-size="14" lengthAdjust="spacing" textLength="211" x="29" y="251.5122">parMasCercanoDyVNAcl(): void</text><ellipse cx="20" cy="264.2095" fill="#84BE84" rx="3" ry="3" style="stroke:#038048;stroke-width:1.0;"/><text fill="#000000" font-family="sans-serif" font-size="14" lengthAdjust="spacing" textLength="218" x="29" y="268.0005">parMasCercanoDyVNApp(): void</text><ellipse cx="20" cy="280.6977" fill="#84BE84" rx="3" ry="3" style="stroke:#038048;stroke-width:1.0;"/><text fill="#000000" font-family="sans-serif" font-size="14" lengthAdjust="spacing" textLength="215" x="29" y="284.4888">parMasCercanoDyVNArd(): void</text><ellipse cx="20" cy="297.186" fill="#84BE84" rx="3" ry="3" style="stroke:#038048;stroke-width:1.0;"/><text fill="#000000" font-family="sans-serif" font-size="14" lengthAdjust="spacing" textLength="212" x="29" y="300.977">parMasCercanoDyVNArr(): void</text></g></a><!--class java.lang.Object--><g id="elem_java.lang.Object"><rect codeLine="17" fill="#F1F1F1" height="38.2656" id="java.lang.Object" rx="2.5" ry="2.5" style="stroke:#181818;stroke-width:0.5;" width="76" x="116.5" y="7"/><ellipse cx="131.5" cy="26.1328" fill="#ADD1B2" rx="11" ry="11" style="stroke:#181818;stroke-width:1.0;"/><path d="M133.9731,32.2759 Q133.3921,32.5747 132.7529,32.7241 Q132.1138,32.8735 131.4082,32.8735 Q128.9014,32.8735 127.5815,31.2217 Q126.2617,29.5698 126.2617,26.4487 Q126.2617,23.3193 127.5815,21.6675 Q128.9014,20.0156 131.4082,20.0156 Q132.1138,20.0156 132.7612,20.165 Q133.4087,20.3145 133.9731,20.6133 L133.9731,23.3359 Q133.3423,22.7549 132.7488,22.4851 Q132.1553,22.2153 131.5244,22.2153 Q130.1797,22.2153 129.4949,23.282 Q128.8101,24.3486 128.8101,26.4487 Q128.8101,28.5405 129.4949,29.6072 Q130.1797,30.6738 131.5244,30.6738 Q132.1553,30.6738 132.7488,30.4041 Q133.3423,30.1343 133.9731,29.5532 Z " fill="#000000"/><text fill="#000000" font-family="sans-serif" font-size="14" lengthAdjust="spacing" textLength="44" x="145.5" y="25.5352">Object</text><text fill="#000000" font-family="sans-serif" font-size="10" lengthAdjust="spacing" textLength="44" x="145.5" y="38.1563">java.lang</text></g><!--reverse link java.lang.Object to ual.eda2.practica01.TestParMasCercanoDyVEj6--><g id="link_java.lang.Object_ual.eda2.practica01.TestParMasCercanoDyVEj6"><path codeLine="19" d="M154.5,67.06 C154.5,78.52 154.5,91.57 154.5,104.96 " fill="none" id="java.lang.Object-backto-ual.eda2.practica01.TestParMasCercanoDyVEj6" style="stroke:#181818;stroke-width:1.0;"/><polygon fill="none" points="147.5,67.08,154.5,47.08,161.5,67.08,147.5,67.08" style="stroke:#181818;stroke-width:1.0;"/></g><text fill="#888888" font-family="sans-serif" font-size="10" lengthAdjust="spacing" textLength="182" x="55.5" y="323.5981">UMLDoclet 2.1.0, PlantUML 1.2022.14</text><!--SRC=[bP9DQy8n3CRl-nH163ZKeZ9s415aUjDDSDj5FSGsQgN_jgITu9pxxAilk4qKNI-bJtvDqZu100WKmM96mQEaFdbaZ8x1EaitAGmphGWeyt494qr6XMCrepXpITxgqc08aAi7_K6rodtZXKBi8NSnF19BjAwrV6lF7uPsJvGRxsW4AQmApoYZbbYkv003dD35cMmm69o9Y5dCp6W4gsrpc_MbD9DCBzIkRIEZmXhq8sixFI2h434LN4F1E5JvNRG8JMPSTdI8zPxJjd5NWx5pXj0UBXR6c9YGJw65q-f7zqUTzJrgUnbhA-oWLPV1fwOqrr3UNqFnLHMP_r3hq_u_Z-Vfjt_PFSS52eDskZNvS18xS9VaM8NwPwdqdu7Ozq8s4iF4kStssksqd3HfsgkY8if5wAKACQbmko0EsYL3lW40]--></g></svg>