<?xml version="1.0" encoding="UTF-8" standalone="no"?><svg xmlns="http://www.w3.org/2000/svg" xmlns:xlink="http://www.w3.org/1999/xlink" contentStyleType="text/css" height="361px" preserveAspectRatio="none" style="width:501px;height:361px;background:#FFFFFF;" version="1.1" viewBox="0 0 501 361" width="501px" zoomAndPan="magnify"><defs/><g><!--class ual.eda2.practica02.DijkstraEj5.AStarNode--><a href="DijkstraEj5.AStarNode.html" target="_top" title="DijkstraEj5.AStarNode.html" xlink:actuate="onRequest" xlink:href="DijkstraEj5.AStarNode.html" xlink:show="new" xlink:title="DijkstraEj5.AStarNode.html" xlink:type="simple"><g id="elem_ual.eda2.practica02.DijkstraEj5.AStarNode"><rect codeLine="5" fill="#F1F1F1" height="202.6602" id="ual.eda2.practica02.DijkstraEj5.AStarNode" rx="2.5" ry="2.5" style="stroke:#181818;stroke-width:0.5;" width="213" x="118.5" y="132.75"/><ellipse cx="147.45" cy="151.8828" fill="#ADD1B2" rx="11" ry="11" style="stroke:#181818;stroke-width:1.0;"/><path d="M149.9231,158.0259 Q149.3421,158.3247 148.7029,158.4741 Q148.0638,158.6235 147.3582,158.6235 Q144.8514,158.6235 143.5315,156.9717 Q142.2117,155.3198 142.2117,152.1987 Q142.2117,149.0693 143.5315,147.4175 Q144.8514,145.7656 147.3582,145.7656 Q148.0638,145.7656 148.7112,145.915 Q149.3587,146.0645 149.9231,146.3633 L149.9231,149.0859 Q149.2923,148.5049 148.6988,148.2351 Q148.1053,147.9653 147.4744,147.9653 Q146.1297,147.9653 145.4449,149.032 Q144.7601,150.0986 144.7601,152.1987 Q144.7601,154.2905 145.4449,155.3572 Q146.1297,156.4238 147.4744,156.4238 Q148.1053,156.4238 148.6988,156.1541 Q149.2923,155.8843 149.9231,155.3032 Z " fill="#000000"/><text fill="#000000" font-family="sans-serif" font-size="14" lengthAdjust="spacing" textLength="150" x="164.55" y="151.2852">DijkstraEj5.AStarNode</text><text fill="#000000" font-family="sans-serif" font-size="10" lengthAdjust="spacing" textLength="96" x="191.55" y="163.9063">ual.eda2.practica02</text><line style="stroke:#181818;stroke-width:0.5;" x1="119.5" x2="330.5" y1="171.0156" y2="171.0156"/><polygon fill="none" points="129.5,180.7598,125.5,186.7598,133.5,186.7598" style="stroke:#1963A0;stroke-width:1.0;"/><text fill="#000000" font-family="sans-serif" font-size="14" lengthAdjust="spacing" textLength="96" x="138.5" y="188.5508">vertex: Vertex</text><polygon fill="none" points="129.5,197.248,125.5,203.248,133.5,203.248" style="stroke:#1963A0;stroke-width:1.0;"/><text fill="#000000" font-family="sans-serif" font-size="14" lengthAdjust="spacing" textLength="65" x="138.5" y="205.0391">g: double</text><polygon fill="none" points="129.5,213.7363,125.5,219.7363,133.5,219.7363" style="stroke:#1963A0;stroke-width:1.0;"/><text fill="#000000" font-family="sans-serif" font-size="14" lengthAdjust="spacing" textLength="65" x="138.5" y="221.5273">h: double</text><polygon fill="none" points="129.5,230.2246,125.5,236.2246,133.5,236.2246" style="stroke:#1963A0;stroke-width:1.0;"/><text fill="#000000" font-family="sans-serif" font-size="14" lengthAdjust="spacing" textLength="61" x="138.5" y="238.0156">f: double</text><polygon fill="none" points="129.5,246.7129,125.5,252.7129,133.5,252.7129" style="stroke:#1963A0;stroke-width:1.0;"/><text fill="#000000" font-family="sans-serif" font-size="14" lengthAdjust="spacing" textLength="126" x="138.5" y="254.5039">parent: AStarNode</text><line style="stroke:#181818;stroke-width:0.5;" x1="119.5" x2="330.5" y1="261.457" y2="261.457"/><ellipse cx="129.5" cy="275.2012" fill="#84BE84" rx="3" ry="3" style="stroke:#038048;stroke-width:1.0;"/><text fill="#000000" font-family="sans-serif" font-size="14" lengthAdjust="spacing" textLength="128" x="138.5" y="278.9922">AStarNode(Vertex)</text><ellipse cx="129.5" cy="291.6895" fill="#84BE84" rx="3" ry="3" style="stroke:#038048;stroke-width:1.0;"/><text fill="#000000" font-family="sans-serif" font-size="14" lengthAdjust="spacing" textLength="187" x="138.5" y="295.4805">compareTo(AStarNode): int</text><ellipse cx="129.5" cy="308.1777" fill="#84BE84" rx="3" ry="3" style="stroke:#038048;stroke-width:1.0;"/><text fill="#000000" font-family="sans-serif" font-size="14" lengthAdjust="spacing" textLength="163" x="138.5" y="311.9688">equals(Object): boolean</text><ellipse cx="129.5" cy="324.666" fill="#84BE84" rx="3" ry="3" style="stroke:#038048;stroke-width:1.0;"/><text fill="#000000" font-family="sans-serif" font-size="14" lengthAdjust="spacing" textLength="105" x="138.5" y="328.457">hashCode(): int</text></g></a><!--class java.lang.Object--><g id="elem_java.lang.Object"><rect codeLine="17" fill="#F1F1F1" height="38.2656" id="java.lang.Object" rx="2.5" ry="2.5" style="stroke:#181818;stroke-width:0.5;" width="76" x="7" y="22.24"/><ellipse cx="22" cy="41.3728" fill="#ADD1B2" rx="11" ry="11" style="stroke:#181818;stroke-width:1.0;"/><path d="M24.4731,47.5159 Q23.8921,47.8147 23.2529,47.9641 Q22.6138,48.1135 21.9082,48.1135 Q19.4014,48.1135 18.0815,46.4617 Q16.7617,44.8098 16.7617,41.6887 Q16.7617,38.5593 18.0815,36.9075 Q19.4014,35.2556 21.9082,35.2556 Q22.6138,35.2556 23.2612,35.405 Q23.9087,35.5545 24.4731,35.8533 L24.4731,38.5759 Q23.8423,37.9949 23.2488,37.7251 Q22.6553,37.4553 22.0244,37.4553 Q20.6797,37.4553 19.9949,38.522 Q19.3101,39.5886 19.3101,41.6887 Q19.3101,43.7805 19.9949,44.8472 Q20.6797,45.9138 22.0244,45.9138 Q22.6553,45.9138 23.2488,45.6441 Q23.8423,45.3743 24.4731,44.7932 Z " fill="#000000"/><text fill="#000000" font-family="sans-serif" font-size="14" lengthAdjust="spacing" textLength="44" x="36" y="40.7752">Object</text><text fill="#000000" font-family="sans-serif" font-size="10" lengthAdjust="spacing" textLength="44" x="36" y="53.3963">java.lang</text></g><!--class java.lang.Comparable--><g id="elem_java.lang.Comparable"><rect codeLine="18" fill="#F1F1F1" height="62.7539" id="java.lang.Comparable" rx="2.5" ry="2.5" style="stroke:#181818;stroke-width:0.5;" width="213" x="118.5" y="10"/><ellipse cx="147.9" cy="29.1328" fill="#B4A7E5" rx="11" ry="11" style="stroke:#181818;stroke-width:1.0;"/><path d="M144.3277,25.3979 L144.3277,23.2397 L151.7071,23.2397 L151.7071,25.3979 L149.2418,25.3979 L149.2418,33.4746 L151.7071,33.4746 L151.7071,35.6328 L144.3277,35.6328 L144.3277,33.4746 L146.7931,33.4746 L146.7931,25.3979 Z " fill="#000000"/><text fill="#000000" font-family="sans-serif" font-size="14" font-style="italic" lengthAdjust="spacing" textLength="84" x="165.1" y="28.5352">Comparable</text><text fill="#000000" font-family="sans-serif" font-size="10" font-style="italic" lengthAdjust="spacing" textLength="44" x="185.1" y="41.1563">java.lang</text><rect fill="#FFFFFF" height="16.1328" style="stroke:#181818;stroke-width:1.0;stroke-dasharray:2.0,2.0;" width="63" x="271.5" y="7"/><text fill="#000000" font-family="sans-serif" font-size="12" font-style="italic" lengthAdjust="spacing" textLength="61" x="272.5" y="19.6016">AStarNode</text><line style="stroke:#181818;stroke-width:0.5;" x1="119.5" x2="330.5" y1="48.2656" y2="48.2656"/><ellipse cx="129.5" cy="62.0098" fill="#84BE84" rx="3" ry="3" style="stroke:#038048;stroke-width:1.0;"/><text fill="#000000" font-family="sans-serif" font-size="14" font-style="italic" lengthAdjust="spacing" textLength="187" x="138.5" y="65.8008">compareTo(AStarNode): int</text></g><!--class ual.eda2.practica02.DijkstraEj5--><a href="DijkstraEj5.html" target="_top" title="DijkstraEj5.html" xlink:actuate="onRequest" xlink:href="DijkstraEj5.html" xlink:show="new" xlink:title="DijkstraEj5.html" xlink:type="simple"><g id="elem_ual.eda2.practica02.DijkstraEj5"><rect codeLine="21" fill="#F1F1F1" height="38.2656" id="ual.eda2.practica02.DijkstraEj5" rx="2.5" ry="2.5" style="stroke:#181818;stroke-width:0.5;" width="128" x="366" y="22.24"/><ellipse cx="381" cy="41.3728" fill="#ADD1B2" rx="11" ry="11" style="stroke:#181818;stroke-width:1.0;"/><path d="M383.4731,47.5159 Q382.8921,47.8147 382.2529,47.9641 Q381.6138,48.1135 380.9082,48.1135 Q378.4014,48.1135 377.0815,46.4617 Q375.7617,44.8098 375.7617,41.6887 Q375.7617,38.5593 377.0815,36.9075 Q378.4014,35.2556 380.9082,35.2556 Q381.6138,35.2556 382.2612,35.405 Q382.9087,35.5545 383.4731,35.8533 L383.4731,38.5759 Q382.8423,37.9949 382.2488,37.7251 Q381.6553,37.4553 381.0244,37.4553 Q379.6797,37.4553 378.9949,38.522 Q378.3101,39.5886 378.3101,41.6887 Q378.3101,43.7805 378.9949,44.8472 Q379.6797,45.9138 381.0244,45.9138 Q381.6553,45.9138 382.2488,45.6441 Q382.8423,45.3743 383.4731,44.7932 Z " fill="#000000"/><text fill="#000000" font-family="sans-serif" font-size="14" lengthAdjust="spacing" textLength="73" x="406.5" y="40.7752">DijkstraEj5</text><text fill="#000000" font-family="sans-serif" font-size="10" lengthAdjust="spacing" textLength="96" x="395" y="53.3963">ual.eda2.practica02</text></g></a><!--reverse link java.lang.Object to ual.eda2.practica02.DijkstraEj5.AStarNode--><g id="link_java.lang.Object_ual.eda2.practica02.DijkstraEj5.AStarNode"><path codeLine="23" d="M76.98,76.26 C92.07,92.25 110.96,112.26 130.14,132.58 " fill="none" id="java.lang.Object-backto-ual.eda2.practica02.DijkstraEj5.AStarNode" style="stroke:#181818;stroke-width:1.0;"/><polygon fill="none" points="71.94,81.11,63.3,61.76,82.12,71.5,71.94,81.11" style="stroke:#181818;stroke-width:1.0;"/></g><!--reverse link java.lang.Comparable to ual.eda2.practica02.DijkstraEj5.AStarNode--><g id="link_java.lang.Comparable_ual.eda2.practica02.DijkstraEj5.AStarNode"><path codeLine="24" d="M225,94.21 C225,106.12 225,119.17 225,132.36 " fill="none" id="java.lang.Comparable-backto-ual.eda2.practica02.DijkstraEj5.AStarNode" style="stroke:#181818;stroke-width:1.0;stroke-dasharray:7.0,7.0;"/><polygon fill="none" points="218,94.53,225,74.53,232,94.53,218,94.53" style="stroke:#181818;stroke-width:1.0;"/></g><!--reverse link ual.eda2.practica02.DijkstraEj5 to ual.eda2.practica02.DijkstraEj5.AStarNode--><g id="link_ual.eda2.practica02.DijkstraEj5_ual.eda2.practica02.DijkstraEj5.AStarNode"><path codeLine="25" d="M398.44,71.73 C380.19,88.71 356.04,111.18 331.58,133.93 " fill="none" id="ual.eda2.practica02.DijkstraEj5-backto-ual.eda2.practica02.DijkstraEj5.AStarNode" style="stroke:#181818;stroke-width:1.0;"/><ellipse cx="403.3812" cy="67.1374" fill="#FFFFFF" rx="8" ry="8" style="stroke:#181818;stroke-width:1.0;"/><line style="stroke:#181818;stroke-width:1.0;" x1="397.5224" x2="409.24" y1="72.5848" y2="61.69"/><line style="stroke:#181818;stroke-width:1.0;" x1="397.9338" x2="408.8286" y1="61.2786" y2="72.9962"/></g><text fill="#888888" font-family="sans-serif" font-size="10" lengthAdjust="spacing" textLength="182" x="152.5" y="351.0781">UMLDoclet 2.1.0, PlantUML 1.2022.14</text><!--SRC=[fLHDRu904BttLqnCcc2i6pNjXHYJHdlhLsBRY_Kmm23GPPUogsbhxM_l0WqG957JlMpspUpRcJSF000KQH0OaqhGfJabcAAMAGWfwCo48GWz0eeJ_Gb-IDnJJJGc7KW3vxZBKIdeZ5NuHVRmSZ8BepUbKxo9hjZrN6DwBprw5N_nmMIDd9678vQawEhGnS6e0wYW1MUjNB1OjE8iq35VBc6RbvMjdmsbcZviUCdt2b_PuCcrmwc2Wdt8tuUCLYIq3UMZPQXNGbRnMhSAkJBEBZv9gqpgsX0ANQNGk-bVMGzEHAusGKTAJYYgX01LCCtOQpTtxHCeI6gIHxX1nb6iSg7B4oiISmv3IQbl_53ZcUPben7W2AugULmsEQdDOejEDZ5NxmxfiJjag_-RgM6XmZY5c4rrOFpTxnzlpWP7fOhXOUn4daDTz4wgh92Lia63BsMsFT_TpgJBpVzWn8PiS06FfcfjK3WtduuAfR2wlm00]--></g></svg>