<?xml version="1.0" encoding="UTF-8" standalone="no"?><svg xmlns="http://www.w3.org/2000/svg" xmlns:xlink="http://www.w3.org/1999/xlink" contentStyleType="text/css" height="328px" preserveAspectRatio="none" style="width:510px;height:328px;background:#FFFFFF;" version="1.1" viewBox="0 0 510 328" width="510px" zoomAndPan="magnify"><defs/><g><!--class ual.eda2.practica02.DijkstraEj6.VertexAStar--><a href="DijkstraEj6.VertexAStar.html" target="_top" title="DijkstraEj6.VertexAStar.html" xlink:actuate="onRequest" xlink:href="DijkstraEj6.VertexAStar.html" xlink:show="new" xlink:title="DijkstraEj6.VertexAStar.html" xlink:type="simple"><g id="elem_ual.eda2.practica02.DijkstraEj6.VertexAStar"><rect codeLine="5" fill="#F1F1F1" height="169.6836" id="ual.eda2.practica02.DijkstraEj6.VertexAStar" rx="2.5" ry="2.5" style="stroke:#181818;stroke-width:0.5;" width="328" x="65" y="132.76"/><ellipse cx="145.25" cy="151.8928" fill="#ADD1B2" rx="11" ry="11" style="stroke:#181818;stroke-width:1.0;"/><path d="M147.7231,158.0359 Q147.1421,158.3347 146.5029,158.4841 Q145.8638,158.6335 145.1582,158.6335 Q142.6514,158.6335 141.3315,156.9817 Q140.0117,155.3298 140.0117,152.2087 Q140.0117,149.0793 141.3315,147.4275 Q142.6514,145.7756 145.1582,145.7756 Q145.8638,145.7756 146.5112,145.925 Q147.1587,146.0745 147.7231,146.3733 L147.7231,149.0959 Q147.0923,148.5149 146.4988,148.2451 Q145.9053,147.9753 145.2744,147.9753 Q143.9297,147.9753 143.2449,149.042 Q142.5601,150.1086 142.5601,152.2087 Q142.5601,154.3005 143.2449,155.3672 Q143.9297,156.4338 145.2744,156.4338 Q145.9053,156.4338 146.4988,156.1641 Q147.0923,155.8943 147.7231,155.3132 Z " fill="#000000"/><text fill="#000000" font-family="sans-serif" font-size="14" lengthAdjust="spacing" textLength="159" x="165.75" y="151.2952">DijkstraEj6.VertexAStar</text><text fill="#000000" font-family="sans-serif" font-size="10" lengthAdjust="spacing" textLength="96" x="197.25" y="163.9163">ual.eda2.practica02</text><line style="stroke:#181818;stroke-width:0.5;" x1="66" x2="392" y1="171.0256" y2="171.0256"/><polygon fill="none" points="76,180.7698,72,186.7698,80,186.7698" style="stroke:#1963A0;stroke-width:1.0;"/><text fill="#000000" font-family="sans-serif" font-size="14" lengthAdjust="spacing" textLength="67" x="85" y="188.5608">to: Vertex</text><polygon fill="none" points="76,197.258,72,203.258,80,203.258" style="stroke:#1963A0;stroke-width:1.0;"/><text fill="#000000" font-family="sans-serif" font-size="14" lengthAdjust="spacing" textLength="65" x="85" y="205.0491">g: double</text><polygon fill="none" points="76,213.7463,72,219.7463,80,219.7463" style="stroke:#1963A0;stroke-width:1.0;"/><text fill="#000000" font-family="sans-serif" font-size="14" lengthAdjust="spacing" textLength="65" x="85" y="221.5373">h: double</text><polygon fill="none" points="76,230.2346,72,236.2346,80,236.2346" style="stroke:#1963A0;stroke-width:1.0;"/><text fill="#000000" font-family="sans-serif" font-size="14" lengthAdjust="spacing" textLength="61" x="85" y="238.0256">f: double</text><polygon fill="none" points="76,246.7229,72,252.7229,80,252.7229" style="stroke:#1963A0;stroke-width:1.0;"/><text fill="#000000" font-family="sans-serif" font-size="14" lengthAdjust="spacing" textLength="86" x="85" y="254.5139">from: Vertex</text><line style="stroke:#181818;stroke-width:0.5;" x1="66" x2="392" y1="261.467" y2="261.467"/><ellipse cx="76" cy="275.2112" fill="#84BE84" rx="3" ry="3" style="stroke:#038048;stroke-width:1.0;"/><text fill="#000000" font-family="sans-serif" font-size="14" lengthAdjust="spacing" textLength="302" x="85" y="279.0022">VertexAStar(Vertex, double, double, Vertex)</text><ellipse cx="76" cy="291.6995" fill="#84BE84" rx="3" ry="3" style="stroke:#038048;stroke-width:1.0;"/><text fill="#000000" font-family="sans-serif" font-size="14" lengthAdjust="spacing" textLength="196" x="85" y="295.4905">compareTo(VertexAStar): int</text></g></a><!--class java.lang.Object--><g id="elem_java.lang.Object"><rect codeLine="15" fill="#F1F1F1" height="38.2656" id="java.lang.Object" rx="2.5" ry="2.5" style="stroke:#181818;stroke-width:0.5;" width="76" x="7" y="22.25"/><ellipse cx="22" cy="41.3828" fill="#ADD1B2" rx="11" ry="11" style="stroke:#181818;stroke-width:1.0;"/><path d="M24.4731,47.5259 Q23.8921,47.8247 23.2529,47.9741 Q22.6138,48.1235 21.9082,48.1235 Q19.4014,48.1235 18.0815,46.4717 Q16.7617,44.8198 16.7617,41.6987 Q16.7617,38.5693 18.0815,36.9175 Q19.4014,35.2656 21.9082,35.2656 Q22.6138,35.2656 23.2612,35.415 Q23.9087,35.5645 24.4731,35.8633 L24.4731,38.5859 Q23.8423,38.0049 23.2488,37.7351 Q22.6553,37.4653 22.0244,37.4653 Q20.6797,37.4653 19.9949,38.532 Q19.3101,39.5986 19.3101,41.6987 Q19.3101,43.7905 19.9949,44.8572 Q20.6797,45.9238 22.0244,45.9238 Q22.6553,45.9238 23.2488,45.6541 Q23.8423,45.3843 24.4731,44.8032 Z " fill="#000000"/><text fill="#000000" font-family="sans-serif" font-size="14" lengthAdjust="spacing" textLength="44" x="36" y="40.7852">Object</text><text fill="#000000" font-family="sans-serif" font-size="10" lengthAdjust="spacing" textLength="44" x="36" y="53.4063">java.lang</text></g><!--class java.lang.Comparable--><g id="elem_java.lang.Comparable"><rect codeLine="16" fill="#F1F1F1" height="62.7539" id="java.lang.Comparable" rx="2.5" ry="2.5" style="stroke:#181818;stroke-width:0.5;" width="222" x="118" y="10"/><ellipse cx="148.3" cy="29.1328" fill="#B4A7E5" rx="11" ry="11" style="stroke:#181818;stroke-width:1.0;"/><path d="M144.7277,25.3979 L144.7277,23.2397 L152.1071,23.2397 L152.1071,25.3979 L149.6418,25.3979 L149.6418,33.4746 L152.1071,33.4746 L152.1071,35.6328 L144.7277,35.6328 L144.7277,33.4746 L147.1931,33.4746 L147.1931,25.3979 Z " fill="#000000"/><text fill="#000000" font-family="sans-serif" font-size="14" font-style="italic" lengthAdjust="spacing" textLength="84" x="165.7" y="28.5352">Comparable</text><text fill="#000000" font-family="sans-serif" font-size="10" font-style="italic" lengthAdjust="spacing" textLength="44" x="185.7" y="41.1563">java.lang</text><rect fill="#FFFFFF" height="16.1328" style="stroke:#181818;stroke-width:1.0;stroke-dasharray:2.0,2.0;" width="70" x="273" y="7"/><text fill="#000000" font-family="sans-serif" font-size="12" font-style="italic" lengthAdjust="spacing" textLength="68" x="274" y="19.6016">VertexAStar</text><line style="stroke:#181818;stroke-width:0.5;" x1="119" x2="339" y1="48.2656" y2="48.2656"/><ellipse cx="129" cy="62.0098" fill="#84BE84" rx="3" ry="3" style="stroke:#038048;stroke-width:1.0;"/><text fill="#000000" font-family="sans-serif" font-size="14" font-style="italic" lengthAdjust="spacing" textLength="196" x="138" y="65.8008">compareTo(VertexAStar): int</text></g><!--class ual.eda2.practica02.DijkstraEj6--><a href="DijkstraEj6.html" target="_top" title="DijkstraEj6.html" xlink:actuate="onRequest" xlink:href="DijkstraEj6.html" xlink:show="new" xlink:title="DijkstraEj6.html" xlink:type="simple"><g id="elem_ual.eda2.practica02.DijkstraEj6"><rect codeLine="19" fill="#F1F1F1" height="38.2656" id="ual.eda2.practica02.DijkstraEj6" rx="2.5" ry="2.5" style="stroke:#181818;stroke-width:0.5;" width="128" x="375" y="22.25"/><ellipse cx="390" cy="41.3828" fill="#ADD1B2" rx="11" ry="11" style="stroke:#181818;stroke-width:1.0;"/><path d="M392.4731,47.5259 Q391.8921,47.8247 391.2529,47.9741 Q390.6138,48.1235 389.9082,48.1235 Q387.4014,48.1235 386.0815,46.4717 Q384.7617,44.8198 384.7617,41.6987 Q384.7617,38.5693 386.0815,36.9175 Q387.4014,35.2656 389.9082,35.2656 Q390.6138,35.2656 391.2612,35.415 Q391.9087,35.5645 392.4731,35.8633 L392.4731,38.5859 Q391.8423,38.0049 391.2488,37.7351 Q390.6553,37.4653 390.0244,37.4653 Q388.6797,37.4653 387.9949,38.532 Q387.3101,39.5986 387.3101,41.6987 Q387.3101,43.7905 387.9949,44.8572 Q388.6797,45.9238 390.0244,45.9238 Q390.6553,45.9238 391.2488,45.6541 Q391.8423,45.3843 392.4731,44.8032 Z " fill="#000000"/><text fill="#000000" font-family="sans-serif" font-size="14" lengthAdjust="spacing" textLength="73" x="415.5" y="40.7852">DijkstraEj6</text><text fill="#000000" font-family="sans-serif" font-size="10" lengthAdjust="spacing" textLength="96" x="404" y="53.4063">ual.eda2.practica02</text></g></a><!--reverse link java.lang.Object to ual.eda2.practica02.DijkstraEj6.VertexAStar--><g id="link_java.lang.Object_ual.eda2.practica02.DijkstraEj6.VertexAStar"><path codeLine="21" d="M79.93,75.45 C97.16,91.77 118.8,112.26 140.22,132.53 " fill="none" id="java.lang.Object-backto-ual.eda2.practica02.DijkstraEj6.VertexAStar" style="stroke:#181818;stroke-width:1.0;"/><polygon fill="none" points="75.15,80.57,65.44,61.74,84.78,70.4,75.15,80.57" style="stroke:#181818;stroke-width:1.0;"/></g><!--reverse link java.lang.Comparable to ual.eda2.practica02.DijkstraEj6.VertexAStar--><g id="link_java.lang.Comparable_ual.eda2.practica02.DijkstraEj6.VertexAStar"><path codeLine="22" d="M229,94.48 C229,106.41 229,119.4 229,132.3 " fill="none" id="java.lang.Comparable-backto-ual.eda2.practica02.DijkstraEj6.VertexAStar" style="stroke:#181818;stroke-width:1.0;stroke-dasharray:7.0,7.0;"/><polygon fill="none" points="222,94.64,229,74.64,236,94.64,222,94.64" style="stroke:#181818;stroke-width:1.0;"/></g><!--reverse link ual.eda2.practica02.DijkstraEj6 to ual.eda2.practica02.DijkstraEj6.VertexAStar--><g id="link_ual.eda2.practica02.DijkstraEj6_ual.eda2.practica02.DijkstraEj6.VertexAStar"><path codeLine="23" d="M404.24,71.22 C383.85,88.14 356.93,110.47 330.33,132.53 " fill="none" id="ual.eda2.practica02.DijkstraEj6-backto-ual.eda2.practica02.DijkstraEj6.VertexAStar" style="stroke:#181818;stroke-width:1.0;"/><ellipse cx="409.6055" cy="66.771" fill="#FFFFFF" rx="8" ry="8" style="stroke:#181818;stroke-width:1.0;"/><line style="stroke:#181818;stroke-width:1.0;" x1="403.451" x2="415.76" y1="71.882" y2="61.66"/><line style="stroke:#181818;stroke-width:1.0;" x1="404.4945" x2="414.7165" y1="60.6165" y2="72.9255"/></g><text fill="#888888" font-family="sans-serif" font-size="10" lengthAdjust="spacing" textLength="182" x="157" y="318.1116">UMLDoclet 2.1.0, PlantUML 1.2022.14</text><!--SRC=[fLFHJi8m57ttAsv8J2100yJui10I8xvfD45zGHuktHtRtDgbBKH5_7QxbRXbG82ubswdzvwTddiA0A39WC2KT8QS9fIXGYCL22demcv36Fa4b6Rc4uA84b_NqPHCA2rSu3n1hQ4nrD4NUVshqJYAtxLHU1TVirTIXZvk9WRLczXMz4PBJ1ZvE62PGcuYZhr10r337fmTO8FfzC0E2qsQp6QmBiJbpu-H7hYA4bjuuClbFA4I2dUXO0-aPBf3rwu8QBhtphQpN1tUAfkuJAttz2oRbVQM1v4mHT5cly6FyvYugVWPumfPWc9HkFZtnLnXmM4fIGLst1MUs-BtQBMTm5KM3ojYHnMRrpZFny7DvfIJ7KdE_zDIIuXBXJEqxX0ClxlTSz9NOocziKoCdSrqx2JjCzKvSoaVEGHIvilBm_rOyiHU_07hiru7dgnoOr6uN97IaHJDrYy0]--></g></svg>