<?xml version="1.0" encoding="UTF-8" standalone="no"?><svg xmlns="http://www.w3.org/2000/svg" xmlns:xlink="http://www.w3.org/1999/xlink" contentStyleType="text/css" height="291px" preserveAspectRatio="none" style="width:380px;height:291px;background:#FFFFFF;" version="1.1" viewBox="0 0 380 291" width="380px" zoomAndPan="magnify"><defs/><g><!--class ual.eda2.practica02.DijkstraEj4--><a href="DijkstraEj4.html" target="_top" title="DijkstraEj4.html" xlink:actuate="onRequest" xlink:href="DijkstraEj4.html" xlink:show="new" xlink:title="DijkstraEj4.html" xlink:type="simple"><g id="elem_ual.eda2.practica02.DijkstraEj4"><rect codeLine="5" fill="#F1F1F1" height="62.7539" id="ual.eda2.practica02.DijkstraEj4" rx="2.5" ry="2.5" style="stroke:#181818;stroke-width:0.5;" width="366" x="7" y="105.27"/><ellipse cx="137.75" cy="124.4028" fill="#ADD1B2" rx="11" ry="11" style="stroke:#181818;stroke-width:1.0;"/><path d="M140.2231,130.5459 Q139.6421,130.8447 139.0029,130.9941 Q138.3638,131.1435 137.6582,131.1435 Q135.1514,131.1435 133.8315,129.4917 Q132.5117,127.8398 132.5117,124.7187 Q132.5117,121.5893 133.8315,119.9375 Q135.1514,118.2856 137.6582,118.2856 Q138.3638,118.2856 139.0112,118.435 Q139.6587,118.5845 140.2231,118.8833 L140.2231,121.6059 Q139.5923,121.0249 138.9988,120.7551 Q138.4053,120.4853 137.7744,120.4853 Q136.4297,120.4853 135.7449,121.552 Q135.0601,122.6186 135.0601,124.7187 Q135.0601,126.8105 135.7449,127.8772 Q136.4297,128.9438 137.7744,128.9438 Q138.4053,128.9438 138.9988,128.6741 Q139.5923,128.4043 140.2231,127.8232 Z " fill="#000000"/><text fill="#000000" font-family="sans-serif" font-size="14" lengthAdjust="spacing" textLength="73" x="169.75" y="123.8052">DijkstraEj4</text><text fill="#000000" font-family="sans-serif" font-size="10" lengthAdjust="spacing" textLength="96" x="158.25" y="136.4263">ual.eda2.practica02</text><line style="stroke:#181818;stroke-width:0.5;" x1="8" x2="372" y1="143.5356" y2="143.5356"/><ellipse cx="18" cy="157.2798" fill="#84BE84" rx="3" ry="3" style="stroke:#038048;stroke-width:1.0;"/><text fill="#000000" font-family="sans-serif" font-size="14" lengthAdjust="spacing" text-decoration="underline" textLength="340" x="27" y="161.0708">Dijkstra(Graph, Vertex): TreeMap&lt;String, Object&gt;</text></g></a><!--class java.lang.Object--><g id="elem_java.lang.Object"><rect codeLine="9" fill="#F1F1F1" height="38.2656" id="java.lang.Object" rx="2.5" ry="2.5" style="stroke:#181818;stroke-width:0.5;" width="76" x="152" y="7"/><ellipse cx="167" cy="26.1328" fill="#ADD1B2" rx="11" ry="11" style="stroke:#181818;stroke-width:1.0;"/><path d="M169.4731,32.2759 Q168.8921,32.5747 168.2529,32.7241 Q167.6138,32.8735 166.9082,32.8735 Q164.4014,32.8735 163.0815,31.2217 Q161.7617,29.5698 161.7617,26.4487 Q161.7617,23.3193 163.0815,21.6675 Q164.4014,20.0156 166.9082,20.0156 Q167.6138,20.0156 168.2612,20.165 Q168.9087,20.3145 169.4731,20.6133 L169.4731,23.3359 Q168.8423,22.7549 168.2488,22.4851 Q167.6553,22.2153 167.0244,22.2153 Q165.6797,22.2153 164.9949,23.282 Q164.3101,24.3486 164.3101,26.4487 Q164.3101,28.5405 164.9949,29.6072 Q165.6797,30.6738 167.0244,30.6738 Q167.6553,30.6738 168.2488,30.4041 Q168.8423,30.1343 169.4731,29.5532 Z " fill="#000000"/><text fill="#000000" font-family="sans-serif" font-size="14" lengthAdjust="spacing" textLength="44" x="181" y="25.5352">Object</text><text fill="#000000" font-family="sans-serif" font-size="10" lengthAdjust="spacing" textLength="44" x="181" y="38.1563">java.lang</text></g><!--class ual.eda2.practica02.DijkstraEj4.VertexTriple--><a href="DijkstraEj4.VertexTriple.html" target="_top" title="DijkstraEj4.VertexTriple.html" xlink:actuate="onRequest" xlink:href="DijkstraEj4.VertexTriple.html" xlink:show="new" xlink:title="DijkstraEj4.VertexTriple.html" xlink:type="simple"><g id="elem_ual.eda2.practica02.DijkstraEj4.VertexTriple"><rect codeLine="10" fill="#F1F1F1" height="38.2656" id="ual.eda2.practica02.DijkstraEj4.VertexTriple" rx="2.5" ry="2.5" style="stroke:#181818;stroke-width:0.5;" width="194" x="93" y="228.02"/><ellipse cx="108" cy="247.1528" fill="#ADD1B2" rx="11" ry="11" style="stroke:#181818;stroke-width:1.0;"/><path d="M110.4731,253.2959 Q109.8921,253.5947 109.2529,253.7441 Q108.6138,253.8935 107.9082,253.8935 Q105.4014,253.8935 104.0815,252.2417 Q102.7617,250.5898 102.7617,247.4687 Q102.7617,244.3393 104.0815,242.6875 Q105.4014,241.0356 107.9082,241.0356 Q108.6138,241.0356 109.2612,241.185 Q109.9087,241.3345 110.4731,241.6333 L110.4731,244.3559 Q109.8423,243.7749 109.2488,243.5051 Q108.6553,243.2353 108.0244,243.2353 Q106.6797,243.2353 105.9949,244.302 Q105.3101,245.3686 105.3101,247.4687 Q105.3101,249.5605 105.9949,250.6272 Q106.6797,251.6938 108.0244,251.6938 Q108.6553,251.6938 109.2488,251.4241 Q109.8423,251.1543 110.4731,250.5732 Z " fill="#000000"/><text fill="#000000" font-family="sans-serif" font-size="14" lengthAdjust="spacing" textLength="162" x="122" y="246.5552">DijkstraEj4.VertexTriple</text><text fill="#000000" font-family="sans-serif" font-size="10" lengthAdjust="spacing" textLength="96" x="155" y="259.1763">ual.eda2.practica02</text></g></a><!--reverse link java.lang.Object to ual.eda2.practica02.DijkstraEj4--><g id="link_java.lang.Object_ual.eda2.practica02.DijkstraEj4"><path codeLine="12" d="M190,66.85 C190,79.37 190,93 190,104.8 " fill="none" id="java.lang.Object-backto-ual.eda2.practica02.DijkstraEj4" style="stroke:#181818;stroke-width:1.0;"/><polygon fill="none" points="183,67.06,190,47.06,197,67.06,183,67.06" style="stroke:#181818;stroke-width:1.0;"/></g><!--reverse link ual.eda2.practica02.DijkstraEj4 to ual.eda2.practica02.DijkstraEj4.VertexTriple--><g id="link_ual.eda2.practica02.DijkstraEj4_ual.eda2.practica02.DijkstraEj4.VertexTriple"><path codeLine="13" d="M190,184.89 C190,199.96 190,215.76 190,227.53 " fill="none" id="ual.eda2.practica02.DijkstraEj4-backto-ual.eda2.practica02.DijkstraEj4.VertexTriple" style="stroke:#181818;stroke-width:1.0;"/><ellipse cx="190" cy="177.97" fill="#FFFFFF" rx="8" ry="8" style="stroke:#181818;stroke-width:1.0;"/><line style="stroke:#181818;stroke-width:1.0;" x1="190" x2="190" y1="185.97" y2="169.97"/><line style="stroke:#181818;stroke-width:1.0;" x1="182" x2="198" y1="177.97" y2="177.97"/></g><text fill="#888888" font-family="sans-serif" font-size="10" lengthAdjust="spacing" textLength="182" x="92" y="280.9536">UMLDoclet 2.1.0, PlantUML 1.2022.14</text><!--SRC=[fLB1Ri8m3BtlAooaII1A18WJGZqnxJAqIR1T60Sl69ekJQB4GziO_xxIbgaWf1wMI-Hd-_dv9G00WHWCPXGSIfgJGuziFHXhw2PFGwBM19Gv_eAD8hqEbsX6dDWSBd2fCGHeJOBwfl5W54zL-XxOurqwUZKLsey_K0jQur0uZvALnFwm1HZW2Yvg3B1SrYAHSAPNAzWNWuzd7nZphWDqJsNjUuykYU25FDDdPmmBJpH3DvcpLsORmUDRIfBZWk9mVOMofAO-nHqAZMPRQFwBH5dOP8CejIoySfh-xyaPtOL1zLJbLhdYfMQO_FHwJPEApgONwZRpdCcgB2V3v65ZxV5wdZrChTJvlnoAWUX7y9HBvHo5sntveAnfTtu1]--></g></svg>