<?xml version="1.0" encoding="UTF-8" standalone="no"?><svg xmlns="http://www.w3.org/2000/svg" xmlns:xlink="http://www.w3.org/1999/xlink" contentStyleType="text/css" height="307px" preserveAspectRatio="none" style="width:608px;height:307px;background:#FFFFFF;" version="1.1" viewBox="0 0 608 307" width="608px" zoomAndPan="magnify"><defs/><g><!--class ual.eda2.practica02.DijkstraEj6--><a href="DijkstraEj6.html" target="_top" title="DijkstraEj6.html" xlink:actuate="onRequest" xlink:href="DijkstraEj6.html" xlink:show="new" xlink:title="DijkstraEj6.html" xlink:type="simple"><g id="elem_ual.eda2.practica02.DijkstraEj6"><rect codeLine="5" fill="#F1F1F1" height="79.2422" id="ual.eda2.practica02.DijkstraEj6" rx="2.5" ry="2.5" style="stroke:#181818;stroke-width:0.5;" width="594" x="7" y="105.26"/><ellipse cx="251.75" cy="124.3928" fill="#ADD1B2" rx="11" ry="11" style="stroke:#181818;stroke-width:1.0;"/><path d="M254.2231,130.5359 Q253.6421,130.8347 253.0029,130.9841 Q252.3638,131.1335 251.6582,131.1335 Q249.1514,131.1335 247.8315,129.4817 Q246.5117,127.8298 246.5117,124.7087 Q246.5117,121.5793 247.8315,119.9275 Q249.1514,118.2756 251.6582,118.2756 Q252.3638,118.2756 253.0112,118.425 Q253.6587,118.5745 254.2231,118.8733 L254.2231,121.5959 Q253.5923,121.0149 252.9988,120.7451 Q252.4053,120.4753 251.7744,120.4753 Q250.4297,120.4753 249.7449,121.542 Q249.0601,122.6086 249.0601,124.7087 Q249.0601,126.8005 249.7449,127.8672 Q250.4297,128.9338 251.7744,128.9338 Q252.4053,128.9338 252.9988,128.6641 Q253.5923,128.3943 254.2231,127.8132 Z " fill="#000000"/><text fill="#000000" font-family="sans-serif" font-size="14" lengthAdjust="spacing" textLength="73" x="283.75" y="123.7952">DijkstraEj6</text><text fill="#000000" font-family="sans-serif" font-size="10" lengthAdjust="spacing" textLength="96" x="272.25" y="136.4163">ual.eda2.practica02</text><line style="stroke:#181818;stroke-width:0.5;" x1="8" x2="600" y1="143.5256" y2="143.5256"/><rect fill="#F24D5C" height="6" style="stroke:#C82930;stroke-width:1.0;" width="6" x="15" y="154.2698"/><text fill="#000000" font-family="sans-serif" font-size="14" lengthAdjust="spacing" text-decoration="underline" textLength="393" x="27" y="161.0608">heuristic(Vertex, Vertex, Map&lt;Vertex, double[]&gt;): double</text><ellipse cx="18" cy="173.758" fill="#84BE84" rx="3" ry="3" style="stroke:#038048;stroke-width:1.0;"/><text fill="#000000" font-family="sans-serif" font-size="14" lengthAdjust="spacing" text-decoration="underline" textLength="568" x="27" y="177.5491">findPath(Graph, Vertex, Vertex, Map&lt;Vertex, double[]&gt;): TreeMap&lt;String, Object&gt;</text></g></a><!--class java.lang.Object--><g id="elem_java.lang.Object"><rect codeLine="10" fill="#F1F1F1" height="38.2656" id="java.lang.Object" rx="2.5" ry="2.5" style="stroke:#181818;stroke-width:0.5;" width="76" x="266" y="7"/><ellipse cx="281" cy="26.1328" fill="#ADD1B2" rx="11" ry="11" style="stroke:#181818;stroke-width:1.0;"/><path d="M283.4731,32.2759 Q282.8921,32.5747 282.2529,32.7241 Q281.6138,32.8735 280.9082,32.8735 Q278.4014,32.8735 277.0815,31.2217 Q275.7617,29.5698 275.7617,26.4487 Q275.7617,23.3193 277.0815,21.6675 Q278.4014,20.0156 280.9082,20.0156 Q281.6138,20.0156 282.2612,20.165 Q282.9087,20.3145 283.4731,20.6133 L283.4731,23.3359 Q282.8423,22.7549 282.2488,22.4851 Q281.6553,22.2153 281.0244,22.2153 Q279.6797,22.2153 278.9949,23.282 Q278.3101,24.3486 278.3101,26.4487 Q278.3101,28.5405 278.9949,29.6072 Q279.6797,30.6738 281.0244,30.6738 Q281.6553,30.6738 282.2488,30.4041 Q282.8423,30.1343 283.4731,29.5532 Z " fill="#000000"/><text fill="#000000" font-family="sans-serif" font-size="14" lengthAdjust="spacing" textLength="44" x="295" y="25.5352">Object</text><text fill="#000000" font-family="sans-serif" font-size="10" lengthAdjust="spacing" textLength="44" x="295" y="38.1563">java.lang</text></g><!--class ual.eda2.practica02.DijkstraEj6.VertexAStar--><a href="DijkstraEj6.VertexAStar.html" target="_top" title="DijkstraEj6.VertexAStar.html" xlink:actuate="onRequest" xlink:href="DijkstraEj6.VertexAStar.html" xlink:show="new" xlink:title="DijkstraEj6.VertexAStar.html" xlink:type="simple"><g id="elem_ual.eda2.practica02.DijkstraEj6.VertexAStar"><rect codeLine="11" fill="#F1F1F1" height="38.2656" id="ual.eda2.practica02.DijkstraEj6.VertexAStar" rx="2.5" ry="2.5" style="stroke:#181818;stroke-width:0.5;" width="191" x="208.5" y="244.5"/><ellipse cx="223.5" cy="263.6328" fill="#ADD1B2" rx="11" ry="11" style="stroke:#181818;stroke-width:1.0;"/><path d="M225.9731,269.7759 Q225.3921,270.0747 224.7529,270.2241 Q224.1138,270.3735 223.4082,270.3735 Q220.9014,270.3735 219.5815,268.7217 Q218.2617,267.0698 218.2617,263.9487 Q218.2617,260.8193 219.5815,259.1675 Q220.9014,257.5156 223.4082,257.5156 Q224.1138,257.5156 224.7612,257.665 Q225.4087,257.8145 225.9731,258.1133 L225.9731,260.8359 Q225.3423,260.2549 224.7488,259.9851 Q224.1553,259.7153 223.5244,259.7153 Q222.1797,259.7153 221.4949,260.782 Q220.8101,261.8486 220.8101,263.9487 Q220.8101,266.0405 221.4949,267.1072 Q222.1797,268.1738 223.5244,268.1738 Q224.1553,268.1738 224.7488,267.9041 Q225.3423,267.6343 225.9731,267.0532 Z " fill="#000000"/><text fill="#000000" font-family="sans-serif" font-size="14" lengthAdjust="spacing" textLength="159" x="237.5" y="263.0352">DijkstraEj6.VertexAStar</text><text fill="#000000" font-family="sans-serif" font-size="10" lengthAdjust="spacing" textLength="96" x="269" y="275.6563">ual.eda2.practica02</text></g></a><!--reverse link java.lang.Object to ual.eda2.practica02.DijkstraEj6--><g id="link_java.lang.Object_ual.eda2.practica02.DijkstraEj6"><path codeLine="13" d="M304,67.14 C304,79.44 304,92.96 304,105.17 " fill="none" id="java.lang.Object-backto-ual.eda2.practica02.DijkstraEj6" style="stroke:#181818;stroke-width:1.0;"/><polygon fill="none" points="297,67.14,304,47.14,311,67.14,297,67.14" style="stroke:#181818;stroke-width:1.0;"/></g><!--reverse link ual.eda2.practica02.DijkstraEj6 to ual.eda2.practica02.DijkstraEj6.VertexAStar--><g id="link_ual.eda2.practica02.DijkstraEj6_ual.eda2.practica02.DijkstraEj6.VertexAStar"><path codeLine="14" d="M304,201.25 C304,216.74 304,232.51 304,244.19 " fill="none" id="ual.eda2.practica02.DijkstraEj6-backto-ual.eda2.practica02.DijkstraEj6.VertexAStar" style="stroke:#181818;stroke-width:1.0;"/><ellipse cx="304" cy="194.27" fill="#FFFFFF" rx="8" ry="8" style="stroke:#181818;stroke-width:1.0;"/><line style="stroke:#181818;stroke-width:1.0;" x1="304" x2="304" y1="202.27" y2="186.27"/><line style="stroke:#181818;stroke-width:1.0;" x1="296" x2="312" y1="194.27" y2="194.27"/></g><text fill="#888888" font-family="sans-serif" font-size="10" lengthAdjust="spacing" textLength="182" x="206" y="297.4336">UMLDoclet 2.1.0, PlantUML 1.2022.14</text><!--SRC=[fLB1QW8n4BttAmQXeAX1fVGWib2mz5AfODkBUXXtHpVRRB8aexIr_dlZxjekLjX3SydapUJDoyi003XYq9YIop2a6MLeaOq5RJHT-JJ4CYAWDECFM4jIaJj7K-BOU3Z7GuNEGMFav2SD-pV1M2PlZYtU9xSBNQAzO8jAK8G3aLaCMORO6pG07Lp0HOK1vlFAISISgkKIzddZuzexHd_h0DsOjbOw7pTVoJAzT-2qJp0RdUB8R5UAvikWDIpZlrJjjTJH53bkFbZCub-YEi9dItJCpTXAlUd0qogXa8Eym-6oMKL9nQS4ToWKwatkpiz958LrXej2rjsCqVxV_2hRsKTKCkMd5Eyx5moZhswthaz-isuGslKyLLMbtQIPBAoDEMulayUn2PMV_e7eYru7fbufUnIkTsITDBhP-WO0]--></g></svg>