<?xml version="1.0" encoding="UTF-8" standalone="no"?><svg xmlns="http://www.w3.org/2000/svg" xmlns:xlink="http://www.w3.org/1999/xlink" contentStyleType="text/css" height="317px" preserveAspectRatio="none" style="width:401px;height:317px;background:#FFFFFF;" version="1.1" viewBox="0 0 401 317" width="401px" zoomAndPan="magnify"><defs/><g><!--class ual.eda2.practica02.Graph--><a href="Graph.html" target="_top" title="Graph.html" xlink:actuate="onRequest" xlink:href="Graph.html" xlink:show="new" xlink:title="Graph.html" xlink:type="simple"><g id="elem_ual.eda2.practica02.Graph"><rect codeLine="5" fill="#F1F1F1" height="186.1719" id="ual.eda2.practica02.Graph" rx="2.5" ry="2.5" style="stroke:#181818;stroke-width:0.5;" width="387" x="7" y="105.27"/><ellipse cx="148.25" cy="124.4028" fill="#ADD1B2" rx="11" ry="11" style="stroke:#181818;stroke-width:1.0;"/><path d="M150.7231,130.5459 Q150.1421,130.8447 149.5029,130.9941 Q148.8638,131.1435 148.1582,131.1435 Q145.6514,131.1435 144.3315,129.4917 Q143.0117,127.8398 143.0117,124.7187 Q143.0117,121.5893 144.3315,119.9375 Q145.6514,118.2856 148.1582,118.2856 Q148.8638,118.2856 149.5112,118.435 Q150.1587,118.5845 150.7231,118.8833 L150.7231,121.6059 Q150.0923,121.0249 149.4988,120.7551 Q148.9053,120.4853 148.2744,120.4853 Q146.9297,120.4853 146.2449,121.552 Q145.5601,122.6186 145.5601,124.7187 Q145.5601,126.8105 146.2449,127.8772 Q146.9297,128.9438 148.2744,128.9438 Q148.9053,128.9438 149.4988,128.6741 Q150.0923,128.4043 150.7231,127.8232 Z " fill="#000000"/><text fill="#000000" font-family="sans-serif" font-size="14" lengthAdjust="spacing" textLength="42" x="195.75" y="123.8052">Graph</text><text fill="#000000" font-family="sans-serif" font-size="10" lengthAdjust="spacing" textLength="96" x="168.75" y="136.4263">ual.eda2.practica02</text><line style="stroke:#181818;stroke-width:0.5;" x1="8" x2="393" y1="143.5356" y2="143.5356"/><rect fill="none" height="6" style="stroke:#C82930;stroke-width:1.0;" width="6" x="15" y="154.2798"/><text fill="#000000" font-family="sans-serif" font-size="14" lengthAdjust="spacing" textLength="361" x="27" y="161.0708">adjacencyMap: Map&lt;Vertex, Map&lt;Vertex, Double&gt;&gt;</text><line style="stroke:#181818;stroke-width:0.5;" x1="8" x2="393" y1="168.0239" y2="168.0239"/><ellipse cx="18" cy="181.768" fill="#84BE84" rx="3" ry="3" style="stroke:#038048;stroke-width:1.0;"/><text fill="#000000" font-family="sans-serif" font-size="14" lengthAdjust="spacing" textLength="163" x="27" y="185.5591">addVertex(Vertex): void</text><ellipse cx="18" cy="198.2563" fill="#84BE84" rx="3" ry="3" style="stroke:#038048;stroke-width:1.0;"/><text fill="#000000" font-family="sans-serif" font-size="14" lengthAdjust="spacing" textLength="261" x="27" y="202.0473">addEdge(Vertex, Vertex, double): void</text><ellipse cx="18" cy="214.7446" fill="#84BE84" rx="3" ry="3" style="stroke:#038048;stroke-width:1.0;"/><text fill="#000000" font-family="sans-serif" font-size="14" lengthAdjust="spacing" textLength="230" x="27" y="218.5356">getVertices(): Collection&lt;Vertex&gt;</text><ellipse cx="18" cy="231.2329" fill="#84BE84" rx="3" ry="3" style="stroke:#038048;stroke-width:1.0;"/><text fill="#000000" font-family="sans-serif" font-size="14" lengthAdjust="spacing" textLength="248" x="27" y="235.0239">adyacentes(Vertex, Vertex): boolean</text><ellipse cx="18" cy="247.7212" fill="#84BE84" rx="3" ry="3" style="stroke:#038048;stroke-width:1.0;"/><text fill="#000000" font-family="sans-serif" font-size="14" lengthAdjust="spacing" textLength="197" x="27" y="251.5122">peso(Vertex, Vertex): double</text><ellipse cx="18" cy="264.2095" fill="#84BE84" rx="3" ry="3" style="stroke:#038048;stroke-width:1.0;"/><text fill="#000000" font-family="sans-serif" font-size="14" lengthAdjust="spacing" textLength="210" x="27" y="268.0005">weight(Vertex, Vertex): double</text><ellipse cx="18" cy="280.6977" fill="#84BE84" rx="3" ry="3" style="stroke:#038048;stroke-width:1.0;"/><text fill="#000000" font-family="sans-serif" font-size="14" lengthAdjust="spacing" textLength="122" x="27" y="284.4888">printGraph(): void</text></g></a><!--class java.lang.Object--><g id="elem_java.lang.Object"><rect codeLine="16" fill="#F1F1F1" height="38.2656" id="java.lang.Object" rx="2.5" ry="2.5" style="stroke:#181818;stroke-width:0.5;" width="76" x="162.5" y="7"/><ellipse cx="177.5" cy="26.1328" fill="#ADD1B2" rx="11" ry="11" style="stroke:#181818;stroke-width:1.0;"/><path d="M179.9731,32.2759 Q179.3921,32.5747 178.7529,32.7241 Q178.1138,32.8735 177.4082,32.8735 Q174.9014,32.8735 173.5815,31.2217 Q172.2617,29.5698 172.2617,26.4487 Q172.2617,23.3193 173.5815,21.6675 Q174.9014,20.0156 177.4082,20.0156 Q178.1138,20.0156 178.7612,20.165 Q179.4087,20.3145 179.9731,20.6133 L179.9731,23.3359 Q179.3423,22.7549 178.7488,22.4851 Q178.1553,22.2153 177.5244,22.2153 Q176.1797,22.2153 175.4949,23.282 Q174.8101,24.3486 174.8101,26.4487 Q174.8101,28.5405 175.4949,29.6072 Q176.1797,30.6738 177.5244,30.6738 Q178.1553,30.6738 178.7488,30.4041 Q179.3423,30.1343 179.9731,29.5532 Z " fill="#000000"/><text fill="#000000" font-family="sans-serif" font-size="14" lengthAdjust="spacing" textLength="44" x="191.5" y="25.5352">Object</text><text fill="#000000" font-family="sans-serif" font-size="10" lengthAdjust="spacing" textLength="44" x="191.5" y="38.1563">java.lang</text></g><!--reverse link java.lang.Object to ual.eda2.practica02.Graph--><g id="link_java.lang.Object_ual.eda2.practica02.Graph"><path codeLine="18" d="M200.5,66.85 C200.5,78.47 200.5,91.68 200.5,105.13 " fill="none" id="java.lang.Object-backto-ual.eda2.practica02.Graph" style="stroke:#181818;stroke-width:1.0;"/><polygon fill="none" points="193.5,67.19,200.5,47.19,207.5,67.19,193.5,67.19" style="stroke:#181818;stroke-width:1.0;"/></g><text fill="#888888" font-family="sans-serif" font-size="10" lengthAdjust="spacing" textLength="182" x="102.5" y="307.1098">UMLDoclet 2.1.0, PlantUML 1.2022.14</text><!--SRC=[XL9BJm8n4BxxAoOc9ak41eWdGlOYnej44wCNv31iXzsIRjkq1SN7VxVRvRM0iOVEzfjlldaj080Z3mfBSWOpUYQ35hsseBIYY-26Gd02AerVmroGvEuOBSaNEi0HpoGw1vT39pvfqBj9xosQuarjtjrqYP8Hnpup5ZClCkpsBm4TdC5PZ8N995fM-59Ef_0LqrIdWtmHIbRPUenc0E4QlfBrzD5kV8_qSYOfJNTnryXvxKngqnh0IWlU8Dpnd9AjnDRoA7L2pybN396HIuBpLaj9eGUjDZKqKg-hadrWDiL3t4nhIQZsP4DEdzBg8lQiTn9vuV_d6IkKZwDC3ZluER-tnzaYz72mk0Mka4bKULpNxiLgOYroZCBmkzFvUxMRpDKuBCorhipB-66aCnd-oJxhiMuRdeAU3oXShSYwCDIazGi0]--></g></svg>