<?xml version="1.0" encoding="UTF-8" standalone="no"?><svg xmlns="http://www.w3.org/2000/svg" xmlns:xlink="http://www.w3.org/1999/xlink" contentStyleType="text/css" height="210px" preserveAspectRatio="none" style="width:542px;height:210px;background:#FFFFFF;" version="1.1" viewBox="0 0 542 210" width="542px" zoomAndPan="magnify"><defs/><g><!--class ual.eda2.practica02.MainEj7EDALandLarge--><a href="MainEj7EDALandLarge.html" target="_top" title="MainEj7EDALandLarge.html" xlink:actuate="onRequest" xlink:href="MainEj7EDALandLarge.html" xlink:show="new" xlink:title="MainEj7EDALandLarge.html" xlink:type="simple"><g id="elem_ual.eda2.practica02.MainEj7EDALandLarge"><rect codeLine="5" fill="#F1F1F1" height="79.2422" id="ual.eda2.practica02.MainEj7EDALandLarge" rx="2.5" ry="2.5" style="stroke:#181818;stroke-width:0.5;" width="528" x="7" y="105.27"/><ellipse cx="190.25" cy="124.4028" fill="#ADD1B2" rx="11" ry="11" style="stroke:#181818;stroke-width:1.0;"/><path d="M192.7231,130.5459 Q192.1421,130.8447 191.5029,130.9941 Q190.8638,131.1435 190.1582,131.1435 Q187.6514,131.1435 186.3315,129.4917 Q185.0117,127.8398 185.0117,124.7187 Q185.0117,121.5893 186.3315,119.9375 Q187.6514,118.2856 190.1582,118.2856 Q190.8638,118.2856 191.5112,118.435 Q192.1587,118.5845 192.7231,118.8833 L192.7231,121.6059 Q192.0923,121.0249 191.4988,120.7551 Q190.9053,120.4853 190.2744,120.4853 Q188.9297,120.4853 188.2449,121.552 Q187.5601,122.6186 187.5601,124.7187 Q187.5601,126.8105 188.2449,127.8772 Q188.9297,128.9438 190.2744,128.9438 Q190.9053,128.9438 191.4988,128.6741 Q192.0923,128.4043 192.7231,127.8232 Z " fill="#000000"/><text fill="#000000" font-family="sans-serif" font-size="14" lengthAdjust="spacing" textLength="153" x="210.75" y="123.8052">MainEj7EDALandLarge</text><text fill="#000000" font-family="sans-serif" font-size="10" lengthAdjust="spacing" textLength="96" x="239.25" y="136.4262">ual.eda2.practica02</text><line style="stroke:#181818;stroke-width:0.5;" x1="8" x2="534" y1="143.5356" y2="143.5356"/><ellipse cx="18" cy="157.2798" fill="#84BE84" rx="3" ry="3" style="stroke:#038048;stroke-width:1.0;"/><text fill="#000000" font-family="sans-serif" font-size="14" lengthAdjust="spacing" text-decoration="underline" textLength="132" x="27" y="161.0708">main(String[]): void</text><rect fill="#F24D5C" height="6" style="stroke:#C82930;stroke-width:1.0;" width="6" x="15" y="170.768"/><text fill="#000000" font-family="sans-serif" font-size="14" lengthAdjust="spacing" text-decoration="underline" textLength="502" x="27" y="177.5591">reconstructPath(TreeMap&lt;Vertex, Vertex&gt;, Vertex, Vertex): List&lt;Vertex&gt;</text></g></a><!--class java.lang.Object--><g id="elem_java.lang.Object"><rect codeLine="10" fill="#F1F1F1" height="38.2656" id="java.lang.Object" rx="2.5" ry="2.5" style="stroke:#181818;stroke-width:0.5;" width="76" x="233" y="7"/><ellipse cx="248" cy="26.1328" fill="#ADD1B2" rx="11" ry="11" style="stroke:#181818;stroke-width:1.0;"/><path d="M250.4731,32.2759 Q249.8921,32.5747 249.2529,32.7241 Q248.6138,32.8735 247.9082,32.8735 Q245.4014,32.8735 244.0815,31.2217 Q242.7617,29.5698 242.7617,26.4487 Q242.7617,23.3193 244.0815,21.6675 Q245.4014,20.0156 247.9082,20.0156 Q248.6138,20.0156 249.2612,20.165 Q249.9087,20.3145 250.4731,20.6133 L250.4731,23.3359 Q249.8423,22.7549 249.2488,22.4851 Q248.6553,22.2153 248.0244,22.2153 Q246.6797,22.2153 245.9949,23.282 Q245.3101,24.3486 245.3101,26.4487 Q245.3101,28.5405 245.9949,29.6072 Q246.6797,30.6738 248.0244,30.6738 Q248.6553,30.6738 249.2488,30.4041 Q249.8423,30.1343 250.4731,29.5532 Z " fill="#000000"/><text fill="#000000" font-family="sans-serif" font-size="14" lengthAdjust="spacing" textLength="44" x="262" y="25.5352">Object</text><text fill="#000000" font-family="sans-serif" font-size="10" lengthAdjust="spacing" textLength="44" x="262" y="38.1563">java.lang</text></g><!--reverse link java.lang.Object to ual.eda2.practica02.MainEj7EDALandLarge--><g id="link_java.lang.Object_ual.eda2.practica02.MainEj7EDALandLarge"><path codeLine="12" d="M271,67.14 C271,79.45 271,92.96 271,105.18 " fill="none" id="java.lang.Object-backto-ual.eda2.practica02.MainEj7EDALandLarge" style="stroke:#181818;stroke-width:1.0;"/><polygon fill="none" points="264,67.15,271,47.15,278,67.15,264,67.15" style="stroke:#181818;stroke-width:1.0;"/></g><text fill="#888888" font-family="sans-serif" font-size="10" lengthAdjust="spacing" textLength="182" x="173" y="200.1802">UMLDoclet 2.1.0, PlantUML 1.2022.14</text><!--SRC=[ZP91Qy9048Nl_HM3K8XKboY5WeH0GMy95MnxiHwccz5iI7R3xYXjhV-zQunIR0xTozlzvl4O7Wi0u8X1OqMkHaaBgj4Y6mlQQBhnOyXLHa1LpP-mLbHcxffMnBdnkE6oHEUW5pdrHPFHVPoYqhFYOJPzJ51d2TeDlUbs6iPRB0LbE1QrHSbAOZZk0JheuA8Z2PRB3YfohihL2lRDGiUpTum-vG1tbRS72xPARvQh_WHsHcL_RKDBqcZ7TYjvZfm7pvOenJfw9SlqCO2JnkVBMNrWeXotjhW9FdJtylHUaEHVLHIuGr6YtZG5N5xYP3o5N5E8leV3_vRLxa6QoSBQcAEyfCdKoDB_WB4OYN00Sv_EdiBjZgnJHWVz7m00]--></g></svg>