<?xml version="1.0" encoding="UTF-8" standalone="no"?><svg xmlns="http://www.w3.org/2000/svg" xmlns:xlink="http://www.w3.org/1999/xlink" contentStyleType="text/css" height="226px" preserveAspectRatio="none" style="width:479px;height:226px;background:#FFFFFF;" version="1.1" viewBox="0 0 479 226" width="479px" zoomAndPan="magnify"><defs/><g><!--class ual.eda2.practica02.MainAuxEj5--><a href="MainAuxEj5.html" target="_top" title="MainAuxEj5.html" xlink:actuate="onRequest" xlink:href="MainAuxEj5.html" xlink:show="new" xlink:title="MainAuxEj5.html" xlink:type="simple"><g id="elem_ual.eda2.practica02.MainAuxEj5"><rect codeLine="5" fill="#F1F1F1" height="95.7305" id="ual.eda2.practica02.MainAuxEj5" rx="2.5" ry="2.5" style="stroke:#181818;stroke-width:0.5;" width="465" x="7" y="105.27"/><ellipse cx="187.25" cy="124.4028" fill="#ADD1B2" rx="11" ry="11" style="stroke:#181818;stroke-width:1.0;"/><path d="M189.7231,130.5459 Q189.1421,130.8447 188.5029,130.9941 Q187.8638,131.1435 187.1582,131.1435 Q184.6514,131.1435 183.3315,129.4917 Q182.0117,127.8398 182.0117,124.7187 Q182.0117,121.5893 183.3315,119.9375 Q184.6514,118.2856 187.1582,118.2856 Q187.8638,118.2856 188.5112,118.435 Q189.1587,118.5845 189.7231,118.8833 L189.7231,121.6059 Q189.0923,121.0249 188.4988,120.7551 Q187.9053,120.4853 187.2744,120.4853 Q185.9297,120.4853 185.2449,121.552 Q184.5601,122.6186 184.5601,124.7187 Q184.5601,126.8105 185.2449,127.8772 Q185.9297,128.9438 187.2744,128.9438 Q187.9053,128.9438 188.4988,128.6741 Q189.0923,128.4043 189.7231,127.8232 Z " fill="#000000"/><text fill="#000000" font-family="sans-serif" font-size="14" lengthAdjust="spacing" textLength="82" x="214.75" y="123.8052">MainAuxEj5</text><text fill="#000000" font-family="sans-serif" font-size="10" lengthAdjust="spacing" textLength="96" x="207.75" y="136.4262">ual.eda2.practica02</text><line style="stroke:#181818;stroke-width:0.5;" x1="8" x2="471" y1="143.5356" y2="143.5356"/><ellipse cx="18" cy="157.2798" fill="#84BE84" rx="3" ry="3" style="stroke:#038048;stroke-width:1.0;"/><text fill="#000000" font-family="sans-serif" font-size="14" lengthAdjust="spacing" text-decoration="underline" textLength="132" x="27" y="161.0708">main(String[]): void</text><rect fill="#F24D5C" height="6" style="stroke:#C82930;stroke-width:1.0;" width="6" x="15" y="170.768"/><text fill="#000000" font-family="sans-serif" font-size="14" lengthAdjust="spacing" text-decoration="underline" textLength="363" x="27" y="177.5591">loadPositions(String, Graph): Map&lt;Vertex, double[]&gt;</text><rect fill="#F24D5C" height="6" style="stroke:#C82930;stroke-width:1.0;" width="6" x="15" y="187.2563"/><text fill="#000000" font-family="sans-serif" font-size="14" lengthAdjust="spacing" text-decoration="underline" textLength="439" x="27" y="194.0473">generateRandomPositions(Graph, Map&lt;Vertex, double[]&gt;): void</text></g></a><!--class java.lang.Object--><g id="elem_java.lang.Object"><rect codeLine="11" fill="#F1F1F1" height="38.2656" id="java.lang.Object" rx="2.5" ry="2.5" style="stroke:#181818;stroke-width:0.5;" width="76" x="201.5" y="7"/><ellipse cx="216.5" cy="26.1328" fill="#ADD1B2" rx="11" ry="11" style="stroke:#181818;stroke-width:1.0;"/><path d="M218.9731,32.2759 Q218.3921,32.5747 217.7529,32.7241 Q217.1138,32.8735 216.4082,32.8735 Q213.9014,32.8735 212.5815,31.2217 Q211.2617,29.5698 211.2617,26.4487 Q211.2617,23.3193 212.5815,21.6675 Q213.9014,20.0156 216.4082,20.0156 Q217.1138,20.0156 217.7612,20.165 Q218.4087,20.3145 218.9731,20.6133 L218.9731,23.3359 Q218.3423,22.7549 217.7488,22.4851 Q217.1553,22.2153 216.5244,22.2153 Q215.1797,22.2153 214.4949,23.282 Q213.8101,24.3486 213.8101,26.4487 Q213.8101,28.5405 214.4949,29.6072 Q215.1797,30.6738 216.5244,30.6738 Q217.1553,30.6738 217.7488,30.4041 Q218.3423,30.1343 218.9731,29.5532 Z " fill="#000000"/><text fill="#000000" font-family="sans-serif" font-size="14" lengthAdjust="spacing" textLength="44" x="230.5" y="25.5352">Object</text><text fill="#000000" font-family="sans-serif" font-size="10" lengthAdjust="spacing" textLength="44" x="230.5" y="38.1563">java.lang</text></g><!--reverse link java.lang.Object to ual.eda2.practica02.MainAuxEj5--><g id="link_java.lang.Object_ual.eda2.practica02.MainAuxEj5"><path codeLine="13" d="M239.5,66.72 C239.5,78.87 239.5,92.37 239.5,104.98 " fill="none" id="java.lang.Object-backto-ual.eda2.practica02.MainAuxEj5" style="stroke:#181818;stroke-width:1.0;"/><polygon fill="none" points="232.5,67.09,239.5,47.09,246.5,67.09,232.5,67.09" style="stroke:#181818;stroke-width:1.0;"/></g><text fill="#888888" font-family="sans-serif" font-size="10" lengthAdjust="spacing" textLength="182" x="141.5" y="216.6684">UMLDoclet 2.1.0, PlantUML 1.2022.14</text><!--SRC=[XP91Qm8n48Nl_HM3K52w6rJQYon2eQMNIgNINhPx63VZRYIRBCaejjR_thXA5RlGNC9yUVCcUGG0m1E3mOfyZJdDg4Q7R1qOQ-Wg74Ef905LDN_2Gf6M_f9MnAKDkE6vHk-XatZrHQF1xNY2ojolDe_BkmzpXFtn2hKWYKDHEynPvTWVTW0zj71nCe0qFHMYv4fd6MoRgVkrzOoXPmStLL1rP-oKATAiDuArLVAlBDOMvTHwnSeQVzH7yEImBaFJ1EladHpJ9W9fLtDDQJPkSId8K4YCNj58Mvty6f-etURyJhlst5xcIyhvBBCbhb5eD4MJr6yb3iA3oIM5v3kE_qdrE9uCauE5jVljRVByO7CTFiPG34G_WcamvK3XUatEX_TrUpy0]--></g></svg>