<?xml version="1.0" encoding="UTF-8" standalone="no"?><svg xmlns="http://www.w3.org/2000/svg" xmlns:xlink="http://www.w3.org/1999/xlink" contentStyleType="text/css" height="144px" preserveAspectRatio="none" style="width:507px;height:144px;" version="1.1" viewBox="0 0 507 144" width="507px" zoomAndPan="magnify"><defs/><g><!--class ual.eda2.practica03--><a href="ual/eda2/practica03/package-summary.html" target="_top" title="ual/eda2/practica03/package-summary.html" xlink:actuate="onRequest" xlink:href="ual/eda2/practica03/package-summary.html" xlink:show="new" xlink:title="ual/eda2/practica03/package-summary.html" xlink:type="simple"><g id="elem_ual.eda2.practica03"><rect codeLine="17" fill="#F1F1F1" height="26.4883" id="ual.eda2.practica03" rx="2.5" ry="2.5" style="stroke:#181818;stroke-width:0.5;" width="141" x="183" y="7"/><text fill="#000000" font-family="sans-serif" font-size="14" lengthAdjust="spacing" textLength="135" x="186" y="25.5352">ual.eda2.practica03</text></g></a><!--class java.lang--><g id="elem_java.lang"><rect fill="#F1F1F1" height="26.4883" id="java.lang" rx="2.5" ry="2.5" style="stroke:#181818;stroke-width:0.5;" width="67" x="296" y="93.49"/><text fill="#000000" font-family="sans-serif" font-size="14" lengthAdjust="spacing" textLength="61" x="299" y="112.0252">java.lang</text></g><!--class java.io--><g id="elem_java.io"><rect fill="#F1F1F1" height="26.4883" id="java.io" rx="2.5" ry="2.5" style="stroke:#181818;stroke-width:0.5;" width="50" x="95.5" y="93.49"/><text fill="#000000" font-family="sans-serif" font-size="14" lengthAdjust="spacing" textLength="44" x="98.5" y="112.0252">java.io</text></g><!--class java.util--><g id="elem_java.util"><rect fill="#F1F1F1" height="26.4883" id="java.util" rx="2.5" ry="2.5" style="stroke:#181818;stroke-width:0.5;" width="59" x="202" y="93.49"/><text fill="#000000" font-family="sans-serif" font-size="14" lengthAdjust="spacing" textLength="53" x="205" y="112.0252">java.util</text></g><!--class ual.eda2.practica02--><a href="ual/eda2/practica02/package-summary.html" target="_top" title="ual/eda2/practica02/package-summary.html" xlink:actuate="onRequest" xlink:href="ual/eda2/practica02/package-summary.html" xlink:show="new" xlink:title="ual/eda2/practica02/package-summary.html" xlink:type="simple"><g id="elem_ual.eda2.practica02"><rect codeLine="19" fill="#F1F1F1" height="26.4883" id="ual.eda2.practica02" rx="2.5" ry="2.5" style="stroke:#181818;stroke-width:0.5;" width="141" x="7" y="7"/><text fill="#000000" font-family="sans-serif" font-size="14" lengthAdjust="spacing" textLength="135" x="10" y="25.5352">ual.eda2.practica02</text></g></a><!--class ual.eda2.practica01--><a href="ual/eda2/practica01/package-summary.html" target="_top" title="ual/eda2/practica01/package-summary.html" xlink:actuate="onRequest" xlink:href="ual/eda2/practica01/package-summary.html" xlink:show="new" xlink:title="ual/eda2/practica01/package-summary.html" xlink:type="simple"><g id="elem_ual.eda2.practica01"><rect codeLine="21" fill="#F1F1F1" height="26.4883" id="ual.eda2.practica01" rx="2.5" ry="2.5" style="stroke:#181818;stroke-width:0.5;" width="141" x="359" y="7"/><text fill="#000000" font-family="sans-serif" font-size="14" lengthAdjust="spacing" textLength="135" x="362" y="25.5352">ual.eda2.practica01</text></g></a><!--link ual.eda2.practica03 to java.lang--><g id="link_ual.eda2.practica03_java.lang"><path codeLine="7" d="M264.71,33.71 C277.74,48.19 299.3,72.16 313.94,88.43 " fill="none" id="ual.eda2.practica03-to-java.lang" style="stroke:#181818;stroke-width:1.0;"/><polygon fill="#181818" points="317.23,92.09,314.1825,82.7245,313.8852,88.3735,308.2361,88.0762,317.23,92.09" style="stroke:#181818;stroke-width:1.0;"/></g><!--link ual.eda2.practica03 to java.io--><g id="link_ual.eda2.practica03_java.io"><path codeLine="8" d="M233.59,33.9 C210.18,48.77 171.29,73.47 145.78,89.68 " fill="none" id="ual.eda2.practica03-to-java.io" style="stroke:#181818;stroke-width:1.0;"/><polygon fill="#181818" points="141.83,92.19,151.5752,90.7648,146.0571,89.5195,147.3024,84.0014,141.83,92.19" style="stroke:#181818;stroke-width:1.0;"/></g><!--link ual.eda2.practica03 to java.util--><g id="link_ual.eda2.practica03_java.util"><path codeLine="9" d="M250.25,33.71 C246.58,47.82 240.56,70.93 236.34,87.16 " fill="none" id="ual.eda2.practica03-to-java.util" style="stroke:#181818;stroke-width:1.0;"/><polygon fill="#181818" points="235.14,91.75,241.2999,84.0652,236.4132,86.9148,233.5636,82.0281,235.14,91.75" style="stroke:#181818;stroke-width:1.0;"/></g><!--link ual.eda2.practica02 to java.lang--><g id="link_ual.eda2.practica02_java.lang"><path codeLine="10" d="M115.5,33.99 C162.44,49.73 241.93,76.38 289.69,92.39 " fill="none" id="ual.eda2.practica02-to-java.lang" style="stroke:#181818;stroke-width:1.0;"/><polygon fill="#181818" points="294.2,93.9,286.9328,87.2526,289.458,92.3146,284.3961,94.8398,294.2,93.9" style="stroke:#181818;stroke-width:1.0;"/></g><!--link ual.eda2.practica02 to java.util--><g id="link_ual.eda2.practica02_java.util"><path codeLine="11" d="M100.56,33.9 C127.77,48.83 173.06,73.68 202.6,89.88 " fill="none" id="ual.eda2.practica02-to-java.util" style="stroke:#181818;stroke-width:1.0;"/><polygon fill="#181818" points="206.96,92.27,201.0047,84.4256,202.5798,89.8588,197.1467,91.4339,206.96,92.27" style="stroke:#181818;stroke-width:1.0;"/></g><!--link ual.eda2.practica02 to java.io--><g id="link_ual.eda2.practica02_java.io"><path codeLine="12" d="M83.84,33.71 C91.09,47.94 102.99,71.34 111.26,87.58 " fill="none" id="ual.eda2.practica02-to-java.io" style="stroke:#181818;stroke-width:1.0;"/><polygon fill="#181818" points="113.44,91.87,112.9046,82.0357,111.1639,87.4181,105.7816,85.6774,113.44,91.87" style="stroke:#181818;stroke-width:1.0;"/></g><!--link ual.eda2.practica01 to java.lang--><g id="link_ual.eda2.practica01_java.lang"><path codeLine="13" d="M414.74,33.71 C397.32,48.44 368.26,72.99 348.99,89.27 " fill="none" id="ual.eda2.practica01-to-java.lang" style="stroke:#181818;stroke-width:1.0;"/><polygon fill="#181818" points="345.47,92.24,354.9238,89.4785,349.2864,89.0096,349.7552,83.3723,345.47,92.24" style="stroke:#181818;stroke-width:1.0;"/></g><!--link ual.eda2.practica01 to java.util--><g id="link_ual.eda2.practica01_java.util"><path codeLine="14" d="M399.86,33.9 C364.43,49.02 305.18,74.3 267.24,90.48 " fill="none" id="ual.eda2.practica01-to-java.util" style="stroke:#181818;stroke-width:1.0;"/><polygon fill="#181818" points="262.74,92.41,272.5876,92.5672,267.3409,90.4525,269.4556,85.2058,262.74,92.41" style="stroke:#181818;stroke-width:1.0;"/></g><text fill="#888888" font-family="sans-serif" font-size="10" lengthAdjust="spacing" textLength="182" x="155.5" y="134.6463">UMLDoclet 2.1.0, PlantUML 1.2022.14</text><!--SRC=[fP8zQyCm48Rt_eeZ4Df2BSVgdgbZ0u7IAMIuoXTRjJwCT0w4qlzUsHvQWbEdT19wxjLp-W80Y8rsBGQqy8QggOBlNAcyyG4ue8kfH8vle4yIWqDBYIbweNuHfvZpZePwhKi2fOCoF-PaMpx1GPCfupcrnBLFUE0T6a4bIj46LAmLhXuXozRmZaSK1bqrdz9-FjEnDXTIygf-yg-kYxighkfNdFKROhUmJO-55O7HhXalLXcC4HOJfr_0RfTmtkFy6-VjwCXYPos6awZPclqUFWRTv-zIEIsL_v8Mqz9YJZfQqp-b00Vl- -5ry_paqqzaaA8GgmVOfZlcH65vf12rTtVtNm00]--></g></svg>