<?xml version="1.0" encoding="UTF-8" standalone="no"?><svg xmlns="http://www.w3.org/2000/svg" xmlns:xlink="http://www.w3.org/1999/xlink" contentStyleType="text/css" height="502px" preserveAspectRatio="none" style="width:850px;height:502px;background:#FFFFFF;" version="1.1" viewBox="0 0 850 502" width="850px" zoomAndPan="magnify"><defs/><g><!--cluster ual.eda2.practica03--><g id="cluster_ual.eda2.practica03"><path d="M8.5,6 L145.5,6 A3.75,3.75 0 0 1 148,8.5 L155,28.4883 L840.5,28.4883 A2.5,2.5 0 0 1 843,30.9883 L843,474.31 A2.5,2.5 0 0 1 840.5,476.81 L8.5,476.81 A2.5,2.5 0 0 1 6,474.31 L6,8.5 A2.5,2.5 0 0 1 8.5,6 " fill="none" style="stroke:#000000;stroke-width:1.5;"/><line style="stroke:#000000;stroke-width:1.5;" x1="6" x2="155" y1="28.4883" y2="28.4883"/><text fill="#000000" font-family="sans-serif" font-size="14" font-weight="bold" lengthAdjust="spacing" textLength="136" x="10" y="21.5352">ual.eda2.practica03</text></g><!--class ual.eda2.practica03.TSPBruteForceTest--><a href="TSPBruteForceTest.html" target="_top" title="TSPBruteForceTest.html" xlink:actuate="onRequest" xlink:href="TSPBruteForceTest.html" xlink:show="new" xlink:title="TSPBruteForceTest.html" xlink:type="simple"><g id="elem_ual.eda2.practica03.TSPBruteForceTest"><rect codeLine="3" fill="#F1F1F1" height="179.9063" id="ual.eda2.practica03.TSPBruteForceTest" rx="2.5" ry="2.5" style="stroke:#181818;stroke-width:0.5;" width="351" x="44.5" y="41"/><ellipse cx="151.75" cy="57" fill="#ADD1B2" rx="11" ry="11" style="stroke:#181818;stroke-width:1.0;"/><path d="M154.2231,63.1431 Q153.6421,63.4419 153.0029,63.5913 Q152.3638,63.7407 151.6582,63.7407 Q149.1514,63.7407 147.8315,62.0889 Q146.5117,60.437 146.5117,57.3159 Q146.5117,54.1865 147.8315,52.5347 Q149.1514,50.8828 151.6582,50.8828 Q152.3638,50.8828 153.0112,51.0322 Q153.6587,51.1816 154.2231,51.4805 L154.2231,54.2031 Q153.5923,53.6221 152.9988,53.3523 Q152.4053,53.0825 151.7744,53.0825 Q150.4297,53.0825 149.7449,54.1492 Q149.0601,55.2158 149.0601,57.3159 Q149.0601,59.4077 149.7449,60.4744 Q150.4297,61.541 151.7744,61.541 Q152.4053,61.541 152.9988,61.2712 Q153.5923,61.0015 154.2231,60.4204 Z " fill="#000000"/><text fill="#000000" font-family="sans-serif" font-size="14" lengthAdjust="spacing" textLength="128" x="172.25" y="62.291">TSPBruteForceTest</text><line style="stroke:#181818;stroke-width:0.5;" x1="45.5" x2="394.5" y1="73" y2="73"/><line style="stroke:#181818;stroke-width:0.5;" x1="45.5" x2="394.5" y1="81" y2="81"/><ellipse cx="55.5" cy="94.7441" fill="#84BE84" rx="3" ry="3" style="stroke:#038048;stroke-width:1.0;"/><text fill="#000000" font-family="sans-serif" font-size="14" lengthAdjust="spacing" textLength="238" x="64.5" y="98.5352">testTspRecursive_NullGraph(): void</text><ellipse cx="55.5" cy="111.2324" fill="#84BE84" rx="3" ry="3" style="stroke:#038048;stroke-width:1.0;"/><text fill="#000000" font-family="sans-serif" font-size="14" lengthAdjust="spacing" textLength="253" x="64.5" y="115.0234">testTspRecursive_EmptyGraph(): void</text><ellipse cx="55.5" cy="127.7207" fill="#84BE84" rx="3" ry="3" style="stroke:#038048;stroke-width:1.0;"/><text fill="#000000" font-family="sans-serif" font-size="14" lengthAdjust="spacing" textLength="291" x="64.5" y="131.5117">testTspRecursive_InvalidStartVertex(): void</text><ellipse cx="55.5" cy="144.209" fill="#84BE84" rx="3" ry="3" style="stroke:#038048;stroke-width:1.0;"/><text fill="#000000" font-family="sans-serif" font-size="14" lengthAdjust="spacing" textLength="256" x="64.5" y="148">testTspRecursive_SingleVertex(): void</text><ellipse cx="55.5" cy="160.6973" fill="#84BE84" rx="3" ry="3" style="stroke:#038048;stroke-width:1.0;"/><text fill="#000000" font-family="sans-serif" font-size="14" lengthAdjust="spacing" textLength="252" x="64.5" y="164.4883">testTspRecursive_TwoVertices(): void</text><ellipse cx="55.5" cy="177.1855" fill="#84BE84" rx="3" ry="3" style="stroke:#038048;stroke-width:1.0;"/><text fill="#000000" font-family="sans-serif" font-size="14" lengthAdjust="spacing" textLength="277" x="64.5" y="180.9766">testTspRecursive_CompleteGraph(): void</text><ellipse cx="55.5" cy="193.6738" fill="#84BE84" rx="3" ry="3" style="stroke:#038048;stroke-width:1.0;"/><text fill="#000000" font-family="sans-serif" font-size="14" lengthAdjust="spacing" textLength="249" x="64.5" y="197.4648">testTspRecursive_LargeGraph(): void</text><ellipse cx="55.5" cy="210.1621" fill="#84BE84" rx="3" ry="3" style="stroke:#038048;stroke-width:1.0;"/><text fill="#000000" font-family="sans-serif" font-size="14" lengthAdjust="spacing" textLength="325" x="64.5" y="213.9531">testTspRecursive_DifferentStartingPoints(): void</text></g></a><!--class ual.eda2.practica03.TSPRecursiveTest--><a href="TSPRecursiveTest.html" target="_top" title="TSPRecursiveTest.html" xlink:actuate="onRequest" xlink:href="TSPRecursiveTest.html" xlink:show="new" xlink:title="TSPRecursiveTest.html" xlink:type="simple"><g id="elem_ual.eda2.practica03.TSPRecursiveTest"><rect codeLine="14" fill="#F1F1F1" height="179.9063" id="ual.eda2.practica03.TSPRecursiveTest" rx="2.5" ry="2.5" style="stroke:#181818;stroke-width:0.5;" width="351" x="430.5" y="41"/><ellipse cx="542.25" cy="57" fill="#ADD1B2" rx="11" ry="11" style="stroke:#181818;stroke-width:1.0;"/><path d="M544.7231,63.1431 Q544.1421,63.4419 543.5029,63.5913 Q542.8638,63.7407 542.1582,63.7407 Q539.6514,63.7407 538.3315,62.0889 Q537.0117,60.437 537.0117,57.3159 Q537.0117,54.1865 538.3315,52.5347 Q539.6514,50.8828 542.1582,50.8828 Q542.8638,50.8828 543.5112,51.0322 Q544.1587,51.1816 544.7231,51.4805 L544.7231,54.2031 Q544.0923,53.6221 543.4988,53.3523 Q542.9053,53.0825 542.2744,53.0825 Q540.9297,53.0825 540.2449,54.1492 Q539.5601,55.2158 539.5601,57.3159 Q539.5601,59.4077 540.2449,60.4744 Q540.9297,61.541 542.2744,61.541 Q542.9053,61.541 543.4988,61.2712 Q544.0923,61.0015 544.7231,60.4204 Z " fill="#000000"/><text fill="#000000" font-family="sans-serif" font-size="14" lengthAdjust="spacing" textLength="119" x="562.75" y="62.291">TSPRecursiveTest</text><line style="stroke:#181818;stroke-width:0.5;" x1="431.5" x2="780.5" y1="73" y2="73"/><line style="stroke:#181818;stroke-width:0.5;" x1="431.5" x2="780.5" y1="81" y2="81"/><ellipse cx="441.5" cy="94.7441" fill="#84BE84" rx="3" ry="3" style="stroke:#038048;stroke-width:1.0;"/><text fill="#000000" font-family="sans-serif" font-size="14" lengthAdjust="spacing" textLength="238" x="450.5" y="98.5352">testTspRecursive_NullGraph(): void</text><ellipse cx="441.5" cy="111.2324" fill="#84BE84" rx="3" ry="3" style="stroke:#038048;stroke-width:1.0;"/><text fill="#000000" font-family="sans-serif" font-size="14" lengthAdjust="spacing" textLength="253" x="450.5" y="115.0234">testTspRecursive_EmptyGraph(): void</text><ellipse cx="441.5" cy="127.7207" fill="#84BE84" rx="3" ry="3" style="stroke:#038048;stroke-width:1.0;"/><text fill="#000000" font-family="sans-serif" font-size="14" lengthAdjust="spacing" textLength="291" x="450.5" y="131.5117">testTspRecursive_InvalidStartVertex(): void</text><ellipse cx="441.5" cy="144.209" fill="#84BE84" rx="3" ry="3" style="stroke:#038048;stroke-width:1.0;"/><text fill="#000000" font-family="sans-serif" font-size="14" lengthAdjust="spacing" textLength="256" x="450.5" y="148">testTspRecursive_SingleVertex(): void</text><ellipse cx="441.5" cy="160.6973" fill="#84BE84" rx="3" ry="3" style="stroke:#038048;stroke-width:1.0;"/><text fill="#000000" font-family="sans-serif" font-size="14" lengthAdjust="spacing" textLength="252" x="450.5" y="164.4883">testTspRecursive_TwoVertices(): void</text><ellipse cx="441.5" cy="177.1855" fill="#84BE84" rx="3" ry="3" style="stroke:#038048;stroke-width:1.0;"/><text fill="#000000" font-family="sans-serif" font-size="14" lengthAdjust="spacing" textLength="277" x="450.5" y="180.9766">testTspRecursive_CompleteGraph(): void</text><ellipse cx="441.5" cy="193.6738" fill="#84BE84" rx="3" ry="3" style="stroke:#038048;stroke-width:1.0;"/><text fill="#000000" font-family="sans-serif" font-size="14" lengthAdjust="spacing" textLength="249" x="450.5" y="197.4648">testTspRecursive_LargeGraph(): void</text><ellipse cx="441.5" cy="210.1621" fill="#84BE84" rx="3" ry="3" style="stroke:#038048;stroke-width:1.0;"/><text fill="#000000" font-family="sans-serif" font-size="14" lengthAdjust="spacing" textLength="325" x="450.5" y="213.9531">testTspRecursive_DifferentStartingPoints(): void</text></g></a><!--class ual.eda2.practica03.TSPGreedyVertexTest--><a href="TSPGreedyVertexTest.html" target="_top" title="TSPGreedyVertexTest.html" xlink:actuate="onRequest" xlink:href="TSPGreedyVertexTest.html" xlink:show="new" xlink:title="TSPGreedyVertexTest.html" xlink:type="simple"><g id="elem_ual.eda2.practica03.TSPGreedyVertexTest"><rect codeLine="25" fill="#F1F1F1" height="179.9063" id="ual.eda2.practica03.TSPGreedyVertexTest" rx="2.5" ry="2.5" style="stroke:#181818;stroke-width:0.5;" width="396" x="22" y="280.9"/><ellipse cx="142.25" cy="296.9" fill="#ADD1B2" rx="11" ry="11" style="stroke:#181818;stroke-width:1.0;"/><path d="M144.7231,303.0431 Q144.1421,303.3419 143.5029,303.4913 Q142.8638,303.6407 142.1582,303.6407 Q139.6514,303.6407 138.3315,301.9889 Q137.0117,300.337 137.0117,297.2159 Q137.0117,294.0865 138.3315,292.4347 Q139.6514,290.7828 142.1582,290.7828 Q142.8638,290.7828 143.5112,290.9322 Q144.1587,291.0816 144.7231,291.3805 L144.7231,294.1031 Q144.0923,293.5221 143.4988,293.2523 Q142.9053,292.9825 142.2744,292.9825 Q140.9297,292.9825 140.2449,294.0492 Q139.5601,295.1158 139.5601,297.2159 Q139.5601,299.3077 140.2449,300.3744 Q140.9297,301.441 142.2744,301.441 Q142.9053,301.441 143.4988,301.1712 Q144.0923,300.9015 144.7231,300.3204 Z " fill="#000000"/><text fill="#000000" font-family="sans-serif" font-size="14" lengthAdjust="spacing" textLength="147" x="162.75" y="302.191">TSPGreedyVertexTest</text><line style="stroke:#181818;stroke-width:0.5;" x1="23" x2="417" y1="312.9" y2="312.9"/><line style="stroke:#181818;stroke-width:0.5;" x1="23" x2="417" y1="320.9" y2="320.9"/><ellipse cx="33" cy="334.6441" fill="#84BE84" rx="3" ry="3" style="stroke:#038048;stroke-width:1.0;"/><text fill="#000000" font-family="sans-serif" font-size="14" lengthAdjust="spacing" textLength="301" x="42" y="338.4352">testTspGreedyVertex_NullStartVertex(): void</text><ellipse cx="33" cy="351.1324" fill="#84BE84" rx="3" ry="3" style="stroke:#038048;stroke-width:1.0;"/><text fill="#000000" font-family="sans-serif" font-size="14" lengthAdjust="spacing" textLength="353" x="42" y="354.9234">testTspGreedyVertex_StartVertexNotInGraph(): void</text><ellipse cx="33" cy="367.6207" fill="#84BE84" rx="3" ry="3" style="stroke:#038048;stroke-width:1.0;"/><text fill="#000000" font-family="sans-serif" font-size="14" lengthAdjust="spacing" textLength="280" x="42" y="371.4117">testTspGreedyVertex_TwoVertices(): void</text><ellipse cx="33" cy="384.109" fill="#84BE84" rx="3" ry="3" style="stroke:#038048;stroke-width:1.0;"/><text fill="#000000" font-family="sans-serif" font-size="14" lengthAdjust="spacing" textLength="342" x="42" y="387.9">testTspGreedyVertex_SmallCompleteGraph(): void</text><ellipse cx="33" cy="400.5973" fill="#84BE84" rx="3" ry="3" style="stroke:#038048;stroke-width:1.0;"/><text fill="#000000" font-family="sans-serif" font-size="14" lengthAdjust="spacing" textLength="283" x="42" y="404.3883">testTspGreedyVertex_LargerGraph(): void</text><ellipse cx="33" cy="417.0855" fill="#84BE84" rx="3" ry="3" style="stroke:#038048;stroke-width:1.0;"/><text fill="#000000" font-family="sans-serif" font-size="14" lengthAdjust="spacing" textLength="289" x="42" y="420.8766">testTspGreedyVertex_EqualWeights(): void</text><ellipse cx="33" cy="433.5738" fill="#84BE84" rx="3" ry="3" style="stroke:#038048;stroke-width:1.0;"/><text fill="#000000" font-family="sans-serif" font-size="14" lengthAdjust="spacing" textLength="331" x="42" y="437.3648">testTspGreedyVertex_DisconnectedGraph(): void</text><ellipse cx="33" cy="450.0621" fill="#84BE84" rx="3" ry="3" style="stroke:#038048;stroke-width:1.0;"/><text fill="#000000" font-family="sans-serif" font-size="14" lengthAdjust="spacing" textLength="370" x="42" y="453.8531">testTspGreedyVertex_StartFromDifferentVertex(): void</text></g></a><!--class ual.eda2.practica03.TSPGreedyEdgesTest--><a href="TSPGreedyEdgesTest.html" target="_top" title="TSPGreedyEdgesTest.html" xlink:actuate="onRequest" xlink:href="TSPGreedyEdgesTest.html" xlink:show="new" xlink:title="TSPGreedyEdgesTest.html" xlink:type="simple"><g id="elem_ual.eda2.practica03.TSPGreedyEdgesTest"><rect codeLine="36" fill="#F1F1F1" height="146.9297" id="ual.eda2.practica03.TSPGreedyEdgesTest" rx="2.5" ry="2.5" style="stroke:#181818;stroke-width:0.5;" width="375" x="452.5" y="297.39"/><ellipse cx="564.25" cy="313.39" fill="#ADD1B2" rx="11" ry="11" style="stroke:#181818;stroke-width:1.0;"/><path d="M566.7231,319.5331 Q566.1421,319.8319 565.5029,319.9813 Q564.8638,320.1307 564.1582,320.1307 Q561.6514,320.1307 560.3315,318.4789 Q559.0117,316.827 559.0117,313.7059 Q559.0117,310.5765 560.3315,308.9247 Q561.6514,307.2728 564.1582,307.2728 Q564.8638,307.2728 565.5112,307.4222 Q566.1587,307.5716 566.7231,307.8705 L566.7231,310.5931 Q566.0923,310.0121 565.4988,309.7423 Q564.9053,309.4725 564.2744,309.4725 Q562.9297,309.4725 562.2449,310.5392 Q561.5601,311.6058 561.5601,313.7059 Q561.5601,315.7977 562.2449,316.8644 Q562.9297,317.931 564.2744,317.931 Q564.9053,317.931 565.4988,317.6612 Q566.0923,317.3915 566.7231,316.8104 Z " fill="#000000"/><text fill="#000000" font-family="sans-serif" font-size="14" lengthAdjust="spacing" textLength="143" x="584.75" y="318.681">TSPGreedyEdgesTest</text><line style="stroke:#181818;stroke-width:0.5;" x1="453.5" x2="826.5" y1="329.39" y2="329.39"/><line style="stroke:#181818;stroke-width:0.5;" x1="453.5" x2="826.5" y1="337.39" y2="337.39"/><ellipse cx="463.5" cy="351.1341" fill="#84BE84" rx="3" ry="3" style="stroke:#038048;stroke-width:1.0;"/><text fill="#000000" font-family="sans-serif" font-size="14" lengthAdjust="spacing" textLength="297" x="472.5" y="354.9252">testTspGreedyEdges_NullStartVertex(): void</text><ellipse cx="463.5" cy="367.6224" fill="#84BE84" rx="3" ry="3" style="stroke:#038048;stroke-width:1.0;"/><text fill="#000000" font-family="sans-serif" font-size="14" lengthAdjust="spacing" textLength="349" x="472.5" y="371.4134">testTspGreedyEdges_StartVertexNotInGraph(): void</text><ellipse cx="463.5" cy="384.1107" fill="#84BE84" rx="3" ry="3" style="stroke:#038048;stroke-width:1.0;"/><text fill="#000000" font-family="sans-serif" font-size="14" lengthAdjust="spacing" textLength="280" x="472.5" y="387.9017">testTspGreedyEdges_SingleVertex(): void</text><ellipse cx="463.5" cy="400.599" fill="#84BE84" rx="3" ry="3" style="stroke:#038048;stroke-width:1.0;"/><text fill="#000000" font-family="sans-serif" font-size="14" lengthAdjust="spacing" textLength="338" x="472.5" y="404.39">testTspGreedyEdges_SmallCompleteGraph(): void</text><ellipse cx="463.5" cy="417.0873" fill="#84BE84" rx="3" ry="3" style="stroke:#038048;stroke-width:1.0;"/><text fill="#000000" font-family="sans-serif" font-size="14" lengthAdjust="spacing" textLength="327" x="472.5" y="420.8783">testTspGreedyEdges_DisconnectedGraph(): void</text><ellipse cx="463.5" cy="433.5755" fill="#84BE84" rx="3" ry="3" style="stroke:#038048;stroke-width:1.0;"/><text fill="#000000" font-family="sans-serif" font-size="14" lengthAdjust="spacing" textLength="326" x="472.5" y="437.3666">testTspGreedyEdges_VariedWeightGraph(): void</text></g></a><text fill="#888888" font-family="sans-serif" font-size="10" lengthAdjust="spacing" textLength="182" x="327" y="492.478">UMLDoclet 2.1.0, PlantUML 1.2022.14</text><!--SRC=[xPHTJy8m58Rl-HMzCO5e5iGxBvMFa20XCl624DDqXz6aQsTxDYN6_sxP5c1yIBTBOs-Qd9rd_NZUZH1298t0n9G1IQZm8A0TBzQK8MUqVKU-6WrI32QeCSIVJXvqWj1Nce4F1ibyVbJpLXY9nSBIP6zSettac_WPMA8DJ-5jd0Wnq3HUDLlt95KykD3VYs9SLm66CgM21rEa6cUW4JuTmIcNeO1AYF-XDlsSWN4a7bKK2q2eSg8HrM4beCkNIz0WCRi4Uwo9uXAFj_XzmlJsBJlHfTA_vx_XUQ01WdL-2plLXzNVRUztPy9TPPJ0FMYiS2Wltq09TtLJNZEYGhWxAh6P9bqHwhtRN-qhy7255RRPvOOfAO4X11KNp6wrhrMq3SaPB-V3qGj2C8VPs1PTef4rrqX6pjKDHa6xVkObg4ukShIEgvoSKSqXoCDncYmS5HEpCa6JfLARwULfr5NCxfTql5klVKCcWagqLNALWlrFADbi_G00]--></g></svg>