<?xml version="1.0" encoding="UTF-8" standalone="no"?><svg xmlns="http://www.w3.org/2000/svg" xmlns:xlink="http://www.w3.org/1999/xlink" contentStyleType="text/css" height="309px" preserveAspectRatio="none" style="width:410px;height:309px;background:#FFFFFF;" version="1.1" viewBox="0 0 410 309" width="410px" zoomAndPan="magnify"><defs/><g><!--class ual.eda2.practica03.TSPGreedyVertexTest--><a href="TSPGreedyVertexTest.html" target="_top" title="TSPGreedyVertexTest.html" xlink:actuate="onRequest" xlink:href="TSPGreedyVertexTest.html" xlink:show="new" xlink:title="TSPGreedyVertexTest.html" xlink:type="simple"><g id="elem_ual.eda2.practica03.TSPGreedyVertexTest"><rect codeLine="5" fill="#F1F1F1" height="178.1719" id="ual.eda2.practica03.TSPGreedyVertexTest" rx="2.5" ry="2.5" style="stroke:#181818;stroke-width:0.5;" width="396" x="7" y="105.27"/><ellipse cx="127.25" cy="124.4028" fill="#ADD1B2" rx="11" ry="11" style="stroke:#181818;stroke-width:1.0;"/><path d="M129.7231,130.5459 Q129.1421,130.8447 128.5029,130.9941 Q127.8638,131.1435 127.1582,131.1435 Q124.6514,131.1435 123.3315,129.4917 Q122.0117,127.8398 122.0117,124.7187 Q122.0117,121.5893 123.3315,119.9375 Q124.6514,118.2856 127.1582,118.2856 Q127.8638,118.2856 128.5112,118.435 Q129.1587,118.5845 129.7231,118.8833 L129.7231,121.6059 Q129.0923,121.0249 128.4988,120.7551 Q127.9053,120.4853 127.2744,120.4853 Q125.9297,120.4853 125.2449,121.552 Q124.5601,122.6186 124.5601,124.7187 Q124.5601,126.8105 125.2449,127.8772 Q125.9297,128.9438 127.2744,128.9438 Q127.9053,128.9438 128.4988,128.6741 Q129.0923,128.4043 129.7231,127.8232 Z " fill="#000000"/><text fill="#000000" font-family="sans-serif" font-size="14" lengthAdjust="spacing" textLength="147" x="147.75" y="123.8052">TSPGreedyVertexTest</text><text fill="#000000" font-family="sans-serif" font-size="10" lengthAdjust="spacing" textLength="96" x="173.25" y="136.4263">ual.eda2.practica03</text><line style="stroke:#181818;stroke-width:0.5;" x1="8" x2="402" y1="143.5356" y2="143.5356"/><ellipse cx="18" cy="157.2798" fill="#84BE84" rx="3" ry="3" style="stroke:#038048;stroke-width:1.0;"/><text fill="#000000" font-family="sans-serif" font-size="14" lengthAdjust="spacing" textLength="301" x="27" y="161.0708">testTspGreedyVertex_NullStartVertex(): void</text><ellipse cx="18" cy="173.768" fill="#84BE84" rx="3" ry="3" style="stroke:#038048;stroke-width:1.0;"/><text fill="#000000" font-family="sans-serif" font-size="14" lengthAdjust="spacing" textLength="353" x="27" y="177.5591">testTspGreedyVertex_StartVertexNotInGraph(): void</text><ellipse cx="18" cy="190.2563" fill="#84BE84" rx="3" ry="3" style="stroke:#038048;stroke-width:1.0;"/><text fill="#000000" font-family="sans-serif" font-size="14" lengthAdjust="spacing" textLength="280" x="27" y="194.0473">testTspGreedyVertex_TwoVertices(): void</text><ellipse cx="18" cy="206.7446" fill="#84BE84" rx="3" ry="3" style="stroke:#038048;stroke-width:1.0;"/><text fill="#000000" font-family="sans-serif" font-size="14" lengthAdjust="spacing" textLength="342" x="27" y="210.5356">testTspGreedyVertex_SmallCompleteGraph(): void</text><ellipse cx="18" cy="223.2329" fill="#84BE84" rx="3" ry="3" style="stroke:#038048;stroke-width:1.0;"/><text fill="#000000" font-family="sans-serif" font-size="14" lengthAdjust="spacing" textLength="283" x="27" y="227.0239">testTspGreedyVertex_LargerGraph(): void</text><ellipse cx="18" cy="239.7212" fill="#84BE84" rx="3" ry="3" style="stroke:#038048;stroke-width:1.0;"/><text fill="#000000" font-family="sans-serif" font-size="14" lengthAdjust="spacing" textLength="289" x="27" y="243.5122">testTspGreedyVertex_EqualWeights(): void</text><ellipse cx="18" cy="256.2095" fill="#84BE84" rx="3" ry="3" style="stroke:#038048;stroke-width:1.0;"/><text fill="#000000" font-family="sans-serif" font-size="14" lengthAdjust="spacing" textLength="331" x="27" y="260.0005">testTspGreedyVertex_DisconnectedGraph(): void</text><ellipse cx="18" cy="272.6977" fill="#84BE84" rx="3" ry="3" style="stroke:#038048;stroke-width:1.0;"/><text fill="#000000" font-family="sans-serif" font-size="14" lengthAdjust="spacing" textLength="370" x="27" y="276.4888">testTspGreedyVertex_StartFromDifferentVertex(): void</text></g></a><!--class java.lang.Object--><g id="elem_java.lang.Object"><rect codeLine="16" fill="#F1F1F1" height="38.2656" id="java.lang.Object" rx="2.5" ry="2.5" style="stroke:#181818;stroke-width:0.5;" width="76" x="167" y="7"/><ellipse cx="182" cy="26.1328" fill="#ADD1B2" rx="11" ry="11" style="stroke:#181818;stroke-width:1.0;"/><path d="M184.4731,32.2759 Q183.8921,32.5747 183.2529,32.7241 Q182.6138,32.8735 181.9082,32.8735 Q179.4014,32.8735 178.0815,31.2217 Q176.7617,29.5698 176.7617,26.4487 Q176.7617,23.3193 178.0815,21.6675 Q179.4014,20.0156 181.9082,20.0156 Q182.6138,20.0156 183.2612,20.165 Q183.9087,20.3145 184.4731,20.6133 L184.4731,23.3359 Q183.8423,22.7549 183.2488,22.4851 Q182.6553,22.2153 182.0244,22.2153 Q180.6797,22.2153 179.9949,23.282 Q179.3101,24.3486 179.3101,26.4487 Q179.3101,28.5405 179.9949,29.6072 Q180.6797,30.6738 182.0244,30.6738 Q182.6553,30.6738 183.2488,30.4041 Q183.8423,30.1343 184.4731,29.5532 Z " fill="#000000"/><text fill="#000000" font-family="sans-serif" font-size="14" lengthAdjust="spacing" textLength="44" x="196" y="25.5352">Object</text><text fill="#000000" font-family="sans-serif" font-size="10" lengthAdjust="spacing" textLength="44" x="196" y="38.1563">java.lang</text></g><!--reverse link java.lang.Object to ual.eda2.practica03.TSPGreedyVertexTest--><g id="link_java.lang.Object_ual.eda2.practica03.TSPGreedyVertexTest"><path codeLine="18" d="M205,66.69 C205,78.27 205,91.43 205,104.78 " fill="none" id="java.lang.Object-backto-ual.eda2.practica03.TSPGreedyVertexTest" style="stroke:#181818;stroke-width:1.0;"/><polygon fill="none" points="198,67.07,205,47.07,212,67.07,198,67.07" style="stroke:#181818;stroke-width:1.0;"/></g><text fill="#888888" font-family="sans-serif" font-size="10" lengthAdjust="spacing" textLength="182" x="107" y="299.1098">UMLDoclet 2.1.0, PlantUML 1.2022.14</text><!--SRC=[bL9DJm8n4BtxAoOa9X2b0VH421THOe980ke1YHcxisn9jrtR0SMF_svPY25aOvPUsdapR-Pb-W00F34OJCbdA6bC6Jfawy1OGoSX3OcA22ZDU0sn8XtvGpGbJco0Srngz1ug7Qy-gTsyx4x6exuZYjQFv9W-9kJvsUooZUuIjQ08Mo9pA5b9R5nK03qKuAAW4qod1QX8EDMp6NpbWZRdZ0CyyTb-vSjmgVMOqV4shjRQiB8g-f-qHnXQlZLzXrbIZZfvjvkNakHBpafHwokRPfgOZXWqG3SdTmJX-Yti-udKFE6IqdhAIsiCIQReY47vzcwSJNigZicHAThzJx6HxbyNOToUTnQuGg7Hp7F7_4LYMxXjSeX2vxjUB-kkdOwWaXp4rcwkXxj1pyhm8T0IJT4uXr7epW65qnKvhwofrdu1]--></g></svg>