<?xml version="1.0" encoding="UTF-8" standalone="no"?><svg xmlns="http://www.w3.org/2000/svg" xmlns:xlink="http://www.w3.org/1999/xlink" contentStyleType="text/css" height="276px" preserveAspectRatio="none" style="width:389px;height:276px;background:#FFFFFF;" version="1.1" viewBox="0 0 389 276" width="389px" zoomAndPan="magnify"><defs/><g><!--class ual.eda2.practica03.TSPGreedyEdgesTest--><a href="TSPGreedyEdgesTest.html" target="_top" title="TSPGreedyEdgesTest.html" xlink:actuate="onRequest" xlink:href="TSPGreedyEdgesTest.html" xlink:show="new" xlink:title="TSPGreedyEdgesTest.html" xlink:type="simple"><g id="elem_ual.eda2.practica03.TSPGreedyEdgesTest"><rect codeLine="5" fill="#F1F1F1" height="145.1953" id="ual.eda2.practica03.TSPGreedyEdgesTest" rx="2.5" ry="2.5" style="stroke:#181818;stroke-width:0.5;" width="375" x="7" y="105.26"/><ellipse cx="118.75" cy="124.3928" fill="#ADD1B2" rx="11" ry="11" style="stroke:#181818;stroke-width:1.0;"/><path d="M121.2231,130.5359 Q120.6421,130.8347 120.0029,130.9841 Q119.3638,131.1335 118.6582,131.1335 Q116.1514,131.1335 114.8315,129.4817 Q113.5117,127.8298 113.5117,124.7087 Q113.5117,121.5793 114.8315,119.9275 Q116.1514,118.2756 118.6582,118.2756 Q119.3638,118.2756 120.0112,118.425 Q120.6587,118.5745 121.2231,118.8733 L121.2231,121.5959 Q120.5923,121.0149 119.9988,120.7451 Q119.4053,120.4753 118.7744,120.4753 Q117.4297,120.4753 116.7449,121.542 Q116.0601,122.6086 116.0601,124.7087 Q116.0601,126.8005 116.7449,127.8672 Q117.4297,128.9338 118.7744,128.9338 Q119.4053,128.9338 119.9988,128.6641 Q120.5923,128.3943 121.2231,127.8132 Z " fill="#000000"/><text fill="#000000" font-family="sans-serif" font-size="14" lengthAdjust="spacing" textLength="143" x="139.25" y="123.7952">TSPGreedyEdgesTest</text><text fill="#000000" font-family="sans-serif" font-size="10" lengthAdjust="spacing" textLength="96" x="162.75" y="136.4163">ual.eda2.practica03</text><line style="stroke:#181818;stroke-width:0.5;" x1="8" x2="381" y1="143.5256" y2="143.5256"/><ellipse cx="18" cy="157.2698" fill="#84BE84" rx="3" ry="3" style="stroke:#038048;stroke-width:1.0;"/><text fill="#000000" font-family="sans-serif" font-size="14" lengthAdjust="spacing" textLength="297" x="27" y="161.0608">testTspGreedyEdges_NullStartVertex(): void</text><ellipse cx="18" cy="173.758" fill="#84BE84" rx="3" ry="3" style="stroke:#038048;stroke-width:1.0;"/><text fill="#000000" font-family="sans-serif" font-size="14" lengthAdjust="spacing" textLength="349" x="27" y="177.5491">testTspGreedyEdges_StartVertexNotInGraph(): void</text><ellipse cx="18" cy="190.2463" fill="#84BE84" rx="3" ry="3" style="stroke:#038048;stroke-width:1.0;"/><text fill="#000000" font-family="sans-serif" font-size="14" lengthAdjust="spacing" textLength="280" x="27" y="194.0373">testTspGreedyEdges_SingleVertex(): void</text><ellipse cx="18" cy="206.7346" fill="#84BE84" rx="3" ry="3" style="stroke:#038048;stroke-width:1.0;"/><text fill="#000000" font-family="sans-serif" font-size="14" lengthAdjust="spacing" textLength="338" x="27" y="210.5256">testTspGreedyEdges_SmallCompleteGraph(): void</text><ellipse cx="18" cy="223.2229" fill="#84BE84" rx="3" ry="3" style="stroke:#038048;stroke-width:1.0;"/><text fill="#000000" font-family="sans-serif" font-size="14" lengthAdjust="spacing" textLength="327" x="27" y="227.0139">testTspGreedyEdges_DisconnectedGraph(): void</text><ellipse cx="18" cy="239.7112" fill="#84BE84" rx="3" ry="3" style="stroke:#038048;stroke-width:1.0;"/><text fill="#000000" font-family="sans-serif" font-size="14" lengthAdjust="spacing" textLength="326" x="27" y="243.5022">testTspGreedyEdges_VariedWeightGraph(): void</text></g></a><!--class java.lang.Object--><g id="elem_java.lang.Object"><rect codeLine="14" fill="#F1F1F1" height="38.2656" id="java.lang.Object" rx="2.5" ry="2.5" style="stroke:#181818;stroke-width:0.5;" width="76" x="156.5" y="7"/><ellipse cx="171.5" cy="26.1328" fill="#ADD1B2" rx="11" ry="11" style="stroke:#181818;stroke-width:1.0;"/><path d="M173.9731,32.2759 Q173.3921,32.5747 172.7529,32.7241 Q172.1138,32.8735 171.4082,32.8735 Q168.9014,32.8735 167.5815,31.2217 Q166.2617,29.5698 166.2617,26.4487 Q166.2617,23.3193 167.5815,21.6675 Q168.9014,20.0156 171.4082,20.0156 Q172.1138,20.0156 172.7612,20.165 Q173.4087,20.3145 173.9731,20.6133 L173.9731,23.3359 Q173.3423,22.7549 172.7488,22.4851 Q172.1553,22.2153 171.5244,22.2153 Q170.1797,22.2153 169.4949,23.282 Q168.8101,24.3486 168.8101,26.4487 Q168.8101,28.5405 169.4949,29.6072 Q170.1797,30.6738 171.5244,30.6738 Q172.1553,30.6738 172.7488,30.4041 Q173.3423,30.1343 173.9731,29.5532 Z " fill="#000000"/><text fill="#000000" font-family="sans-serif" font-size="14" lengthAdjust="spacing" textLength="44" x="185.5" y="25.5352">Object</text><text fill="#000000" font-family="sans-serif" font-size="10" lengthAdjust="spacing" textLength="44" x="185.5" y="38.1563">java.lang</text></g><!--reverse link java.lang.Object to ual.eda2.practica03.TSPGreedyEdgesTest--><g id="link_java.lang.Object_ual.eda2.practica03.TSPGreedyEdgesTest"><path codeLine="16" d="M194.5,66.96 C194.5,78.69 194.5,91.89 194.5,104.97 " fill="none" id="java.lang.Object-backto-ual.eda2.practica03.TSPGreedyEdgesTest" style="stroke:#181818;stroke-width:1.0;"/><polygon fill="none" points="187.5,67.01,194.5,47.01,201.5,67.01,187.5,67.01" style="stroke:#181818;stroke-width:1.0;"/></g><text fill="#888888" font-family="sans-serif" font-size="10" lengthAdjust="spacing" textLength="182" x="96.5" y="266.1233">UMLDoclet 2.1.0, PlantUML 1.2022.14</text><!--SRC=[bP5FQm8n4CNl_HI3K51QWzgUHBpK8eNM2bfxi5AcoRWRoIPBCahjd-_Uk4eHbRBD9UGtyzuCUG00WHWiPXHob3IY73soys2TfRDOXbGh0ifoNiDSar7Xa6R4gOkuuD9W253f1Fr1xUPrTpmQzZsHMj-gXCAO0h_ONR7HNQ8HfB0bSe-IjSJ6LGKmm0akZerWEZs68kNCp6RmMMopEHSSyJZaUuslWwKn8qRF4_9CxzLQ6rPEgpyrU_q3ntUsxp5FoocrJGpzPrI6njouB3V4L7vEJmVfh2N9fCgh9kWrgMVIISh7gk_JiJw-BUAOlIWNk49Xq2P5WByliMtScXnIw7pLwoN3tgr1bid3tBdDzVHmttCo_X6qH5CqBc4OpJbIE5-H3zhPQkq7]--></g></svg>