<?xml version="1.0" encoding="UTF-8" standalone="no"?><svg xmlns="http://www.w3.org/2000/svg" xmlns:xlink="http://www.w3.org/1999/xlink" contentStyleType="text/css" height="309px" preserveAspectRatio="none" style="width:365px;height:309px;background:#FFFFFF;" version="1.1" viewBox="0 0 365 309" width="365px" zoomAndPan="magnify"><defs/><g><!--class ual.eda2.practica03.TSPBruteForceTest--><a href="TSPBruteForceTest.html" target="_top" title="TSPBruteForceTest.html" xlink:actuate="onRequest" xlink:href="TSPBruteForceTest.html" xlink:show="new" xlink:title="TSPBruteForceTest.html" xlink:type="simple"><g id="elem_ual.eda2.practica03.TSPBruteForceTest"><rect codeLine="5" fill="#F1F1F1" height="178.1719" id="ual.eda2.practica03.TSPBruteForceTest" rx="2.5" ry="2.5" style="stroke:#181818;stroke-width:0.5;" width="351" x="7" y="105.27"/><ellipse cx="114.25" cy="124.4028" fill="#ADD1B2" rx="11" ry="11" style="stroke:#181818;stroke-width:1.0;"/><path d="M116.7231,130.5459 Q116.1421,130.8447 115.5029,130.9941 Q114.8638,131.1435 114.1582,131.1435 Q111.6514,131.1435 110.3315,129.4917 Q109.0117,127.8398 109.0117,124.7187 Q109.0117,121.5893 110.3315,119.9375 Q111.6514,118.2856 114.1582,118.2856 Q114.8638,118.2856 115.5112,118.435 Q116.1587,118.5845 116.7231,118.8833 L116.7231,121.6059 Q116.0923,121.0249 115.4988,120.7551 Q114.9053,120.4853 114.2744,120.4853 Q112.9297,120.4853 112.2449,121.552 Q111.5601,122.6186 111.5601,124.7187 Q111.5601,126.8105 112.2449,127.8772 Q112.9297,128.9438 114.2744,128.9438 Q114.9053,128.9438 115.4988,128.6741 Q116.0923,128.4043 116.7231,127.8232 Z " fill="#000000"/><text fill="#000000" font-family="sans-serif" font-size="14" lengthAdjust="spacing" textLength="128" x="134.75" y="123.8052">TSPBruteForceTest</text><text fill="#000000" font-family="sans-serif" font-size="10" lengthAdjust="spacing" textLength="96" x="150.75" y="136.4263">ual.eda2.practica03</text><line style="stroke:#181818;stroke-width:0.5;" x1="8" x2="357" y1="143.5356" y2="143.5356"/><ellipse cx="18" cy="157.2798" fill="#84BE84" rx="3" ry="3" style="stroke:#038048;stroke-width:1.0;"/><text fill="#000000" font-family="sans-serif" font-size="14" lengthAdjust="spacing" textLength="238" x="27" y="161.0708">testTspRecursive_NullGraph(): void</text><ellipse cx="18" cy="173.768" fill="#84BE84" rx="3" ry="3" style="stroke:#038048;stroke-width:1.0;"/><text fill="#000000" font-family="sans-serif" font-size="14" lengthAdjust="spacing" textLength="253" x="27" y="177.5591">testTspRecursive_EmptyGraph(): void</text><ellipse cx="18" cy="190.2563" fill="#84BE84" rx="3" ry="3" style="stroke:#038048;stroke-width:1.0;"/><text fill="#000000" font-family="sans-serif" font-size="14" lengthAdjust="spacing" textLength="291" x="27" y="194.0473">testTspRecursive_InvalidStartVertex(): void</text><ellipse cx="18" cy="206.7446" fill="#84BE84" rx="3" ry="3" style="stroke:#038048;stroke-width:1.0;"/><text fill="#000000" font-family="sans-serif" font-size="14" lengthAdjust="spacing" textLength="256" x="27" y="210.5356">testTspRecursive_SingleVertex(): void</text><ellipse cx="18" cy="223.2329" fill="#84BE84" rx="3" ry="3" style="stroke:#038048;stroke-width:1.0;"/><text fill="#000000" font-family="sans-serif" font-size="14" lengthAdjust="spacing" textLength="252" x="27" y="227.0239">testTspRecursive_TwoVertices(): void</text><ellipse cx="18" cy="239.7212" fill="#84BE84" rx="3" ry="3" style="stroke:#038048;stroke-width:1.0;"/><text fill="#000000" font-family="sans-serif" font-size="14" lengthAdjust="spacing" textLength="277" x="27" y="243.5122">testTspRecursive_CompleteGraph(): void</text><ellipse cx="18" cy="256.2095" fill="#84BE84" rx="3" ry="3" style="stroke:#038048;stroke-width:1.0;"/><text fill="#000000" font-family="sans-serif" font-size="14" lengthAdjust="spacing" textLength="249" x="27" y="260.0005">testTspRecursive_LargeGraph(): void</text><ellipse cx="18" cy="272.6977" fill="#84BE84" rx="3" ry="3" style="stroke:#038048;stroke-width:1.0;"/><text fill="#000000" font-family="sans-serif" font-size="14" lengthAdjust="spacing" textLength="325" x="27" y="276.4888">testTspRecursive_DifferentStartingPoints(): void</text></g></a><!--class java.lang.Object--><g id="elem_java.lang.Object"><rect codeLine="16" fill="#F1F1F1" height="38.2656" id="java.lang.Object" rx="2.5" ry="2.5" style="stroke:#181818;stroke-width:0.5;" width="76" x="144.5" y="7"/><ellipse cx="159.5" cy="26.1328" fill="#ADD1B2" rx="11" ry="11" style="stroke:#181818;stroke-width:1.0;"/><path d="M161.9731,32.2759 Q161.3921,32.5747 160.7529,32.7241 Q160.1138,32.8735 159.4082,32.8735 Q156.9014,32.8735 155.5815,31.2217 Q154.2617,29.5698 154.2617,26.4487 Q154.2617,23.3193 155.5815,21.6675 Q156.9014,20.0156 159.4082,20.0156 Q160.1138,20.0156 160.7612,20.165 Q161.4087,20.3145 161.9731,20.6133 L161.9731,23.3359 Q161.3423,22.7549 160.7488,22.4851 Q160.1553,22.2153 159.5244,22.2153 Q158.1797,22.2153 157.4949,23.282 Q156.8101,24.3486 156.8101,26.4487 Q156.8101,28.5405 157.4949,29.6072 Q158.1797,30.6738 159.5244,30.6738 Q160.1553,30.6738 160.7488,30.4041 Q161.3423,30.1343 161.9731,29.5532 Z " fill="#000000"/><text fill="#000000" font-family="sans-serif" font-size="14" lengthAdjust="spacing" textLength="44" x="173.5" y="25.5352">Object</text><text fill="#000000" font-family="sans-serif" font-size="10" lengthAdjust="spacing" textLength="44" x="173.5" y="38.1563">java.lang</text></g><!--reverse link java.lang.Object to ual.eda2.practica03.TSPBruteForceTest--><g id="link_java.lang.Object_ual.eda2.practica03.TSPBruteForceTest"><path codeLine="18" d="M182.5,66.69 C182.5,78.27 182.5,91.43 182.5,104.78 " fill="none" id="java.lang.Object-backto-ual.eda2.practica03.TSPBruteForceTest" style="stroke:#181818;stroke-width:1.0;"/><polygon fill="none" points="175.5,67.07,182.5,47.07,189.5,67.07,175.5,67.07" style="stroke:#181818;stroke-width:1.0;"/></g><text fill="#888888" font-family="sans-serif" font-size="10" lengthAdjust="spacing" textLength="182" x="84.5" y="299.1098">UMLDoclet 2.1.0, PlantUML 1.2022.14</text><!--SRC=[ZP9VIyCm5CNV_HINWR2XAzlqQOmzw5I4gSDMN-QGQtgxPgH9IMxh_-zksWrHDwHv2VdTayivoGK0SCIWCIENew2GShJ8ne8sclPy6L8P4r2MyoiaabJi_jACE3KUrrmeT0vQ8oVVQDW_7aVXxCGMJEV62eh8yOFUr7hZ0bL0CGw2tA9WAR1tr09qi8C7MtrWFjzYGSgPMYpWlRPIhGFsE7BvBOd2EbdIutMXr8N5F6rtXb0Q6V-ZFQloDHLVwXALZ4D6o_TacLuQN0gbNYfgB8-UJQMLWbm3zQd9SaLCJHDCqIuRYoSoISYIvZgmZp4pKlDlMv-xP-BcQKNYvo2iiCH0eLxMt_zz2jR2TPE_54OVtMwpKTcuy5x9Gc9CjTrTJIT6-DU1GT0FUeSmyxtPKzWloISqkjtv0W00]--></g></svg>