<?xml version="1.0" encoding="UTF-8" standalone="no"?><svg xmlns="http://www.w3.org/2000/svg" xmlns:xlink="http://www.w3.org/1999/xlink" contentStyleType="text/css" height="414px" preserveAspectRatio="none" style="width:982px;height:414px;background:#FFFFFF;" version="1.1" viewBox="0 0 982 414" width="982px" zoomAndPan="magnify"><defs/><g><!--class ual.eda2.practica01.ClosestPairDyVImproved--><a href="ClosestPairDyVImproved.html" target="_top" title="ClosestPairDyVImproved.html" xlink:actuate="onRequest" xlink:href="ClosestPairDyVImproved.html" xlink:show="new" xlink:title="ClosestPairDyVImproved.html" xlink:type="simple"><g id="elem_ual.eda2.practica01.ClosestPairDyVImproved"><rect codeLine="5" fill="#F1F1F1" height="186.1719" id="ual.eda2.practica01.ClosestPairDyVImproved" rx="2.5" ry="2.5" style="stroke:#181818;stroke-width:0.5;" width="342" x="274" y="105.26"/><ellipse cx="357.25" cy="124.3928" fill="#ADD1B2" rx="11" ry="11" style="stroke:#181818;stroke-width:1.0;"/><path d="M359.7231,130.5359 Q359.1421,130.8347 358.5029,130.9841 Q357.8638,131.1335 357.1582,131.1335 Q354.6514,131.1335 353.3315,129.4817 Q352.0117,127.8298 352.0117,124.7087 Q352.0117,121.5793 353.3315,119.9275 Q354.6514,118.2756 357.1582,118.2756 Q357.8638,118.2756 358.5112,118.425 Q359.1587,118.5745 359.7231,118.8733 L359.7231,121.5959 Q359.0923,121.0149 358.4988,120.7451 Q357.9053,120.4753 357.2744,120.4753 Q355.9297,120.4753 355.2449,121.542 Q354.5601,122.6086 354.5601,124.7087 Q354.5601,126.8005 355.2449,127.8672 Q355.9297,128.9338 357.2744,128.9338 Q357.9053,128.9338 358.4988,128.6641 Q359.0923,128.3943 359.7231,127.8132 Z " fill="#000000"/><text fill="#000000" font-family="sans-serif" font-size="14" lengthAdjust="spacing" textLength="167" x="377.75" y="123.7952">ClosestPairDyVImproved</text><text fill="#000000" font-family="sans-serif" font-size="10" lengthAdjust="spacing" textLength="96" x="413.25" y="136.4163">ual.eda2.practica01</text><line style="stroke:#181818;stroke-width:0.5;" x1="275" x2="615" y1="143.5256" y2="143.5256"/><rect fill="none" height="6" style="stroke:#C82930;stroke-width:1.0;" width="6" x="282" y="154.2698"/><text fill="#000000" font-family="sans-serif" font-size="14" lengthAdjust="spacing" textLength="81" x="294" y="161.0608">best1: Point</text><rect fill="none" height="6" style="stroke:#C82930;stroke-width:1.0;" width="6" x="282" y="170.758"/><text fill="#000000" font-family="sans-serif" font-size="14" lengthAdjust="spacing" textLength="81" x="294" y="177.5491">best2: Point</text><rect fill="none" height="6" style="stroke:#C82930;stroke-width:1.0;" width="6" x="282" y="187.2463"/><text fill="#000000" font-family="sans-serif" font-size="14" lengthAdjust="spacing" textLength="143" x="294" y="194.0373">bestDistance: double</text><line style="stroke:#181818;stroke-width:0.5;" x1="275" x2="615" y1="200.9905" y2="200.9905"/><ellipse cx="285" cy="214.7346" fill="#84BE84" rx="3" ry="3" style="stroke:#038048;stroke-width:1.0;"/><text fill="#000000" font-family="sans-serif" font-size="14" lengthAdjust="spacing" text-decoration="underline" textLength="201" x="294" y="218.5256">distance(Point, Point): double</text><ellipse cx="285" cy="231.2229" fill="#84BE84" rx="3" ry="3" style="stroke:#038048;stroke-width:1.0;"/><text fill="#000000" font-family="sans-serif" font-size="14" lengthAdjust="spacing" textLength="168" x="294" y="235.0139">ClosestPair(Point[]): void</text><ellipse cx="285" cy="247.7112" fill="#84BE84" rx="3" ry="3" style="stroke:#038048;stroke-width:1.0;"/><text fill="#000000" font-family="sans-serif" font-size="14" lengthAdjust="spacing" textLength="316" x="294" y="251.5022">closest(Point[], Point[], Point[], int, int): double</text><rect fill="#F24D5C" height="6" style="stroke:#C82930;stroke-width:1.0;" width="6" x="282" y="261.1995"/><text fill="#000000" font-family="sans-serif" font-size="14" lengthAdjust="spacing" textLength="267" x="294" y="267.9905">merge(Point[], Point[], int, int, int): void</text><ellipse cx="285" cy="280.6877" fill="#84BE84" rx="3" ry="3" style="stroke:#038048;stroke-width:1.0;"/><text fill="#000000" font-family="sans-serif" font-size="14" lengthAdjust="spacing" text-decoration="underline" textLength="132" x="294" y="284.4788">main(String[]): void</text></g></a><!--class java.lang.Object--><g id="elem_java.lang.Object"><rect codeLine="16" fill="#F1F1F1" height="38.2656" id="java.lang.Object" rx="2.5" ry="2.5" style="stroke:#181818;stroke-width:0.5;" width="76" x="407" y="7"/><ellipse cx="422" cy="26.1328" fill="#ADD1B2" rx="11" ry="11" style="stroke:#181818;stroke-width:1.0;"/><path d="M424.4731,32.2759 Q423.8921,32.5747 423.2529,32.7241 Q422.6138,32.8735 421.9082,32.8735 Q419.4014,32.8735 418.0815,31.2217 Q416.7617,29.5698 416.7617,26.4487 Q416.7617,23.3193 418.0815,21.6675 Q419.4014,20.0156 421.9082,20.0156 Q422.6138,20.0156 423.2612,20.165 Q423.9087,20.3145 424.4731,20.6133 L424.4731,23.3359 Q423.8423,22.7549 423.2488,22.4851 Q422.6553,22.2153 422.0244,22.2153 Q420.6797,22.2153 419.9949,23.282 Q419.3101,24.3486 419.3101,26.4487 Q419.3101,28.5405 419.9949,29.6072 Q420.6797,30.6738 422.0244,30.6738 Q422.6553,30.6738 423.2488,30.4041 Q423.8423,30.1343 424.4731,29.5532 Z " fill="#000000"/><text fill="#000000" font-family="sans-serif" font-size="14" lengthAdjust="spacing" textLength="44" x="436" y="25.5352">Object</text><text fill="#000000" font-family="sans-serif" font-size="10" lengthAdjust="spacing" textLength="44" x="436" y="38.1563">java.lang</text></g><!--class ual.eda2.practica01.ClosestPairDyVImproved.Point--><a href="ClosestPairDyVImproved.Point.html" target="_top" title="ClosestPairDyVImproved.Point.html" xlink:actuate="onRequest" xlink:href="ClosestPairDyVImproved.Point.html" xlink:show="new" xlink:title="ClosestPairDyVImproved.Point.html" xlink:type="simple"><g id="elem_ual.eda2.practica01.ClosestPairDyVImproved.Point"><rect codeLine="17" fill="#F1F1F1" height="38.2656" id="ual.eda2.practica01.ClosestPairDyVImproved.Point" rx="2.5" ry="2.5" style="stroke:#181818;stroke-width:0.5;" width="238" x="7" y="351.43"/><ellipse cx="22" cy="370.5628" fill="#ADD1B2" rx="11" ry="11" style="stroke:#181818;stroke-width:1.0;"/><path d="M24.4731,376.7059 Q23.8921,377.0047 23.2529,377.1541 Q22.6138,377.3035 21.9082,377.3035 Q19.4014,377.3035 18.0815,375.6517 Q16.7617,373.9998 16.7617,370.8787 Q16.7617,367.7493 18.0815,366.0975 Q19.4014,364.4456 21.9082,364.4456 Q22.6138,364.4456 23.2612,364.595 Q23.9087,364.7445 24.4731,365.0433 L24.4731,367.7659 Q23.8423,367.1849 23.2488,366.9151 Q22.6553,366.6453 22.0244,366.6453 Q20.6797,366.6453 19.9949,367.712 Q19.3101,368.7786 19.3101,370.8787 Q19.3101,372.9705 19.9949,374.0372 Q20.6797,375.1038 22.0244,375.1038 Q22.6553,375.1038 23.2488,374.8341 Q23.8423,374.5643 24.4731,373.9832 Z " fill="#000000"/><text fill="#000000" font-family="sans-serif" font-size="14" lengthAdjust="spacing" textLength="206" x="36" y="369.9652">ClosestPairDyVImproved.Point</text><text fill="#000000" font-family="sans-serif" font-size="10" lengthAdjust="spacing" textLength="96" x="91" y="382.5863">ual.eda2.practica01</text></g></a><!--class ual.eda2.practica01.ClosestPairDyVImproved.PointXComparator--><a href="ClosestPairDyVImproved.PointXComparator.html" target="_top" title="ClosestPairDyVImproved.PointXComparator.html" xlink:actuate="onRequest" xlink:href="ClosestPairDyVImproved.PointXComparator.html" xlink:show="new" xlink:title="ClosestPairDyVImproved.PointXComparator.html" xlink:type="simple"><g id="elem_ual.eda2.practica01.ClosestPairDyVImproved.PointXComparator"><rect codeLine="18" fill="#F1F1F1" height="38.2656" id="ual.eda2.practica01.ClosestPairDyVImproved.PointXComparator" rx="2.5" ry="2.5" style="stroke:#181818;stroke-width:0.5;" width="330" x="280" y="351.43"/><ellipse cx="295" cy="370.5628" fill="#ADD1B2" rx="11" ry="11" style="stroke:#181818;stroke-width:1.0;"/><path d="M297.4731,376.7059 Q296.8921,377.0047 296.2529,377.1541 Q295.6138,377.3035 294.9082,377.3035 Q292.4014,377.3035 291.0815,375.6517 Q289.7617,373.9998 289.7617,370.8787 Q289.7617,367.7493 291.0815,366.0975 Q292.4014,364.4456 294.9082,364.4456 Q295.6138,364.4456 296.2612,364.595 Q296.9087,364.7445 297.4731,365.0433 L297.4731,367.7659 Q296.8423,367.1849 296.2488,366.9151 Q295.6553,366.6453 295.0244,366.6453 Q293.6797,366.6453 292.9949,367.712 Q292.3101,368.7786 292.3101,370.8787 Q292.3101,372.9705 292.9949,374.0372 Q293.6797,375.1038 295.0244,375.1038 Q295.6553,375.1038 296.2488,374.8341 Q296.8423,374.5643 297.4731,373.9832 Z " fill="#000000"/><text fill="#000000" font-family="sans-serif" font-size="14" lengthAdjust="spacing" textLength="298" x="309" y="369.9652">ClosestPairDyVImproved.PointXComparator</text><text fill="#000000" font-family="sans-serif" font-size="10" lengthAdjust="spacing" textLength="96" x="410" y="382.5863">ual.eda2.practica01</text></g></a><!--class ual.eda2.practica01.ClosestPairDyVImproved.PointYComparator--><a href="ClosestPairDyVImproved.PointYComparator.html" target="_top" title="ClosestPairDyVImproved.PointYComparator.html" xlink:actuate="onRequest" xlink:href="ClosestPairDyVImproved.PointYComparator.html" xlink:show="new" xlink:title="ClosestPairDyVImproved.PointYComparator.html" xlink:type="simple"><g id="elem_ual.eda2.practica01.ClosestPairDyVImproved.PointYComparator"><rect codeLine="19" fill="#F1F1F1" height="38.2656" id="ual.eda2.practica01.ClosestPairDyVImproved.PointYComparator" rx="2.5" ry="2.5" style="stroke:#181818;stroke-width:0.5;" width="330" x="645" y="351.43"/><ellipse cx="660" cy="370.5628" fill="#ADD1B2" rx="11" ry="11" style="stroke:#181818;stroke-width:1.0;"/><path d="M662.4731,376.7059 Q661.8921,377.0047 661.2529,377.1541 Q660.6138,377.3035 659.9082,377.3035 Q657.4014,377.3035 656.0815,375.6517 Q654.7617,373.9998 654.7617,370.8787 Q654.7617,367.7493 656.0815,366.0975 Q657.4014,364.4456 659.9082,364.4456 Q660.6138,364.4456 661.2612,364.595 Q661.9087,364.7445 662.4731,365.0433 L662.4731,367.7659 Q661.8423,367.1849 661.2488,366.9151 Q660.6553,366.6453 660.0244,366.6453 Q658.6797,366.6453 657.9949,367.712 Q657.3101,368.7786 657.3101,370.8787 Q657.3101,372.9705 657.9949,374.0372 Q658.6797,375.1038 660.0244,375.1038 Q660.6553,375.1038 661.2488,374.8341 Q661.8423,374.5643 662.4731,373.9832 Z " fill="#000000"/><text fill="#000000" font-family="sans-serif" font-size="14" lengthAdjust="spacing" textLength="298" x="674" y="369.9652">ClosestPairDyVImproved.PointYComparator</text><text fill="#000000" font-family="sans-serif" font-size="10" lengthAdjust="spacing" textLength="96" x="775" y="382.5863">ual.eda2.practica01</text></g></a><!--reverse link java.lang.Object to ual.eda2.practica01.ClosestPairDyVImproved--><g id="link_java.lang.Object_ual.eda2.practica01.ClosestPairDyVImproved"><path codeLine="21" d="M445,66.84 C445,78.46 445,91.68 445,105.13 " fill="none" id="java.lang.Object-backto-ual.eda2.practica01.ClosestPairDyVImproved" style="stroke:#181818;stroke-width:1.0;"/><polygon fill="none" points="438,67.18,445,47.18,452,67.18,438,67.18" style="stroke:#181818;stroke-width:1.0;"/></g><!--reverse link ual.eda2.practica01.ClosestPairDyVImproved to ual.eda2.practica01.ClosestPairDyVImproved.Point--><g id="link_ual.eda2.practica01.ClosestPairDyVImproved_ual.eda2.practica01.ClosestPairDyVImproved.Point"><path codeLine="22" d="M259.27,298.45 C221.51,318.61 185.76,337.68 160.81,350.99 " fill="none" id="ual.eda2.practica01.ClosestPairDyVImproved-backto-ual.eda2.practica01.ClosestPairDyVImproved.Point" style="stroke:#181818;stroke-width:1.0;"/><ellipse cx="265.4316" cy="295.1655" fill="#FFFFFF" rx="8" ry="8" style="stroke:#181818;stroke-width:1.0;"/><line style="stroke:#181818;stroke-width:1.0;" x1="258.3732" x2="272.49" y1="298.931" y2="291.4"/><line style="stroke:#181818;stroke-width:1.0;" x1="261.6661" x2="269.1971" y1="288.1071" y2="302.2239"/></g><!--reverse link ual.eda2.practica01.ClosestPairDyVImproved to ual.eda2.practica01.ClosestPairDyVImproved.PointXComparator--><g id="link_ual.eda2.practica01.ClosestPairDyVImproved_ual.eda2.practica01.ClosestPairDyVImproved.PointXComparator"><path codeLine="23" d="M445,308.4 C445,324.89 445,340.08 445,351.19 " fill="none" id="ual.eda2.practica01.ClosestPairDyVImproved-backto-ual.eda2.practica01.ClosestPairDyVImproved.PointXComparator" style="stroke:#181818;stroke-width:1.0;"/><ellipse cx="445" cy="301.44" fill="#FFFFFF" rx="8" ry="8" style="stroke:#181818;stroke-width:1.0;"/><line style="stroke:#181818;stroke-width:1.0;" x1="445" x2="445" y1="309.44" y2="293.44"/><line style="stroke:#181818;stroke-width:1.0;" x1="437" x2="453" y1="301.44" y2="301.44"/></g><!--reverse link ual.eda2.practica01.ClosestPairDyVImproved to ual.eda2.practica01.ClosestPairDyVImproved.PointYComparator--><g id="link_ual.eda2.practica01.ClosestPairDyVImproved_ual.eda2.practica01.ClosestPairDyVImproved.PointYComparator"><path codeLine="24" d="M631.1,286.14 C683.66,310.65 735.83,334.98 770.14,350.98 " fill="none" id="ual.eda2.practica01.ClosestPairDyVImproved-backto-ual.eda2.practica01.ClosestPairDyVImproved.PointYComparator" style="stroke:#181818;stroke-width:1.0;"/><ellipse cx="624.9018" cy="283.2381" fill="#FFFFFF" rx="8" ry="8" style="stroke:#181818;stroke-width:1.0;"/><line style="stroke:#181818;stroke-width:1.0;" x1="632.1536" x2="617.65" y1="286.6161" y2="279.86"/><line style="stroke:#181818;stroke-width:1.0;" x1="621.5237" x2="628.2799" y1="290.4899" y2="275.9863"/></g><text fill="#888888" font-family="sans-serif" font-size="10" lengthAdjust="spacing" textLength="182" x="393" y="404.3636">UMLDoclet 2.1.0, PlantUML 1.2022.14</text><!--SRC=[lLN1Qi904BttAmQX4B5PZFGauaKlXPOAqbAn7jPar9LaD-ok0MlzzwwRg8b6sfJQN9AyUVlc3JEP000erC1fX2gcFWunff9g8O4BZZSc30iM860KwpNC68Q1EaKZr0jXO8lx8LKAQXt5Fh3jtNTxeL2ez80osL-_FaIn50a6xpmZDBih6X8CQ8l4algQ-RJfrO0gAC59kHYCn-K1ij1HE9d0nZhRNUxKiBms30JZkeYsIj4-Kvfo7ziGYDKqn4DqOt3ZQWkD8ACuzlXTgb8_Ez38UKofuubX9O85HuwVSlRnJApmO7EKPd0Zb7DqBX_PdolaF1OIKSQTePQCpulMjkMjVPukqTUvLYvfGab8-TmsyF16KcA5yI3M-fyEIIfvULHiE1kOoaxVUYBAlfihcCwfV-C_n_njAQEhbZBwSIcZyr9iBQTJ1PrFrwtWmufKs2sDIkhak4Akd2FNwlz8bsj7jWoGQvGm4s9tUtbwx0i_D7-I5l58q-mUqo9jKBXDK2eck5F_0W00]--></g></svg>