<?xml version="1.0" encoding="UTF-8" standalone="no"?><svg xmlns="http://www.w3.org/2000/svg" xmlns:xlink="http://www.w3.org/1999/xlink" contentStyleType="text/css" height="234px" preserveAspectRatio="none" style="width:324px;height:234px;background:#FFFFFF;" version="1.1" viewBox="0 0 324 234" width="324px" zoomAndPan="magnify"><defs/><g><!--class ual.eda2.practica01.ClosestPairDyVImproved.Point--><a href="ClosestPairDyVImproved.Point.html" target="_top" title="ClosestPairDyVImproved.Point.html" xlink:actuate="onRequest" xlink:href="ClosestPairDyVImproved.Point.html" xlink:show="new" xlink:title="ClosestPairDyVImproved.Point.html" xlink:type="simple"><g id="elem_ual.eda2.practica01.ClosestPairDyVImproved.Point"><rect codeLine="5" fill="#F1F1F1" height="103.7305" id="ual.eda2.practica01.ClosestPairDyVImproved.Point" rx="2.5" ry="2.5" style="stroke:#181818;stroke-width:0.5;" width="238" x="12" y="105.27"/><ellipse cx="27" cy="124.4028" fill="#ADD1B2" rx="11" ry="11" style="stroke:#181818;stroke-width:1.0;"/><path d="M29.4731,130.5459 Q28.8921,130.8447 28.2529,130.9941 Q27.6138,131.1435 26.9082,131.1435 Q24.4014,131.1435 23.0815,129.4917 Q21.7617,127.8398 21.7617,124.7187 Q21.7617,121.5893 23.0815,119.9375 Q24.4014,118.2856 26.9082,118.2856 Q27.6138,118.2856 28.2612,118.435 Q28.9087,118.5845 29.4731,118.8833 L29.4731,121.6059 Q28.8423,121.0249 28.2488,120.7551 Q27.6553,120.4853 27.0244,120.4853 Q25.6797,120.4853 24.9949,121.552 Q24.3101,122.6186 24.3101,124.7187 Q24.3101,126.8105 24.9949,127.8772 Q25.6797,128.9438 27.0244,128.9438 Q27.6553,128.9438 28.2488,128.6741 Q28.8423,128.4043 29.4731,127.8232 Z " fill="#000000"/><text fill="#000000" font-family="sans-serif" font-size="14" lengthAdjust="spacing" textLength="206" x="41" y="123.8052">ClosestPairDyVImproved.Point</text><text fill="#000000" font-family="sans-serif" font-size="10" lengthAdjust="spacing" textLength="96" x="96" y="136.4262">ual.eda2.practica01</text><line style="stroke:#181818;stroke-width:0.5;" x1="13" x2="249" y1="143.5356" y2="143.5356"/><ellipse cx="23" cy="157.2798" fill="none" rx="3" ry="3" style="stroke:#038048;stroke-width:1.0;"/><text fill="#000000" font-family="sans-serif" font-size="14" lengthAdjust="spacing" textLength="35" x="32" y="161.0708">x: int</text><ellipse cx="23" cy="173.768" fill="none" rx="3" ry="3" style="stroke:#038048;stroke-width:1.0;"/><text fill="#000000" font-family="sans-serif" font-size="14" lengthAdjust="spacing" textLength="33" x="32" y="177.5591">y: int</text><line style="stroke:#181818;stroke-width:0.5;" x1="13" x2="249" y1="184.5122" y2="184.5122"/><polygon fill="#4177AF" points="23,194.2563,19,200.2563,27,200.2563" style="stroke:#1963A0;stroke-width:1.0;"/><text fill="#000000" font-family="sans-serif" font-size="14" lengthAdjust="spacing" textLength="89" x="32" y="202.0473">Point(int, int)</text></g></a><!--class java.lang.Object--><g id="elem_java.lang.Object"><rect codeLine="11" fill="#F1F1F1" height="38.2656" id="java.lang.Object" rx="2.5" ry="2.5" style="stroke:#181818;stroke-width:0.5;" width="76" x="7" y="7"/><ellipse cx="22" cy="26.1328" fill="#ADD1B2" rx="11" ry="11" style="stroke:#181818;stroke-width:1.0;"/><path d="M24.4731,32.2759 Q23.8921,32.5747 23.2529,32.7241 Q22.6138,32.8735 21.9082,32.8735 Q19.4014,32.8735 18.0815,31.2217 Q16.7617,29.5698 16.7617,26.4487 Q16.7617,23.3193 18.0815,21.6675 Q19.4014,20.0156 21.9082,20.0156 Q22.6138,20.0156 23.2612,20.165 Q23.9087,20.3145 24.4731,20.6133 L24.4731,23.3359 Q23.8423,22.7549 23.2488,22.4851 Q22.6553,22.2153 22.0244,22.2153 Q20.6797,22.2153 19.9949,23.282 Q19.3101,24.3486 19.3101,26.4487 Q19.3101,28.5405 19.9949,29.6072 Q20.6797,30.6738 22.0244,30.6738 Q22.6553,30.6738 23.2488,30.4041 Q23.8423,30.1343 24.4731,29.5532 Z " fill="#000000"/><text fill="#000000" font-family="sans-serif" font-size="14" lengthAdjust="spacing" textLength="44" x="36" y="25.5352">Object</text><text fill="#000000" font-family="sans-serif" font-size="10" lengthAdjust="spacing" textLength="44" x="36" y="38.1563">java.lang</text></g><!--class ual.eda2.practica01.ClosestPairDyVImproved--><a href="ClosestPairDyVImproved.html" target="_top" title="ClosestPairDyVImproved.html" xlink:actuate="onRequest" xlink:href="ClosestPairDyVImproved.html" xlink:show="new" xlink:title="ClosestPairDyVImproved.html" xlink:type="simple"><g id="elem_ual.eda2.practica01.ClosestPairDyVImproved"><rect codeLine="12" fill="#F1F1F1" height="38.2656" id="ual.eda2.practica01.ClosestPairDyVImproved" rx="2.5" ry="2.5" style="stroke:#181818;stroke-width:0.5;" width="199" x="118.5" y="7"/><ellipse cx="133.5" cy="26.1328" fill="#ADD1B2" rx="11" ry="11" style="stroke:#181818;stroke-width:1.0;"/><path d="M135.9731,32.2759 Q135.3921,32.5747 134.7529,32.7241 Q134.1138,32.8735 133.4082,32.8735 Q130.9014,32.8735 129.5815,31.2217 Q128.2617,29.5698 128.2617,26.4487 Q128.2617,23.3193 129.5815,21.6675 Q130.9014,20.0156 133.4082,20.0156 Q134.1138,20.0156 134.7612,20.165 Q135.4087,20.3145 135.9731,20.6133 L135.9731,23.3359 Q135.3423,22.7549 134.7488,22.4851 Q134.1553,22.2153 133.5244,22.2153 Q132.1797,22.2153 131.4949,23.282 Q130.8101,24.3486 130.8101,26.4487 Q130.8101,28.5405 131.4949,29.6072 Q132.1797,30.6738 133.5244,30.6738 Q134.1553,30.6738 134.7488,30.4041 Q135.3423,30.1343 135.9731,29.5532 Z " fill="#000000"/><text fill="#000000" font-family="sans-serif" font-size="14" lengthAdjust="spacing" textLength="167" x="147.5" y="25.5352">ClosestPairDyVImproved</text><text fill="#000000" font-family="sans-serif" font-size="10" lengthAdjust="spacing" textLength="96" x="183" y="38.1563">ual.eda2.practica01</text></g></a><!--reverse link java.lang.Object to ual.eda2.practica01.ClosestPairDyVImproved.Point--><g id="link_java.lang.Object_ual.eda2.practica01.ClosestPairDyVImproved.Point"><path codeLine="14" d="M69.14,63.35 C77.71,76.21 87.53,90.94 96.79,104.82 " fill="none" id="java.lang.Object-backto-ual.eda2.practica01.ClosestPairDyVImproved.Point" style="stroke:#181818;stroke-width:1.0;"/><polygon fill="none" points="63.43,67.4,58.16,46.88,75.08,59.64,63.43,67.4" style="stroke:#181818;stroke-width:1.0;"/></g><!--reverse link ual.eda2.practica01.ClosestPairDyVImproved to ual.eda2.practica01.ClosestPairDyVImproved.Point--><g id="link_ual.eda2.practica01.ClosestPairDyVImproved_ual.eda2.practica01.ClosestPairDyVImproved.Point"><path codeLine="15" d="M196.58,58.89 C187.25,72.73 176.07,89.31 165.61,104.82 " fill="none" id="ual.eda2.practica01.ClosestPairDyVImproved-backto-ual.eda2.practica01.ClosestPairDyVImproved.Point" style="stroke:#181818;stroke-width:1.0;"/><ellipse cx="200.2103" cy="53.4981" fill="#FFFFFF" rx="8" ry="8" style="stroke:#181818;stroke-width:1.0;"/><line style="stroke:#181818;stroke-width:1.0;" x1="195.7306" x2="204.69" y1="60.1263" y2="46.87"/><line style="stroke:#181818;stroke-width:1.0;" x1="193.5822" x2="206.8384" y1="49.0184" y2="57.9778"/></g><text fill="#888888" font-family="sans-serif" font-size="10" lengthAdjust="spacing" textLength="182" x="64.25" y="224.6684">UMLDoclet 2.1.0, PlantUML 1.2022.14</text><!--SRC=[hL9DImCn4BtxAuQ2qD8sx1PFfVJINWJ51T5BxM7CJhif-LYIkBX-_NQpMV6ZrCAAWH3clPd9l9S003Zoe56HAv7JDPLeqHiBscWw2JGK8YSWLVeQDe9axlPHHRum0Ouub-WSz6PEFD4qFPilf77aV8R2BklRSrLQKr7ECYEqlzCVQSdy0IMZ72UijCYzu9YaFK071t1sh2MiLiTeLdWbrsjuZhCsQ_WuXK1ynVNF-2tMzSCUDVWW4g-7jLxTxuX_LxN32fb4lOrQFYFM9dRmwr-T-jsZrfrMtFwqC7iPZpk_HspLORJXN-veZIJjoSB6cEQukRnO6Yx3rvwmb2KZo88K7r0uhSWwONH_y0u0]--></g></svg>