<?xml version="1.0" encoding="UTF-8" standalone="no"?><svg xmlns="http://www.w3.org/2000/svg" xmlns:xlink="http://www.w3.org/1999/xlink" contentStyleType="text/css" height="237px" preserveAspectRatio="none" style="width:559px;height:237px;background:#FFFFFF;" version="1.1" viewBox="0 0 559 237" width="559px" zoomAndPan="magnify"><defs/><g><!--class ual.eda2.practica01.ClosestPairDyVImproved.PointYComparator--><a href="ClosestPairDyVImproved.PointYComparator.html" target="_top" title="ClosestPairDyVImproved.PointYComparator.html" xlink:actuate="onRequest" xlink:href="ClosestPairDyVImproved.PointYComparator.html" xlink:show="new" xlink:title="ClosestPairDyVImproved.PointYComparator.html" xlink:type="simple"><g id="elem_ual.eda2.practica01.ClosestPairDyVImproved.PointYComparator"><rect codeLine="5" fill="#F1F1F1" height="62.7539" id="ual.eda2.practica01.ClosestPairDyVImproved.PointYComparator" rx="2.5" ry="2.5" style="stroke:#181818;stroke-width:0.5;" width="330" x="53" y="149.25"/><ellipse cx="68" cy="168.3828" fill="#ADD1B2" rx="11" ry="11" style="stroke:#181818;stroke-width:1.0;"/><path d="M70.4731,174.5259 Q69.8921,174.8247 69.2529,174.9741 Q68.6138,175.1235 67.9082,175.1235 Q65.4014,175.1235 64.0815,173.4717 Q62.7617,171.8198 62.7617,168.6987 Q62.7617,165.5693 64.0815,163.9175 Q65.4014,162.2656 67.9082,162.2656 Q68.6138,162.2656 69.2612,162.415 Q69.9087,162.5645 70.4731,162.8633 L70.4731,165.5859 Q69.8423,165.0049 69.2488,164.7351 Q68.6553,164.4653 68.0244,164.4653 Q66.6797,164.4653 65.9949,165.532 Q65.3101,166.5986 65.3101,168.6987 Q65.3101,170.7905 65.9949,171.8572 Q66.6797,172.9238 68.0244,172.9238 Q68.6553,172.9238 69.2488,172.6541 Q69.8423,172.3843 70.4731,171.8032 Z " fill="#000000"/><text fill="#000000" font-family="sans-serif" font-size="14" lengthAdjust="spacing" textLength="298" x="82" y="167.7852">ClosestPairDyVImproved.PointYComparator</text><text fill="#000000" font-family="sans-serif" font-size="10" lengthAdjust="spacing" textLength="96" x="183" y="180.4063">ual.eda2.practica01</text><line style="stroke:#181818;stroke-width:0.5;" x1="54" x2="382" y1="187.5156" y2="187.5156"/><ellipse cx="64" cy="201.2598" fill="#84BE84" rx="3" ry="3" style="stroke:#038048;stroke-width:1.0;"/><text fill="#000000" font-family="sans-serif" font-size="14" lengthAdjust="spacing" textLength="174" x="73" y="205.0508">compare(Point, Point): int</text></g></a><!--class java.lang.Object--><g id="elem_java.lang.Object"><rect codeLine="9" fill="#F1F1F1" height="38.2656" id="java.lang.Object" rx="2.5" ry="2.5" style="stroke:#181818;stroke-width:0.5;" width="76" x="7" y="30.49"/><ellipse cx="22" cy="49.6228" fill="#ADD1B2" rx="11" ry="11" style="stroke:#181818;stroke-width:1.0;"/><path d="M24.4731,55.7659 Q23.8921,56.0647 23.2529,56.2141 Q22.6138,56.3635 21.9082,56.3635 Q19.4014,56.3635 18.0815,54.7117 Q16.7617,53.0598 16.7617,49.9387 Q16.7617,46.8093 18.0815,45.1575 Q19.4014,43.5056 21.9082,43.5056 Q22.6138,43.5056 23.2612,43.655 Q23.9087,43.8045 24.4731,44.1033 L24.4731,46.8259 Q23.8423,46.2449 23.2488,45.9751 Q22.6553,45.7053 22.0244,45.7053 Q20.6797,45.7053 19.9949,46.772 Q19.3101,47.8386 19.3101,49.9387 Q19.3101,52.0305 19.9949,53.0972 Q20.6797,54.1638 22.0244,54.1638 Q22.6553,54.1638 23.2488,53.8941 Q23.8423,53.6243 24.4731,53.0432 Z " fill="#000000"/><text fill="#000000" font-family="sans-serif" font-size="14" lengthAdjust="spacing" textLength="44" x="36" y="49.0252">Object</text><text fill="#000000" font-family="sans-serif" font-size="10" lengthAdjust="spacing" textLength="44" x="36" y="61.6463">java.lang</text></g><!--class java.util.Comparator--><g id="elem_java.util.Comparator"><rect codeLine="10" fill="#F1F1F1" height="79.2422" id="java.util.Comparator" rx="2.5" ry="2.5" style="stroke:#181818;stroke-width:0.5;" width="200" x="118" y="10"/><ellipse cx="156.85" cy="29.1328" fill="#B4A7E5" rx="11" ry="11" style="stroke:#181818;stroke-width:1.0;"/><path d="M153.2777,25.3979 L153.2777,23.2397 L160.6571,23.2397 L160.6571,25.3979 L158.1918,25.3979 L158.1918,33.4746 L160.6571,33.4746 L160.6571,35.6328 L153.2777,35.6328 L153.2777,33.4746 L155.7431,33.4746 L155.7431,25.3979 Z " fill="#000000"/><text fill="#000000" font-family="sans-serif" font-size="14" font-style="italic" lengthAdjust="spacing" textLength="83" x="176.15" y="28.5352">Comparator</text><text fill="#000000" font-family="sans-serif" font-size="10" font-style="italic" lengthAdjust="spacing" textLength="39" x="198.15" y="41.1563">java.util</text><rect fill="#FFFFFF" height="16.1328" style="stroke:#181818;stroke-width:1.0;stroke-dasharray:2.0,2.0;" width="30" x="291" y="7"/><text fill="#000000" font-family="sans-serif" font-size="12" font-style="italic" lengthAdjust="spacing" textLength="28" x="292" y="19.6016">Point</text><line style="stroke:#181818;stroke-width:0.5;" x1="119" x2="317" y1="48.2656" y2="48.2656"/><ellipse cx="129" cy="62.0098" fill="#84BE84" rx="3" ry="3" style="stroke:#038048;stroke-width:1.0;"/><text fill="#000000" font-family="sans-serif" font-size="14" font-style="italic" lengthAdjust="spacing" textLength="174" x="138" y="65.8008">compare(Point, Point): int</text><ellipse cx="129" cy="78.498" fill="#84BE84" rx="3" ry="3" style="stroke:#038048;stroke-width:1.0;"/><text fill="#000000" font-family="sans-serif" font-size="14" font-style="italic" lengthAdjust="spacing" textLength="163" x="138" y="82.2891">equals(Object): boolean</text></g><!--class ual.eda2.practica01.ClosestPairDyVImproved--><a href="ClosestPairDyVImproved.html" target="_top" title="ClosestPairDyVImproved.html" xlink:actuate="onRequest" xlink:href="ClosestPairDyVImproved.html" xlink:show="new" xlink:title="ClosestPairDyVImproved.html" xlink:type="simple"><g id="elem_ual.eda2.practica01.ClosestPairDyVImproved"><rect codeLine="14" fill="#F1F1F1" height="38.2656" id="ual.eda2.practica01.ClosestPairDyVImproved" rx="2.5" ry="2.5" style="stroke:#181818;stroke-width:0.5;" width="199" x="353.5" y="30.49"/><ellipse cx="368.5" cy="49.6228" fill="#ADD1B2" rx="11" ry="11" style="stroke:#181818;stroke-width:1.0;"/><path d="M370.9731,55.7659 Q370.3921,56.0647 369.7529,56.2141 Q369.1138,56.3635 368.4082,56.3635 Q365.9014,56.3635 364.5815,54.7117 Q363.2617,53.0598 363.2617,49.9387 Q363.2617,46.8093 364.5815,45.1575 Q365.9014,43.5056 368.4082,43.5056 Q369.1138,43.5056 369.7612,43.655 Q370.4087,43.8045 370.9731,44.1033 L370.9731,46.8259 Q370.3423,46.2449 369.7488,45.9751 Q369.1553,45.7053 368.5244,45.7053 Q367.1797,45.7053 366.4949,46.772 Q365.8101,47.8386 365.8101,49.9387 Q365.8101,52.0305 366.4949,53.0972 Q367.1797,54.1638 368.5244,54.1638 Q369.1553,54.1638 369.7488,53.8941 Q370.3423,53.6243 370.9731,53.0432 Z " fill="#000000"/><text fill="#000000" font-family="sans-serif" font-size="14" lengthAdjust="spacing" textLength="167" x="382.5" y="49.0252">ClosestPairDyVImproved</text><text fill="#000000" font-family="sans-serif" font-size="10" lengthAdjust="spacing" textLength="96" x="418" y="61.6463">ual.eda2.practica01</text></g></a><!--reverse link java.lang.Object to ual.eda2.practica01.ClosestPairDyVImproved.PointYComparator--><g id="link_java.lang.Object_ual.eda2.practica01.ClosestPairDyVImproved.PointYComparator"><path codeLine="16" d="M86.8,81.79 C114.14,102.18 149.69,128.69 176.89,148.97 " fill="none" id="java.lang.Object-backto-ual.eda2.practica01.ClosestPairDyVImproved.PointYComparator" style="stroke:#181818;stroke-width:1.0;"/><polygon fill="none" points="82.85,87.58,71,70.01,91.22,76.36,82.85,87.58" style="stroke:#181818;stroke-width:1.0;"/></g><!--reverse link java.util.Comparator to ual.eda2.practica01.ClosestPairDyVImproved.PointYComparator--><g id="link_java.util.Comparator_ual.eda2.practica01.ClosestPairDyVImproved.PointYComparator"><path codeLine="17" d="M218,111.12 C218,124.21 218,137.52 218,148.89 " fill="none" id="java.util.Comparator-backto-ual.eda2.practica01.ClosestPairDyVImproved.PointYComparator" style="stroke:#181818;stroke-width:1.0;stroke-dasharray:7.0,7.0;"/><polygon fill="none" points="211,111.19,218,91.19,225,111.19,211,111.19" style="stroke:#181818;stroke-width:1.0;"/></g><!--reverse link ual.eda2.practica01.ClosestPairDyVImproved to ual.eda2.practica01.ClosestPairDyVImproved.PointYComparator--><g id="link_ual.eda2.practica01.ClosestPairDyVImproved_ual.eda2.practica01.ClosestPairDyVImproved.PointYComparator"><path codeLine="18" d="M404.84,77.06 C366.92,97.87 314.01,126.92 274.17,148.79 " fill="none" id="ual.eda2.practica01.ClosestPairDyVImproved-backto-ual.eda2.practica01.ClosestPairDyVImproved.PointYComparator" style="stroke:#181818;stroke-width:1.0;"/><ellipse cx="410.7371" cy="73.8195" fill="#FFFFFF" rx="8" ry="8" style="stroke:#181818;stroke-width:1.0;"/><line style="stroke:#181818;stroke-width:1.0;" x1="403.7241" x2="417.75" y1="77.669" y2="69.97"/><line style="stroke:#181818;stroke-width:1.0;" x1="406.8876" x2="414.5866" y1="66.8066" y2="80.8324"/></g><text fill="#888888" font-family="sans-serif" font-size="10" lengthAdjust="spacing" textLength="182" x="181.75" y="227.6719">UMLDoclet 2.1.0, PlantUML 1.2022.14</text><!--SRC=[hLJ1QW8n4BttAmQXe5Y3Ia-oUD5BeQL2QQ5O3sDsh95iPfj4mLh_lTcig2oMMcmE2PcylCrxRrW004SU36RaSfJqH3bQz6p1iA6hS0npbH9Gblirp1Jfr5Mh6VavXtAiIutEGIrnwfDwdTl-GBCZvqUex73zSfVbbbUKYX4hury7dEq-zsPsDzhz9Mf1ANP5Rb5w9R7TgG4wE54NPxB3U7mcKinzfYSJs4GnnMZAU4Zr2Bs1k3Hw4EQ8sPxM_JXTaFH7iXQuGg7Hl4Sn-vqeWP4ZK9ATXHIE_JjbKRozz4eVk8gTE82J-Cp-aOuDJfqldDl-AgaAfu_WlQkNBmsuARCcD3lvvwV-ho7_d6aPOHbBrMT8lbgjIrhfm5fnF30BSJ7p7_GtBnHI1aT5py6CkLYU7-w7B7Nu8NH5HxH3PmJhVAZ2zOgiKspgZMy0]--></g></svg>