<?xml version="1.0" encoding="UTF-8" standalone="no"?><svg xmlns="http://www.w3.org/2000/svg" xmlns:xlink="http://www.w3.org/1999/xlink" contentStyleType="text/css" height="843px" preserveAspectRatio="none" style="width:2922px;height:843px;background:#FFFFFF;" version="1.1" viewBox="0 0 2922 843" width="2922px" zoomAndPan="magnify"><defs/><g><!--cluster ual.eda2.practica01--><g id="cluster_ual.eda2.practica01"><path d="M8.5,104.93 L145.5,104.93 A3.75,3.75 0 0 1 148,107.43 L155,127.4183 L2184.5,127.4183 A2.5,2.5 0 0 1 2187,129.9183 L2187,815.17 A2.5,2.5 0 0 1 2184.5,817.67 L8.5,817.67 A2.5,2.5 0 0 1 6,815.17 L6,107.43 A2.5,2.5 0 0 1 8.5,104.93 " fill="none" style="stroke:#000000;stroke-width:1.5;"/><line style="stroke:#000000;stroke-width:1.5;" x1="6" x2="155" y1="127.4183" y2="127.4183"/><text fill="#000000" font-family="sans-serif" font-size="14" font-weight="bold" lengthAdjust="spacing" textLength="136" x="10" y="120.4652">ual.eda2.practica01</text></g><!--cluster java.util--><g id="cluster_java.util"><path d="M2213.5,6 L2271.5,6 A3.75,3.75 0 0 1 2274,8.5 L2281,28.4883 L2912.5,28.4883 A2.5,2.5 0 0 1 2915,30.9883 L2915,399.29 A2.5,2.5 0 0 1 2912.5,401.79 L2213.5,401.79 A2.5,2.5 0 0 1 2211,399.29 L2211,8.5 A2.5,2.5 0 0 1 2213.5,6 " fill="none" style="stroke:#000000;stroke-width:1.5;"/><line style="stroke:#000000;stroke-width:1.5;" x1="2211" x2="2281" y1="28.4883" y2="28.4883"/><text fill="#000000" font-family="sans-serif" font-size="14" font-weight="bold" lengthAdjust="spacing" textLength="57" x="2215" y="21.5352">java.util</text></g><!--class ual.eda2.practica01.ParMasCercanoDyVEj6--><a href="ParMasCercanoDyVEj6.html" target="_top" title="ParMasCercanoDyVEj6.html" xlink:actuate="onRequest" xlink:href="ParMasCercanoDyVEj6.html" xlink:show="new" xlink:title="ParMasCercanoDyVEj6.html" xlink:type="simple"><g id="elem_ual.eda2.practica01.ParMasCercanoDyVEj6"><rect codeLine="3" fill="#F1F1F1" height="130.4414" id="ual.eda2.practica01.ParMasCercanoDyVEj6" rx="2.5" ry="2.5" style="stroke:#181818;stroke-width:0.5;" width="611" x="21.5" y="148.17"/><ellipse cx="246.25" cy="164.17" fill="#ADD1B2" rx="11" ry="11" style="stroke:#181818;stroke-width:1.0;"/><path d="M248.7231,170.3131 Q248.1421,170.6119 247.5029,170.7613 Q246.8638,170.9107 246.1582,170.9107 Q243.6514,170.9107 242.3315,169.2589 Q241.0117,167.607 241.0117,164.4859 Q241.0117,161.3565 242.3315,159.7047 Q243.6514,158.0528 246.1582,158.0528 Q246.8638,158.0528 247.5112,158.2022 Q248.1587,158.3516 248.7231,158.6505 L248.7231,161.3731 Q248.0923,160.7921 247.4988,160.5223 Q246.9053,160.2525 246.2744,160.2525 Q244.9297,160.2525 244.2449,161.3192 Q243.5601,162.3858 243.5601,164.4859 Q243.5601,166.5777 244.2449,167.6444 Q244.9297,168.711 246.2744,168.711 Q246.9053,168.711 247.4988,168.4412 Q248.0923,168.1715 248.7231,167.5904 Z " fill="#000000"/><text fill="#000000" font-family="sans-serif" font-size="14" lengthAdjust="spacing" textLength="153" x="266.75" y="169.461">ParMasCercanoDyVEj6</text><line style="stroke:#181818;stroke-width:0.5;" x1="22.5" x2="631.5" y1="180.17" y2="180.17"/><polygon fill="none" points="32.5,189.9141,28.5,195.9141,36.5,195.9141" style="stroke:#1963A0;stroke-width:1.0;"/><text fill="#000000" font-family="sans-serif" font-size="14" lengthAdjust="spacing" text-decoration="underline" textLength="212" x="41.5" y="197.7052">compareX: Comparator&lt;Poin&gt;</text><polygon fill="none" points="32.5,206.4024,28.5,212.4024,36.5,212.4024" style="stroke:#1963A0;stroke-width:1.0;"/><text fill="#000000" font-family="sans-serif" font-size="14" lengthAdjust="spacing" text-decoration="underline" textLength="212" x="41.5" y="214.1934">compareY: Comparator&lt;Poin&gt;</text><line style="stroke:#181818;stroke-width:0.5;" x1="22.5" x2="631.5" y1="221.1466" y2="221.1466"/><ellipse cx="32.5" cy="234.8907" fill="#84BE84" rx="3" ry="3" style="stroke:#038048;stroke-width:1.0;"/><text fill="#000000" font-family="sans-serif" font-size="14" lengthAdjust="spacing" text-decoration="underline" textLength="195" x="41.5" y="238.6817">distancia(Poin, Poin): double</text><ellipse cx="32.5" cy="251.379" fill="#84BE84" rx="3" ry="3" style="stroke:#038048;stroke-width:1.0;"/><text fill="#000000" font-family="sans-serif" font-size="14" lengthAdjust="spacing" text-decoration="underline" textLength="413" x="41.5" y="255.17">parMasCercanoDivideandConquer(ArrayList&lt;Poin&gt;): double</text><rect fill="#F24D5C" height="6" style="stroke:#C82930;stroke-width:1.0;" width="6" x="29.5" y="264.8673"/><text fill="#000000" font-family="sans-serif" font-size="14" lengthAdjust="spacing" text-decoration="underline" textLength="585" x="41.5" y="271.6583">parMasCercanoDivideandConquer(ArrayList&lt;Poin&gt;, ArrayList&lt;Poin&gt;, int, int): double</text></g></a><!--class ual.eda2.practica01.ParMasCercanoDyVEj4--><a href="ParMasCercanoDyVEj4.html" target="_top" title="ParMasCercanoDyVEj4.html" xlink:actuate="onRequest" xlink:href="ParMasCercanoDyVEj4.html" xlink:show="new" xlink:title="ParMasCercanoDyVEj4.html" xlink:type="simple"><g id="elem_ual.eda2.practica01.ParMasCercanoDyVEj4"><rect codeLine="11" fill="#F1F1F1" height="130.4414" id="ual.eda2.practica01.ParMasCercanoDyVEj4" rx="2.5" ry="2.5" style="stroke:#181818;stroke-width:0.5;" width="491" x="667.5" y="148.17"/><ellipse cx="832.25" cy="164.17" fill="#ADD1B2" rx="11" ry="11" style="stroke:#181818;stroke-width:1.0;"/><path d="M834.7231,170.3131 Q834.1421,170.6119 833.5029,170.7613 Q832.8638,170.9107 832.1582,170.9107 Q829.6514,170.9107 828.3315,169.2589 Q827.0117,167.607 827.0117,164.4859 Q827.0117,161.3565 828.3315,159.7047 Q829.6514,158.0528 832.1582,158.0528 Q832.8638,158.0528 833.5112,158.2022 Q834.1587,158.3516 834.7231,158.6505 L834.7231,161.3731 Q834.0923,160.7921 833.4988,160.5223 Q832.9053,160.2525 832.2744,160.2525 Q830.9297,160.2525 830.2449,161.3192 Q829.5601,162.3858 829.5601,164.4859 Q829.5601,166.5777 830.2449,167.6444 Q830.9297,168.711 832.2744,168.711 Q832.9053,168.711 833.4988,168.4412 Q834.0923,168.1715 834.7231,167.5904 Z " fill="#000000"/><text fill="#000000" font-family="sans-serif" font-size="14" lengthAdjust="spacing" textLength="153" x="852.75" y="169.461">ParMasCercanoDyVEj4</text><line style="stroke:#181818;stroke-width:0.5;" x1="668.5" x2="1157.5" y1="180.17" y2="180.17"/><polygon fill="none" points="678.5,189.9141,674.5,195.9141,682.5,195.9141" style="stroke:#1963A0;stroke-width:1.0;"/><text fill="#000000" font-family="sans-serif" font-size="14" lengthAdjust="spacing" text-decoration="underline" textLength="212" x="687.5" y="197.7052">compareX: Comparator&lt;Poin&gt;</text><polygon fill="none" points="678.5,206.4024,674.5,212.4024,682.5,212.4024" style="stroke:#1963A0;stroke-width:1.0;"/><text fill="#000000" font-family="sans-serif" font-size="14" lengthAdjust="spacing" text-decoration="underline" textLength="212" x="687.5" y="214.1934">compareY: Comparator&lt;Poin&gt;</text><line style="stroke:#181818;stroke-width:0.5;" x1="668.5" x2="1157.5" y1="221.1466" y2="221.1466"/><ellipse cx="678.5" cy="234.8907" fill="#84BE84" rx="3" ry="3" style="stroke:#038048;stroke-width:1.0;"/><text fill="#000000" font-family="sans-serif" font-size="14" lengthAdjust="spacing" text-decoration="underline" textLength="195" x="687.5" y="238.6817">distancia(Poin, Poin): double</text><ellipse cx="678.5" cy="251.379" fill="#84BE84" rx="3" ry="3" style="stroke:#038048;stroke-width:1.0;"/><text fill="#000000" font-family="sans-serif" font-size="14" lengthAdjust="spacing" text-decoration="underline" textLength="413" x="687.5" y="255.17">parMasCercanoDivideandConquer(ArrayList&lt;Poin&gt;): double</text><rect fill="#F24D5C" height="6" style="stroke:#C82930;stroke-width:1.0;" width="6" x="675.5" y="264.8673"/><text fill="#000000" font-family="sans-serif" font-size="14" lengthAdjust="spacing" text-decoration="underline" textLength="465" x="687.5" y="271.6583">parMasCercanoDivideandConquer(ArrayList&lt;Poin&gt;, int, int): double</text></g></a><!--class ual.eda2.practica01.ParMasCercanoDyVEj3--><a href="ParMasCercanoDyVEj3.html" target="_top" title="ParMasCercanoDyVEj3.html" xlink:actuate="onRequest" xlink:href="ParMasCercanoDyVEj3.html" xlink:show="new" xlink:title="ParMasCercanoDyVEj3.html" xlink:type="simple"><g id="elem_ual.eda2.practica01.ParMasCercanoDyVEj3"><rect codeLine="19" fill="#F1F1F1" height="130.4414" id="ual.eda2.practica01.ParMasCercanoDyVEj3" rx="2.5" ry="2.5" style="stroke:#181818;stroke-width:0.5;" width="491" x="1193.5" y="148.17"/><ellipse cx="1358.25" cy="164.17" fill="#ADD1B2" rx="11" ry="11" style="stroke:#181818;stroke-width:1.0;"/><path d="M1360.7231,170.3131 Q1360.1421,170.6119 1359.5029,170.7613 Q1358.8638,170.9107 1358.1582,170.9107 Q1355.6514,170.9107 1354.3315,169.2589 Q1353.0117,167.607 1353.0117,164.4859 Q1353.0117,161.3565 1354.3315,159.7047 Q1355.6514,158.0528 1358.1582,158.0528 Q1358.8638,158.0528 1359.5112,158.2022 Q1360.1587,158.3516 1360.7231,158.6505 L1360.7231,161.3731 Q1360.0923,160.7921 1359.4988,160.5223 Q1358.9053,160.2525 1358.2744,160.2525 Q1356.9297,160.2525 1356.2449,161.3192 Q1355.5601,162.3858 1355.5601,164.4859 Q1355.5601,166.5777 1356.2449,167.6444 Q1356.9297,168.711 1358.2744,168.711 Q1358.9053,168.711 1359.4988,168.4412 Q1360.0923,168.1715 1360.7231,167.5904 Z " fill="#000000"/><text fill="#000000" font-family="sans-serif" font-size="14" lengthAdjust="spacing" textLength="153" x="1378.75" y="169.461">ParMasCercanoDyVEj3</text><line style="stroke:#181818;stroke-width:0.5;" x1="1194.5" x2="1683.5" y1="180.17" y2="180.17"/><polygon fill="none" points="1204.5,189.9141,1200.5,195.9141,1208.5,195.9141" style="stroke:#1963A0;stroke-width:1.0;"/><text fill="#000000" font-family="sans-serif" font-size="14" lengthAdjust="spacing" text-decoration="underline" textLength="212" x="1213.5" y="197.7052">compareX: Comparator&lt;Poin&gt;</text><polygon fill="none" points="1204.5,206.4024,1200.5,212.4024,1208.5,212.4024" style="stroke:#1963A0;stroke-width:1.0;"/><text fill="#000000" font-family="sans-serif" font-size="14" lengthAdjust="spacing" text-decoration="underline" textLength="212" x="1213.5" y="214.1934">compareY: Comparator&lt;Poin&gt;</text><line style="stroke:#181818;stroke-width:0.5;" x1="1194.5" x2="1683.5" y1="221.1466" y2="221.1466"/><ellipse cx="1204.5" cy="234.8907" fill="#84BE84" rx="3" ry="3" style="stroke:#038048;stroke-width:1.0;"/><text fill="#000000" font-family="sans-serif" font-size="14" lengthAdjust="spacing" text-decoration="underline" textLength="195" x="1213.5" y="238.6817">distancia(Poin, Poin): double</text><ellipse cx="1204.5" cy="251.379" fill="#84BE84" rx="3" ry="3" style="stroke:#038048;stroke-width:1.0;"/><text fill="#000000" font-family="sans-serif" font-size="14" lengthAdjust="spacing" text-decoration="underline" textLength="413" x="1213.5" y="255.17">parMasCercanoDivideandConquer(ArrayList&lt;Poin&gt;): double</text><rect fill="#F24D5C" height="6" style="stroke:#C82930;stroke-width:1.0;" width="6" x="1201.5" y="264.8673"/><text fill="#000000" font-family="sans-serif" font-size="14" lengthAdjust="spacing" text-decoration="underline" textLength="465" x="1213.5" y="271.6583">parMasCercanoDivideandConquer(ArrayList&lt;Poin&gt;, int, int): double</text></g></a><!--class ual.eda2.practica01.ParMasCercanoDyVEj5--><a href="ParMasCercanoDyVEj5.html" target="_top" title="ParMasCercanoDyVEj5.html" xlink:actuate="onRequest" xlink:href="ParMasCercanoDyVEj5.html" xlink:show="new" xlink:title="ParMasCercanoDyVEj5.html" xlink:type="simple"><g id="elem_ual.eda2.practica01.ParMasCercanoDyVEj5"><rect codeLine="27" fill="#F1F1F1" height="130.4414" id="ual.eda2.practica01.ParMasCercanoDyVEj5" rx="2.5" ry="2.5" style="stroke:#181818;stroke-width:0.5;" width="491" x="21.5" y="479.79"/><ellipse cx="186.25" cy="495.79" fill="#ADD1B2" rx="11" ry="11" style="stroke:#181818;stroke-width:1.0;"/><path d="M188.7231,501.9331 Q188.1421,502.2319 187.5029,502.3813 Q186.8638,502.5307 186.1582,502.5307 Q183.6514,502.5307 182.3315,500.8789 Q181.0117,499.227 181.0117,496.1059 Q181.0117,492.9765 182.3315,491.3247 Q183.6514,489.6728 186.1582,489.6728 Q186.8638,489.6728 187.5112,489.8222 Q188.1587,489.9716 188.7231,490.2705 L188.7231,492.9931 Q188.0923,492.4121 187.4988,492.1423 Q186.9053,491.8725 186.2744,491.8725 Q184.9297,491.8725 184.2449,492.9392 Q183.5601,494.0058 183.5601,496.1059 Q183.5601,498.1977 184.2449,499.2644 Q184.9297,500.331 186.2744,500.331 Q186.9053,500.331 187.4988,500.0612 Q188.0923,499.7915 188.7231,499.2104 Z " fill="#000000"/><text fill="#000000" font-family="sans-serif" font-size="14" lengthAdjust="spacing" textLength="153" x="206.75" y="501.081">ParMasCercanoDyVEj5</text><line style="stroke:#181818;stroke-width:0.5;" x1="22.5" x2="511.5" y1="511.79" y2="511.79"/><polygon fill="none" points="32.5,521.5341,28.5,527.5341,36.5,527.5341" style="stroke:#1963A0;stroke-width:1.0;"/><text fill="#000000" font-family="sans-serif" font-size="14" lengthAdjust="spacing" text-decoration="underline" textLength="212" x="41.5" y="529.3252">compareX: Comparator&lt;Poin&gt;</text><polygon fill="none" points="32.5,538.0224,28.5,544.0224,36.5,544.0224" style="stroke:#1963A0;stroke-width:1.0;"/><text fill="#000000" font-family="sans-serif" font-size="14" lengthAdjust="spacing" text-decoration="underline" textLength="212" x="41.5" y="545.8134">compareY: Comparator&lt;Poin&gt;</text><line style="stroke:#181818;stroke-width:0.5;" x1="22.5" x2="511.5" y1="552.7666" y2="552.7666"/><ellipse cx="32.5" cy="566.5107" fill="#84BE84" rx="3" ry="3" style="stroke:#038048;stroke-width:1.0;"/><text fill="#000000" font-family="sans-serif" font-size="14" lengthAdjust="spacing" text-decoration="underline" textLength="195" x="41.5" y="570.3017">distancia(Poin, Poin): double</text><ellipse cx="32.5" cy="582.999" fill="#84BE84" rx="3" ry="3" style="stroke:#038048;stroke-width:1.0;"/><text fill="#000000" font-family="sans-serif" font-size="14" lengthAdjust="spacing" text-decoration="underline" textLength="413" x="41.5" y="586.79">parMasCercanoDivideandConquer(ArrayList&lt;Poin&gt;): double</text><rect fill="#F24D5C" height="6" style="stroke:#C82930;stroke-width:1.0;" width="6" x="29.5" y="596.4873"/><text fill="#000000" font-family="sans-serif" font-size="14" lengthAdjust="spacing" text-decoration="underline" textLength="465" x="41.5" y="603.2783">parMasCercanoDivideandConquer(ArrayList&lt;Poin&gt;, int, int): double</text></g></a><!--class ual.eda2.practica01.ParMasCercanoIterativoMejorado--><a href="ParMasCercanoIterativoMejorado.html" target="_top" title="ParMasCercanoIterativoMejorado.html" xlink:actuate="onRequest" xlink:href="ParMasCercanoIterativoMejorado.html" xlink:show="new" xlink:title="ParMasCercanoIterativoMejorado.html" xlink:type="simple"><g id="elem_ual.eda2.practica01.ParMasCercanoIterativoMejorado"><rect codeLine="35" fill="#F1F1F1" height="80.9766" id="ual.eda2.practica01.ParMasCercanoIterativoMejorado" rx="2.5" ry="2.5" style="stroke:#181818;stroke-width:0.5;" width="325" x="547.5" y="504.52"/><ellipse cx="592.25" cy="520.52" fill="#ADD1B2" rx="11" ry="11" style="stroke:#181818;stroke-width:1.0;"/><path d="M594.7231,526.6631 Q594.1421,526.9619 593.5029,527.1113 Q592.8638,527.2607 592.1582,527.2607 Q589.6514,527.2607 588.3315,525.6089 Q587.0117,523.957 587.0117,520.8359 Q587.0117,517.7065 588.3315,516.0547 Q589.6514,514.4028 592.1582,514.4028 Q592.8638,514.4028 593.5112,514.5522 Q594.1587,514.7016 594.7231,515.0005 L594.7231,517.7231 Q594.0923,517.1421 593.4988,516.8723 Q592.9053,516.6025 592.2744,516.6025 Q590.9297,516.6025 590.2449,517.6692 Q589.5601,518.7358 589.5601,520.8359 Q589.5601,522.9277 590.2449,523.9944 Q590.9297,525.061 592.2744,525.061 Q592.9053,525.061 593.4988,524.7912 Q594.0923,524.5215 594.7231,523.9404 Z " fill="#000000"/><text fill="#000000" font-family="sans-serif" font-size="14" lengthAdjust="spacing" textLength="227" x="612.75" y="525.811">ParMasCercanoIterativoMejorado</text><line style="stroke:#181818;stroke-width:0.5;" x1="548.5" x2="871.5" y1="536.52" y2="536.52"/><line style="stroke:#181818;stroke-width:0.5;" x1="548.5" x2="871.5" y1="544.52" y2="544.52"/><ellipse cx="558.5" cy="558.2641" fill="#84BE84" rx="3" ry="3" style="stroke:#038048;stroke-width:1.0;"/><text fill="#000000" font-family="sans-serif" font-size="14" lengthAdjust="spacing" text-decoration="underline" textLength="299" x="567.5" y="562.0552">iterativoMejorado(ArrayList&lt;Poin&gt;): double</text><ellipse cx="558.5" cy="574.7524" fill="#84BE84" rx="3" ry="3" style="stroke:#038048;stroke-width:1.0;"/><text fill="#000000" font-family="sans-serif" font-size="14" lengthAdjust="spacing" text-decoration="underline" textLength="195" x="567.5" y="578.5434">distancia(Poin, Poin): double</text></g></a><!--class ual.eda2.practica01.ParMasCercanoIterativo--><a href="ParMasCercanoIterativo.html" target="_top" title="ParMasCercanoIterativo.html" xlink:actuate="onRequest" xlink:href="ParMasCercanoIterativo.html" xlink:show="new" xlink:title="ParMasCercanoIterativo.html" xlink:type="simple"><g id="elem_ual.eda2.practica01.ParMasCercanoIterativo"><rect codeLine="40" fill="#F1F1F1" height="80.9766" id="ual.eda2.practica01.ParMasCercanoIterativo" rx="2.5" ry="2.5" style="stroke:#181818;stroke-width:0.5;" width="260" x="908" y="504.52"/><ellipse cx="952.75" cy="520.52" fill="#ADD1B2" rx="11" ry="11" style="stroke:#181818;stroke-width:1.0;"/><path d="M955.2231,526.6631 Q954.6421,526.9619 954.0029,527.1113 Q953.3638,527.2607 952.6582,527.2607 Q950.1514,527.2607 948.8315,525.6089 Q947.5117,523.957 947.5117,520.8359 Q947.5117,517.7065 948.8315,516.0547 Q950.1514,514.4028 952.6582,514.4028 Q953.3638,514.4028 954.0112,514.5522 Q954.6587,514.7016 955.2231,515.0005 L955.2231,517.7231 Q954.5923,517.1421 953.9988,516.8723 Q953.4053,516.6025 952.7744,516.6025 Q951.4297,516.6025 950.7449,517.6692 Q950.0601,518.7358 950.0601,520.8359 Q950.0601,522.9277 950.7449,523.9944 Q951.4297,525.061 952.7744,525.061 Q953.4053,525.061 953.9988,524.7912 Q954.5923,524.5215 955.2231,523.9404 Z " fill="#000000"/><text fill="#000000" font-family="sans-serif" font-size="14" lengthAdjust="spacing" textLength="162" x="973.25" y="525.811">ParMasCercanoIterativo</text><line style="stroke:#181818;stroke-width:0.5;" x1="909" x2="1167" y1="536.52" y2="536.52"/><line style="stroke:#181818;stroke-width:0.5;" x1="909" x2="1167" y1="544.52" y2="544.52"/><ellipse cx="919" cy="558.2641" fill="#84BE84" rx="3" ry="3" style="stroke:#038048;stroke-width:1.0;"/><text fill="#000000" font-family="sans-serif" font-size="14" lengthAdjust="spacing" text-decoration="underline" textLength="234" x="928" y="562.0552">iterativo(ArrayList&lt;Poin&gt;): double</text><ellipse cx="919" cy="574.7524" fill="#84BE84" rx="3" ry="3" style="stroke:#038048;stroke-width:1.0;"/><text fill="#000000" font-family="sans-serif" font-size="14" lengthAdjust="spacing" text-decoration="underline" textLength="195" x="928" y="578.5434">distancia(Poin, Poin): double</text></g></a><!--class ual.eda2.practica01.Poin--><a href="Poin.html" target="_top" title="Poin.html" xlink:actuate="onRequest" xlink:href="Poin.html" xlink:show="new" xlink:title="Poin.html" xlink:type="simple"><g id="elem_ual.eda2.practica01.Poin"><rect codeLine="45" fill="#F1F1F1" height="130.4414" id="ual.eda2.practica01.Poin" rx="2.5" ry="2.5" style="stroke:#181818;stroke-width:0.5;" width="198" x="168" y="671.23"/><ellipse cx="247.75" cy="687.23" fill="#ADD1B2" rx="11" ry="11" style="stroke:#181818;stroke-width:1.0;"/><path d="M250.2231,693.3731 Q249.6421,693.6719 249.0029,693.8213 Q248.3638,693.9707 247.6582,693.9707 Q245.1514,693.9707 243.8315,692.3189 Q242.5117,690.667 242.5117,687.5459 Q242.5117,684.4165 243.8315,682.7647 Q245.1514,681.1128 247.6582,681.1128 Q248.3638,681.1128 249.0112,681.2622 Q249.6587,681.4116 250.2231,681.7105 L250.2231,684.4331 Q249.5923,683.8521 248.9988,683.5823 Q248.4053,683.3125 247.7744,683.3125 Q246.4297,683.3125 245.7449,684.3792 Q245.0601,685.4458 245.0601,687.5459 Q245.0601,689.6377 245.7449,690.7044 Q246.4297,691.771 247.7744,691.771 Q248.4053,691.771 248.9988,691.5012 Q249.5923,691.2315 250.2231,690.6504 Z " fill="#000000"/><text fill="#000000" font-family="sans-serif" font-size="14" lengthAdjust="spacing" textLength="30" x="268.25" y="692.521">Poin</text><line style="stroke:#181818;stroke-width:0.5;" x1="169" x2="365" y1="703.23" y2="703.23"/><ellipse cx="179" cy="716.9741" fill="none" rx="3" ry="3" style="stroke:#038048;stroke-width:1.0;"/><text fill="#000000" font-family="sans-serif" font-size="14" lengthAdjust="spacing" textLength="66" x="188" y="720.7652">x: Double</text><ellipse cx="179" cy="733.4624" fill="none" rx="3" ry="3" style="stroke:#038048;stroke-width:1.0;"/><text fill="#000000" font-family="sans-serif" font-size="14" lengthAdjust="spacing" textLength="39" x="188" y="737.2534">id: int</text><ellipse cx="179" cy="749.9507" fill="none" rx="3" ry="3" style="stroke:#038048;stroke-width:1.0;"/><text fill="#000000" font-family="sans-serif" font-size="14" lengthAdjust="spacing" textLength="64" x="188" y="753.7417">y: Double</text><line style="stroke:#181818;stroke-width:0.5;" x1="169" x2="365" y1="760.6948" y2="760.6948"/><polygon fill="#4177AF" points="179,770.439,175,776.439,183,776.439" style="stroke:#1963A0;stroke-width:1.0;"/><text fill="#000000" font-family="sans-serif" font-size="14" lengthAdjust="spacing" textLength="172" x="188" y="778.23">Poin(int, Double, Double)</text><ellipse cx="179" cy="790.9273" fill="#84BE84" rx="3" ry="3" style="stroke:#038048;stroke-width:1.0;"/><text fill="#000000" font-family="sans-serif" font-size="14" lengthAdjust="spacing" textLength="114" x="188" y="794.7183">toString(): String</text></g></a><!--class ual.eda2.practica01.ClosestPairDyVImproved--><a href="ClosestPairDyVImproved.html" target="_top" title="ClosestPairDyVImproved.html" xlink:actuate="onRequest" xlink:href="ClosestPairDyVImproved.html" xlink:show="new" xlink:title="ClosestPairDyVImproved.html" xlink:type="simple"><g id="elem_ual.eda2.practica01.ClosestPairDyVImproved"><rect codeLine="53" fill="#F1F1F1" height="146.9297" id="ual.eda2.practica01.ClosestPairDyVImproved" rx="2.5" ry="2.5" style="stroke:#181818;stroke-width:0.5;" width="342" x="1719" y="139.93"/><ellipse cx="1802.25" cy="155.93" fill="#ADD1B2" rx="11" ry="11" style="stroke:#181818;stroke-width:1.0;"/><path d="M1804.7231,162.0731 Q1804.1421,162.3719 1803.5029,162.5213 Q1802.8638,162.6707 1802.1582,162.6707 Q1799.6514,162.6707 1798.3315,161.0189 Q1797.0117,159.367 1797.0117,156.2459 Q1797.0117,153.1165 1798.3315,151.4647 Q1799.6514,149.8128 1802.1582,149.8128 Q1802.8638,149.8128 1803.5112,149.9622 Q1804.1587,150.1116 1804.7231,150.4105 L1804.7231,153.1331 Q1804.0923,152.5521 1803.4988,152.2823 Q1802.9053,152.0125 1802.2744,152.0125 Q1800.9297,152.0125 1800.2449,153.0792 Q1799.5601,154.1458 1799.5601,156.2459 Q1799.5601,158.3377 1800.2449,159.4044 Q1800.9297,160.471 1802.2744,160.471 Q1802.9053,160.471 1803.4988,160.2012 Q1804.0923,159.9315 1804.7231,159.3504 Z " fill="#000000"/><text fill="#000000" font-family="sans-serif" font-size="14" lengthAdjust="spacing" textLength="167" x="1822.75" y="161.221">ClosestPairDyVImproved</text><line style="stroke:#181818;stroke-width:0.5;" x1="1720" x2="2060" y1="171.93" y2="171.93"/><rect fill="none" height="6" style="stroke:#C82930;stroke-width:1.0;" width="6" x="1727" y="182.6741"/><text fill="#000000" font-family="sans-serif" font-size="14" lengthAdjust="spacing" textLength="143" x="1739" y="189.4652">bestDistance: double</text><line style="stroke:#181818;stroke-width:0.5;" x1="1720" x2="2060" y1="196.4183" y2="196.4183"/><ellipse cx="1730" cy="210.1624" fill="#84BE84" rx="3" ry="3" style="stroke:#038048;stroke-width:1.0;"/><text fill="#000000" font-family="sans-serif" font-size="14" lengthAdjust="spacing" text-decoration="underline" textLength="201" x="1739" y="213.9534">distance(Point, Point): double</text><ellipse cx="1730" cy="226.6507" fill="#84BE84" rx="3" ry="3" style="stroke:#038048;stroke-width:1.0;"/><text fill="#000000" font-family="sans-serif" font-size="14" lengthAdjust="spacing" textLength="168" x="1739" y="230.4417">ClosestPair(Point[]): void</text><ellipse cx="1730" cy="243.139" fill="#84BE84" rx="3" ry="3" style="stroke:#038048;stroke-width:1.0;"/><text fill="#000000" font-family="sans-serif" font-size="14" lengthAdjust="spacing" textLength="316" x="1739" y="246.93">closest(Point[], Point[], Point[], int, int): double</text><rect fill="#F24D5C" height="6" style="stroke:#C82930;stroke-width:1.0;" width="6" x="1727" y="256.6273"/><text fill="#000000" font-family="sans-serif" font-size="14" lengthAdjust="spacing" textLength="267" x="1739" y="263.4183">merge(Point[], Point[], int, int, int): void</text><ellipse cx="1730" cy="276.1155" fill="#84BE84" rx="3" ry="3" style="stroke:#038048;stroke-width:1.0;"/><text fill="#000000" font-family="sans-serif" font-size="14" lengthAdjust="spacing" text-decoration="underline" textLength="132" x="1739" y="279.9066">main(String[]): void</text></g></a><!--class ual.eda2.practica01.ClosestPairDyVImproved.Point--><a href="ClosestPairDyVImproved.Point.html" target="_top" title="ClosestPairDyVImproved.Point.html" xlink:actuate="onRequest" xlink:href="ClosestPairDyVImproved.Point.html" xlink:show="new" xlink:title="ClosestPairDyVImproved.Point.html" xlink:type="simple"><g id="elem_ual.eda2.practica01.ClosestPairDyVImproved.Point"><rect codeLine="62" fill="#F1F1F1" height="97.4648" id="ual.eda2.practica01.ClosestPairDyVImproved.Point" rx="2.5" ry="2.5" style="stroke:#181818;stroke-width:0.5;" width="238" x="1203" y="496.28"/><ellipse cx="1218" cy="512.28" fill="#ADD1B2" rx="11" ry="11" style="stroke:#181818;stroke-width:1.0;"/><path d="M1220.4731,518.4231 Q1219.8921,518.7219 1219.2529,518.8713 Q1218.6138,519.0207 1217.9082,519.0207 Q1215.4014,519.0207 1214.0815,517.3689 Q1212.7617,515.717 1212.7617,512.5959 Q1212.7617,509.4665 1214.0815,507.8147 Q1215.4014,506.1628 1217.9082,506.1628 Q1218.6138,506.1628 1219.2612,506.3122 Q1219.9087,506.4616 1220.4731,506.7605 L1220.4731,509.4831 Q1219.8423,508.9021 1219.2488,508.6323 Q1218.6553,508.3625 1218.0244,508.3625 Q1216.6797,508.3625 1215.9949,509.4292 Q1215.3101,510.4958 1215.3101,512.5959 Q1215.3101,514.6877 1215.9949,515.7544 Q1216.6797,516.821 1218.0244,516.821 Q1218.6553,516.821 1219.2488,516.5512 Q1219.8423,516.2815 1220.4731,515.7004 Z " fill="#000000"/><text fill="#000000" font-family="sans-serif" font-size="14" lengthAdjust="spacing" textLength="206" x="1232" y="517.571">ClosestPairDyVImproved.Point</text><line style="stroke:#181818;stroke-width:0.5;" x1="1204" x2="1440" y1="528.28" y2="528.28"/><ellipse cx="1214" cy="542.0241" fill="none" rx="3" ry="3" style="stroke:#038048;stroke-width:1.0;"/><text fill="#000000" font-family="sans-serif" font-size="14" lengthAdjust="spacing" textLength="35" x="1223" y="545.8152">x: int</text><ellipse cx="1214" cy="558.5124" fill="none" rx="3" ry="3" style="stroke:#038048;stroke-width:1.0;"/><text fill="#000000" font-family="sans-serif" font-size="14" lengthAdjust="spacing" textLength="33" x="1223" y="562.3034">y: int</text><line style="stroke:#181818;stroke-width:0.5;" x1="1204" x2="1440" y1="569.2566" y2="569.2566"/><polygon fill="#4177AF" points="1214,579.0007,1210,585.0007,1218,585.0007" style="stroke:#1963A0;stroke-width:1.0;"/><text fill="#000000" font-family="sans-serif" font-size="14" lengthAdjust="spacing" textLength="89" x="1223" y="586.7917">Point(int, int)</text></g></a><!--class ual.eda2.practica01.ClosestPairDyVImproved.PointXComparator--><a href="ClosestPairDyVImproved.PointXComparator.html" target="_top" title="ClosestPairDyVImproved.PointXComparator.html" xlink:actuate="onRequest" xlink:href="ClosestPairDyVImproved.PointXComparator.html" xlink:show="new" xlink:title="ClosestPairDyVImproved.PointXComparator.html" xlink:type="simple"><g id="elem_ual.eda2.practica01.ClosestPairDyVImproved.PointXComparator"><rect codeLine="68" fill="#F1F1F1" height="64.4883" id="ual.eda2.practica01.ClosestPairDyVImproved.PointXComparator" rx="2.5" ry="2.5" style="stroke:#181818;stroke-width:0.5;" width="330" x="1476" y="512.76"/><ellipse cx="1491" cy="528.76" fill="#ADD1B2" rx="11" ry="11" style="stroke:#181818;stroke-width:1.0;"/><path d="M1493.4731,534.9031 Q1492.8921,535.2019 1492.2529,535.3513 Q1491.6138,535.5007 1490.9082,535.5007 Q1488.4014,535.5007 1487.0815,533.8489 Q1485.7617,532.197 1485.7617,529.0759 Q1485.7617,525.9465 1487.0815,524.2947 Q1488.4014,522.6428 1490.9082,522.6428 Q1491.6138,522.6428 1492.2612,522.7922 Q1492.9087,522.9416 1493.4731,523.2405 L1493.4731,525.9631 Q1492.8423,525.3821 1492.2488,525.1123 Q1491.6553,524.8425 1491.0244,524.8425 Q1489.6797,524.8425 1488.9949,525.9092 Q1488.3101,526.9758 1488.3101,529.0759 Q1488.3101,531.1677 1488.9949,532.2344 Q1489.6797,533.301 1491.0244,533.301 Q1491.6553,533.301 1492.2488,533.0312 Q1492.8423,532.7615 1493.4731,532.1804 Z " fill="#000000"/><text fill="#000000" font-family="sans-serif" font-size="14" lengthAdjust="spacing" textLength="298" x="1505" y="534.051">ClosestPairDyVImproved.PointXComparator</text><line style="stroke:#181818;stroke-width:0.5;" x1="1477" x2="1805" y1="544.76" y2="544.76"/><line style="stroke:#181818;stroke-width:0.5;" x1="1477" x2="1805" y1="552.76" y2="552.76"/><ellipse cx="1487" cy="566.5041" fill="#84BE84" rx="3" ry="3" style="stroke:#038048;stroke-width:1.0;"/><text fill="#000000" font-family="sans-serif" font-size="14" lengthAdjust="spacing" textLength="174" x="1496" y="570.2952">compare(Point, Point): int</text></g></a><!--class ual.eda2.practica01.ClosestPairDyVImproved.PointYComparator--><a href="ClosestPairDyVImproved.PointYComparator.html" target="_top" title="ClosestPairDyVImproved.PointYComparator.html" xlink:actuate="onRequest" xlink:href="ClosestPairDyVImproved.PointYComparator.html" xlink:show="new" xlink:title="ClosestPairDyVImproved.PointYComparator.html" xlink:type="simple"><g id="elem_ual.eda2.practica01.ClosestPairDyVImproved.PointYComparator"><rect codeLine="72" fill="#F1F1F1" height="64.4883" id="ual.eda2.practica01.ClosestPairDyVImproved.PointYComparator" rx="2.5" ry="2.5" style="stroke:#181818;stroke-width:0.5;" width="330" x="1841" y="512.76"/><ellipse cx="1856" cy="528.76" fill="#ADD1B2" rx="11" ry="11" style="stroke:#181818;stroke-width:1.0;"/><path d="M1858.4731,534.9031 Q1857.8921,535.2019 1857.2529,535.3513 Q1856.6138,535.5007 1855.9082,535.5007 Q1853.4014,535.5007 1852.0815,533.8489 Q1850.7617,532.197 1850.7617,529.0759 Q1850.7617,525.9465 1852.0815,524.2947 Q1853.4014,522.6428 1855.9082,522.6428 Q1856.6138,522.6428 1857.2612,522.7922 Q1857.9087,522.9416 1858.4731,523.2405 L1858.4731,525.9631 Q1857.8423,525.3821 1857.2488,525.1123 Q1856.6553,524.8425 1856.0244,524.8425 Q1854.6797,524.8425 1853.9949,525.9092 Q1853.3101,526.9758 1853.3101,529.0759 Q1853.3101,531.1677 1853.9949,532.2344 Q1854.6797,533.301 1856.0244,533.301 Q1856.6553,533.301 1857.2488,533.0312 Q1857.8423,532.7615 1858.4731,532.1804 Z " fill="#000000"/><text fill="#000000" font-family="sans-serif" font-size="14" lengthAdjust="spacing" textLength="298" x="1870" y="534.051">ClosestPairDyVImproved.PointYComparator</text><line style="stroke:#181818;stroke-width:0.5;" x1="1842" x2="2170" y1="544.76" y2="544.76"/><line style="stroke:#181818;stroke-width:0.5;" x1="1842" x2="2170" y1="552.76" y2="552.76"/><ellipse cx="1852" cy="566.5041" fill="#84BE84" rx="3" ry="3" style="stroke:#038048;stroke-width:1.0;"/><text fill="#000000" font-family="sans-serif" font-size="14" lengthAdjust="spacing" textLength="174" x="1861" y="570.2952">compare(Point, Point): int</text></g></a><!--class java.util.Comparator--><g id="elem_java.util.Comparator"><rect codeLine="85" fill="#F1F1F1" height="344.7891" id="java.util.Comparator" rx="2.5" ry="2.5" style="stroke:#181818;stroke-width:0.5;" width="673" x="2226.5" y="41"/><ellipse cx="2511.25" cy="57" fill="#B4A7E5" rx="11" ry="11" style="stroke:#181818;stroke-width:1.0;"/><path d="M2507.6777,53.2651 L2507.6777,51.1069 L2515.0571,51.1069 L2515.0571,53.2651 L2512.5918,53.2651 L2512.5918,61.3418 L2515.0571,61.3418 L2515.0571,63.5 L2507.6777,63.5 L2507.6777,61.3418 L2510.1431,61.3418 L2510.1431,53.2651 Z " fill="#000000"/><text fill="#000000" font-family="sans-serif" font-size="14" font-style="italic" lengthAdjust="spacing" textLength="83" x="2531.75" y="62.291">Comparator</text><rect fill="#FFFFFF" height="16.1328" style="stroke:#181818;stroke-width:1.0;stroke-dasharray:2.0,2.0;" width="10" x="2892.5" y="38"/><text fill="#000000" font-family="sans-serif" font-size="12" font-style="italic" lengthAdjust="spacing" textLength="8" x="2893.5" y="50.6016">T</text><line style="stroke:#181818;stroke-width:0.5;" x1="2227.5" x2="2898.5" y1="73" y2="73"/><line style="stroke:#181818;stroke-width:0.5;" x1="2227.5" x2="2898.5" y1="81" y2="81"/><ellipse cx="2237.5" cy="94.7441" fill="#84BE84" rx="3" ry="3" style="stroke:#038048;stroke-width:1.0;"/><text fill="#000000" font-family="sans-serif" font-size="14" font-style="italic" lengthAdjust="spacing" textLength="122" x="2246.5" y="98.5352">compare(T, T): int</text><ellipse cx="2237.5" cy="111.2324" fill="#84BE84" rx="3" ry="3" style="stroke:#038048;stroke-width:1.0;"/><text fill="#000000" font-family="sans-serif" font-size="14" font-style="italic" lengthAdjust="spacing" textLength="163" x="2246.5" y="115.0234">equals(Object): boolean</text><ellipse cx="2237.5" cy="127.7207" fill="#84BE84" rx="3" ry="3" style="stroke:#038048;stroke-width:1.0;"/><text fill="#000000" font-family="sans-serif" font-size="14" lengthAdjust="spacing" textLength="191" x="2246.5" y="131.5117">reversed(): Comparator&lt;T&gt;</text><ellipse cx="2237.5" cy="144.209" fill="#84BE84" rx="3" ry="3" style="stroke:#038048;stroke-width:1.0;"/><text fill="#000000" font-family="sans-serif" font-size="14" lengthAdjust="spacing" textLength="407" x="2246.5" y="148">thenComparing(Comparator&lt;? super T&gt;): Comparator&lt;T&gt;</text><ellipse cx="2237.5" cy="160.6973" fill="#84BE84" rx="3" ry="3" style="stroke:#038048;stroke-width:1.0;"/><text fill="#000000" font-family="sans-serif" font-size="14" lengthAdjust="spacing" textLength="647" x="2246.5" y="164.4883">thenComparing(Function&lt;? super T, ? extends U&gt;, Comparator&lt;? super U&gt;): Comparator&lt;T&gt;</text><ellipse cx="2237.5" cy="177.1855" fill="#84BE84" rx="3" ry="3" style="stroke:#038048;stroke-width:1.0;"/><text fill="#000000" font-family="sans-serif" font-size="14" lengthAdjust="spacing" textLength="630" x="2246.5" y="180.9766">thenComparing(Function&lt;? super T, ? extends Comparable&lt;? super U&gt;&gt;): Comparator&lt;T&gt;</text><ellipse cx="2237.5" cy="193.6738" fill="#84BE84" rx="3" ry="3" style="stroke:#038048;stroke-width:1.0;"/><text fill="#000000" font-family="sans-serif" font-size="14" lengthAdjust="spacing" textLength="438" x="2246.5" y="197.4648">thenComparingInt(ToIntFunction&lt;? super T&gt;): Comparator&lt;T&gt;</text><ellipse cx="2237.5" cy="210.1621" fill="#84BE84" rx="3" ry="3" style="stroke:#038048;stroke-width:1.0;"/><text fill="#000000" font-family="sans-serif" font-size="14" lengthAdjust="spacing" textLength="470" x="2246.5" y="213.9531">thenComparingLong(ToLongFunction&lt;? super T&gt;): Comparator&lt;T&gt;</text><ellipse cx="2237.5" cy="226.6504" fill="#84BE84" rx="3" ry="3" style="stroke:#038048;stroke-width:1.0;"/><text fill="#000000" font-family="sans-serif" font-size="14" lengthAdjust="spacing" textLength="500" x="2246.5" y="230.4414">thenComparingDouble(ToDoubleFunction&lt;? super T&gt;): Comparator&lt;T&gt;</text><ellipse cx="2237.5" cy="243.1387" fill="#84BE84" rx="3" ry="3" style="stroke:#038048;stroke-width:1.0;"/><text fill="#000000" font-family="sans-serif" font-size="14" lengthAdjust="spacing" text-decoration="underline" textLength="453" x="2246.5" y="246.9297">reverseOrder(): Comparator&lt;T extends Comparable&lt;? super T&gt;&gt;</text><ellipse cx="2237.5" cy="259.627" fill="#84BE84" rx="3" ry="3" style="stroke:#038048;stroke-width:1.0;"/><text fill="#000000" font-family="sans-serif" font-size="14" lengthAdjust="spacing" text-decoration="underline" textLength="452" x="2246.5" y="263.418">naturalOrder(): Comparator&lt;T extends Comparable&lt;? super T&gt;&gt;</text><ellipse cx="2237.5" cy="276.1152" fill="#84BE84" rx="3" ry="3" style="stroke:#038048;stroke-width:1.0;"/><text fill="#000000" font-family="sans-serif" font-size="14" lengthAdjust="spacing" text-decoration="underline" textLength="362" x="2246.5" y="279.9063">nullsFirst(Comparator&lt;? super T&gt;): Comparator&lt;T&gt;</text><ellipse cx="2237.5" cy="292.6035" fill="#84BE84" rx="3" ry="3" style="stroke:#038048;stroke-width:1.0;"/><text fill="#000000" font-family="sans-serif" font-size="14" lengthAdjust="spacing" text-decoration="underline" textLength="359" x="2246.5" y="296.3945">nullsLast(Comparator&lt;? super T&gt;): Comparator&lt;T&gt;</text><ellipse cx="2237.5" cy="309.0918" fill="#84BE84" rx="3" ry="3" style="stroke:#038048;stroke-width:1.0;"/><text fill="#000000" font-family="sans-serif" font-size="14" lengthAdjust="spacing" text-decoration="underline" textLength="613" x="2246.5" y="312.8828">comparing(Function&lt;? super T, ? extends U&gt;, Comparator&lt;? super U&gt;): Comparator&lt;T&gt;</text><ellipse cx="2237.5" cy="325.5801" fill="#84BE84" rx="3" ry="3" style="stroke:#038048;stroke-width:1.0;"/><text fill="#000000" font-family="sans-serif" font-size="14" lengthAdjust="spacing" text-decoration="underline" textLength="596" x="2246.5" y="329.3711">comparing(Function&lt;? super T, ? extends Comparable&lt;? super U&gt;&gt;): Comparator&lt;T&gt;</text><ellipse cx="2237.5" cy="342.0684" fill="#84BE84" rx="3" ry="3" style="stroke:#038048;stroke-width:1.0;"/><text fill="#000000" font-family="sans-serif" font-size="14" lengthAdjust="spacing" text-decoration="underline" textLength="404" x="2246.5" y="345.8594">comparingInt(ToIntFunction&lt;? super T&gt;): Comparator&lt;T&gt;</text><ellipse cx="2237.5" cy="358.5566" fill="#84BE84" rx="3" ry="3" style="stroke:#038048;stroke-width:1.0;"/><text fill="#000000" font-family="sans-serif" font-size="14" lengthAdjust="spacing" text-decoration="underline" textLength="436" x="2246.5" y="362.3477">comparingLong(ToLongFunction&lt;? super T&gt;): Comparator&lt;T&gt;</text><ellipse cx="2237.5" cy="375.0449" fill="#84BE84" rx="3" ry="3" style="stroke:#038048;stroke-width:1.0;"/><text fill="#000000" font-family="sans-serif" font-size="14" lengthAdjust="spacing" text-decoration="underline" textLength="466" x="2246.5" y="378.8359">comparingDouble(ToDoubleFunction&lt;? super T&gt;): Comparator&lt;T&gt;</text></g><!--link ual.eda2.practica01.ClosestPairDyVImproved to ual.eda2.practica01.ClosestPairDyVImproved.Point--><g id="link_ual.eda2.practica01.ClosestPairDyVImproved_ual.eda2.practica01.ClosestPairDyVImproved.Point"><path codeLine="76" d="M1841.6,287.16 C1808.06,330.98 1759.24,383.27 1702,409.79 C1676.34,421.67 1602.31,410.44 1575,417.79 C1514.64,434.03 1451.73,465.34 1403.74,492.72 " fill="none" id="ual.eda2.practica01.ClosestPairDyVImproved-to-ual.eda2.practica01.ClosestPairDyVImproved.Point" style="stroke:#181818;stroke-width:1.0;"/><polygon fill="#181818" points="1399.57,495.11,1409.3655,494.0865,1403.9033,492.6155,1405.3743,487.1533,1399.57,495.11" style="stroke:#181818;stroke-width:1.0;"/><text fill="#000000" font-family="sans-serif" font-size="13" lengthAdjust="spacing" textLength="35" x="1576" y="431.3584">best1</text><text fill="#000000" font-family="sans-serif" font-size="13" lengthAdjust="spacing" textLength="35" x="1576" y="446.6689">best2</text></g><!--reverse link ual.eda2.practica01.ClosestPairDyVImproved to ual.eda2.practica01.ClosestPairDyVImproved.Point--><g id="link_ual.eda2.practica01.ClosestPairDyVImproved_ual.eda2.practica01.ClosestPairDyVImproved.Point"><path codeLine="77" d="M1820.65,299.61 C1787.48,336.7 1745.54,378.7 1702,409.79 C1610.53,475.09 1565.91,445.12 1459,479.79 C1445.13,484.28 1430.84,489.85 1416.95,495.81 " fill="none" id="ual.eda2.practica01.ClosestPairDyVImproved-backto-ual.eda2.practica01.ClosestPairDyVImproved.Point" style="stroke:#181818;stroke-width:1.0;"/><ellipse cx="1825.2588" cy="294.3803" fill="#FFFFFF" rx="8" ry="8" style="stroke:#181818;stroke-width:1.0;"/><line style="stroke:#181818;stroke-width:1.0;" x1="1819.9676" x2="1830.55" y1="300.3805" y2="288.38"/><line style="stroke:#181818;stroke-width:1.0;" x1="1819.2585" x2="1831.2591" y1="289.0891" y2="299.6715"/></g><!--reverse link java.util.Comparator to ual.eda2.practica01.ClosestPairDyVImproved.PointXComparator--><g id="link_java.util.Comparator_ual.eda2.practica01.ClosestPairDyVImproved.PointXComparator"><path codeLine="78" d="M2228.52,394.24 C2214.63,399.79 2200.75,405 2187,409.79 C2031.82,463.79 1982.61,436.91 1824,479.79 C1790.52,488.84 1754.36,501 1723.09,512.31 " fill="none" id="java.util.Comparator-backto-ual.eda2.practica01.ClosestPairDyVImproved.PointXComparator" style="stroke:#181818;stroke-width:1.0;stroke-dasharray:7.0,7.0;"/><polygon fill="none" points="2225.61,387.87,2246.77,386.76,2230.92,400.82,2225.61,387.87" style="stroke:#181818;stroke-width:1.0;"/></g><!--reverse link ual.eda2.practica01.ClosestPairDyVImproved to ual.eda2.practica01.ClosestPairDyVImproved.PointXComparator--><g id="link_ual.eda2.practica01.ClosestPairDyVImproved_ual.eda2.practica01.ClosestPairDyVImproved.PointXComparator"><path codeLine="79" d="M1825.14,300.26 C1772.61,369.79 1701.54,463.87 1664.96,512.3 " fill="none" id="ual.eda2.practica01.ClosestPairDyVImproved-backto-ual.eda2.practica01.ClosestPairDyVImproved.PointXComparator" style="stroke:#181818;stroke-width:1.0;"/><ellipse cx="1829.3181" cy="294.7235" fill="#FFFFFF" rx="8" ry="8" style="stroke:#181818;stroke-width:1.0;"/><line style="stroke:#181818;stroke-width:1.0;" x1="1824.4962" x2="1834.14" y1="301.107" y2="288.34"/><line style="stroke:#181818;stroke-width:1.0;" x1="1822.9346" x2="1835.7016" y1="289.9016" y2="299.5454"/></g><!--reverse link java.util.Comparator to ual.eda2.practica01.ClosestPairDyVImproved.PointYComparator--><g id="link_java.util.Comparator_ual.eda2.practica01.ClosestPairDyVImproved.PointYComparator"><path codeLine="80" d="M2328.11,398.04 C2300.42,416.56 2272.03,434.24 2244,449.79 C2199.31,474.57 2146.74,496.1 2102.39,512.3 " fill="none" id="java.util.Comparator-backto-ual.eda2.practica01.ClosestPairDyVImproved.PointYComparator" style="stroke:#181818;stroke-width:1.0;stroke-dasharray:7.0,7.0;"/><polygon fill="none" points="2323.99,392.38,2344.46,386.94,2331.85,403.96,2323.99,392.38" style="stroke:#181818;stroke-width:1.0;"/></g><!--reverse link ual.eda2.practica01.ClosestPairDyVImproved to ual.eda2.practica01.ClosestPairDyVImproved.PointYComparator--><g id="link_ual.eda2.practica01.ClosestPairDyVImproved_ual.eda2.practica01.ClosestPairDyVImproved.PointYComparator"><path codeLine="81" d="M1920.98,302.43 C1945.37,371.74 1977.97,464.37 1994.84,512.3 " fill="none" id="ual.eda2.practica01.ClosestPairDyVImproved-backto-ual.eda2.practica01.ClosestPairDyVImproved.PointYComparator" style="stroke:#181818;stroke-width:1.0;"/><ellipse cx="1918.7598" cy="296.1049" fill="#FFFFFF" rx="8" ry="8" style="stroke:#181818;stroke-width:1.0;"/><line style="stroke:#181818;stroke-width:1.0;" x1="1921.4195" x2="1916.1" y1="303.6498" y2="288.56"/><line style="stroke:#181818;stroke-width:1.0;" x1="1911.2149" x2="1926.3047" y1="298.7647" y2="293.4451"/></g><text fill="#888888" font-family="sans-serif" font-size="10" lengthAdjust="spacing" textLength="182" x="1363" y="833.338">UMLDoclet 2.1.0, PlantUML 1.2022.14</text><!--SRC=[xLTBJ-Cm4BxpAtnPALNRYESUAbIqQXS9gGYa3IigbeER3E0gjOljL20eltt7IQ5vEBGXXHCzn9Ozyyqt3zjJGWZXT09gIdqW4GrT2EYkEvNKryodsplaQMkBB7v-I9KYvrIUKjK3wLCk-ez_Vuz_agihowfxfoVXzJKYaDJlIMcAq7Fouel9b4gux91UFADQoCDpmNZtVONXkWhDWE6K-umwHgf5pBVH8O68HY6Kw4mpZh0P2u3oe2VuVGJI-IKbVHmWR69t1LYx4bYB51OOr_6dQ6U-EYtxrhJiVwUbQbfgPM7FceMzxonyQHOEh5au-Cx2LsNXH0C6Wyt4AOo5f8789wGWi28tJPPNgEZvcg5VqwrITzPsuwleevWXYuETMlEXG_f5mqqMT4pYiukFLjaNW-x4fPBilewDhBOMVxHa_DP1ticid7Sl50gKFgTCujazcKobc460djWtxBwrHoZPJm87wyKNul3g9BxQdfHcYaCYVdMDaZF1WgoSdyYzoYn0CvFo0nOxC05v2qwvsgjkmVRIiGd5v2JXBj8inDtI4xeb8O_9b6SatYwlELjjvTVYmjBEcv-RetsvlAzNU92IB75cyGZa2oVjJ6s-mxNv3ZVCj-GWjjlToavqY3cFE_-u6NPNMMYssvKjl66EwOowaMQXcmhSuRFhrgcKps1iWzyS-U7dai_3Byfc-G_ppPDK3Q8Uo1kpc-gPl6x-nQGZfGsB-R9WlHRn6iLR8YqAz-Y3Siv6O_1DKO-42B71oHu02JEG2WBp3cKuv9whE-39jdcpKe97H4LJaCJhLW4uZZZ6LF2bUeiS4NZGm0D5Bh3PifYusA291Go-CIduAlWdU1Tx0hz5ErLW1WAfUi8CzO2I9WEXaabLiEKJkIY8CnbW3vpJUIzyNhSCaLCTIHfk4Z4AGtNC9BOJrKin1pEWDL7yJwtgwdO-KDeM8n-kRmjMZIAteDMez7dwPlR1NBxaHWWpN9mE-i8FGPDTTyVTnbOWf5pZAlbXpWCQS1h_0G00]--></g></svg>