<?xml version="1.0" encoding="UTF-8" standalone="no"?><svg xmlns="http://www.w3.org/2000/svg" xmlns:xlink="http://www.w3.org/1999/xlink" contentStyleType="text/css" height="259px" preserveAspectRatio="none" style="width:250px;height:259px;background:#FFFFFF;" version="1.1" viewBox="0 0 250 259" width="250px" zoomAndPan="magnify"><defs/><g><!--class ual.eda2.practica02.DijkstraEj7Test--><a href="DijkstraEj7Test.html" target="_top" title="DijkstraEj7Test.html" xlink:actuate="onRequest" xlink:href="DijkstraEj7Test.html" xlink:show="new" xlink:title="DijkstraEj7Test.html" xlink:type="simple"><g id="elem_ual.eda2.practica02.DijkstraEj7Test"><rect codeLine="5" fill="#F1F1F1" height="128.707" id="ual.eda2.practica02.DijkstraEj7Test" rx="2.5" ry="2.5" style="stroke:#181818;stroke-width:0.5;" width="234" x="9" y="105.26"/><ellipse cx="70.75" cy="124.3928" fill="#ADD1B2" rx="11" ry="11" style="stroke:#181818;stroke-width:1.0;"/><path d="M73.2231,130.5359 Q72.6421,130.8347 72.0029,130.9841 Q71.3638,131.1335 70.6582,131.1335 Q68.1514,131.1335 66.8315,129.4817 Q65.5117,127.8298 65.5117,124.7087 Q65.5117,121.5793 66.8315,119.9275 Q68.1514,118.2756 70.6582,118.2756 Q71.3638,118.2756 72.0112,118.425 Q72.6587,118.5745 73.2231,118.8733 L73.2231,121.5959 Q72.5923,121.0149 71.9988,120.7451 Q71.4053,120.4753 70.7744,120.4753 Q69.4297,120.4753 68.7449,121.542 Q68.0601,122.6086 68.0601,124.7087 Q68.0601,126.8005 68.7449,127.8672 Q69.4297,128.9338 70.7744,128.9338 Q71.4053,128.9338 71.9988,128.6641 Q72.5923,128.3943 73.2231,127.8132 Z " fill="#000000"/><text fill="#000000" font-family="sans-serif" font-size="14" lengthAdjust="spacing" textLength="102" x="91.25" y="123.7952">DijkstraEj7Test</text><text fill="#000000" font-family="sans-serif" font-size="10" lengthAdjust="spacing" textLength="96" x="94.25" y="136.4163">ual.eda2.practica02</text><line style="stroke:#181818;stroke-width:0.5;" x1="10" x2="242" y1="143.5256" y2="143.5256"/><polygon fill="#4177AF" points="20,153.2698,16,159.2698,24,159.2698" style="stroke:#1963A0;stroke-width:1.0;"/><text fill="#000000" font-family="sans-serif" font-size="14" lengthAdjust="spacing" textLength="160" x="29" y="161.0608">testSimpleGraph(): void</text><polygon fill="#4177AF" points="20,169.758,16,175.758,24,175.758" style="stroke:#1963A0;stroke-width:1.0;"/><text fill="#000000" font-family="sans-serif" font-size="14" lengthAdjust="spacing" textLength="206" x="29" y="177.5491">testDisconnectedGraph(): void</text><polygon fill="#4177AF" points="20,186.2463,16,192.2463,24,192.2463" style="stroke:#1963A0;stroke-width:1.0;"/><text fill="#000000" font-family="sans-serif" font-size="14" lengthAdjust="spacing" textLength="187" x="29" y="194.0373">testGraphWithCycles(): void</text><polygon fill="#4177AF" points="20,202.7346,16,208.7346,24,208.7346" style="stroke:#1963A0;stroke-width:1.0;"/><text fill="#000000" font-family="sans-serif" font-size="14" lengthAdjust="spacing" textLength="208" x="29" y="210.5256">testPerformanceMetrics(): void</text><polygon fill="#4177AF" points="20,219.2229,16,225.2229,24,225.2229" style="stroke:#1963A0;stroke-width:1.0;"/><text fill="#000000" font-family="sans-serif" font-size="14" lengthAdjust="spacing" textLength="121" x="29" y="227.0139">testNoPath(): void</text></g></a><!--class java.lang.Object--><g id="elem_java.lang.Object"><rect codeLine="13" fill="#F1F1F1" height="38.2656" id="java.lang.Object" rx="2.5" ry="2.5" style="stroke:#181818;stroke-width:0.5;" width="76" x="88" y="7"/><ellipse cx="103" cy="26.1328" fill="#ADD1B2" rx="11" ry="11" style="stroke:#181818;stroke-width:1.0;"/><path d="M105.4731,32.2759 Q104.8921,32.5747 104.2529,32.7241 Q103.6138,32.8735 102.9082,32.8735 Q100.4014,32.8735 99.0815,31.2217 Q97.7617,29.5698 97.7617,26.4487 Q97.7617,23.3193 99.0815,21.6675 Q100.4014,20.0156 102.9082,20.0156 Q103.6138,20.0156 104.2612,20.165 Q104.9087,20.3145 105.4731,20.6133 L105.4731,23.3359 Q104.8423,22.7549 104.2488,22.4851 Q103.6553,22.2153 103.0244,22.2153 Q101.6797,22.2153 100.9949,23.282 Q100.3101,24.3486 100.3101,26.4487 Q100.3101,28.5405 100.9949,29.6072 Q101.6797,30.6738 103.0244,30.6738 Q103.6553,30.6738 104.2488,30.4041 Q104.8423,30.1343 105.4731,29.5532 Z " fill="#000000"/><text fill="#000000" font-family="sans-serif" font-size="14" lengthAdjust="spacing" textLength="44" x="117" y="25.5352">Object</text><text fill="#000000" font-family="sans-serif" font-size="10" lengthAdjust="spacing" textLength="44" x="117" y="38.1563">java.lang</text></g><!--reverse link java.lang.Object to ual.eda2.practica02.DijkstraEj7Test--><g id="link_java.lang.Object_ual.eda2.practica02.DijkstraEj7Test"><path codeLine="15" d="M126,66.75 C126,78.61 126,91.92 126,104.91 " fill="none" id="java.lang.Object-backto-ual.eda2.practica02.DijkstraEj7Test" style="stroke:#181818;stroke-width:1.0;"/><polygon fill="none" points="119,67.14,126,47.14,133,67.14,119,67.14" style="stroke:#181818;stroke-width:1.0;"/></g><text fill="#888888" font-family="sans-serif" font-size="10" lengthAdjust="spacing" textLength="182" x="27" y="249.635">UMLDoclet 2.1.0, PlantUML 1.2022.14</text><!--SRC=[ZP1VIyCm5CNV_HINWR212rqHX37sOiKNfuKfFimzNDDRcvec9RaMvh_FRjODSQMAUGdvdSEz9mS0m1E3mOfyZPAMLAD3jWwCDNGKP2XKHa1LpHl85UdCTsb5NDY0MourUW-3cLUlD9sSpXDLFdjsU56UtPBd1xDNelaBQa4Png9sA5b9ZE81e8SUBZfJOBNg455mfTThU6j3RCyd1xnKLQtfqc5T34TJQApA3Ws9yj8QGv8f-yFMIlUAY_EDrEJxJIcvtBeAZQG5iLFo5z-rJP4F5ttqbtVpM8PaFpehiK6XqJorJNs_nCwu6zAbC7iVZ__JwZu36IO7kRNRwsvnbTZmPOPOJ4Hq0ccOp872SKFEAsk6eoy0]--></g></svg>